<svg xmlns="http://www.w3.org/2000/svg" xmlns:xlink="http://www.w3.org/1999/xlink" width="436.931" height="316.443" viewBox="0 0 436.931 316.443">
  <defs>
    <clipPath id="clip-path">
      <path id="Path_28" data-name="Path 28" d="M406.449,128.723H722.893V445.166H406.449Zm0,0" transform="translate(-406.449 -128.723)"/>
    </clipPath>
    <clipPath id="clip-path-2">
      <path id="Path_34" data-name="Path 34" d="M444.082,166.355H477.69v33.608H444.082Zm0,0" transform="translate(-444.082 -166.355)"/>
    </clipPath>
    <clipPath id="clip-path-3">
      <path id="Path_33" data-name="Path 33" d="M460.879,166.355a16.8,16.8,0,1,0,16.812,16.812A16.8,16.8,0,0,0,460.879,166.355Zm0,0" transform="translate(-444.082 -166.355)"/>
    </clipPath>
  </defs>
  <g id="Group_4584" data-name="Group 4584" transform="translate(-117.532 -223.556)">
    <g id="Group_14" data-name="Group 14" transform="translate(191.489 223.556)" clip-path="url(#clip-path)">
      <path id="Path_27" data-name="Path 27" d="M710.346,225.3a158,158,0,1,0,12.546,61.559A156.995,156.995,0,0,0,710.346,225.3Zm-1.818,122.415A156.818,156.818,0,1,1,720.8,286.9,155.814,155.814,0,0,1,708.529,347.713ZM664.133,187.4a140.194,140.194,0,1,0,30.135,44.718A140.35,140.35,0,0,0,664.133,187.4Zm28.3,153.5a139.853,139.853,0,1,1,10.831-54.04A137.845,137.845,0,0,1,692.435,340.9ZM651.792,199.722A122.821,122.821,0,0,0,564.612,163.7a123.239,123.239,0,1,0,87.179,210.386,122.915,122.915,0,0,0,36.041-87.18,122.915,122.915,0,0,0-36.041-87.18Zm24.565,134.419A121.68,121.68,0,0,1,650.4,372.689a121.5,121.5,0,0,1-133.026,25.957,121.924,121.924,0,0,1-38.548-25.957,121.529,121.529,0,0,1-25.943-133.026,121.88,121.88,0,0,1,25.943-38.548,121.529,121.529,0,0,1,133.026-25.943A121.88,121.88,0,0,1,650.4,201.114a119.132,119.132,0,0,1,25.958,38.548A120.492,120.492,0,0,1,685.9,286.9,122.567,122.567,0,0,1,676.357,334.141Zm-36.95-122.034A106.109,106.109,0,0,0,605.8,189.433a105.682,105.682,0,0,0-115.98,22.674,106.668,106.668,0,0,0-22.674,33.623A105.637,105.637,0,0,0,489.818,361.7a106.051,106.051,0,0,0,33.623,22.689A105.775,105.775,0,0,0,639.407,212.107Zm20.813,115.218A103.158,103.158,0,0,1,637.97,360.3a104.205,104.205,0,0,1-32.978,22.249A103.806,103.806,0,0,1,491.166,213.5,103.845,103.845,0,0,1,660.219,327.325ZM627.08,224.434a88.562,88.562,0,0,0-96.838-18.922,89.024,89.024,0,0,0-28.083,18.922,88.538,88.538,0,0,0-18.937,96.838,88.884,88.884,0,0,0,18.937,28.1,88.538,88.538,0,0,0,96.824,18.922,88.842,88.842,0,0,0,28.1-18.922A88.037,88.037,0,0,0,652.92,286.9a88.037,88.037,0,0,0-25.84-62.468Zm17.046,96.091a86.152,86.152,0,0,1-79.558,52.706A86.318,86.318,0,0,1,485,320.524a85.632,85.632,0,0,1-6.757-33.623A86.617,86.617,0,0,1,485,253.293a86.152,86.152,0,0,1,79.573-52.706,86.616,86.616,0,0,1,33.608,6.757A86.153,86.153,0,0,1,650.883,286.9,84.552,84.552,0,0,1,644.126,320.524Zm-79.514-104.5a70.834,70.834,0,1,0,50.141,20.754A70.362,70.362,0,0,0,564.612,216.02ZM613.3,335.592a68.877,68.877,0,1,1,20.153-48.69A68.474,68.474,0,0,1,613.3,335.592Zm-48.69-102.086a53.445,53.445,0,1,0,37.756,15.654A53.031,53.031,0,0,0,564.612,233.506Zm36.364,89.745A51.414,51.414,0,1,1,616.029,286.9,51.088,51.088,0,0,1,600.976,323.251Zm-36.364-72.273a35.88,35.88,0,1,0,25.415,10.509A35.869,35.869,0,0,0,564.612,250.977Zm23.964,59.888A33.9,33.9,0,1,1,598.5,286.9,33.631,33.631,0,0,1,588.576,310.866Zm-23.964-42.4A18.446,18.446,0,1,0,583.065,286.9,18.472,18.472,0,0,0,564.612,268.463Zm0,34.9a16.46,16.46,0,1,1,16.46-16.46A16.5,16.5,0,0,1,564.612,303.361Zm0,0" transform="translate(-406.449 -128.68)" fill="#1d1d1b"/>
    </g>
    <path id="Path_29" data-name="Path 29" d="M406.449,170.469H409.2v2.755h-2.755m5.5-2.755H414.7v2.755h-2.755m5.511-2.755h2.755v2.755h-2.755m5.5-2.755h2.756v2.755h-2.756m5.511-2.755H431.2v2.755h-2.741m5.5-2.755h2.755v2.755H433.96m5.511-2.755h2.741v2.755h-2.741m5.5-2.755h2.755v2.755h-2.755m5.511-2.755h2.741v2.755h-2.741m5.5-2.755h2.755v2.755h-2.755m5.511-2.755h2.741v2.755h-2.741m5.5-2.755h2.755v2.755h-2.755m5.511-2.755h2.741v2.755h-2.741m5.5-2.755h2.755v2.755H477.99m5.511-2.755h2.741v2.755H483.5m5.5-2.755h2.755v2.755H489m5.511-2.755h2.741v2.755h-2.741m5.5-2.755h2.755v2.755H500m5.511-2.755h2.741v2.755h-2.741m5.5-2.755h2.755v2.755h-2.755m5.5-2.755h2.755v2.755h-2.755m5.511-2.755h2.755v2.755h-2.755m5.5-2.755h2.755v2.755h-2.755m5.511-2.755h2.755v2.755h-2.755m5.5-2.755h2.755v2.755h-2.755m5.511-2.755h2.755v2.755h-2.755m5.5-2.755h2.755v2.755H549.53m5.511-2.755H557.8v2.755h-2.755m5.5-2.755h2.755v2.755h-2.755m5.511-2.755H568.8v2.755h-2.756m5.5-2.755H574.3v2.755h-2.755m5.511-2.755h2.755v2.755h-2.755m5.5-2.755h2.755v2.755h-2.755m5.511-2.755h2.755v2.755h-2.755m5.5-2.755h2.755v2.755H593.56m5.511-2.755h2.741v2.755h-2.741m5.5-2.755h2.756v2.755h-2.756m5.511-2.755h2.741v2.755h-2.741m5.5-2.755h2.755v2.755h-2.755m5.511-2.755h2.741v2.755h-2.741m5.5-2.755h2.755v2.755h-2.755m5.511-2.755h2.741v2.755h-2.741m5.5-2.755h2.755v2.755h-2.755m5.511-2.755h2.741v2.755H643.1m5.5-2.755h2.755v2.755H648.6m5.511-2.755h2.741v2.755h-2.741m5.5-2.755h2.755v2.755H659.6m5.511-2.755h2.741v2.755h-2.741m5.5-2.755h2.755v2.755h-2.755m5.511-2.755h2.741v2.755h-2.741m5.5-2.755h2.755v2.755h-2.755m5.5-2.755h2.755v2.755h-2.755m5.511-2.755h2.755v2.755h-2.755m5.5-2.755h2.755v2.755h-2.755m5.511-2.755h2.755v2.755h-2.755m5.5-2.755h2.755v2.755H709.13m5.511-2.755H717.4v2.755h-2.755m5.5-2.755h.132v2.755h-.132" transform="translate(-214.96 209.727)" fill="#c3ecf9"/>
    <path id="Path_30" data-name="Path 30" d="M616.768,139.7l-1.686,2.169-2.169-1.7,1.7-2.169m-1.231,6.024-1.7,2.169-2.169-1.7,1.7-2.155m-1.231,6.024-1.7,2.169-2.155-1.7,1.686-2.169M606.6,152.69l-1.7,2.169-2.169-1.7,1.7-2.155m-1.231,6.024-1.7,2.169-2.169-1.7,1.7-2.169m-1.231,6.039-1.7,2.155-2.155-1.7,1.7-2.155m-1.231,6.024-1.7,2.169-2.169-1.7,1.7-2.169m-1.231,6.039-1.7,2.155-2.169-1.686,1.7-2.169m-1.231,6.024-1.686,2.169-2.169-1.7,1.7-2.169m-1.231,6.039-1.7,2.155-2.169-1.686,1.7-2.169m-1.231,6.024-1.7,2.169-2.155-1.7,1.686-2.169m-1.217,6.039-1.7,2.155-2.169-1.686,1.7-2.169m-1.231,6.024-1.7,2.169-2.169-1.7,1.7-2.169m-1.231,6.039-1.7,2.155-2.155-1.686,1.686-2.169m-1.216,6.024-1.7,2.169-2.169-1.7,1.7-2.169m-1.231,6.039-1.7,2.169-2.169-1.7,1.7-2.169M562.449,209l-1.686,2.169-2.169-1.7,1.7-2.169m-1.231,6.039-1.7,2.169-2.169-1.7,1.7-2.169m-1.231,6.024-1.7,2.169-2.155-1.7,1.686-2.155M552.262,222l-1.686,2.169-2.169-1.7,1.7-2.169m-1.231,6.024-1.7,2.169-2.169-1.7,1.7-2.155m-1.231,6.024-1.7,2.169-2.155-1.7,1.686-2.169m-1.216,6.024-1.7,2.169-2.169-1.7,1.7-2.155m-1.231,6.024-1.7,2.169-2.169-1.7,1.7-2.169m-1.231,6.024-1.7,2.169-2.155-1.7,1.7-2.155M531.9,247.99l-1.7,2.169-2.169-1.7,1.7-2.169m-1.231,6.039-1.7,2.155-2.169-1.7,1.7-2.155m-1.231,6.024-1.686,2.169-2.169-1.7,1.7-2.169m-1.231,6.039-1.7,2.155-2.169-1.686,1.7-2.169m-1.231,6.024-1.7,2.169-2.155-1.7,1.686-2.169m-1.216,6.039-1.7,2.155-2.169-1.686,1.7-2.169m-1.231,6.024-1.7,2.169-2.169-1.7,1.7-2.169m-1.231,6.039-1.7,2.155-2.155-1.686,1.686-2.169m-1.217,6.024-1.7,2.169-2.169-1.7,1.7-2.169m-1.231,6.039-1.7,2.169-2.169-1.7,1.7-2.169m-1.231,6.024-1.686,2.169-2.169-1.7,1.7-2.169m-1.231,6.039-1.7,2.169-2.169-1.7,1.7-2.169m-1.231,6.024-1.7,2.169-2.155-1.7,1.686-2.155m-1.231,6.024-1.686,2.169-2.169-1.7,1.7-2.169m-1.231,6.024-1.7,2.169-2.169-1.7,1.7-2.155m-1.231,6.024-1.7,2.169-2.155-1.7,1.686-2.169m-1.217,6.024-1.7,2.169-2.169-1.7,1.7-2.155m-1.231,6.024-1.7,2.169-2.169-1.7,1.7-2.169m-1.231,6.024-1.7,2.169-2.155-1.7,1.7-2.155m-1.231,6.024-1.7,2.169-2.169-1.7,1.7-2.169M464,334.627l-1.7,2.155-2.169-1.7,1.7-2.155m-1.231,6.024-1.686,2.169-2.169-1.7,1.7-2.169m-1.231,6.039-1.7,2.155-2.169-1.686,1.7-2.169m-1.231,6.024-1.7,2.169-2.155-1.7,1.686-2.169m-1.217,6.039-1.7,2.155-2.169-1.686,1.7-2.169m-1.231,6.024-1.7,2.169-2.169-1.7,1.7-2.169m-1.231,6.039-1.7,2.155-2.155-1.686,1.686-2.169m-1.216,6.024-1.7,2.169-2.169-1.7,1.7-2.169m-1.231,6.039-1.7,2.155-2.169-1.686,1.7-2.169m-1.231,6.024-1.686,2.169-2.169-1.7,1.7-2.169m-1.231,6.039-1.7,2.169-2.169-1.7,1.7-2.169m-1.231,6.024-1.436,1.847-2.169-1.7,1.436-1.847" transform="translate(-169.28 120.377)" fill="#c3ecf9"/>
    <path id="Path_31" data-name="Path 31" d="M425.205,138l1.7,2.169-2.169,1.7-1.686-2.169m5.555,2.638,1.7,2.155-2.169,1.7-1.7-2.169m5.57,2.638,1.686,2.169-2.155,1.7-1.7-2.169M435.392,151l1.7,2.155-2.169,1.7-1.686-2.169m5.555,2.638,1.7,2.169-2.169,1.7-1.7-2.169m5.57,2.638,1.686,2.155-2.155,1.7-1.7-2.169m5.555,2.638,1.7,2.169-2.169,1.7-1.7-2.169m5.57,2.638,1.7,2.155-2.169,1.7-1.7-2.155m5.555,2.624,1.7,2.169-2.169,1.7-1.686-2.169m5.555,2.638,1.7,2.169-2.169,1.686-1.7-2.155m5.57,2.624,1.7,2.169-2.169,1.7-1.7-2.169m5.555,2.638,1.7,2.169-2.169,1.686-1.686-2.155m5.555,2.624,1.7,2.169-2.169,1.7-1.7-2.169m5.57,2.638,1.686,2.169-2.155,1.686-1.7-2.155m5.555,2.624,1.7,2.169-2.169,1.7-1.7-2.169m5.57,2.638,1.7,2.169-2.169,1.7-1.7-2.169m5.555,2.624,1.7,2.169-2.155,1.7-1.7-2.169m5.555,2.638,1.7,2.169-2.169,1.7-1.7-2.169m5.57,2.638,1.7,2.155-2.169,1.7-1.7-2.169m5.555,2.638,1.7,2.169-2.169,1.7L487.556,222m5.555,2.638,1.7,2.155-2.169,1.7-1.7-2.169m5.57,2.638,1.686,2.169-2.155,1.7-1.7-2.169M499.9,233.3l1.7,2.155-2.169,1.7-1.686-2.169m5.555,2.638L505,239.8l-2.169,1.7-1.7-2.169m5.57,2.638,1.686,2.155-2.155,1.7-1.7-2.169m5.555,2.638,1.7,2.169-2.169,1.7-1.7-2.169m5.57,2.638,1.7,2.155-2.169,1.7-1.7-2.155m5.555,2.624,1.7,2.169-2.169,1.7-1.686-2.169m5.555,2.638,1.7,2.169-2.169,1.686-1.7-2.155m5.57,2.624,1.7,2.169-2.169,1.7-1.7-2.169m5.555,2.638,1.7,2.169-2.169,1.686-1.686-2.155m5.555,2.624,1.7,2.169-2.169,1.7-1.7-2.169m5.57,2.638,1.686,2.169-2.155,1.686-1.7-2.155m5.555,2.624,1.7,2.169-2.169,1.7-1.7-2.169m5.57,2.638,1.7,2.169-2.169,1.7-1.7-2.169m5.555,2.624,1.7,2.169-2.155,1.7-1.7-2.169m5.555,2.638,1.7,2.169-2.169,1.7-1.7-2.169m5.57,2.624,1.7,2.169-2.169,1.7-1.7-2.169m5.555,2.638,1.7,2.169-2.169,1.7-1.686-2.169m5.555,2.638,1.7,2.155-2.169,1.7-1.7-2.169m5.57,2.638,1.686,2.169-2.155,1.7-1.7-2.169M564.4,315.6l1.7,2.155-2.169,1.7-1.686-2.169m5.555,2.638,1.7,2.169-2.169,1.7-1.7-2.169m5.57,2.638,1.686,2.155-2.155,1.7-1.7-2.169m5.555,2.638,1.7,2.169-2.169,1.7-1.7-2.169m5.57,2.638,1.7,2.155-2.169,1.7-1.7-2.155m5.555,2.624,1.7,2.169-2.169,1.7-1.686-2.169m5.555,2.638,1.7,2.169-2.169,1.686-1.7-2.155m5.57,2.624,1.686,2.169-2.155,1.7-1.7-2.169m5.555,2.638,1.7,2.169-2.169,1.686-1.686-2.155m5.555,2.624,1.7,2.169-2.169,1.7-1.7-2.169m5.57,2.638,1.686,2.169-2.155,1.686-1.7-2.155m5.555,2.624,1.7,2.169-2.169,1.7-1.7-2.169m5.57,2.638,1.7,2.169-2.169,1.686-1.7-2.155m5.555,2.624,1.7,2.169-2.155,1.7-1.7-2.169m5.555,2.638,1.7,2.169-2.169,1.7-1.7-2.169m5.57,2.624,1.436,1.847-2.169,1.7-1.436-1.847" transform="translate(-169.27 120.377)" fill="#c3ecf9"/>
    <g id="Group_16" data-name="Group 16" transform="translate(332.694 364.761)" clip-path="url(#clip-path-2)">
      <g id="Group_15" data-name="Group 15" transform="translate(0 0)" clip-path="url(#clip-path-3)">
        <path id="Path_32" data-name="Path 32" d="M444.082,166.355H477.69v33.608H444.082Zm0,0" transform="translate(-444.082 -166.355)" fill="#c3ecf9"/>
      </g>
    </g>
    <path id="Path_35" data-name="Path 35" d="M0,0,67.386.014" transform="translate(296.008 383.024) rotate(88.056)" fill="none" stroke="#c3ecf9" stroke-width="2.2"/>
    <path id="Path_36" data-name="Path 36" d="M0,0,118.158,0" transform="translate(264.305 270.635) rotate(74.435)" fill="none" stroke="#c3ecf9" stroke-width="2.2"/>
    <path id="Path_37" data-name="Path 37" d="M0,0,150.213,0" transform="translate(415.183 297.647) rotate(-170.198)" fill="none" stroke="#c3ecf9" stroke-width="2.2"/>
    <path id="Path_38" data-name="Path 38" d="M0,0,83.222,0" transform="translate(413.749 297.662) rotate(97.979)" fill="none" stroke="#c3ecf9" stroke-width="2.2"/>
    <path id="Path_39" data-name="Path 39" d="M0,0H41.617" transform="translate(402.183 378.686) rotate(134.044)" fill="none" stroke="#c3ecf9" stroke-width="2.2"/>
    <path id="Path_40" data-name="Path 40" d="M0,0,86.353,0" transform="matrix(-0.881, 0.474, -0.474, -0.881, 373.265, 408.6)" fill="none" stroke="#c3ecf9" stroke-width="2.2"/>
    <g id="Group_19" data-name="Group 19" transform="translate(524.445 376.456)">
      <g id="Group_18" data-name="Group 18" transform="translate(0 0)">
        <g id="Group_17" data-name="Group 17" transform="translate(0 0)">
          <path id="Path_41" data-name="Path 41" d="M4.319,7.471a6.955,6.955,0,0,1-2.228-.352A6.332,6.332,0,0,1,.156,5.888L1.212,4.657a5.417,5.417,0,0,0,1.466,1,4.3,4.3,0,0,0,1.642.293,2.136,2.136,0,0,0,1.29-.352,1.074,1.074,0,0,0,.469-.879V4.657A.96.96,0,0,0,5.9,4.07,2.085,2.085,0,0,0,5.257,3.6a6.391,6.391,0,0,0-1.407-.41A15.725,15.725,0,0,1,2.032,2.6,3.1,3.1,0,0,1,.918,1.725,2.9,2.9,0,0,1,.567.2a2.76,2.76,0,0,1,.41-1.524,3.068,3.068,0,0,1,1.231-1,4.094,4.094,0,0,1,1.759-.352A5.164,5.164,0,0,1,5.9-2.32a6.131,6.131,0,0,1,1.642.879L6.605-.092A4.465,4.465,0,0,0,5.257-.854a3.335,3.335,0,0,0-1.348-.293A1.725,1.725,0,0,0,2.736-.8a1.047,1.047,0,0,0-.41.821V.084A1.218,1.218,0,0,0,2.5.729a1.657,1.657,0,0,0,.7.469c.352.117.835.264,1.466.41A6.158,6.158,0,0,1,7.016,2.663a2.269,2.269,0,0,1,.821,1.876,2.631,2.631,0,0,1-.469,1.583,2.628,2.628,0,0,1-1.231,1A4.323,4.323,0,0,1,4.319,7.471Zm0,0" transform="translate(-0.156 2.672)"/>
        </g>
      </g>
    </g>
    <g id="Group_22" data-name="Group 22" transform="translate(533.72 376.397)">
      <g id="Group_21" data-name="Group 21" transform="translate(0 0)">
        <g id="Group_20" data-name="Group 20" transform="translate(0 0)">
          <path id="Path_42" data-name="Path 42" d="M5.378,7.572a5.179,5.179,0,0,1-2.052-.41A5.088,5.088,0,0,1,1.684,6.048,5.351,5.351,0,0,1,.571,4.465,5.591,5.591,0,0,1,.219,2.472,5.65,5.65,0,0,1,.571.478,5.251,5.251,0,0,1,1.684-1.163,5.332,5.332,0,0,1,3.326-2.277a5.313,5.313,0,0,1,2.111-.41,5.286,5.286,0,0,1,2.052.41A5.512,5.512,0,0,1,9.13-1.163,4.643,4.643,0,0,1,10.185.478a4.667,4.667,0,0,1,.41,1.935v.059a4.875,4.875,0,0,1-.41,1.935A4.516,4.516,0,0,1,9.13,6.048,5.251,5.251,0,0,1,7.489,7.162,5.419,5.419,0,0,1,5.378,7.572Zm.059-1.642a3.284,3.284,0,0,0,1.7-.41A3.261,3.261,0,0,0,8.309,4.289a3.609,3.609,0,0,0,.469-1.817A3.356,3.356,0,0,0,8.309.713,3.319,3.319,0,0,0,7.137-.577a3.356,3.356,0,0,0-1.759-.469,3.186,3.186,0,0,0-1.7.469A3.586,3.586,0,0,0,2.447.713a3.514,3.514,0,0,0-.41,1.7v.059a3.788,3.788,0,0,0,.41,1.759A3.537,3.537,0,0,0,3.678,5.462,3.158,3.158,0,0,0,5.437,5.931Zm0,0" transform="translate(-0.219 2.688)"/>
        </g>
      </g>
    </g>
    <g id="Group_25" data-name="Group 25" transform="translate(546.021 376.573)">
      <g id="Group_24" data-name="Group 24" transform="translate(0 0)">
        <g id="Group_23" data-name="Group 23" transform="translate(0 0)">
          <path id="Path_43" data-name="Path 43" d="M4.518,7.443A4.3,4.3,0,0,1,1.411,6.329,4.409,4.409,0,0,1,.3,3.046V-2.641H2.056V2.988A2.984,2.984,0,0,0,2.7,5.1a2.452,2.452,0,0,0,1.817.7,2.441,2.441,0,0,0,1.817-.645,2.867,2.867,0,0,0,.7-2.111V-2.641h1.7V2.988A4.391,4.391,0,0,1,7.567,6.329,4.108,4.108,0,0,1,4.518,7.443Zm0,0" transform="translate(-0.297 2.641)"/>
        </g>
      </g>
    </g>
    <g id="Group_31" data-name="Group 31" transform="translate(117.532 376.573)">
      <g id="Group_30" data-name="Group 30" transform="translate(0 0)">
        <g id="Group_29" data-name="Group 29" transform="translate(0 0)">
          <path id="Path_45" data-name="Path 45" d="M.344,7.267V-2.641H7.672v1.583H2.044v2.7H7.027V3.222H2.044V7.267Zm0,0" transform="translate(-0.344 2.641)"/>
        </g>
      </g>
    </g>
    <g id="Group_34" data-name="Group 34" transform="translate(126.799 376.573)">
      <g id="Group_33" data-name="Group 33" transform="translate(0 0)">
        <g id="Group_32" data-name="Group 32" transform="translate(0 0)">
          <path id="Path_46" data-name="Path 46" d="M.344,7.267V-2.641h4.4a4.374,4.374,0,0,1,1.642.293,3.648,3.648,0,0,1,1.231.7A4.057,4.057,0,0,1,8.2-.706,3.178,3.178,0,0,1,8.434.525a2.806,2.806,0,0,1-.7,1.993,3.556,3.556,0,0,1-1.642,1L8.728,7.267H6.676L4.213,3.808H2.044V7.267Zm1.7-4.983h2.58a2.323,2.323,0,0,0,1.466-.41A1.555,1.555,0,0,0,6.617.643V.584A1.417,1.417,0,0,0,6.089-.589a2.257,2.257,0,0,0-1.524-.469H2.044Zm0,0" transform="translate(-0.344 2.641)"/>
        </g>
      </g>
    </g>
    <g id="Group_37" data-name="Group 37" transform="translate(136.836 376.573)">
      <g id="Group_36" data-name="Group 36" transform="translate(0 0)">
        <g id="Group_35" data-name="Group 35" transform="translate(0 0)">
          <path id="Path_47" data-name="Path 47" d="M4.518,7.443A4.3,4.3,0,0,1,1.411,6.329,4.409,4.409,0,0,1,.3,3.046V-2.641H2.056V2.988A2.984,2.984,0,0,0,2.7,5.1a2.452,2.452,0,0,0,1.817.7,2.441,2.441,0,0,0,1.817-.645,2.867,2.867,0,0,0,.7-2.111V-2.641h1.7V2.988A4.391,4.391,0,0,1,7.567,6.329,4.108,4.108,0,0,1,4.518,7.443Zm0,0" transform="translate(-0.297 2.641)"/>
        </g>
      </g>
    </g>
    <g id="Group_40" data-name="Group 40" transform="translate(147.765 376.573)">
      <g id="Group_39" data-name="Group 39" transform="translate(0 0)">
        <g id="Group_38" data-name="Group 38" transform="translate(0 0)">
          <path id="Path_48" data-name="Path 48" d="M.359,7.267V-2.641H2.118V7.267Zm0,0" transform="translate(-0.359 2.641)"/>
        </g>
      </g>
    </g>
    <g id="Group_43" data-name="Group 43" transform="translate(151.481 376.573)">
      <g id="Group_42" data-name="Group 42" transform="translate(0 0)">
        <g id="Group_41" data-name="Group 41" transform="translate(0 0)">
          <path id="Path_49" data-name="Path 49" d="M3.264,7.267V-1H.156V-2.641H8.188V-1H5.022V7.267Zm0,0" transform="translate(-0.156 2.641)"/>
        </g>
      </g>
    </g>
    <g id="Group_46" data-name="Group 46" transform="translate(160.283 376.573)">
      <g id="Group_45" data-name="Group 45" transform="translate(0 0)">
        <g id="Group_44" data-name="Group 44" transform="translate(0 0)">
          <path id="Path_50" data-name="Path 50" d="M3.991,7.267V3.339L.063-2.641H2.173l2.756,4.4,2.756-4.4H9.677L5.749,3.339V7.267Zm0,0" transform="translate(-0.063 2.641)"/>
        </g>
      </g>
    </g>
    <g id="Group_49" data-name="Group 49" transform="translate(457.582 518.399)">
      <g id="Group_48" data-name="Group 48" transform="translate(0 0)">
        <g id="Group_47" data-name="Group 47" transform="translate(0 0)">
          <path id="Path_51" data-name="Path 51" d="M4.319,7.471a6.955,6.955,0,0,1-2.228-.352A6.332,6.332,0,0,1,.156,5.888L1.212,4.657a5.417,5.417,0,0,0,1.466,1,4.3,4.3,0,0,0,1.642.293,2.136,2.136,0,0,0,1.29-.352,1.074,1.074,0,0,0,.469-.879V4.657A.96.96,0,0,0,5.9,4.07,2.085,2.085,0,0,0,5.257,3.6a6.391,6.391,0,0,0-1.407-.41A15.725,15.725,0,0,1,2.032,2.6,3.1,3.1,0,0,1,.918,1.725,2.9,2.9,0,0,1,.567.2a2.76,2.76,0,0,1,.41-1.524,3.068,3.068,0,0,1,1.231-1,4.094,4.094,0,0,1,1.759-.352A5.164,5.164,0,0,1,5.9-2.32a6.131,6.131,0,0,1,1.642.879L6.605-.092A4.465,4.465,0,0,0,5.257-.854a3.335,3.335,0,0,0-1.348-.293A1.725,1.725,0,0,0,2.736-.8a1.047,1.047,0,0,0-.41.821V.084A1.218,1.218,0,0,0,2.5.729a1.657,1.657,0,0,0,.7.469c.352.117.835.264,1.466.41A6.158,6.158,0,0,1,7.016,2.663a2.269,2.269,0,0,1,.821,1.876,2.631,2.631,0,0,1-.469,1.583,2.628,2.628,0,0,1-1.231,1A4.323,4.323,0,0,1,4.319,7.471Zm0,0" transform="translate(-0.156 2.672)"/>
        </g>
      </g>
    </g>
    <g id="Group_52" data-name="Group 52" transform="translate(467.326 518.516)">
      <g id="Group_51" data-name="Group 51" transform="translate(0 0)">
        <g id="Group_50" data-name="Group 50" transform="translate(0 0)">
          <path id="Path_52" data-name="Path 52" d="M.344,7.267V-2.641H4.213a4.6,4.6,0,0,1,1.993.41A2.806,2.806,0,0,1,7.5-1.058,3.356,3.356,0,0,1,7.965.7a3.185,3.185,0,0,1-.528,1.876A3.334,3.334,0,0,1,5.972,3.75,5.164,5.164,0,0,1,4.037,4.1H2.044V7.267Zm1.7-4.749H4.1A2.184,2.184,0,0,0,5.62,2.05,1.7,1.7,0,0,0,6.207.76V.7A1.494,1.494,0,0,0,5.62-.589,2.423,2.423,0,0,0,4.1-1.058H2.044Zm0,0" transform="translate(-0.344 2.641)"/>
        </g>
      </g>
    </g>
    <g id="Group_55" data-name="Group 55" transform="translate(476.822 518.516)">
      <g id="Group_54" data-name="Group 54" transform="translate(0 0)">
        <g id="Group_53" data-name="Group 53" transform="translate(0 0)">
          <path id="Path_53" data-name="Path 53" d="M.359,7.267V-2.641H2.118V7.267Zm0,0" transform="translate(-0.359 2.641)"/>
        </g>
      </g>
    </g>
    <g id="Group_58" data-name="Group 58" transform="translate(480.772 518.341)">
      <g id="Group_57" data-name="Group 57" transform="translate(0 0)">
        <g id="Group_56" data-name="Group 56" transform="translate(0 0)">
          <path id="Path_54" data-name="Path 54" d="M5.261,7.572a5.591,5.591,0,0,1-1.993-.352A5.088,5.088,0,0,1,1.626,6.107,5.442,5.442,0,0,1,.571,4.465,5.591,5.591,0,0,1,.219,2.472,5.65,5.65,0,0,1,.571.478,5.629,5.629,0,0,1,1.626-1.163,5.332,5.332,0,0,1,3.267-2.277a5.179,5.179,0,0,1,2.052-.41,4.91,4.91,0,0,1,2.286.469A5.634,5.634,0,0,1,9.189-1.1L8.075.185a4.387,4.387,0,0,0-1.29-.879,3.051,3.051,0,0,0-1.466-.352,3.186,3.186,0,0,0-1.7.469A3.839,3.839,0,0,0,2.447.713a3.514,3.514,0,0,0-.41,1.7v.059a3.788,3.788,0,0,0,.41,1.759A3.778,3.778,0,0,0,3.619,5.462a3.061,3.061,0,0,0,1.7.469A3.724,3.724,0,0,0,6.9,5.638,5.49,5.49,0,0,0,8.133,4.7L9.247,5.814a5.873,5.873,0,0,1-1.7,1.29A4.91,4.91,0,0,1,5.261,7.572Zm0,0" transform="translate(-0.219 2.688)"/>
        </g>
      </g>
    </g>
    <g id="Group_61" data-name="Group 61" transform="translate(491.666 518.516)">
      <g id="Group_60" data-name="Group 60" transform="translate(0 0)">
        <g id="Group_59" data-name="Group 59" transform="translate(0 0)">
          <path id="Path_55" data-name="Path 55" d="M.344,7.267V-2.641H7.672v1.583H2.044v2.58H7.027V3.046H2.044V5.685H7.731V7.267Zm0,0" transform="translate(-0.344 2.641)"/>
        </g>
      </g>
    </g>
    <g id="Group_64" data-name="Group 64" transform="translate(501.131 518.516)">
      <g id="Group_63" data-name="Group 63" transform="translate(0 0)">
        <g id="Group_62" data-name="Group 62" transform="translate(0 0)">
          <path id="Path_56" data-name="Path 56" d="M.344,7.267V-2.641H4.037a5.419,5.419,0,0,1,2.111.41A4.643,4.643,0,0,1,7.789-1.175,4.2,4.2,0,0,1,8.845.349a4.667,4.667,0,0,1,.41,1.935v.059a4.875,4.875,0,0,1-.41,1.935A4.685,4.685,0,0,1,7.789,5.86,5.629,5.629,0,0,1,6.148,6.916a6.015,6.015,0,0,1-2.111.352ZM4.037-1.058H2.044V5.685H4.037A3.624,3.624,0,0,0,5.8,5.274,3.278,3.278,0,0,0,7.027,4.1a3.71,3.71,0,0,0,.41-1.759A3.8,3.8,0,0,0,7.027.584,2.888,2.888,0,0,0,5.8-.589,3.356,3.356,0,0,0,4.037-1.058Zm0,0" transform="translate(-0.344 2.641)"/>
        </g>
      </g>
    </g>
    <g id="Group_67" data-name="Group 67" transform="translate(156.509 226.26)">
      <g id="Group_66" data-name="Group 66" transform="translate(0 0)">
        <g id="Group_65" data-name="Group 65" transform="translate(0 0)">
          <path id="Path_57" data-name="Path 57" d="M.344,7.267V-2.641h4.4a3.392,3.392,0,0,1,2.58.879,2.266,2.266,0,0,1,.7,1.642v.059a2.064,2.064,0,0,1-.469,1.407,3.3,3.3,0,0,1-.938.762,3.4,3.4,0,0,1,1.407.879,2.071,2.071,0,0,1,.528,1.524v.059a2.3,2.3,0,0,1-1,1.993,4.527,4.527,0,0,1-2.638.7ZM6.265.232V.174A1,1,0,0,0,5.8-.706a1.869,1.869,0,0,0-1.231-.352H2.044v2.58H4.389a2.49,2.49,0,0,0,1.348-.293A1.118,1.118,0,0,0,6.265.232Zm.586,4.1A1.09,1.09,0,0,0,6.324,3.4,2.516,2.516,0,0,0,4.8,2.988H2.044V5.743H4.917a2.5,2.5,0,0,0,1.407-.352,1.118,1.118,0,0,0,.528-1Zm0,0" transform="translate(-0.344 2.641)"/>
        </g>
      </g>
    </g>
    <g id="Group_70" data-name="Group 70" transform="translate(166.24 226.084)">
      <g id="Group_69" data-name="Group 69" transform="translate(0 0)">
        <g id="Group_68" data-name="Group 68" transform="translate(0 0)">
          <path id="Path_58" data-name="Path 58" d="M5.378,7.572a5.179,5.179,0,0,1-2.052-.41A5.088,5.088,0,0,1,1.684,6.048,5.351,5.351,0,0,1,.571,4.465,5.591,5.591,0,0,1,.219,2.472,5.65,5.65,0,0,1,.571.478,5.251,5.251,0,0,1,1.684-1.163,5.332,5.332,0,0,1,3.326-2.277a5.313,5.313,0,0,1,2.111-.41,5.286,5.286,0,0,1,2.052.41A5.512,5.512,0,0,1,9.13-1.163,4.643,4.643,0,0,1,10.185.478a4.667,4.667,0,0,1,.41,1.935v.059a4.875,4.875,0,0,1-.41,1.935A4.516,4.516,0,0,1,9.13,6.048,5.251,5.251,0,0,1,7.489,7.162,5.419,5.419,0,0,1,5.378,7.572Zm.059-1.642a3.284,3.284,0,0,0,1.7-.41A3.261,3.261,0,0,0,8.309,4.289a3.609,3.609,0,0,0,.469-1.817A3.356,3.356,0,0,0,8.309.713,3.319,3.319,0,0,0,7.137-.577a3.356,3.356,0,0,0-1.759-.469,3.186,3.186,0,0,0-1.7.469A3.586,3.586,0,0,0,2.447.713a3.514,3.514,0,0,0-.41,1.7v.059a3.788,3.788,0,0,0,.41,1.759A3.537,3.537,0,0,0,3.678,5.462,3.158,3.158,0,0,0,5.437,5.931Zm0,0" transform="translate(-0.219 2.688)"/>
        </g>
      </g>
    </g>
    <g id="Group_73" data-name="Group 73" transform="translate(178.012 226.26)">
      <g id="Group_72" data-name="Group 72" transform="translate(0 0)">
        <g id="Group_71" data-name="Group 71" transform="translate(0 0)">
          <path id="Path_59" data-name="Path 59" d="M3.264,7.267V-1H.156V-2.641H8.188V-1H5.022V7.267Zm0,0" transform="translate(-0.156 2.641)"/>
        </g>
      </g>
    </g>
    <g id="Group_76" data-name="Group 76" transform="translate(186.99 226.202)">
      <g id="Group_75" data-name="Group 75" transform="translate(0 0)">
        <g id="Group_74" data-name="Group 74" transform="translate(0 0)">
          <path id="Path_60" data-name="Path 60" d="M.109,7.31,4.448-2.656H6.089L10.428,7.31H8.61l-1-2.4H2.924l-1,2.4ZM3.568,3.382h3.4L5.269-.546Zm0,0" transform="translate(-0.109 2.656)"/>
        </g>
      </g>
    </g>
    <g id="Group_79" data-name="Group 79" transform="translate(199.03 226.26)">
      <g id="Group_78" data-name="Group 78" transform="translate(0 0)">
        <g id="Group_77" data-name="Group 77" transform="translate(0 0)">
          <path id="Path_61" data-name="Path 61" d="M.344,7.267V-2.641H1.927L7.262,4.219V-2.641h1.7V7.267H7.5L2.044.232V7.267Zm0,0" transform="translate(-0.344 2.641)"/>
        </g>
      </g>
    </g>
    <g id="Group_82" data-name="Group 82" transform="translate(210.248 226.26)">
      <g id="Group_81" data-name="Group 81" transform="translate(0 0)">
        <g id="Group_80" data-name="Group 80" transform="translate(0 0)">
          <path id="Path_62" data-name="Path 62" d="M.359,7.267V-2.641H2.118V7.267Zm0,0" transform="translate(-0.359 2.641)"/>
        </g>
      </g>
    </g>
    <g id="Group_85" data-name="Group 85" transform="translate(214.199 226.084)">
      <g id="Group_84" data-name="Group 84" transform="translate(0 0)">
        <g id="Group_83" data-name="Group 83" transform="translate(0 0)">
          <path id="Path_63" data-name="Path 63" d="M5.261,7.572a5.591,5.591,0,0,1-1.993-.352A5.088,5.088,0,0,1,1.626,6.107,5.442,5.442,0,0,1,.571,4.465,5.591,5.591,0,0,1,.219,2.472,5.65,5.65,0,0,1,.571.478,5.629,5.629,0,0,1,1.626-1.163,5.332,5.332,0,0,1,3.267-2.277a5.179,5.179,0,0,1,2.052-.41,4.91,4.91,0,0,1,2.286.469A5.634,5.634,0,0,1,9.189-1.1L8.075.185a4.387,4.387,0,0,0-1.29-.879,3.051,3.051,0,0,0-1.466-.352,3.186,3.186,0,0,0-1.7.469A3.839,3.839,0,0,0,2.447.713a3.514,3.514,0,0,0-.41,1.7v.059a3.788,3.788,0,0,0,.41,1.759A3.778,3.778,0,0,0,3.619,5.462a3.061,3.061,0,0,0,1.7.469A3.724,3.724,0,0,0,6.9,5.638,5.49,5.49,0,0,0,8.133,4.7L9.247,5.814a5.873,5.873,0,0,1-1.7,1.29A4.91,4.91,0,0,1,5.261,7.572Zm0,0" transform="translate(-0.219 2.688)"/>
        </g>
      </g>
    </g>
    <g id="Group_88" data-name="Group 88" transform="translate(224.214 226.202)">
      <g id="Group_87" data-name="Group 87" transform="translate(0 0)">
        <g id="Group_86" data-name="Group 86" transform="translate(0 0)">
          <path id="Path_64" data-name="Path 64" d="M.109,7.31,4.448-2.656H6.089L10.428,7.31H8.61l-1-2.4H2.924l-1,2.4ZM3.568,3.382h3.4L5.269-.546Zm0,0" transform="translate(-0.109 2.656)"/>
        </g>
      </g>
    </g>
    <g id="Group_91" data-name="Group 91" transform="translate(236.253 226.26)">
      <g id="Group_90" data-name="Group 90" transform="translate(0 0)">
        <g id="Group_89" data-name="Group 89" transform="translate(0 0)">
          <path id="Path_65" data-name="Path 65" d="M.344,7.267V-2.641h1.7V5.685H7.262V7.267Zm0,0" transform="translate(-0.344 2.641)"/>
        </g>
      </g>
    </g>
    <g id="Group_94" data-name="Group 94" transform="translate(456.024 226.143)">
      <g id="Group_93" data-name="Group 93" transform="translate(0 0)">
        <g id="Group_92" data-name="Group 92" transform="translate(0 0)">
          <path id="Path_66" data-name="Path 66" d="M4.319,7.471a6.955,6.955,0,0,1-2.228-.352A6.332,6.332,0,0,1,.156,5.888L1.212,4.657a5.417,5.417,0,0,0,1.466,1,4.3,4.3,0,0,0,1.642.293,2.136,2.136,0,0,0,1.29-.352,1.074,1.074,0,0,0,.469-.879V4.657A.96.96,0,0,0,5.9,4.07,2.085,2.085,0,0,0,5.257,3.6a6.391,6.391,0,0,0-1.407-.41A15.725,15.725,0,0,1,2.032,2.6,3.1,3.1,0,0,1,.918,1.725,2.9,2.9,0,0,1,.567.2a2.76,2.76,0,0,1,.41-1.524,3.068,3.068,0,0,1,1.231-1,4.094,4.094,0,0,1,1.759-.352A5.164,5.164,0,0,1,5.9-2.32a6.131,6.131,0,0,1,1.642.879L6.605-.092A4.465,4.465,0,0,0,5.257-.854a3.335,3.335,0,0,0-1.348-.293A1.725,1.725,0,0,0,2.736-.8a1.047,1.047,0,0,0-.41.821V.084A1.218,1.218,0,0,0,2.5.729a1.657,1.657,0,0,0,.7.469c.352.117.835.264,1.466.41A6.158,6.158,0,0,1,7.016,2.663a2.269,2.269,0,0,1,.821,1.876,2.631,2.631,0,0,1-.469,1.583,2.628,2.628,0,0,1-1.231,1A4.323,4.323,0,0,1,4.319,7.471Zm0,0" transform="translate(-0.156 2.672)"/>
        </g>
      </g>
    </g>
    <g id="Group_97" data-name="Group 97" transform="translate(465.006 226.26)">
      <g id="Group_96" data-name="Group 96" transform="translate(0 0)">
        <g id="Group_95" data-name="Group 95" transform="translate(0 0)">
          <path id="Path_67" data-name="Path 67" d="M3.541,7.326.141-2.641H2.017L4.362,4.688l2.4-7.328H8.231l2.462,7.328,2.345-7.328h1.817l-3.4,9.967H9.931L7.469.232l-2.4,7.094Zm0,0" transform="translate(-0.141 2.641)"/>
        </g>
      </g>
    </g>
    <g id="Group_100" data-name="Group 100" transform="translate(481.533 226.26)">
      <g id="Group_99" data-name="Group 99" transform="translate(0 0)">
        <g id="Group_98" data-name="Group 98" transform="translate(0 0)">
          <path id="Path_68" data-name="Path 68" d="M.344,7.267V-2.641H7.672v1.583H2.044v2.58H7.027V3.046H2.044V5.685H7.731V7.267Zm0,0" transform="translate(-0.344 2.641)"/>
        </g>
      </g>
    </g>
    <g id="Group_103" data-name="Group 103" transform="translate(490.998 226.26)">
      <g id="Group_102" data-name="Group 102" transform="translate(0 0)">
        <g id="Group_101" data-name="Group 101" transform="translate(0 0)">
          <path id="Path_69" data-name="Path 69" d="M.344,7.267V-2.641H7.672v1.583H2.044v2.58H7.027V3.046H2.044V5.685H7.731V7.267Zm0,0" transform="translate(-0.344 2.641)"/>
        </g>
      </g>
    </g>
    <g id="Group_106" data-name="Group 106" transform="translate(499.759 226.26)">
      <g id="Group_105" data-name="Group 105" transform="translate(0 0)">
        <g id="Group_104" data-name="Group 104" transform="translate(0 0)">
          <path id="Path_70" data-name="Path 70" d="M3.264,7.267V-1H.156V-2.641H8.188V-1H5.022V7.267Zm0,0" transform="translate(-0.156 2.641)"/>
        </g>
      </g>
    </g>
    <g id="Group_109" data-name="Group 109" transform="translate(191.398 518.516)">
      <g id="Group_108" data-name="Group 108" transform="translate(0 0)">
        <g id="Group_107" data-name="Group 107" transform="translate(0 0)">
          <path id="Path_71" data-name="Path 71" d="M.344,7.267V-2.641h4.4a3.392,3.392,0,0,1,2.58.879,2.266,2.266,0,0,1,.7,1.642v.059a2.064,2.064,0,0,1-.469,1.407,3.3,3.3,0,0,1-.938.762,3.4,3.4,0,0,1,1.407.879,2.071,2.071,0,0,1,.528,1.524v.059a2.3,2.3,0,0,1-1,1.993,4.527,4.527,0,0,1-2.638.7ZM6.265.232V.174A1,1,0,0,0,5.8-.706a1.869,1.869,0,0,0-1.231-.352H2.044v2.58H4.389a2.49,2.49,0,0,0,1.348-.293A1.118,1.118,0,0,0,6.265.232Zm.586,4.1A1.09,1.09,0,0,0,6.324,3.4,2.516,2.516,0,0,0,4.8,2.988H2.044V5.743H4.917a2.5,2.5,0,0,0,1.407-.352,1.118,1.118,0,0,0,.528-1Zm0,0" transform="translate(-0.344 2.641)"/>
        </g>
      </g>
    </g>
    <g id="Group_112" data-name="Group 112" transform="translate(201.656 518.516)">
      <g id="Group_111" data-name="Group 111" transform="translate(0 0)">
        <g id="Group_110" data-name="Group 110" transform="translate(0 0)">
          <path id="Path_72" data-name="Path 72" d="M.359,7.267V-2.641H2.118V7.267Zm0,0" transform="translate(-0.359 2.641)"/>
        </g>
      </g>
    </g>
    <g id="Group_115" data-name="Group 115" transform="translate(205.372 518.516)">
      <g id="Group_114" data-name="Group 114" transform="translate(0 0)">
        <g id="Group_113" data-name="Group 113" transform="translate(0 0)">
          <path id="Path_73" data-name="Path 73" d="M3.264,7.267V-1H.156V-2.641H8.188V-1H5.022V7.267Zm0,0" transform="translate(-0.156 2.641)"/>
        </g>
      </g>
    </g>
    <g id="Group_118" data-name="Group 118" transform="translate(214.526 518.516)">
      <g id="Group_117" data-name="Group 117" transform="translate(0 0)">
        <g id="Group_116" data-name="Group 116" transform="translate(0 0)">
          <path id="Path_74" data-name="Path 74" d="M3.264,7.267V-1H.156V-2.641H8.188V-1H5.022V7.267Zm0,0" transform="translate(-0.156 2.641)"/>
        </g>
      </g>
    </g>
    <g id="Group_121" data-name="Group 121" transform="translate(224.384 518.516)">
      <g id="Group_120" data-name="Group 120" transform="translate(0 0)">
        <g id="Group_119" data-name="Group 119" transform="translate(0 0)">
          <path id="Path_75" data-name="Path 75" d="M.344,7.267V-2.641H7.672v1.583H2.044v2.58H7.027V3.046H2.044V5.685H7.731V7.267Zm0,0" transform="translate(-0.344 2.641)"/>
        </g>
      </g>
    </g>
    <g id="Group_124" data-name="Group 124" transform="translate(233.848 518.516)">
      <g id="Group_123" data-name="Group 123" transform="translate(0 0)">
        <g id="Group_122" data-name="Group 122" transform="translate(0 0)">
          <path id="Path_76" data-name="Path 76" d="M.344,7.267V-2.641h4.4a4.374,4.374,0,0,1,1.642.293,3.648,3.648,0,0,1,1.231.7A4.057,4.057,0,0,1,8.2-.706,3.178,3.178,0,0,1,8.434.525a2.806,2.806,0,0,1-.7,1.993,3.556,3.556,0,0,1-1.642,1L8.728,7.267H6.676L4.213,3.808H2.044V7.267Zm1.7-4.983h2.58a2.323,2.323,0,0,0,1.466-.41A1.555,1.555,0,0,0,6.617.643V.584A1.417,1.417,0,0,0,6.089-.589a2.257,2.257,0,0,0-1.524-.469H2.044Zm0,0" transform="translate(-0.344 2.641)"/>
        </g>
      </g>
    </g>
  </g>
</svg>
