<svg xmlns="http://www.w3.org/2000/svg" xmlns:xlink="http://www.w3.org/1999/xlink" width="455.132" height="320.042" viewBox="0 0 455.132 320.042">
  <defs>
    <clipPath id="clip-path">
      <path id="Path_14" data-name="Path 14" d="M106.383,129.492H426.425V449.534H106.383Zm0,0" transform="translate(-106.383 -129.492)"/>
    </clipPath>
    <clipPath id="clip-path-2">
      <path id="Path_20" data-name="Path 20" d="M144.016,167.125h34.163v34.163H144.016Zm0,0" transform="translate(-144.016 -167.125)"/>
    </clipPath>
    <clipPath id="clip-path-3">
      <path id="Path_19" data-name="Path 19" d="M161.09,167.125a17.082,17.082,0,1,0,17.089,17.089A17.076,17.076,0,0,0,161.09,167.125Zm0,0" transform="translate(-144.016 -167.125)"/>
    </clipPath>
  </defs>
  <g id="Group_4583" data-name="Group 4583" transform="translate(-91.412 -219.958)">
    <g id="Group_9" data-name="Group 9" transform="translate(166.589 219.958)" clip-path="url(#clip-path)">
      <path id="Path_13" data-name="Path 13" d="M414.848,227.512A160.338,160.338,0,1,0,427.587,290,159.788,159.788,0,0,0,414.848,227.512ZM413,351.769a159.14,159.14,0,1,1,12.455-61.711A158.1,158.1,0,0,1,413,351.769ZM367.932,189.044a142.367,142.367,0,1,0,30.587,45.382A142.46,142.46,0,0,0,367.932,189.044Zm28.74,155.812a140.819,140.819,0,0,1-259.374,0,140.746,140.746,0,0,1,74.777-184.492,140.942,140.942,0,0,1,184.6,184.492Zm-41.255-143.3a124.777,124.777,0,1,0,26.773,39.78A123.765,123.765,0,0,0,355.417,201.559ZM380.343,338A123.715,123.715,0,0,1,354,377.127a123.35,123.35,0,0,1-135.028,26.341,123.716,123.716,0,0,1-39.124-26.341A123.35,123.35,0,0,1,153.508,242.1a123.964,123.964,0,0,1,26.341-39.124,123.35,123.35,0,0,1,135.028-26.341A123.717,123.717,0,0,1,354,202.974,120.719,120.719,0,0,1,380.343,242.1a122.442,122.442,0,0,1,9.684,47.959A124.317,124.317,0,0,1,380.343,338Zm-37.5-123.869a107.582,107.582,0,0,0-34.118-23.019,107.231,107.231,0,0,0-117.716,23.019,108.251,108.251,0,0,0-23.019,34.118,107.809,107.809,0,0,0,0,83.6,105.65,105.65,0,0,0,23.019,34.118,107.583,107.583,0,0,0,34.118,23.019,107.231,107.231,0,0,0,117.716-23.019,107.583,107.583,0,0,0,23.019-34.118,107.231,107.231,0,0,0-23.019-117.716Zm21.126,116.956a105.974,105.974,0,1,1,8.269-41.031A104.926,104.926,0,0,1,363.969,331.089ZM330.327,226.648a89.419,89.419,0,0,0-63.395-26.237,89.419,89.419,0,0,0-63.409,26.237,89.419,89.419,0,0,0-26.237,63.409,89.636,89.636,0,0,0,54.753,82.6,90.047,90.047,0,0,0,69.771,0,89.851,89.851,0,0,0,47.736-47.721,89.05,89.05,0,0,0,7.017-34.878,90.146,90.146,0,0,0-7.017-34.893A89.163,89.163,0,0,0,330.327,226.648Zm17.313,97.528a87.512,87.512,0,0,1-80.767,53.5,88.1,88.1,0,0,1-34.118-6.868,87.4,87.4,0,0,1-53.5-80.752,87.211,87.211,0,0,1,25.626-61.994,87.376,87.376,0,0,1,61.994-25.641,88.1,88.1,0,0,1,34.118,6.868A87.862,87.862,0,0,1,347.64,324.176ZM266.933,218.111a71.9,71.9,0,1,0,50.88,21.052A71.467,71.467,0,0,0,266.933,218.111Zm49.4,121.351a69.87,69.87,0,1,1,20.471-49.4A69.5,69.5,0,0,1,316.337,339.462Zm-49.4-103.621a54.276,54.276,0,1,0,38.3,15.9A53.85,53.85,0,0,0,266.933,235.841Zm36.89,91.106a52.137,52.137,0,1,1,15.3-36.89A51.869,51.869,0,0,1,303.822,326.947Zm-36.89-73.362a36.421,36.421,0,1,0,25.79,10.668A36.44,36.44,0,0,0,266.933,253.585Zm24.315,60.787a34.4,34.4,0,1,1,10.072-24.315A34.156,34.156,0,0,1,291.248,314.373ZM266.933,271.33a18.72,18.72,0,1,0,18.713,18.728A18.761,18.761,0,0,0,266.933,271.33Zm0,35.429a16.709,16.709,0,1,1,16.7-16.7A16.745,16.745,0,0,1,266.933,306.759Zm0,0" transform="translate(-106.383 -129.448)" fill="#ebfdff"/>
    </g>
    <path id="Path_15" data-name="Path 15" d="M106.383,171.23h2.861v2.861h-2.861m5.706-2.861h2.861v2.861h-2.861m5.721-2.861h2.861v2.861H117.81m5.721-2.861h2.846v2.861h-2.846m5.706-2.861H132.1v2.861h-2.861m5.721-2.861h2.861v2.861h-2.861m5.706-2.861h2.861v2.861h-2.861m5.721-2.861h2.861v2.861h-2.861m5.721-2.861h2.846v2.861h-2.846m5.706-2.861h2.861v2.861h-2.861m5.721-2.861h2.846v2.861h-2.846m5.706-2.861H172.1v2.861h-2.861m5.721-2.861h2.861v2.861h-2.861m5.706-2.861h2.861v2.861h-2.861m5.721-2.861h2.861v2.861H186.39m5.721-2.861h2.846v2.861h-2.846m5.706-2.861h2.861v2.861h-2.861m5.721-2.861H206.4v2.861h-2.861m5.706-2.861H212.1v2.861h-2.861m5.721-2.861h2.861v2.861h-2.861m5.721-2.861h2.846v2.861h-2.846m5.706-2.861h2.861v2.861h-2.861m5.721-2.861h2.861v2.861h-2.861m5.706-2.861h2.861v2.861H237.82m5.721-2.861H246.4v2.861h-2.861m5.721-2.861h2.846v2.861h-2.846m5.706-2.861h2.861v2.861h-2.861m5.721-2.861h2.846v2.861H260.69m5.706-2.861h2.861v2.861H266.4m5.721-2.861h2.861v2.861h-2.861m5.706-2.861h2.861v2.861h-2.861m5.721-2.861h2.861v2.861h-2.861m5.721-2.861h2.846v2.861h-2.846m5.706-2.861h2.861v2.861h-2.861m5.721-2.861h2.861v2.861h-2.861m5.706-2.861h2.861v2.861H306.4m5.721-2.861h2.861v2.861h-2.861m5.721-2.861h2.846v2.861h-2.846m5.706-2.861h2.861v2.861h-2.861m5.721-2.861h2.861v2.861h-2.861m5.706-2.861h2.861v2.861h-2.861m5.721-2.861h2.861v2.861H340.7m5.706-2.861h2.861v2.861H346.4m5.721-2.861h2.861v2.861h-2.861m5.721-2.861h2.846v2.861h-2.846m5.706-2.861h2.861v2.861h-2.861m5.721-2.861h2.861v2.861h-2.861m5.706-2.861h2.861v2.861h-2.861m5.721-2.861h2.861v2.861H380.7m5.721-2.861h2.846v2.861h-2.846m5.706-2.861h2.861v2.861h-2.861m5.721-2.861h2.861v2.861h-2.861m5.706-2.861h2.861v2.861h-2.861m5.721-2.861h2.861v2.861h-2.861M415,171.23h2.846v2.861H415m5.706-2.861h2.861v2.861H420.7" transform="translate(60.206 207.922)" fill="#fff"/>
    <path id="Path_16" data-name="Path 16" d="M319.946,140.542l-1.758,2.25-2.25-1.773,1.758-2.25m-1.281,6.272-1.758,2.25-2.25-1.773,1.758-2.25m-1.266,6.258-1.773,2.25-2.25-1.758,1.773-2.25m-1.281,6.258-1.758,2.25-2.25-1.758,1.758-2.25m-1.281,6.258-1.758,2.25-2.25-1.758,1.773-2.25m-1.281,6.257-1.758,2.25-2.25-1.758,1.758-2.25m-1.281,6.258-1.758,2.25-2.25-1.758,1.758-2.25m-1.266,6.258-1.773,2.25-2.25-1.758,1.773-2.25m-1.281,6.258-1.758,2.25-2.25-1.758,1.758-2.25m-1.281,6.258-1.758,2.25L284.2,181.5l1.758-2.25m-1.266,6.272-1.773,2.25L280.673,186l1.773-2.25m-1.281,6.272-1.758,2.25-2.25-1.773,1.758-2.25m-1.281,6.272-1.758,2.235L273.626,195l1.758-2.25m-1.266,6.258-1.758,2.25-2.25-1.758,1.758-2.25m-1.281,6.257-1.758,2.25L266.579,204l1.758-2.25M267.07,208l-1.773,2.25-2.25-1.758,1.773-2.25m-1.281,6.258-1.758,2.25L259.531,213l1.758-2.25M260.008,217l-1.758,2.25L256,217.5l1.758-2.25m-1.266,6.258-1.773,2.25-2.25-1.758,1.773-2.25M252.961,226l-1.758,2.25-2.25-1.773,1.758-2.235M249.43,230.5l-1.758,2.25-2.25-1.773,1.758-2.25M245.914,235l-1.773,2.25-2.235-1.773,1.758-2.25m-1.281,6.272-1.758,2.25-2.25-1.773,1.758-2.25m-1.266,6.257-1.773,2.25-2.25-1.758,1.773-2.25m-1.281,6.258-1.758,2.25-2.25-1.758,1.758-2.25m-1.281,6.258-1.758,2.25-2.25-1.758,1.758-2.25m-1.266,6.257-1.773,2.25-2.25-1.758,1.773-2.25m-1.281,6.257L223,264.233l-2.25-1.758,1.758-2.25m-1.281,6.258-1.758,2.25-2.25-1.758,1.758-2.25m-1.266,6.258-1.773,2.25-2.25-1.758,1.773-2.25m-1.281,6.258-1.758,2.25-2.25-1.773,1.758-2.25m-1.281,6.272-1.758,2.25-2.25-1.773,1.773-2.25m-1.281,6.272-1.758,2.25-2.25-1.773,1.758-2.25m-1.281,6.257-1.758,2.25-2.25-1.758,1.758-2.25m-1.266,6.257-1.773,2.25-2.25-1.758,1.773-2.25m-1.281,6.258-1.758,2.25-2.25-1.758,1.758-2.25m-1.281,6.258-1.758,2.25-2.25-1.758,1.758-2.25m-1.266,6.258-1.773,2.25-2.25-1.758,1.773-2.25m-1.281,6.257-1.758,2.25-2.25-1.758,1.758-2.25m-1.281,6.257-1.758,2.25-2.25-1.758,1.758-2.25m-1.266,6.257-1.773,2.25-2.235-1.773,1.758-2.235M175.4,324.96l-1.758,2.25-2.25-1.773,1.758-2.25m-1.266,6.272-1.773,2.25-2.25-1.773,1.773-2.25m-1.281,6.272-1.758,2.235-2.25-1.758,1.758-2.25m-1.281,6.257-1.758,2.25-2.25-1.758,1.758-2.25m-1.266,6.257-1.773,2.25-2.25-1.758,1.773-2.25m-1.281,6.258-1.758,2.25-2.25-1.758,1.758-2.25m-1.281,6.257-1.758,2.25-2.25-1.758,1.758-2.25m-1.266,6.258-1.773,2.25-2.235-1.758,1.758-2.25m-1.281,6.258-1.758,2.25-2.25-1.758,1.758-2.25m-1.266,6.258-1.773,2.25-2.25-1.773,1.773-2.235m-1.281,6.257-1.758,2.25-2.25-1.773,1.758-2.25m-1.281,6.272-1.758,2.25-2.25-1.773,1.758-2.25m-1.266,6.272-1.773,2.25-2.25-1.773,1.773-2.25m-1.281,6.258-1.758,2.25-2.25-1.758,1.758-2.25m-1.281,6.258-.819,1.058-2.25-1.773.819-1.043" transform="translate(106.881 116.573)" fill="#fff"/>
    <path id="Path_17" data-name="Path 17" d="M125.226,138.77l1.758,2.25-2.25,1.773-1.758-2.25m5.766,2.726,1.773,2.25-2.25,1.773-1.773-2.25m5.781,2.726,1.758,2.25-2.25,1.758-1.758-2.25m5.781,2.741,1.758,2.25-2.25,1.758-1.758-2.25m5.766,2.741,1.773,2.25-2.25,1.758-1.773-2.25m5.781,2.741,1.758,2.25-2.25,1.758-1.758-2.25m5.781,2.741,1.758,2.25-2.25,1.758-1.758-2.25m5.766,2.741,1.758,2.25-2.235,1.758-1.773-2.25m5.781,2.741,1.758,2.25-2.25,1.758-1.758-2.25m5.766,2.726,1.773,2.25-2.25,1.773-1.773-2.25m5.781,2.726,1.758,2.25-2.25,1.773-1.758-2.25m5.781,2.726,1.758,2.25-2.25,1.773-1.758-2.25m5.766,2.726L169.3,195l-2.25,1.758-1.773-2.25m5.781,2.741,1.758,2.25-2.25,1.758-1.758-2.25m5.781,2.741,1.758,2.25-2.25,1.758-1.758-2.25m5.766,2.741,1.773,2.25-2.25,1.758L175.853,208m5.781,2.741,1.758,2.25-2.25,1.758-1.758-2.25m5.766,2.741,1.773,2.25-2.25,1.758L182.915,217m5.766,2.741,1.758,2.25-2.25,1.758-1.758-2.25m5.781,2.741,1.758,2.235-2.25,1.773L189.962,226m5.766,2.726,1.773,2.25-2.25,1.773-1.773-2.25m5.781,2.726,1.758,2.25-2.25,1.773L197.009,235m5.781,2.727,1.758,2.25-2.25,1.758L200.54,239.5m5.766,2.726,1.773,2.25-2.25,1.758-1.773-2.25m5.781,2.741,1.758,2.25-2.25,1.758-1.758-2.25m5.781,2.741,1.758,2.25-2.25,1.758-1.758-2.25m5.766,2.741,1.758,2.25-2.25,1.758-1.758-2.25m5.781,2.741,1.758,2.25-2.25,1.758-1.758-2.25m5.766,2.741,1.773,2.25-2.25,1.758-1.773-2.25m5.781,2.741,1.758,2.235-2.25,1.773-1.758-2.25m5.781,2.727,1.758,2.25-2.25,1.773-1.758-2.25m5.766,2.726,1.773,2.25-2.25,1.773-1.773-2.25m5.781,2.726,1.758,2.25-2.25,1.773-1.758-2.25m5.781,2.727,1.758,2.25-2.25,1.758-1.758-2.25m5.766,2.741,1.758,2.25-2.235,1.758-1.773-2.25m5.781,2.741,1.758,2.25-2.25,1.758-1.758-2.25m5.766,2.741,1.773,2.25-2.25,1.758-1.773-2.25m5.781,2.741,1.758,2.25-2.25,1.758-1.758-2.25M259.2,309.7l1.758,2.25-2.25,1.758-1.758-2.25m5.766,2.741,1.773,2.25-2.25,1.758-1.773-2.25m5.781,2.727,1.758,2.25-2.25,1.773-1.758-2.25m5.781,2.726,1.758,2.25-2.25,1.773-1.758-2.25m5.766,2.727,1.773,2.25-2.25,1.773-1.773-2.25m5.781,2.726,1.758,2.25-2.25,1.758-1.758-2.235m5.766,2.727,1.773,2.25-2.25,1.758-1.758-2.25m5.766,2.741,1.758,2.25-2.25,1.758-1.758-2.25m5.781,2.741,1.758,2.25-2.25,1.758-1.758-2.25m5.766,2.741,1.773,2.25-2.25,1.758-1.773-2.25m5.781,2.741,1.758,2.25-2.25,1.758-1.758-2.25m5.781,2.741,1.758,2.25-2.25,1.758-1.758-2.25m5.766,2.741,1.773,2.235-2.25,1.773-1.773-2.25m5.781,2.726,1.758,2.25-2.25,1.773-1.758-2.25m5.781,2.726,1.758,2.25-2.25,1.773-1.758-2.25m5.766,2.726,1.758,2.25-2.235,1.758-1.773-2.235m5.781,2.727,1.758,2.25-2.25,1.758-1.758-2.25m5.766,2.741.834,1.043-2.25,1.773-.834-1.058" transform="translate(106.903 116.573)" fill="#fff"/>
    <g id="Group_11" data-name="Group 11" transform="translate(310.124 363.493)" clip-path="url(#clip-path-2)">
      <g id="Group_10" data-name="Group 10" transform="translate(0 0)" clip-path="url(#clip-path-3)">
        <path id="Path_18" data-name="Path 18" d="M144.016,167.125h34.163v34.163H144.016Zm0,0" transform="translate(-144.016 -167.125)" fill="#fff"/>
      </g>
    </g>
    <path id="Path_21" data-name="Path 21" d="M0,0,56.66,0" transform="matrix(-0.139, 0.99, -0.99, -0.139, 291.49, 380.633)" fill="none" stroke="#fff" stroke-width="2.248"/>
    <path id="Path_22" data-name="Path 22" d="M0,0,48.223.007" transform="translate(295.773 334.085) rotate(97)" fill="none" stroke="#fff" stroke-width="2.248"/>
    <path id="Path_23" data-name="Path 23" d="M0,0,122.949,0" transform="translate(405.052 284.251) rotate(153)" fill="none" stroke="#fff" stroke-width="2.248"/>
    <path id="Path_24" data-name="Path 24" d="M0,0,98.214,0" transform="translate(404.263 283.518) rotate(95)" fill="none" stroke="#fff" stroke-width="2.248"/>
    <path id="Path_25" data-name="Path 25" d="M0,0,112.469,0" transform="translate(397.169 377.696) rotate(83)" fill="none" stroke="#fff" stroke-width="2.248"/>
    <path id="Path_26" data-name="Path 26" d="M0,0,139.221,0" transform="matrix(-0.927, -0.375, 0.375, -0.927, 412.774, 488.953)" fill="none" stroke="#fff" stroke-width="2.248"/>
    <g id="Group_934" data-name="Group 934" transform="translate(505.04 375.381)">
      <g id="Group_933" data-name="Group 933" transform="translate(0 0)">
        <g id="Group_932" data-name="Group 932">
          <path id="Path_373" data-name="Path 373" d="M4.388,7.638a7.07,7.07,0,0,1-2.265-.358A6.437,6.437,0,0,1,.156,6.029L1.229,4.778a5.506,5.506,0,0,0,1.49,1.013,4.372,4.372,0,0,0,1.669.3A2.171,2.171,0,0,0,5.7,5.731a1.091,1.091,0,0,0,.477-.894v-.06A.975.975,0,0,0,6,4.182,2.12,2.12,0,0,0,5.341,3.7a6.5,6.5,0,0,0-1.43-.417,15.984,15.984,0,0,1-1.847-.6A3.149,3.149,0,0,1,.931,1.8,2.945,2.945,0,0,1,.573.248,2.806,2.806,0,0,1,.991-1.3,3.119,3.119,0,0,1,2.242-2.314,4.161,4.161,0,0,1,4.03-2.672,5.249,5.249,0,0,1,6-2.314a6.232,6.232,0,0,1,1.669.894L6.712-.05A4.538,4.538,0,0,0,5.341-.824a3.39,3.39,0,0,0-1.371-.3,1.753,1.753,0,0,0-1.192.358A1.064,1.064,0,0,0,2.361.07v.06A1.238,1.238,0,0,0,2.54.785a1.684,1.684,0,0,0,.715.477c.358.119.849.268,1.49.417A6.26,6.26,0,0,1,7.129,2.751a2.307,2.307,0,0,1,.834,1.907,2.675,2.675,0,0,1-.477,1.609A2.671,2.671,0,0,1,6.235,7.281,4.395,4.395,0,0,1,4.388,7.638Zm0,0" transform="translate(-0.156 2.672)" fill="#fff"/>
        </g>
      </g>
    </g>
    <g id="Group_937" data-name="Group 937" transform="translate(514.469 375.322)">
      <g id="Group_936" data-name="Group 936" transform="translate(0 0)">
        <g id="Group_935" data-name="Group 935" transform="translate(0 0)">
          <path id="Path_374" data-name="Path 374" d="M5.463,7.742a5.264,5.264,0,0,1-2.086-.417A5.172,5.172,0,0,1,1.709,6.192,5.44,5.44,0,0,1,.576,4.583,5.683,5.683,0,0,1,.219,2.557,5.743,5.743,0,0,1,.576.531,5.338,5.338,0,0,1,1.709-1.138,5.42,5.42,0,0,1,3.377-2.27a5.4,5.4,0,0,1,2.145-.417,5.373,5.373,0,0,1,2.086.417A5.6,5.6,0,0,1,9.277-1.138,4.719,4.719,0,0,1,10.35.531,4.744,4.744,0,0,1,10.767,2.5v.06a4.956,4.956,0,0,1-.417,1.967A4.591,4.591,0,0,1,9.277,6.192,5.338,5.338,0,0,1,7.609,7.325,5.508,5.508,0,0,1,5.463,7.742Zm.06-1.669a3.338,3.338,0,0,0,1.728-.417A3.314,3.314,0,0,0,8.443,4.4,3.668,3.668,0,0,0,8.92,2.557,3.411,3.411,0,0,0,8.443.769,3.374,3.374,0,0,0,7.251-.542a3.411,3.411,0,0,0-1.788-.477,3.239,3.239,0,0,0-1.728.477A3.645,3.645,0,0,0,2.483.769,3.572,3.572,0,0,0,2.066,2.5v.06a3.851,3.851,0,0,0,.417,1.788A3.6,3.6,0,0,0,3.735,5.6,3.21,3.21,0,0,0,5.523,6.073Zm0,0" transform="translate(-0.219 2.687)" fill="#fff"/>
        </g>
      </g>
    </g>
    <g id="Group_940" data-name="Group 940" transform="translate(526.972 375.501)">
      <g id="Group_939" data-name="Group 939" transform="translate(0 0)">
        <g id="Group_938" data-name="Group 938" transform="translate(0 0)">
          <path id="Path_375" data-name="Path 375" d="M4.588,7.61A4.367,4.367,0,0,1,1.429,6.477,4.482,4.482,0,0,1,.3,3.14V-2.641H2.085V3.081A3.034,3.034,0,0,0,2.74,5.226a2.492,2.492,0,0,0,1.847.715,2.481,2.481,0,0,0,1.847-.656A2.914,2.914,0,0,0,7.15,3.14V-2.641H8.879V3.081a4.463,4.463,0,0,1-1.192,3.4A4.176,4.176,0,0,1,4.588,7.61Zm0,0" transform="translate(-0.297 2.641)" fill="#fff"/>
        </g>
      </g>
    </g>
    <g id="Group_943" data-name="Group 943" transform="translate(538.021 375.501)">
      <g id="Group_942" data-name="Group 942" transform="translate(0 0)">
        <g id="Group_941" data-name="Group 941" transform="translate(0 0)">
          <path id="Path_376" data-name="Path 376" d="M.344,7.431V-2.641h4.47a4.446,4.446,0,0,1,1.669.3,3.709,3.709,0,0,1,1.252.715,4.124,4.124,0,0,1,.6.954A3.231,3.231,0,0,1,8.568.578,2.853,2.853,0,0,1,7.853,2.6,3.615,3.615,0,0,1,6.184,3.617L8.866,7.431H6.78l-2.5-3.516H2.072V7.431ZM2.072,2.365H4.694a2.361,2.361,0,0,0,1.49-.417A1.58,1.58,0,0,0,6.72.7V.637A1.44,1.44,0,0,0,6.184-.555a2.294,2.294,0,0,0-1.549-.477H2.072Zm0,0" transform="translate(-0.344 2.641)" fill="#fff"/>
        </g>
      </g>
    </g>
    <g id="Group_946" data-name="Group 946" transform="translate(91.412 375.501)">
      <g id="Group_945" data-name="Group 945" transform="translate(0 0)">
        <g id="Group_944" data-name="Group 944" transform="translate(0 0)">
          <path id="Path_377" data-name="Path 377" d="M.344,7.431V-2.641H7.793v1.609H2.072V1.71H7.138V3.319H2.072V7.431Zm0,0" transform="translate(-0.344 2.641)" fill="#fff"/>
        </g>
      </g>
    </g>
    <g id="Group_949" data-name="Group 949" transform="translate(100.831 375.501)">
      <g id="Group_948" data-name="Group 948" transform="translate(0 0)">
        <g id="Group_947" data-name="Group 947" transform="translate(0 0)">
          <path id="Path_378" data-name="Path 378" d="M.344,7.431V-2.641h4.47a4.446,4.446,0,0,1,1.669.3,3.709,3.709,0,0,1,1.252.715,4.124,4.124,0,0,1,.6.954A3.231,3.231,0,0,1,8.568.578,2.853,2.853,0,0,1,7.853,2.6,3.615,3.615,0,0,1,6.184,3.617L8.866,7.431H6.78l-2.5-3.516H2.072V7.431ZM2.072,2.365H4.694a2.361,2.361,0,0,0,1.49-.417A1.58,1.58,0,0,0,6.72.7V.637A1.44,1.44,0,0,0,6.184-.555a2.294,2.294,0,0,0-1.549-.477H2.072Zm0,0" transform="translate(-0.344 2.641)" fill="#fff"/>
        </g>
      </g>
    </g>
    <g id="Group_952" data-name="Group 952" transform="translate(111.035 375.501)">
      <g id="Group_951" data-name="Group 951" transform="translate(0 0)">
        <g id="Group_950" data-name="Group 950" transform="translate(0 0)">
          <path id="Path_379" data-name="Path 379" d="M4.588,7.61A4.367,4.367,0,0,1,1.429,6.477,4.482,4.482,0,0,1,.3,3.14V-2.641H2.085V3.081A3.034,3.034,0,0,0,2.74,5.226a2.492,2.492,0,0,0,1.847.715,2.481,2.481,0,0,0,1.847-.656A2.914,2.914,0,0,0,7.15,3.14V-2.641H8.879V3.081a4.463,4.463,0,0,1-1.192,3.4A4.176,4.176,0,0,1,4.588,7.61Zm0,0" transform="translate(-0.297 2.641)" fill="#fff"/>
        </g>
      </g>
    </g>
    <g id="Group_955" data-name="Group 955" transform="translate(122.143 375.501)">
      <g id="Group_954" data-name="Group 954" transform="translate(0 0)">
        <g id="Group_953" data-name="Group 953" transform="translate(0 0)">
          <path id="Path_380" data-name="Path 380" d="M.359,7.431V-2.641H2.147V7.431Zm0,0" transform="translate(-0.359 2.641)" fill="#fff"/>
        </g>
      </g>
    </g>
    <g id="Group_958" data-name="Group 958" transform="translate(125.92 375.501)">
      <g id="Group_957" data-name="Group 957" transform="translate(0 0)">
        <g id="Group_956" data-name="Group 956" transform="translate(0 0)">
          <path id="Path_381" data-name="Path 381" d="M3.315,7.431v-8.4H.156V-2.641H8.321V-.972H5.1v8.4Zm0,0" transform="translate(-0.156 2.641)" fill="#fff"/>
        </g>
      </g>
    </g>
    <g id="Group_961" data-name="Group 961" transform="translate(134.868 375.501)">
      <g id="Group_960" data-name="Group 960" transform="translate(0 0)">
        <g id="Group_959" data-name="Group 959" transform="translate(0 0)">
          <path id="Path_382" data-name="Path 382" d="M4.055,7.431V3.438L.063-2.641H2.208l2.8,4.47,2.8-4.47H9.836L5.843,3.438V7.431Zm0,0" transform="translate(-0.063 2.641)" fill="#fff"/>
        </g>
      </g>
    </g>
    <g id="Group_964" data-name="Group 964" transform="translate(437.074 519.667)">
      <g id="Group_963" data-name="Group 963" transform="translate(0 0)">
        <g id="Group_962" data-name="Group 962" transform="translate(0 0)">
          <path id="Path_383" data-name="Path 383" d="M4.388,7.638a7.07,7.07,0,0,1-2.265-.358A6.437,6.437,0,0,1,.156,6.029L1.229,4.778a5.506,5.506,0,0,0,1.49,1.013,4.372,4.372,0,0,0,1.669.3A2.171,2.171,0,0,0,5.7,5.731a1.091,1.091,0,0,0,.477-.894v-.06A.975.975,0,0,0,6,4.182,2.12,2.12,0,0,0,5.341,3.7a6.5,6.5,0,0,0-1.43-.417,15.984,15.984,0,0,1-1.847-.6A3.149,3.149,0,0,1,.931,1.8,2.945,2.945,0,0,1,.573.248,2.806,2.806,0,0,1,.991-1.3,3.119,3.119,0,0,1,2.242-2.314,4.161,4.161,0,0,1,4.03-2.672,5.249,5.249,0,0,1,6-2.314a6.232,6.232,0,0,1,1.669.894L6.712-.05A4.538,4.538,0,0,0,5.341-.824a3.39,3.39,0,0,0-1.371-.3,1.753,1.753,0,0,0-1.192.358A1.064,1.064,0,0,0,2.361.07v.06A1.238,1.238,0,0,0,2.54.785a1.684,1.684,0,0,0,.715.477c.358.119.849.268,1.49.417A6.26,6.26,0,0,1,7.129,2.751a2.307,2.307,0,0,1,.834,1.907,2.675,2.675,0,0,1-.477,1.609A2.671,2.671,0,0,1,6.235,7.281,4.395,4.395,0,0,1,4.388,7.638Zm0,0" transform="translate(-0.156 2.672)" fill="#fff"/>
        </g>
      </g>
    </g>
    <g id="Group_967" data-name="Group 967" transform="translate(446.979 519.786)">
      <g id="Group_966" data-name="Group 966" transform="translate(0 0)">
        <g id="Group_965" data-name="Group 965" transform="translate(0 0)">
          <path id="Path_384" data-name="Path 384" d="M.344,7.431V-2.641H4.277A4.677,4.677,0,0,1,6.3-2.223,2.852,2.852,0,0,1,7.614-1.032,3.411,3.411,0,0,1,8.091.756a3.237,3.237,0,0,1-.536,1.907,3.389,3.389,0,0,1-1.49,1.192A5.249,5.249,0,0,1,4.1,4.213H2.072V7.431ZM2.072,2.6H4.158a2.22,2.22,0,0,0,1.549-.477A1.723,1.723,0,0,0,6.3.816V.756a1.519,1.519,0,0,0-.6-1.311,2.463,2.463,0,0,0-1.549-.477H2.072Zm0,0" transform="translate(-0.344 2.641)" fill="#fff"/>
        </g>
      </g>
    </g>
    <g id="Group_970" data-name="Group 970" transform="translate(456.631 519.786)">
      <g id="Group_969" data-name="Group 969" transform="translate(0 0)">
        <g id="Group_968" data-name="Group 968" transform="translate(0 0)">
          <path id="Path_385" data-name="Path 385" d="M.359,7.431V-2.641H2.147V7.431Zm0,0" transform="translate(-0.359 2.641)" fill="#fff"/>
        </g>
      </g>
    </g>
    <g id="Group_973" data-name="Group 973" transform="translate(460.646 519.608)">
      <g id="Group_972" data-name="Group 972" transform="translate(0 0)">
        <g id="Group_971" data-name="Group 971" transform="translate(0 0)">
          <path id="Path_386" data-name="Path 386" d="M5.344,7.742a5.683,5.683,0,0,1-2.026-.358A5.172,5.172,0,0,1,1.649,6.252,5.531,5.531,0,0,1,.576,4.583,5.683,5.683,0,0,1,.219,2.557,5.743,5.743,0,0,1,.576.531,5.722,5.722,0,0,1,1.649-1.138,5.42,5.42,0,0,1,3.318-2.27,5.264,5.264,0,0,1,5.4-2.687a4.991,4.991,0,0,1,2.324.477A5.727,5.727,0,0,1,9.337-1.078L8.2.233A4.459,4.459,0,0,0,6.893-.661,3.1,3.1,0,0,0,5.4-1.019a3.239,3.239,0,0,0-1.728.477A3.9,3.9,0,0,0,2.483.769,3.572,3.572,0,0,0,2.066,2.5v.06a3.851,3.851,0,0,0,.417,1.788A3.841,3.841,0,0,0,3.675,5.6,3.112,3.112,0,0,0,5.4,6.073a3.786,3.786,0,0,0,1.609-.3,5.58,5.58,0,0,0,1.252-.954L9.4,5.954A5.97,5.97,0,0,1,7.668,7.265,4.991,4.991,0,0,1,5.344,7.742Zm0,0" transform="translate(-0.219 2.687)" fill="#fff"/>
        </g>
      </g>
    </g>
    <g id="Group_976" data-name="Group 976" transform="translate(471.721 519.786)">
      <g id="Group_975" data-name="Group 975" transform="translate(0 0)">
        <g id="Group_974" data-name="Group 974" transform="translate(0 0)">
          <path id="Path_387" data-name="Path 387" d="M.344,7.431V-2.641H7.793v1.609H2.072V1.591H7.138V3.14H2.072V5.822H7.853V7.431Zm0,0" transform="translate(-0.344 2.641)" fill="#fff"/>
        </g>
      </g>
    </g>
    <g id="Group_979" data-name="Group 979" transform="translate(481.341 519.786)">
      <g id="Group_978" data-name="Group 978" transform="translate(0 0)">
        <g id="Group_977" data-name="Group 977" transform="translate(0 0)">
          <path id="Path_388" data-name="Path 388" d="M.344,7.431V-2.641H4.1a5.508,5.508,0,0,1,2.145.417A4.719,4.719,0,0,1,7.912-1.151,4.269,4.269,0,0,1,8.985.4,4.744,4.744,0,0,1,9.4,2.365v.06a4.956,4.956,0,0,1-.417,1.967A4.763,4.763,0,0,1,7.912,6,5.722,5.722,0,0,1,6.244,7.073,6.114,6.114,0,0,1,4.1,7.431ZM4.1-1.032H2.072V5.822H4.1A3.684,3.684,0,0,0,5.886,5.4,3.332,3.332,0,0,0,7.138,4.213a3.772,3.772,0,0,0,.417-1.788A3.859,3.859,0,0,0,7.138.637,2.935,2.935,0,0,0,5.886-.555,3.411,3.411,0,0,0,4.1-1.032Zm0,0" transform="translate(-0.344 2.641)" fill="#fff"/>
        </g>
      </g>
    </g>
    <g id="Group_982" data-name="Group 982" transform="translate(131.032 222.707)">
      <g id="Group_981" data-name="Group 981" transform="translate(0 0)">
        <g id="Group_980" data-name="Group 980" transform="translate(0 0)">
          <path id="Path_389" data-name="Path 389" d="M.344,7.431V-2.641h4.47a3.448,3.448,0,0,1,2.622.894A2.3,2.3,0,0,1,8.151-.078v.06a2.1,2.1,0,0,1-.477,1.43,3.359,3.359,0,0,1-.954.775,3.456,3.456,0,0,1,1.43.894A2.106,2.106,0,0,1,8.687,4.63v.06A2.34,2.34,0,0,1,7.674,6.716a4.6,4.6,0,0,1-2.682.715ZM6.363.28V.22a1.017,1.017,0,0,0-.477-.894,1.9,1.9,0,0,0-1.252-.358H2.072V1.591H4.456a2.531,2.531,0,0,0,1.371-.3A1.136,1.136,0,0,0,6.363.28Zm.6,4.172A1.108,1.108,0,0,0,6.422,3.5a2.558,2.558,0,0,0-1.549-.417h-2.8v2.8h2.92a2.542,2.542,0,0,0,1.43-.358,1.136,1.136,0,0,0,.536-1.013Zm0,0" transform="translate(-0.344 2.641)" fill="#fff"/>
        </g>
      </g>
    </g>
    <g id="Group_985" data-name="Group 985" transform="translate(140.923 222.528)">
      <g id="Group_984" data-name="Group 984" transform="translate(0 0)">
        <g id="Group_983" data-name="Group 983" transform="translate(0 0)">
          <path id="Path_390" data-name="Path 390" d="M5.463,7.742a5.264,5.264,0,0,1-2.086-.417A5.172,5.172,0,0,1,1.709,6.192,5.44,5.44,0,0,1,.576,4.583,5.683,5.683,0,0,1,.219,2.557,5.743,5.743,0,0,1,.576.531,5.338,5.338,0,0,1,1.709-1.138,5.42,5.42,0,0,1,3.377-2.27a5.4,5.4,0,0,1,2.145-.417,5.373,5.373,0,0,1,2.086.417A5.6,5.6,0,0,1,9.277-1.138,4.719,4.719,0,0,1,10.35.531,4.744,4.744,0,0,1,10.767,2.5v.06a4.956,4.956,0,0,1-.417,1.967A4.591,4.591,0,0,1,9.277,6.192,5.338,5.338,0,0,1,7.609,7.325,5.508,5.508,0,0,1,5.463,7.742Zm.06-1.669a3.338,3.338,0,0,0,1.728-.417A3.314,3.314,0,0,0,8.443,4.4,3.668,3.668,0,0,0,8.92,2.557,3.411,3.411,0,0,0,8.443.769,3.374,3.374,0,0,0,7.251-.542a3.411,3.411,0,0,0-1.788-.477,3.239,3.239,0,0,0-1.728.477A3.645,3.645,0,0,0,2.483.769,3.572,3.572,0,0,0,2.066,2.5v.06a3.851,3.851,0,0,0,.417,1.788A3.6,3.6,0,0,0,3.735,5.6,3.21,3.21,0,0,0,5.523,6.073Zm0,0" transform="translate(-0.219 2.687)" fill="#fff"/>
        </g>
      </g>
    </g>
    <g id="Group_988" data-name="Group 988" transform="translate(152.89 222.707)">
      <g id="Group_987" data-name="Group 987" transform="translate(0 0)">
        <g id="Group_986" data-name="Group 986" transform="translate(0 0)">
          <path id="Path_391" data-name="Path 391" d="M3.315,7.431v-8.4H.156V-2.641H8.321V-.972H5.1v8.4Zm0,0" transform="translate(-0.156 2.641)" fill="#fff"/>
        </g>
      </g>
    </g>
    <g id="Group_991" data-name="Group 991" transform="translate(162.016 222.647)">
      <g id="Group_990" data-name="Group 990" transform="translate(0 0)">
        <g id="Group_989" data-name="Group 989" transform="translate(0 0)">
          <path id="Path_392" data-name="Path 392" d="M.109,7.475,4.519-2.656H6.188L10.6,7.475H8.751L7.738,5.032H2.97L1.957,7.475ZM3.626,3.482H7.082L5.354-.511Zm0,0" transform="translate(-0.109 2.656)" fill="#fff"/>
        </g>
      </g>
    </g>
    <g id="Group_994" data-name="Group 994" transform="translate(174.254 222.707)">
      <g id="Group_993" data-name="Group 993" transform="translate(0 0)">
        <g id="Group_992" data-name="Group 992" transform="translate(0 0)">
          <path id="Path_393" data-name="Path 393" d="M.344,7.431V-2.641H1.953L7.376,4.332V-2.641H9.1V7.431H7.614L2.072.28V7.431Zm0,0" transform="translate(-0.344 2.641)" fill="#fff"/>
        </g>
      </g>
    </g>
    <g id="Group_997" data-name="Group 997" transform="translate(185.658 222.707)">
      <g id="Group_996" data-name="Group 996" transform="translate(0 0)">
        <g id="Group_995" data-name="Group 995" transform="translate(0 0)">
          <path id="Path_394" data-name="Path 394" d="M.359,7.431V-2.641H2.147V7.431Zm0,0" transform="translate(-0.359 2.641)" fill="#fff"/>
        </g>
      </g>
    </g>
    <g id="Group_1000" data-name="Group 1000" transform="translate(189.674 222.528)">
      <g id="Group_999" data-name="Group 999" transform="translate(0 0)">
        <g id="Group_998" data-name="Group 998" transform="translate(0 0)">
          <path id="Path_395" data-name="Path 395" d="M5.344,7.742a5.683,5.683,0,0,1-2.026-.358A5.172,5.172,0,0,1,1.649,6.252,5.531,5.531,0,0,1,.576,4.583,5.683,5.683,0,0,1,.219,2.557,5.743,5.743,0,0,1,.576.531,5.722,5.722,0,0,1,1.649-1.138,5.42,5.42,0,0,1,3.318-2.27,5.264,5.264,0,0,1,5.4-2.687a4.991,4.991,0,0,1,2.324.477A5.727,5.727,0,0,1,9.337-1.078L8.2.233A4.459,4.459,0,0,0,6.893-.661,3.1,3.1,0,0,0,5.4-1.019a3.239,3.239,0,0,0-1.728.477A3.9,3.9,0,0,0,2.483.769,3.572,3.572,0,0,0,2.066,2.5v.06a3.851,3.851,0,0,0,.417,1.788A3.841,3.841,0,0,0,3.675,5.6,3.112,3.112,0,0,0,5.4,6.073a3.786,3.786,0,0,0,1.609-.3,5.58,5.58,0,0,0,1.252-.954L9.4,5.954A5.97,5.97,0,0,1,7.668,7.265,4.991,4.991,0,0,1,5.344,7.742Zm0,0" transform="translate(-0.219 2.687)" fill="#fff"/>
        </g>
      </g>
    </g>
    <g id="Group_1003" data-name="Group 1003" transform="translate(199.854 222.647)">
      <g id="Group_1002" data-name="Group 1002" transform="translate(0 0)">
        <g id="Group_1001" data-name="Group 1001" transform="translate(0 0)">
          <path id="Path_396" data-name="Path 396" d="M.109,7.475,4.519-2.656H6.188L10.6,7.475H8.751L7.738,5.032H2.97L1.957,7.475ZM3.626,3.482H7.082L5.354-.511Zm0,0" transform="translate(-0.109 2.656)" fill="#fff"/>
        </g>
      </g>
    </g>
    <g id="Group_1006" data-name="Group 1006" transform="translate(212.092 222.707)">
      <g id="Group_1005" data-name="Group 1005" transform="translate(0 0)">
        <g id="Group_1004" data-name="Group 1004" transform="translate(0 0)">
          <path id="Path_397" data-name="Path 397" d="M.344,7.431V-2.641H2.072V5.822h5.3V7.431Zm0,0" transform="translate(-0.344 2.641)" fill="#fff"/>
        </g>
      </g>
    </g>
    <g id="Group_1009" data-name="Group 1009" transform="translate(435.49 222.588)">
      <g id="Group_1008" data-name="Group 1008" transform="translate(0 0)">
        <g id="Group_1007" data-name="Group 1007" transform="translate(0 0)">
          <path id="Path_398" data-name="Path 398" d="M4.388,7.638a7.07,7.07,0,0,1-2.265-.358A6.437,6.437,0,0,1,.156,6.029L1.229,4.778a5.506,5.506,0,0,0,1.49,1.013,4.372,4.372,0,0,0,1.669.3A2.171,2.171,0,0,0,5.7,5.731a1.091,1.091,0,0,0,.477-.894v-.06A.975.975,0,0,0,6,4.182,2.12,2.12,0,0,0,5.341,3.7a6.5,6.5,0,0,0-1.43-.417,15.984,15.984,0,0,1-1.847-.6A3.149,3.149,0,0,1,.931,1.8,2.945,2.945,0,0,1,.573.248,2.806,2.806,0,0,1,.991-1.3,3.119,3.119,0,0,1,2.242-2.314,4.161,4.161,0,0,1,4.03-2.672,5.249,5.249,0,0,1,6-2.314a6.232,6.232,0,0,1,1.669.894L6.712-.05A4.538,4.538,0,0,0,5.341-.824a3.39,3.39,0,0,0-1.371-.3,1.753,1.753,0,0,0-1.192.358A1.064,1.064,0,0,0,2.361.07v.06A1.238,1.238,0,0,0,2.54.785a1.684,1.684,0,0,0,.715.477c.358.119.849.268,1.49.417A6.26,6.26,0,0,1,7.129,2.751a2.307,2.307,0,0,1,.834,1.907,2.675,2.675,0,0,1-.477,1.609A2.671,2.671,0,0,1,6.235,7.281,4.395,4.395,0,0,1,4.388,7.638Zm0,0" transform="translate(-0.156 2.672)" fill="#fff"/>
        </g>
      </g>
    </g>
    <g id="Group_1012" data-name="Group 1012" transform="translate(444.62 222.707)">
      <g id="Group_1011" data-name="Group 1011" transform="translate(0 0)">
        <g id="Group_1010" data-name="Group 1010" transform="translate(0 0)">
          <path id="Path_399" data-name="Path 399" d="M3.6,7.491.141-2.641H2.048L4.431,4.809,6.875-2.641h1.49l2.5,7.449,2.384-7.449H15.1L11.643,7.491H10.093L7.59.28,5.147,7.491Zm0,0" transform="translate(-0.141 2.641)" fill="#fff"/>
        </g>
      </g>
    </g>
    <g id="Group_1015" data-name="Group 1015" transform="translate(461.42 222.707)">
      <g id="Group_1014" data-name="Group 1014" transform="translate(0 0)">
        <g id="Group_1013" data-name="Group 1013" transform="translate(0 0)">
          <path id="Path_400" data-name="Path 400" d="M.344,7.431V-2.641H7.793v1.609H2.072V1.591H7.138V3.14H2.072V5.822H7.853V7.431Zm0,0" transform="translate(-0.344 2.641)" fill="#fff"/>
        </g>
      </g>
    </g>
    <g id="Group_1018" data-name="Group 1018" transform="translate(471.041 222.707)">
      <g id="Group_1017" data-name="Group 1017" transform="translate(0 0)">
        <g id="Group_1016" data-name="Group 1016" transform="translate(0 0)">
          <path id="Path_401" data-name="Path 401" d="M.344,7.431V-2.641H7.793v1.609H2.072V1.591H7.138V3.14H2.072V5.822H7.853V7.431Zm0,0" transform="translate(-0.344 2.641)" fill="#fff"/>
        </g>
      </g>
    </g>
    <g id="Group_1021" data-name="Group 1021" transform="translate(479.947 222.707)">
      <g id="Group_1020" data-name="Group 1020" transform="translate(0 0)">
        <g id="Group_1019" data-name="Group 1019" transform="translate(0 0)">
          <path id="Path_402" data-name="Path 402" d="M3.315,7.431v-8.4H.156V-2.641H8.321V-.972H5.1v8.4Zm0,0" transform="translate(-0.156 2.641)" fill="#fff"/>
        </g>
      </g>
    </g>
    <g id="Group_1024" data-name="Group 1024" transform="translate(166.497 519.786)">
      <g id="Group_1023" data-name="Group 1023" transform="translate(0 0)">
        <g id="Group_1022" data-name="Group 1022" transform="translate(0 0)">
          <path id="Path_403" data-name="Path 403" d="M.344,7.431V-2.641h4.47a3.448,3.448,0,0,1,2.622.894A2.3,2.3,0,0,1,8.151-.078v.06a2.1,2.1,0,0,1-.477,1.43,3.359,3.359,0,0,1-.954.775,3.456,3.456,0,0,1,1.43.894A2.106,2.106,0,0,1,8.687,4.63v.06A2.34,2.34,0,0,1,7.674,6.716a4.6,4.6,0,0,1-2.682.715ZM6.363.28V.22a1.017,1.017,0,0,0-.477-.894,1.9,1.9,0,0,0-1.252-.358H2.072V1.591H4.456a2.531,2.531,0,0,0,1.371-.3A1.136,1.136,0,0,0,6.363.28Zm.6,4.172A1.108,1.108,0,0,0,6.422,3.5a2.558,2.558,0,0,0-1.549-.417h-2.8v2.8h2.92a2.542,2.542,0,0,0,1.43-.358,1.136,1.136,0,0,0,.536-1.013Zm0,0" transform="translate(-0.344 2.641)" fill="#fff"/>
        </g>
      </g>
    </g>
    <g id="Group_1027" data-name="Group 1027" transform="translate(176.924 519.786)">
      <g id="Group_1026" data-name="Group 1026" transform="translate(0 0)">
        <g id="Group_1025" data-name="Group 1025" transform="translate(0 0)">
          <path id="Path_404" data-name="Path 404" d="M.359,7.431V-2.641H2.147V7.431Zm0,0" transform="translate(-0.359 2.641)" fill="#fff"/>
        </g>
      </g>
    </g>
    <g id="Group_1030" data-name="Group 1030" transform="translate(180.702 519.786)">
      <g id="Group_1029" data-name="Group 1029" transform="translate(0 0)">
        <g id="Group_1028" data-name="Group 1028" transform="translate(0 0)">
          <path id="Path_405" data-name="Path 405" d="M3.315,7.431v-8.4H.156V-2.641H8.321V-.972H5.1v8.4Zm0,0" transform="translate(-0.156 2.641)" fill="#fff"/>
        </g>
      </g>
    </g>
    <g id="Group_1033" data-name="Group 1033" transform="translate(190.007 519.786)">
      <g id="Group_1032" data-name="Group 1032" transform="translate(0 0)">
        <g id="Group_1031" data-name="Group 1031" transform="translate(0 0)">
          <path id="Path_406" data-name="Path 406" d="M3.315,7.431v-8.4H.156V-2.641H8.321V-.972H5.1v8.4Zm0,0" transform="translate(-0.156 2.641)" fill="#fff"/>
        </g>
      </g>
    </g>
    <g id="Group_1036" data-name="Group 1036" transform="translate(200.027 519.786)">
      <g id="Group_1035" data-name="Group 1035" transform="translate(0 0)">
        <g id="Group_1034" data-name="Group 1034" transform="translate(0 0)">
          <path id="Path_407" data-name="Path 407" d="M.344,7.431V-2.641H7.793v1.609H2.072V1.591H7.138V3.14H2.072V5.822H7.853V7.431Zm0,0" transform="translate(-0.344 2.641)" fill="#fff"/>
        </g>
      </g>
    </g>
    <g id="Group_1039" data-name="Group 1039" transform="translate(209.648 519.786)">
      <g id="Group_1038" data-name="Group 1038" transform="translate(0 0)">
        <g id="Group_1037" data-name="Group 1037" transform="translate(0 0)">
          <path id="Path_408" data-name="Path 408" d="M.344,7.431V-2.641h4.47a4.446,4.446,0,0,1,1.669.3,3.709,3.709,0,0,1,1.252.715,4.124,4.124,0,0,1,.6.954A3.231,3.231,0,0,1,8.568.578,2.853,2.853,0,0,1,7.853,2.6,3.615,3.615,0,0,1,6.184,3.617L8.866,7.431H6.78l-2.5-3.516H2.072V7.431ZM2.072,2.365H4.694a2.361,2.361,0,0,0,1.49-.417A1.58,1.58,0,0,0,6.72.7V.637A1.44,1.44,0,0,0,6.184-.555a2.294,2.294,0,0,0-1.549-.477H2.072Zm0,0" transform="translate(-0.344 2.641)" fill="#fff"/>
        </g>
      </g>
    </g>
  </g>
</svg>
