<svg xmlns="http://www.w3.org/2000/svg" xmlns:xlink="http://www.w3.org/1999/xlink" width="435.448" height="307.755" viewBox="0 0 435.448 307.755">
  <defs>
    <clipPath id="clip-path">
      <path id="Path_78" data-name="Path 78" d="M114.277,554.2H422.032V861.954H114.277Zm0,0" transform="translate(-114.277 -554.199)"/>
    </clipPath>
    <clipPath id="clip-path-2">
      <path id="Path_84" data-name="Path 84" d="M151.906,591.832h32.7v32.686h-32.7Zm0,0" transform="translate(-151.906 -591.832)"/>
    </clipPath>
    <clipPath id="clip-path-3">
      <path id="Path_83" data-name="Path 83" d="M168.256,591.832a16.343,16.343,0,1,0,16.35,16.336A16.346,16.346,0,0,0,168.256,591.832Zm0,0" transform="translate(-151.906 -591.832)"/>
    </clipPath>
  </defs>
  <g id="Group_4585" data-name="Group 4585" transform="translate(-100.506 -232.245)">
    <g id="Group_125" data-name="Group 125" transform="translate(172.437 232.245)" clip-path="url(#clip-path)">
      <path id="Path_77" data-name="Path 77" d="M409.83,648.134a153.624,153.624,0,1,0,12.2,59.855A153.367,153.367,0,0,0,409.83,648.134Zm-1.782,119.039a152.31,152.31,0,1,1,11.945-59.128A151.323,151.323,0,0,1,408.048,767.173ZM364.885,611.257a136.5,136.5,0,1,0,29.293,43.49A136.449,136.449,0,0,0,364.885,611.257Zm27.525,149.3a135.927,135.927,0,1,1,10.534-52.571A134.489,134.489,0,0,1,392.411,760.559Zm-39.528-137.3a119.448,119.448,0,1,0,25.658,38.116A118.774,118.774,0,0,0,352.883,623.26Zm23.891,130.728a118.577,118.577,0,0,1-25.245,37.489,118.114,118.114,0,0,1-129.374,25.23,118.531,118.531,0,0,1-37.489-25.23A118.169,118.169,0,0,1,159.421,662.1a118.575,118.575,0,0,1,25.245-37.489A118.168,118.168,0,0,1,314.04,599.369a118.573,118.573,0,0,1,37.489,25.245A115.706,115.706,0,0,1,376.774,662.1a117.439,117.439,0,0,1,9.28,45.942A119.254,119.254,0,0,1,376.774,753.988ZM340.838,635.3A102.448,102.448,0,0,0,268.1,605.156,102.448,102.448,0,0,0,195.357,635.3a103.6,103.6,0,0,0-22.052,32.686A102.974,102.974,0,1,0,340.838,635.3Zm20.227,112.054a99.868,99.868,0,0,1-21.638,32.073,100.586,100.586,0,1,1,21.638-32.073ZM328.85,647.293A85.62,85.62,0,0,0,268.1,622.162a85.868,85.868,0,0,0-79.155,52.457,85.183,85.183,0,0,0-6.728,33.427A85.867,85.867,0,0,0,234.671,787.2a86.4,86.4,0,0,0,66.854,0,86.635,86.635,0,0,0,27.326-18.4,85.9,85.9,0,0,0,0-121.505Zm16.578,93.452A83.786,83.786,0,0,1,268.04,792a84.5,84.5,0,0,1-32.686-6.571A83.959,83.959,0,0,1,268.04,624.087a83.6,83.6,0,0,1,59.4,24.56,83.6,83.6,0,0,1,24.56,59.4A82.529,82.529,0,0,1,345.428,740.745ZM268.1,639.111a68.914,68.914,0,1,0,48.75,20.184A68.429,68.429,0,0,0,268.1,639.111Zm47.353,116.274a66.986,66.986,0,1,1,19.6-47.339A66.573,66.573,0,0,1,315.451,755.385ZM268.1,656.1A52.026,52.026,0,1,0,304.8,671.34,51.565,51.565,0,0,0,268.1,656.1ZM303.449,743.4A49.968,49.968,0,1,1,318.1,708.045,49.688,49.688,0,0,1,303.449,743.4ZM268.1,673.108a34.895,34.895,0,1,0,24.717,10.22A34.884,34.884,0,0,0,268.1,673.108ZM291.4,731.351a32.968,32.968,0,1,1,9.65-23.306A32.791,32.791,0,0,1,291.4,731.351ZM268.1,690.113a17.932,17.932,0,1,0,17.932,17.932A17.965,17.965,0,0,0,268.1,690.113Zm0,33.94a16.008,16.008,0,1,1,16.008-16.008A16.048,16.048,0,0,1,268.1,724.053Zm0,0" transform="translate(-114.277 -554.168)" fill="#1d1d1b"/>
    </g>
    <path id="Path_79" data-name="Path 79" d="M114.277,595.941h2.666v2.68h-2.666m5.345-2.68h2.68v2.68h-2.68m5.345-2.68h2.68v2.68h-2.68m5.36-2.68h2.68v2.68h-2.68m5.345-2.68h2.68v2.68h-2.68m5.36-2.68h2.68v2.68h-2.68m5.345-2.68h2.68v2.68h-2.68m5.36-2.68h2.68v2.68h-2.68m5.345-2.68h2.68v2.68h-2.68m5.36-2.68h2.68v2.68h-2.68m5.345-2.68h2.68v2.68h-2.68m5.36-2.68h2.68v2.68h-2.68m5.345-2.68h2.68v2.68h-2.68m5.36-2.68h2.68v2.68h-2.68m5.345-2.68h2.68v2.68H189.2m5.36-2.68h2.68v2.68h-2.68m5.345-2.68h2.68v2.68H199.9m5.36-2.68h2.666v2.68h-2.666m5.345-2.68h2.68v2.68h-2.68m5.36-2.68h2.666v2.68h-2.666m5.345-2.68h2.68v2.68h-2.68m5.36-2.68h2.666v2.68h-2.666m5.345-2.68h2.68v2.68h-2.68m5.36-2.68h2.666v2.68h-2.666m5.345-2.68h2.68v2.68h-2.68m5.36-2.68h2.666v2.68h-2.666m5.345-2.68h2.68v2.68h-2.68m5.36-2.68h2.666v2.68h-2.666m5.345-2.68h2.68v2.68h-2.68m5.36-2.68h2.666v2.68h-2.666m5.345-2.68h2.68v2.68h-2.68m5.36-2.68h2.666v2.68H280.2m5.345-2.68h2.68v2.68h-2.68m5.345-2.68h2.68v2.68h-2.68m5.36-2.68h2.68v2.68h-2.68m5.345-2.68h2.68v2.68H301.6m5.36-2.68h2.68v2.68h-2.68m5.345-2.68h2.68v2.68H312.3m5.36-2.68h2.68v2.68h-2.68m5.345-2.68h2.68v2.68h-2.68m5.36-2.68h2.68v2.68h-2.68m5.345-2.68h2.68v2.68h-2.68m5.36-2.68h2.68v2.68h-2.68m5.345-2.68h2.68v2.68h-2.68m5.36-2.68h2.68v2.68h-2.68m5.345-2.68h2.68v2.68h-2.68m5.36-2.68h2.68v2.68h-2.68m5.345-2.68h2.68v2.68h-2.68m5.36-2.68h2.666v2.68h-2.666m5.345-2.68h2.68v2.68h-2.68m5.36-2.68h2.666v2.68h-2.666m5.345-2.68h2.68v2.68h-2.68m5.36-2.68h2.666v2.68H392.6m5.345-2.68h2.68v2.68h-2.68m5.36-2.68h2.666v2.68H403.3m5.345-2.68h2.68v2.68h-2.68m5.36-2.68h2.666v2.68h-2.666m5.345-2.68h.114v2.68h-.114" transform="translate(58.159 -211.372)"/>
    <path id="Path_80" data-name="Path 80" d="M319.276,565.134l-1.654,2.1-2.1-1.639,1.639-2.11m-1.183,5.859-1.654,2.11-2.11-1.653,1.654-2.11m-1.2,5.873-1.654,2.1-2.11-1.639,1.654-2.11m-1.2,5.859-1.654,2.11-2.1-1.654,1.654-2.11m-1.2,5.873-1.654,2.1-2.11-1.639,1.654-2.11m-1.2,5.859-1.654,2.11-2.11-1.654,1.654-2.11m-1.2,5.873-1.639,2.1-2.11-1.639,1.654-2.11m-1.2,5.859-1.654,2.11-2.11-1.653,1.654-2.11m-1.2,5.873-1.654,2.11-2.1-1.654,1.639-2.11m-1.2,5.859-1.639,2.11-2.11-1.654,1.654-2.11m-1.2,5.873-1.654,2.11-2.11-1.654,1.654-2.11m-1.2,5.859-1.654,2.11-2.1-1.654,1.639-2.1m-1.183,5.858-1.654,2.11-2.11-1.654,1.654-2.11m-1.2,5.858L274.7,622l-2.11-1.654,1.654-2.1m-1.2,5.859-1.639,2.11-2.11-1.654,1.654-2.11m-1.2,5.859-1.654,2.11-2.11-1.654,1.654-2.1m-1.2,5.859-1.654,2.11-2.11-1.654,1.654-2.11m-1.2,5.873-1.639,2.1-2.11-1.654,1.654-2.1m-1.2,5.858-1.654,2.11-2.11-1.654,1.654-2.11m-1.2,5.873-1.654,2.1-2.1-1.654,1.639-2.1m-1.183,5.859-1.654,2.11-2.11-1.654,1.654-2.11m-1.2,5.873-1.654,2.1-2.11-1.639,1.654-2.11m-1.2,5.859-1.654,2.11-2.1-1.653,1.654-2.11m-1.2,5.873-1.654,2.1-2.11-1.639,1.654-2.11m-1.2,5.859-1.654,2.11-2.11-1.654,1.654-2.11m-1.2,5.873-1.639,2.1-2.11-1.639,1.654-2.11m-1.2,5.859-1.654,2.11-2.11-1.654,1.654-2.11m-1.2,5.873-1.654,2.11-2.1-1.653,1.639-2.11m-1.2,5.859-1.639,2.11-2.11-1.653,1.654-2.11m-1.2,5.873-1.654,2.11-2.11-1.654,1.654-2.11m-1.2,5.859-1.654,2.11-2.1-1.654,1.639-2.1m-1.183,5.859-1.654,2.11-2.11-1.654,1.654-2.11m-1.2,5.859-1.654,2.11-2.11-1.654,1.654-2.1m-1.2,5.858-1.639,2.11-2.11-1.654,1.654-2.11m-1.2,5.859-1.654,2.11-2.11-1.653,1.654-2.1m-1.2,5.859-1.654,2.11-2.11-1.654,1.654-2.11m-1.2,5.859-1.639,2.11-2.11-1.654,1.654-2.1m-1.2,5.859-1.654,2.11-2.11-1.654,1.654-2.11m-1.2,5.873-1.654,2.1-2.1-1.654,1.639-2.1m-1.183,5.858-1.654,2.11-2.11-1.654,1.654-2.11m-1.2,5.873-1.654,2.1-2.11-1.639,1.654-2.11m-1.2,5.859-1.654,2.11-2.1-1.654,1.654-2.11m-1.2,5.873-1.654,2.1-2.11-1.639,1.654-2.11m-1.2,5.859-1.654,2.11-2.11-1.654,1.654-2.11m-1.2,5.873-1.639,2.1-2.11-1.639,1.654-2.11m-1.2,5.858-1.654,2.11-2.11-1.654,1.654-2.11m-1.2,5.873-1.654,2.11-2.1-1.654,1.639-2.11m-1.183,5.859-1.654,2.11-2.11-1.654,1.654-2.11m-1.2,5.873-1.654,2.11-2.11-1.653,1.654-2.11m-1.2,5.859-1.654,2.11-2.1-1.653,1.639-2.1m-1.183,5.859-1.654,2.11-2.11-1.654,1.654-2.11m-1.2,5.859-1.654,2.11-2.11-1.654,1.654-2.1m-1.2,5.859-1.639,2.11-2.11-1.654,1.654-2.11m-1.2,5.859-1.654,2.11-2.11-1.654,1.654-2.1m-1.2,5.858-1.654,2.11-2.1-1.653,1.639-2.11m-1.2,5.859-1.639,2.11-2.11-1.653,1.654-2.1m-1.2,5.859-1.411,1.8-2.1-1.653,1.4-1.8" transform="translate(102.129 -297.366)"/>
    <path id="Path_81" data-name="Path 81" d="M132.985,563.48l1.654,2.11-2.11,1.639-1.654-2.1m5.417,2.552,1.654,2.11-2.11,1.653-1.654-2.11m5.4,2.566,1.654,2.11-2.11,1.639-1.639-2.1m5.4,2.552,1.654,2.11-2.11,1.654-1.654-2.11m5.417,2.566,1.639,2.11-2.1,1.639-1.654-2.1m5.4,2.552,1.654,2.11-2.11,1.654-1.654-2.11m5.417,2.566,1.654,2.11-2.11,1.639-1.654-2.1m5.417,2.552,1.639,2.11-2.1,1.653L154,594.612m5.4,2.566,1.654,2.11-2.11,1.654-1.654-2.11m5.417,2.552,1.654,2.11-2.11,1.654-1.654-2.11M166,605.6l1.654,2.11-2.11,1.654-1.639-2.11m5.4,2.566,1.654,2.1-2.11,1.654-1.654-2.11m5.417,2.566,1.639,2.11-2.1,1.654-1.654-2.11m5.4,2.566,1.654,2.1L175.449,622l-1.639-2.11m5.4,2.566,1.654,2.11-2.11,1.654L177.1,624.1m5.417,2.566,1.639,2.1-2.1,1.654-1.654-2.11m5.4,2.566,1.654,2.11-2.11,1.654-1.654-2.11m5.417,2.566,1.654,2.1-2.11,1.654-1.654-2.11m5.4,2.566,1.654,2.11-2.1,1.654-1.654-2.11m5.4,2.566,1.654,2.1-2.11,1.654-1.654-2.1m5.417,2.552,1.654,2.11-2.11,1.654-1.654-2.11m5.4,2.566,1.654,2.11-2.11,1.639-1.639-2.1m5.4,2.552,1.654,2.11-2.11,1.653-1.654-2.11m5.417,2.566,1.639,2.11-2.1,1.639-1.654-2.1m5.4,2.552,1.654,2.11-2.11,1.654-1.654-2.11m5.417,2.566,1.654,2.11-2.11,1.639-1.654-2.1M218.839,673l1.639,2.11-2.1,1.654-1.654-2.11m5.4,2.566,1.654,2.11-2.11,1.653-1.654-2.11m5.417,2.552,1.654,2.11-2.11,1.653-1.654-2.11m5.4,2.566,1.654,2.11-2.11,1.654-1.639-2.11m5.4,2.566,1.654,2.1-2.11,1.654-1.654-2.11m5.417,2.566,1.639,2.11-2.1,1.654-1.654-2.11m5.4,2.566,1.654,2.1-2.11,1.654-1.639-2.11m5.4,2.566,1.654,2.11-2.11,1.654-1.654-2.11m5.417,2.566,1.639,2.1-2.1,1.653-1.654-2.11m5.4,2.566,1.654,2.11-2.11,1.654-1.654-2.11m5.417,2.566,1.654,2.1-2.11,1.654-1.654-2.11m5.4,2.566,1.654,2.11-2.1,1.654-1.654-2.11m5.4,2.566,1.654,2.1L258,727.307l-1.654-2.1m5.417,2.552,1.654,2.11-2.11,1.654-1.654-2.11m5.4,2.566,1.654,2.11-2.11,1.639-1.639-2.1m5.4,2.552,1.654,2.11-2.11,1.654-1.654-2.11m5.417,2.566,1.639,2.11-2.1,1.639-1.654-2.1m5.4,2.552,1.654,2.11-2.11,1.654-1.654-2.11m5.417,2.566,1.654,2.11-2.11,1.639-1.654-2.1m5.4,2.552,1.654,2.11-2.1,1.654-1.654-2.11m5.4,2.566,1.654,2.11-2.11,1.639-1.654-2.1m5.417,2.552,1.654,2.11-2.11,1.654-1.654-2.11m5.4,2.566,1.654,2.11-2.11,1.653-1.639-2.11m5.4,2.552,1.654,2.11-2.11,1.653-1.654-2.11m5.417,2.566,1.639,2.11-2.1,1.654-1.654-2.11m5.4,2.566,1.654,2.1-2.11,1.654-1.639-2.11m5.4,2.566,1.654,2.11-2.11,1.654-1.654-2.11m5.417,2.566,1.639,2.1-2.1,1.654-1.654-2.11m5.4,2.566,1.654,2.11-2.11,1.653-1.654-2.11m5.417,2.566,1.654,2.1-2.11,1.653-1.654-2.11m5.4,2.566,1.411,1.8-2.11,1.653-1.4-1.8" transform="translate(102.129 -297.366)"/>
    <g id="Group_127" data-name="Group 127" transform="translate(309.75 369.573)" clip-path="url(#clip-path-2)">
      <g id="Group_126" data-name="Group 126" transform="translate(0 0)" clip-path="url(#clip-path-3)">
        <path id="Path_82" data-name="Path 82" d="M151.906,591.832h32.7v32.686h-32.7Zm0,0" transform="translate(-151.906 -591.832)" fill="#bf9f3b"/>
      </g>
    </g>
    <path id="Path_85" data-name="Path 85" d="M0,0,96.626.008" transform="translate(258.933 385.937) rotate(94.242)" fill="none" stroke="#bf9f3b" stroke-width="2.2"/>
    <path id="Path_86" data-name="Path 86" d="M0,.007,109.979,0" transform="matrix(0.141, 0.99, -0.99, 0.141, 243.416, 278.443)" fill="none" stroke="#bf9f3b" stroke-width="2.2"/>
    <path id="Path_87" data-name="Path 87" d="M0,0,132.518.005" transform="translate(358.657 346.652) rotate(-150.424)" fill="none" stroke="#bf9f3b" stroke-width="2.2"/>
    <path id="Path_88" data-name="Path 88" d="M0,0,51.138.008" transform="matrix(0.606, 0.795, -0.795, 0.606, 358.671, 345.241)" fill="none" stroke="#bf9f3b" stroke-width="2.2"/>
    <path id="Path_89" data-name="Path 89" d="M0,0,48.224,0" transform="matrix(-0.839, 0.545, -0.545, -0.839, 389.661, 385.923)" fill="none" stroke="#bf9f3b" stroke-width="2.2"/>
    <path id="Path_90" data-name="Path 90" d="M0,.006,120.021,0" transform="translate(349.224 412.198) rotate(144.272)" fill="none" stroke="#bf9f3b" stroke-width="2.2"/>
    <g id="Group_130" data-name="Group 130" transform="translate(496.246 380.942)">
      <g id="Group_129" data-name="Group 129" transform="translate(0)">
        <g id="Group_128" data-name="Group 128" transform="translate(0 0)">
          <path id="Path_91" data-name="Path 91" d="M4.2,7.192A6.764,6.764,0,0,1,2.038,6.85a6.159,6.159,0,0,1-1.882-1.2l1.026-1.2a5.268,5.268,0,0,0,1.425.969,4.183,4.183,0,0,0,1.6.285,2.078,2.078,0,0,0,1.254-.342,1.044,1.044,0,0,0,.456-.855V4.455a.933.933,0,0,0-.171-.57,2.028,2.028,0,0,0-.627-.456,6.216,6.216,0,0,0-1.368-.4,15.293,15.293,0,0,1-1.768-.57A3.013,3.013,0,0,1,.9,1.6,2.818,2.818,0,0,1,.555.122a2.685,2.685,0,0,1,.4-1.482,2.984,2.984,0,0,1,1.2-.969,3.981,3.981,0,0,1,1.711-.342,5.022,5.022,0,0,1,1.882.342,5.963,5.963,0,0,1,1.6.855L6.428-.163A4.342,4.342,0,0,0,5.117-.9a3.243,3.243,0,0,0-1.311-.285,1.677,1.677,0,0,0-1.14.342,1.018,1.018,0,0,0-.4.8V.008a1.184,1.184,0,0,0,.171.627,1.612,1.612,0,0,0,.684.456c.342.114.813.257,1.425.4A5.989,5.989,0,0,1,6.827,2.517a2.207,2.207,0,0,1,.8,1.825,2.559,2.559,0,0,1-.456,1.539,2.555,2.555,0,0,1-1.2.969A4.2,4.2,0,0,1,4.2,7.192Zm0,0" transform="translate(-0.156 2.672)"/>
        </g>
      </g>
    </g>
    <g id="Group_133" data-name="Group 133" transform="translate(505.267 380.885)">
      <g id="Group_132" data-name="Group 132" transform="translate(0)">
        <g id="Group_131" data-name="Group 131" transform="translate(0 0)">
          <path id="Path_92" data-name="Path 92" d="M5.236,7.291a5.037,5.037,0,0,1-2-.4,4.948,4.948,0,0,1-1.6-1.083A5.2,5.2,0,0,1,.561,4.269,5.438,5.438,0,0,1,.219,2.33,5.494,5.494,0,0,1,.561.391a5.107,5.107,0,0,1,1.083-1.6,5.185,5.185,0,0,1,1.6-1.083,5.167,5.167,0,0,1,2.053-.4,5.141,5.141,0,0,1,2,.4,5.36,5.36,0,0,1,1.6,1.083A4.515,4.515,0,0,1,9.912.391a4.539,4.539,0,0,1,.4,1.882V2.33a4.741,4.741,0,0,1-.4,1.882,4.392,4.392,0,0,1-1.026,1.6,5.107,5.107,0,0,1-1.6,1.083A5.27,5.27,0,0,1,5.236,7.291Zm.057-1.6a3.194,3.194,0,0,0,1.654-.4,3.171,3.171,0,0,0,1.14-1.2A3.51,3.51,0,0,0,8.543,2.33,3.264,3.264,0,0,0,8.087.62,3.228,3.228,0,0,0,6.947-.635a3.264,3.264,0,0,0-1.711-.456,3.1,3.1,0,0,0-1.654.456A3.488,3.488,0,0,0,2.385.62a3.417,3.417,0,0,0-.4,1.654V2.33a3.684,3.684,0,0,0,.4,1.711,3.44,3.44,0,0,0,1.2,1.2A3.071,3.071,0,0,0,5.293,5.694Zm0,0" transform="translate(-0.219 2.688)"/>
        </g>
      </g>
    </g>
    <g id="Group_136" data-name="Group 136" transform="translate(517.229 381.056)">
      <g id="Group_135" data-name="Group 135" transform="translate(0)">
        <g id="Group_134" data-name="Group 134" transform="translate(0 0)">
          <path id="Path_93" data-name="Path 93" d="M4.4,7.166A4.178,4.178,0,0,1,1.38,6.083,4.288,4.288,0,0,1,.3,2.89V-2.641H2.007V2.833a2.9,2.9,0,0,0,.627,2.053A2.384,2.384,0,0,0,4.4,5.57,2.374,2.374,0,0,0,6.17,4.943,2.788,2.788,0,0,0,6.854,2.89V-2.641H8.507V2.833a4.27,4.27,0,0,1-1.14,3.25A4,4,0,0,1,4.4,7.166Zm0,0" transform="translate(-0.297 2.641)"/>
        </g>
      </g>
    </g>
    <g id="Group_139" data-name="Group 139" transform="translate(527.801 381.056)">
      <g id="Group_138" data-name="Group 138" transform="translate(0)">
        <g id="Group_137" data-name="Group 137" transform="translate(0 0)">
          <path id="Path_94" data-name="Path 94" d="M.344,7V-2.641H4.62a4.254,4.254,0,0,1,1.6.285,3.548,3.548,0,0,1,1.2.684,3.946,3.946,0,0,1,.57.912,3.091,3.091,0,0,1,.228,1.2,2.729,2.729,0,0,1-.684,1.939,3.459,3.459,0,0,1-1.6.969L8.5,7h-2L4.107,3.631H2V7ZM2,2.149H4.506a2.259,2.259,0,0,0,1.425-.4,1.512,1.512,0,0,0,.513-1.2V.5a1.378,1.378,0,0,0-.513-1.14A2.2,2.2,0,0,0,4.449-1.1H2Zm0,0" transform="translate(-0.344 2.641)"/>
        </g>
      </g>
    </g>
    <g id="Group_142" data-name="Group 142" transform="translate(100.506 381.056)">
      <g id="Group_141" data-name="Group 141" transform="translate(0)">
        <g id="Group_140" data-name="Group 140" transform="translate(0 0)">
          <path id="Path_95" data-name="Path 95" d="M.344,7V-2.641H7.471V-1.1H2V1.522H6.844V3.061H2V7Zm0,0" transform="translate(-0.344 2.641)"/>
        </g>
      </g>
    </g>
    <g id="Group_145" data-name="Group 145" transform="translate(109.519 381.056)">
      <g id="Group_144" data-name="Group 144" transform="translate(0)">
        <g id="Group_143" data-name="Group 143" transform="translate(0 0)">
          <path id="Path_96" data-name="Path 96" d="M.344,7V-2.641H4.62a4.254,4.254,0,0,1,1.6.285,3.548,3.548,0,0,1,1.2.684,3.946,3.946,0,0,1,.57.912,3.091,3.091,0,0,1,.228,1.2,2.729,2.729,0,0,1-.684,1.939,3.459,3.459,0,0,1-1.6.969L8.5,7h-2L4.107,3.631H2V7ZM2,2.149H4.506a2.259,2.259,0,0,0,1.425-.4,1.512,1.512,0,0,0,.513-1.2V.5a1.378,1.378,0,0,0-.513-1.14A2.2,2.2,0,0,0,4.449-1.1H2Zm0,0" transform="translate(-0.344 2.641)"/>
        </g>
      </g>
    </g>
    <g id="Group_148" data-name="Group 148" transform="translate(119.28 381.056)">
      <g id="Group_147" data-name="Group 147" transform="translate(0)">
        <g id="Group_146" data-name="Group 146" transform="translate(0 0)">
          <path id="Path_97" data-name="Path 97" d="M4.4,7.166A4.178,4.178,0,0,1,1.38,6.083,4.288,4.288,0,0,1,.3,2.89V-2.641H2.007V2.833a2.9,2.9,0,0,0,.627,2.053A2.384,2.384,0,0,0,4.4,5.57,2.374,2.374,0,0,0,6.17,4.943,2.788,2.788,0,0,0,6.854,2.89V-2.641H8.507V2.833a4.27,4.27,0,0,1-1.14,3.25A4,4,0,0,1,4.4,7.166Zm0,0" transform="translate(-0.297 2.641)"/>
        </g>
      </g>
    </g>
    <g id="Group_151" data-name="Group 151" transform="translate(129.909 381.056)">
      <g id="Group_150" data-name="Group 150" transform="translate(0)">
        <g id="Group_149" data-name="Group 149" transform="translate(0 0)">
          <path id="Path_98" data-name="Path 98" d="M.359,7V-2.641H2.07V7Zm0,0" transform="translate(-0.359 2.641)"/>
        </g>
      </g>
    </g>
    <g id="Group_154" data-name="Group 154" transform="translate(133.522 381.056)">
      <g id="Group_153" data-name="Group 153" transform="translate(0)">
        <g id="Group_152" data-name="Group 152" transform="translate(0 0)">
          <path id="Path_99" data-name="Path 99" d="M3.178,7v-8.04H.156v-1.6H7.968v1.6H4.889V7Zm0,0" transform="translate(-0.156 2.641)"/>
        </g>
      </g>
    </g>
    <g id="Group_157" data-name="Group 157" transform="translate(142.083 381.056)">
      <g id="Group_156" data-name="Group 156" transform="translate(0)">
        <g id="Group_155" data-name="Group 155" transform="translate(0 0)">
          <path id="Path_100" data-name="Path 100" d="M3.883,7V3.175L.063-2.641H2.115l2.68,4.276,2.68-4.276H9.413L5.593,3.175V7Zm0,0" transform="translate(-0.063 2.641)"/>
        </g>
      </g>
    </g>
    <g id="Group_160" data-name="Group 160" transform="translate(431.219 518.988)">
      <g id="Group_159" data-name="Group 159" transform="translate(0 0)">
        <g id="Group_158" data-name="Group 158" transform="translate(0 0)">
          <path id="Path_101" data-name="Path 101" d="M4.2,7.192A6.764,6.764,0,0,1,2.038,6.85a6.159,6.159,0,0,1-1.882-1.2l1.026-1.2a5.268,5.268,0,0,0,1.425.969,4.183,4.183,0,0,0,1.6.285,2.078,2.078,0,0,0,1.254-.342,1.044,1.044,0,0,0,.456-.855V4.455a.933.933,0,0,0-.171-.57,2.028,2.028,0,0,0-.627-.456,6.216,6.216,0,0,0-1.368-.4,15.293,15.293,0,0,1-1.768-.57A3.013,3.013,0,0,1,.9,1.6,2.818,2.818,0,0,1,.555.122a2.685,2.685,0,0,1,.4-1.482,2.984,2.984,0,0,1,1.2-.969,3.981,3.981,0,0,1,1.711-.342,5.022,5.022,0,0,1,1.882.342,5.963,5.963,0,0,1,1.6.855L6.428-.163A4.342,4.342,0,0,0,5.117-.9a3.243,3.243,0,0,0-1.311-.285,1.677,1.677,0,0,0-1.14.342,1.018,1.018,0,0,0-.4.8V.008a1.184,1.184,0,0,0,.171.627,1.612,1.612,0,0,0,.684.456c.342.114.813.257,1.425.4A5.989,5.989,0,0,1,6.827,2.517a2.207,2.207,0,0,1,.8,1.825,2.559,2.559,0,0,1-.456,1.539,2.555,2.555,0,0,1-1.2.969A4.2,4.2,0,0,1,4.2,7.192Zm0,0" transform="translate(-0.156 2.672)"/>
        </g>
      </g>
    </g>
    <g id="Group_163" data-name="Group 163" transform="translate(440.696 519.102)">
      <g id="Group_162" data-name="Group 162" transform="translate(0 0)">
        <g id="Group_161" data-name="Group 161" transform="translate(0 0)">
          <path id="Path_102" data-name="Path 102" d="M.344,7V-2.641H4.107a4.475,4.475,0,0,1,1.939.4A2.729,2.729,0,0,1,7.3-1.1,3.264,3.264,0,0,1,7.756.609a3.1,3.1,0,0,1-.513,1.825,3.242,3.242,0,0,1-1.425,1.14,5.022,5.022,0,0,1-1.882.342H2V7ZM2,2.377h2a2.124,2.124,0,0,0,1.482-.456A1.649,1.649,0,0,0,6.046.666V.609a1.453,1.453,0,0,0-.57-1.254A2.356,2.356,0,0,0,3.993-1.1H2Zm0,0" transform="translate(-0.344 2.641)"/>
        </g>
      </g>
    </g>
    <g id="Group_166" data-name="Group 166" transform="translate(449.93 519.102)">
      <g id="Group_165" data-name="Group 165" transform="translate(0 0)">
        <g id="Group_164" data-name="Group 164" transform="translate(0 0)">
          <path id="Path_103" data-name="Path 103" d="M.359,7V-2.641H2.07V7Zm0,0" transform="translate(-0.359 2.641)"/>
        </g>
      </g>
    </g>
    <g id="Group_169" data-name="Group 169" transform="translate(453.772 518.931)">
      <g id="Group_168" data-name="Group 168" transform="translate(0 0)">
        <g id="Group_167" data-name="Group 167" transform="translate(0 0)">
          <path id="Path_104" data-name="Path 104" d="M5.122,7.291a5.438,5.438,0,0,1-1.939-.342,4.948,4.948,0,0,1-1.6-1.083,5.292,5.292,0,0,1-1.026-1.6A5.438,5.438,0,0,1,.219,2.33,5.494,5.494,0,0,1,.561.391a5.475,5.475,0,0,1,1.026-1.6,5.185,5.185,0,0,1,1.6-1.083,5.037,5.037,0,0,1,2-.4A4.775,4.775,0,0,1,7.4-2.231,5.48,5.48,0,0,1,8.942-1.148L7.859.106A4.266,4.266,0,0,0,6.6-.749a2.968,2.968,0,0,0-1.425-.342,3.1,3.1,0,0,0-1.654.456A3.733,3.733,0,0,0,2.385.62a3.417,3.417,0,0,0-.4,1.654V2.33a3.684,3.684,0,0,0,.4,1.711,3.675,3.675,0,0,0,1.14,1.2,2.977,2.977,0,0,0,1.654.456,3.622,3.622,0,0,0,1.539-.285,5.339,5.339,0,0,0,1.2-.912L9,5.58A5.711,5.711,0,0,1,7.346,6.835,4.775,4.775,0,0,1,5.122,7.291Zm0,0" transform="translate(-0.219 2.688)"/>
        </g>
      </g>
    </g>
    <g id="Group_172" data-name="Group 172" transform="translate(464.367 519.102)">
      <g id="Group_171" data-name="Group 171" transform="translate(0 0)">
        <g id="Group_170" data-name="Group 170" transform="translate(0 0)">
          <path id="Path_105" data-name="Path 105" d="M.344,7V-2.641H7.471V-1.1H2V1.408H6.844V2.89H2V5.456H7.528V7Zm0,0" transform="translate(-0.344 2.641)"/>
        </g>
      </g>
    </g>
    <g id="Group_175" data-name="Group 175" transform="translate(473.572 519.102)">
      <g id="Group_174" data-name="Group 174" transform="translate(0 0)">
        <g id="Group_173" data-name="Group 173" transform="translate(0 0)">
          <path id="Path_106" data-name="Path 106" d="M.344,7V-2.641H3.936a5.27,5.27,0,0,1,2.053.4,4.515,4.515,0,0,1,1.6,1.026A4.084,4.084,0,0,1,8.611.267a4.539,4.539,0,0,1,.4,1.882v.057a4.741,4.741,0,0,1-.4,1.882A4.557,4.557,0,0,1,7.585,5.627a5.475,5.475,0,0,1-1.6,1.026A5.85,5.85,0,0,1,3.936,7ZM3.936-1.1H2V5.456H3.936a3.525,3.525,0,0,0,1.711-.4,3.188,3.188,0,0,0,1.2-1.14,3.609,3.609,0,0,0,.4-1.711A3.692,3.692,0,0,0,6.844.5a2.808,2.808,0,0,0-1.2-1.14A3.264,3.264,0,0,0,3.936-1.1Zm0,0" transform="translate(-0.344 2.641)"/>
        </g>
      </g>
    </g>
    <g id="Group_178" data-name="Group 178" transform="translate(138.413 234.87)">
      <g id="Group_177" data-name="Group 177" transform="translate(0 0)">
        <g id="Group_176" data-name="Group 176" transform="translate(0 0)">
          <path id="Path_107" data-name="Path 107" d="M.344,7V-2.641H4.62a3.3,3.3,0,0,1,2.509.855,2.2,2.2,0,0,1,.684,1.6v.057a2.007,2.007,0,0,1-.456,1.368,3.213,3.213,0,0,1-.912.741,3.307,3.307,0,0,1,1.368.855,2.015,2.015,0,0,1,.513,1.482v.057a2.239,2.239,0,0,1-.969,1.939A4.4,4.4,0,0,1,4.791,7ZM6.1.153V.1a.973.973,0,0,0-.456-.855,1.818,1.818,0,0,0-1.2-.342H2V1.408H4.278a2.422,2.422,0,0,0,1.311-.285A1.087,1.087,0,0,0,6.1.153Zm.57,3.991a1.06,1.06,0,0,0-.513-.912,2.447,2.447,0,0,0-1.482-.4H2v2.68H4.791A2.432,2.432,0,0,0,6.16,5.171,1.087,1.087,0,0,0,6.673,4.2Zm0,0" transform="translate(-0.344 2.641)"/>
        </g>
      </g>
    </g>
    <g id="Group_181" data-name="Group 181" transform="translate(147.876 234.699)">
      <g id="Group_180" data-name="Group 180" transform="translate(0 0)">
        <g id="Group_179" data-name="Group 179" transform="translate(0 0)">
          <path id="Path_108" data-name="Path 108" d="M5.236,7.291a5.037,5.037,0,0,1-2-.4,4.948,4.948,0,0,1-1.6-1.083A5.2,5.2,0,0,1,.561,4.269,5.438,5.438,0,0,1,.219,2.33,5.494,5.494,0,0,1,.561.391a5.107,5.107,0,0,1,1.083-1.6,5.185,5.185,0,0,1,1.6-1.083,5.167,5.167,0,0,1,2.053-.4,5.141,5.141,0,0,1,2,.4,5.36,5.36,0,0,1,1.6,1.083A4.515,4.515,0,0,1,9.912.391a4.539,4.539,0,0,1,.4,1.882V2.33a4.741,4.741,0,0,1-.4,1.882,4.392,4.392,0,0,1-1.026,1.6,5.107,5.107,0,0,1-1.6,1.083A5.27,5.27,0,0,1,5.236,7.291Zm.057-1.6a3.194,3.194,0,0,0,1.654-.4,3.171,3.171,0,0,0,1.14-1.2A3.51,3.51,0,0,0,8.543,2.33,3.264,3.264,0,0,0,8.087.62,3.228,3.228,0,0,0,6.947-.635a3.264,3.264,0,0,0-1.711-.456,3.1,3.1,0,0,0-1.654.456A3.488,3.488,0,0,0,2.385.62a3.417,3.417,0,0,0-.4,1.654V2.33a3.684,3.684,0,0,0,.4,1.711,3.44,3.44,0,0,0,1.2,1.2A3.071,3.071,0,0,0,5.293,5.694Zm0,0" transform="translate(-0.219 2.688)"/>
        </g>
      </g>
    </g>
    <g id="Group_184" data-name="Group 184" transform="translate(159.326 234.87)">
      <g id="Group_183" data-name="Group 183" transform="translate(0 0)">
        <g id="Group_182" data-name="Group 182" transform="translate(0 0)">
          <path id="Path_109" data-name="Path 109" d="M3.178,7v-8.04H.156v-1.6H7.968v1.6H4.889V7Zm0,0" transform="translate(-0.156 2.641)"/>
        </g>
      </g>
    </g>
    <g id="Group_187" data-name="Group 187" transform="translate(168.057 234.813)">
      <g id="Group_186" data-name="Group 186" transform="translate(0 0)">
        <g id="Group_185" data-name="Group 185" transform="translate(0 0)">
          <path id="Path_110" data-name="Path 110" d="M.109,7.037,4.329-2.656h1.6l4.219,9.693H8.377L7.408,4.7H2.846L1.877,7.037Zm3.364-3.82H6.78L5.127-.6Zm0,0" transform="translate(-0.109 2.656)"/>
        </g>
      </g>
    </g>
    <g id="Group_190" data-name="Group 190" transform="translate(179.766 234.87)">
      <g id="Group_189" data-name="Group 189" transform="translate(0 0)">
        <g id="Group_188" data-name="Group 188" transform="translate(0 0)">
          <path id="Path_111" data-name="Path 111" d="M.344,7V-2.641H1.883L7.072,4.03V-2.641H8.725V7H7.3L2,.153V7Zm0,0" transform="translate(-0.344 2.641)"/>
        </g>
      </g>
    </g>
    <g id="Group_193" data-name="Group 193" transform="translate(190.677 234.87)">
      <g id="Group_192" data-name="Group 192" transform="translate(0 0)">
        <g id="Group_191" data-name="Group 191" transform="translate(0 0)">
          <path id="Path_112" data-name="Path 112" d="M.359,7V-2.641H2.07V7Zm0,0" transform="translate(-0.359 2.641)"/>
        </g>
      </g>
    </g>
    <g id="Group_196" data-name="Group 196" transform="translate(194.519 234.699)">
      <g id="Group_195" data-name="Group 195" transform="translate(0 0)">
        <g id="Group_194" data-name="Group 194" transform="translate(0 0)">
          <path id="Path_113" data-name="Path 113" d="M5.122,7.291a5.438,5.438,0,0,1-1.939-.342,4.948,4.948,0,0,1-1.6-1.083,5.292,5.292,0,0,1-1.026-1.6A5.438,5.438,0,0,1,.219,2.33,5.494,5.494,0,0,1,.561.391a5.475,5.475,0,0,1,1.026-1.6,5.185,5.185,0,0,1,1.6-1.083,5.037,5.037,0,0,1,2-.4A4.775,4.775,0,0,1,7.4-2.231,5.48,5.48,0,0,1,8.942-1.148L7.859.106A4.266,4.266,0,0,0,6.6-.749a2.968,2.968,0,0,0-1.425-.342,3.1,3.1,0,0,0-1.654.456A3.733,3.733,0,0,0,2.385.62a3.417,3.417,0,0,0-.4,1.654V2.33a3.684,3.684,0,0,0,.4,1.711,3.675,3.675,0,0,0,1.14,1.2,2.977,2.977,0,0,0,1.654.456,3.622,3.622,0,0,0,1.539-.285,5.339,5.339,0,0,0,1.2-.912L9,5.58A5.711,5.711,0,0,1,7.346,6.835,4.775,4.775,0,0,1,5.122,7.291Zm0,0" transform="translate(-0.219 2.688)"/>
        </g>
      </g>
    </g>
    <g id="Group_199" data-name="Group 199" transform="translate(204.258 234.813)">
      <g id="Group_198" data-name="Group 198" transform="translate(0 0)">
        <g id="Group_197" data-name="Group 197" transform="translate(0 0)">
          <path id="Path_114" data-name="Path 114" d="M.109,7.037,4.329-2.656h1.6l4.219,9.693H8.377L7.408,4.7H2.846L1.877,7.037Zm3.364-3.82H6.78L5.127-.6Zm0,0" transform="translate(-0.109 2.656)"/>
        </g>
      </g>
    </g>
    <g id="Group_202" data-name="Group 202" transform="translate(215.967 234.87)">
      <g id="Group_201" data-name="Group 201" transform="translate(0 0)">
        <g id="Group_200" data-name="Group 200" transform="translate(0 0)">
          <path id="Path_115" data-name="Path 115" d="M.344,7V-2.641H2v8.1H7.072V7Zm0,0" transform="translate(-0.344 2.641)"/>
        </g>
      </g>
    </g>
    <g id="Group_205" data-name="Group 205" transform="translate(429.703 234.756)">
      <g id="Group_204" data-name="Group 204" transform="translate(0 0)">
        <g id="Group_203" data-name="Group 203" transform="translate(0 0)">
          <path id="Path_116" data-name="Path 116" d="M4.2,7.192A6.764,6.764,0,0,1,2.038,6.85a6.159,6.159,0,0,1-1.882-1.2l1.026-1.2a5.268,5.268,0,0,0,1.425.969,4.183,4.183,0,0,0,1.6.285,2.078,2.078,0,0,0,1.254-.342,1.044,1.044,0,0,0,.456-.855V4.455a.933.933,0,0,0-.171-.57,2.028,2.028,0,0,0-.627-.456,6.216,6.216,0,0,0-1.368-.4,15.293,15.293,0,0,1-1.768-.57A3.013,3.013,0,0,1,.9,1.6,2.818,2.818,0,0,1,.555.122a2.685,2.685,0,0,1,.4-1.482,2.984,2.984,0,0,1,1.2-.969,3.981,3.981,0,0,1,1.711-.342,5.022,5.022,0,0,1,1.882.342,5.963,5.963,0,0,1,1.6.855L6.428-.163A4.342,4.342,0,0,0,5.117-.9a3.243,3.243,0,0,0-1.311-.285,1.677,1.677,0,0,0-1.14.342,1.018,1.018,0,0,0-.4.8V.008a1.184,1.184,0,0,0,.171.627,1.612,1.612,0,0,0,.684.456c.342.114.813.257,1.425.4A5.989,5.989,0,0,1,6.827,2.517a2.207,2.207,0,0,1,.8,1.825,2.559,2.559,0,0,1-.456,1.539,2.555,2.555,0,0,1-1.2.969A4.2,4.2,0,0,1,4.2,7.192Zm0,0" transform="translate(-0.156 2.672)"/>
        </g>
      </g>
    </g>
    <g id="Group_208" data-name="Group 208" transform="translate(438.439 234.87)">
      <g id="Group_207" data-name="Group 207" transform="translate(0 0)">
        <g id="Group_206" data-name="Group 206" transform="translate(0 0)">
          <path id="Path_117" data-name="Path 117" d="M3.448,7.052.141-2.641H1.965L4.246,4.487,6.584-2.641H8.009L10.4,4.487l2.281-7.127h1.768L11.145,7.052H9.663L7.268.153,4.93,7.052Zm0,0" transform="translate(-0.141 2.641)"/>
        </g>
      </g>
    </g>
    <g id="Group_211" data-name="Group 211" transform="translate(454.512 234.87)">
      <g id="Group_210" data-name="Group 210" transform="translate(0 0)">
        <g id="Group_209" data-name="Group 209" transform="translate(0 0)">
          <path id="Path_118" data-name="Path 118" d="M.344,7V-2.641H7.471V-1.1H2V1.408H6.844V2.89H2V5.456H7.528V7Zm0,0" transform="translate(-0.344 2.641)"/>
        </g>
      </g>
    </g>
    <g id="Group_214" data-name="Group 214" transform="translate(463.717 234.87)">
      <g id="Group_213" data-name="Group 213" transform="translate(0 0)">
        <g id="Group_212" data-name="Group 212" transform="translate(0 0)">
          <path id="Path_119" data-name="Path 119" d="M.344,7V-2.641H7.471V-1.1H2V1.408H6.844V2.89H2V5.456H7.528V7Zm0,0" transform="translate(-0.344 2.641)"/>
        </g>
      </g>
    </g>
    <g id="Group_217" data-name="Group 217" transform="translate(472.238 234.87)">
      <g id="Group_216" data-name="Group 216" transform="translate(0 0)">
        <g id="Group_215" data-name="Group 215" transform="translate(0 0)">
          <path id="Path_120" data-name="Path 120" d="M3.178,7v-8.04H.156v-1.6H7.968v1.6H4.889V7Zm0,0" transform="translate(-0.156 2.641)"/>
        </g>
      </g>
    </g>
    <g id="Group_220" data-name="Group 220" transform="translate(172.344 519.102)">
      <g id="Group_219" data-name="Group 219" transform="translate(0 0)">
        <g id="Group_218" data-name="Group 218" transform="translate(0 0)">
          <path id="Path_121" data-name="Path 121" d="M.344,7V-2.641H4.62a3.3,3.3,0,0,1,2.509.855,2.2,2.2,0,0,1,.684,1.6v.057a2.007,2.007,0,0,1-.456,1.368,3.213,3.213,0,0,1-.912.741,3.307,3.307,0,0,1,1.368.855,2.015,2.015,0,0,1,.513,1.482v.057a2.239,2.239,0,0,1-.969,1.939A4.4,4.4,0,0,1,4.791,7ZM6.1.153V.1a.973.973,0,0,0-.456-.855,1.818,1.818,0,0,0-1.2-.342H2V1.408H4.278a2.422,2.422,0,0,0,1.311-.285A1.087,1.087,0,0,0,6.1.153Zm.57,3.991a1.06,1.06,0,0,0-.513-.912,2.447,2.447,0,0,0-1.482-.4H2v2.68H4.791A2.432,2.432,0,0,0,6.16,5.171,1.087,1.087,0,0,0,6.673,4.2Zm0,0" transform="translate(-0.344 2.641)"/>
        </g>
      </g>
    </g>
    <g id="Group_223" data-name="Group 223" transform="translate(182.32 519.102)">
      <g id="Group_222" data-name="Group 222" transform="translate(0 0)">
        <g id="Group_221" data-name="Group 221" transform="translate(0 0)">
          <path id="Path_122" data-name="Path 122" d="M.359,7V-2.641H2.07V7Zm0,0" transform="translate(-0.359 2.641)"/>
        </g>
      </g>
    </g>
    <g id="Group_226" data-name="Group 226" transform="translate(185.934 519.102)">
      <g id="Group_225" data-name="Group 225" transform="translate(0 0)">
        <g id="Group_224" data-name="Group 224" transform="translate(0 0)">
          <path id="Path_123" data-name="Path 123" d="M3.178,7v-8.04H.156v-1.6H7.968v1.6H4.889V7Zm0,0" transform="translate(-0.156 2.641)"/>
        </g>
      </g>
    </g>
    <g id="Group_229" data-name="Group 229" transform="translate(194.837 519.102)">
      <g id="Group_228" data-name="Group 228" transform="translate(0 0)">
        <g id="Group_227" data-name="Group 227" transform="translate(0 0)">
          <path id="Path_124" data-name="Path 124" d="M3.178,7v-8.04H.156v-1.6H7.968v1.6H4.889V7Zm0,0" transform="translate(-0.156 2.641)"/>
        </g>
      </g>
    </g>
    <g id="Group_232" data-name="Group 232" transform="translate(204.424 519.102)">
      <g id="Group_231" data-name="Group 231" transform="translate(0 0)">
        <g id="Group_230" data-name="Group 230" transform="translate(0 0)">
          <path id="Path_125" data-name="Path 125" d="M.344,7V-2.641H7.471V-1.1H2V1.408H6.844V2.89H2V5.456H7.528V7Zm0,0" transform="translate(-0.344 2.641)"/>
        </g>
      </g>
    </g>
    <g id="Group_235" data-name="Group 235" transform="translate(213.629 519.102)">
      <g id="Group_234" data-name="Group 234" transform="translate(0 0)">
        <g id="Group_233" data-name="Group 233" transform="translate(0 0)">
          <path id="Path_126" data-name="Path 126" d="M.344,7V-2.641H4.62a4.254,4.254,0,0,1,1.6.285,3.548,3.548,0,0,1,1.2.684,3.946,3.946,0,0,1,.57.912,3.091,3.091,0,0,1,.228,1.2,2.729,2.729,0,0,1-.684,1.939,3.459,3.459,0,0,1-1.6.969L8.5,7h-2L4.107,3.631H2V7ZM2,2.149H4.506a2.259,2.259,0,0,0,1.425-.4,1.512,1.512,0,0,0,.513-1.2V.5a1.378,1.378,0,0,0-.513-1.14A2.2,2.2,0,0,0,4.449-1.1H2Zm0,0" transform="translate(-0.344 2.641)"/>
        </g>
      </g>
    </g>
  </g>
</svg>
