<svg xmlns="http://www.w3.org/2000/svg" xmlns:xlink="http://www.w3.org/1999/xlink" width="446.205" height="315.357" viewBox="0 0 446.205 315.357">
  <defs>
    <clipPath id="clip-path">
      <path id="Path_129" data-name="Path 129" d="M406.543,553.891H721.9V869.247H406.543Zm0,0" transform="translate(-406.543 -553.891)"/>
    </clipPath>
    <clipPath id="clip-path-2">
      <path id="Path_135" data-name="Path 135" d="M444.176,591.523h33.493v33.493H444.176Zm0,0" transform="translate(-444.176 -591.523)"/>
    </clipPath>
    <clipPath id="clip-path-3">
      <path id="Path_134" data-name="Path 134" d="M460.93,591.523a16.746,16.746,0,1,0,16.739,16.739A16.741,16.741,0,0,0,460.93,591.523Zm0,0" transform="translate(-444.176 -591.523)"/>
    </clipPath>
  </defs>
  <g id="Group_4586" data-name="Group 4586" transform="translate(-125.395 -224.643)">
    <g id="Group_239" data-name="Group 239" transform="translate(199.096 224.643)" clip-path="url(#clip-path)">
      <path id="Path_128" data-name="Path 128" d="M709.4,650.145a157.5,157.5,0,1,0,12.5,61.333A156.675,156.675,0,0,0,709.4,650.145Zm-1.811,121.98a156.072,156.072,0,1,1,12.24-60.588A155.105,155.105,0,0,1,707.585,772.125ZM663.342,612.358a139.713,139.713,0,1,0,30.031,44.565A139.822,139.822,0,0,0,663.342,612.358Zm28.205,152.99a139.371,139.371,0,1,1,10.794-53.869A137.529,137.529,0,0,1,691.547,765.348Zm-40.49-140.691a122.561,122.561,0,1,0,26.277,39.058A121.712,121.712,0,0,0,651.058,624.657Zm24.466,133.957A121.463,121.463,0,0,1,649.67,797.03,121.087,121.087,0,0,1,517.1,822.9a121.81,121.81,0,0,1-38.43-25.868,121.111,121.111,0,0,1-25.854-132.57,121.461,121.461,0,0,1,25.854-38.416A121.087,121.087,0,0,1,611.24,600.176a121.567,121.567,0,0,1,38.43,25.868,118.523,118.523,0,0,1,25.854,38.416,120.077,120.077,0,0,1,9.509,47.077A121.93,121.93,0,0,1,675.524,758.614ZM638.715,637a104.98,104.98,0,0,0-74.552-30.893A104.98,104.98,0,0,0,489.625,637a106.4,106.4,0,0,0-22.6,33.493A105.5,105.5,0,1,0,638.715,637Zm20.727,114.823a103.975,103.975,0,1,1,8.121-40.285A102.8,102.8,0,0,1,659.442,751.822ZM626.416,649.284a88.234,88.234,0,0,0-96.491-18.857,88.779,88.779,0,0,0-28,18.857,87.573,87.573,0,0,0-25.751,62.253,87.989,87.989,0,0,0,53.752,81.111,87.164,87.164,0,0,0,34.238,6.894,87.993,87.993,0,0,0,62.253-150.258Zm17,95.761a85.888,85.888,0,0,1-79.3,52.525A85.663,85.663,0,0,1,503.253,772.4a85.663,85.663,0,0,1-25.167-60.866,86.606,86.606,0,0,1,6.734-33.508,86.019,86.019,0,0,1,165.318,33.508A84.554,84.554,0,0,1,643.418,745.044ZM564.163,640.9a70.616,70.616,0,1,0,49.969,20.683A70.145,70.145,0,0,0,564.163,640.9ZM612.686,760.06a68.622,68.622,0,1,1,20.1-48.523A68.238,68.238,0,0,1,612.686,760.06Zm-48.523-101.75a53.286,53.286,0,1,0,37.627,15.615A52.862,52.862,0,0,0,564.163,658.311ZM600.4,747.761a51.2,51.2,0,1,1,15.016-36.225A50.949,50.949,0,0,1,600.4,747.761Zm-36.239-72.025a35.757,35.757,0,1,0,25.328,10.473A35.712,35.712,0,0,0,564.163,675.736Zm23.9,59.683a33.818,33.818,0,1,1,9.874-23.882A33.634,33.634,0,0,1,588.059,735.419Zm-23.9-42.257a18.375,18.375,0,1,0,18.39,18.375A18.408,18.408,0,0,0,564.163,693.162Zm0,34.778a16.4,16.4,0,1,1,16.418-16.4A16.445,16.445,0,0,1,564.163,727.94Zm0,0" transform="translate(-406.543 -553.859)" fill="#1d1d1b"/>
    </g>
    <path id="Path_130" data-name="Path 130" d="M406.543,595.637h2.746v2.731h-2.746m5.477-2.731h2.746v2.731h-2.746m5.492-2.731h2.746v2.731h-2.746m5.478-2.731h2.746v2.731H422.99m5.492-2.731h2.746v2.731h-2.746m5.478-2.731h2.746v2.731H433.96m5.492-2.731H442.2v2.731h-2.746m5.477-2.731h2.746v2.731h-2.746m5.492-2.731h2.746v2.731h-2.746m5.478-2.731h2.746v2.731H455.9m5.492-2.731h2.746v2.731h-2.746m5.477-2.731h2.746v2.731h-2.746m5.492-2.731h2.746v2.731H472.36m5.477-2.731h2.746v2.731h-2.746m5.492-2.731h2.731v2.731H483.33m5.478-2.731h2.746v2.731h-2.746m5.492-2.731h2.731v2.731H494.3m5.477-2.731h2.746v2.731h-2.746m5.492-2.731H508v2.731h-2.731m5.477-2.731h2.746v2.731h-2.746m5.492-2.731h2.731v2.731h-2.731m5.478-2.731h2.746v2.731h-2.746m5.492-2.731h2.731v2.731h-2.731m5.477-2.731h2.746v2.731h-2.746m5.492-2.731h2.731v2.731h-2.731m5.478-2.731H546.4v2.731h-2.746m5.492-2.731h2.731v2.731h-2.731m5.478-2.731h2.746v2.731h-2.746m5.492-2.731h2.731v2.731h-2.731m5.477-2.731h2.746v2.731h-2.746m5.478-2.731h2.746v2.731h-2.746m5.492-2.731h2.746v2.731h-2.746m5.477-2.731h2.746v2.731h-2.746m5.492-2.731h2.746v2.731h-2.746m5.478-2.731h2.746v2.731h-2.746m5.492-2.731h2.746v2.731H598.5m5.478-2.731h2.746v2.731h-2.746m5.492-2.731h2.746v2.731h-2.746m5.477-2.731H617.7v2.731H614.95m5.492-2.731h2.746v2.731h-2.746m5.478-2.731h2.746v2.731H625.92m5.492-2.731h2.746v2.731h-2.746m5.477-2.731h2.746v2.731h-2.746m5.492-2.731h2.746v2.731h-2.746m5.477-2.731H650.6v2.731h-2.746m5.492-2.731H656.1v2.731h-2.746m5.478-2.731h2.746v2.731h-2.746m5.492-2.731h2.731v2.731H664.32m5.477-2.731h2.746v2.731H669.8m5.492-2.731h2.731v2.731H675.29m5.477-2.731h2.746v2.731h-2.746m5.492-2.731h2.731v2.731H686.26m5.478-2.731h2.746v2.731h-2.746m5.492-2.731h2.731v2.731h-2.731m5.477-2.731h2.746v2.731h-2.746m5.492-2.731h2.731v2.731H708.2m5.478-2.731h2.746v2.731h-2.746m5.492-2.731h.117v2.731h-.117" transform="translate(-207.447 -214.893)"/>
    <path id="Path_131" data-name="Path 131" d="M616.211,564.866l-1.694,2.147-2.162-1.68,1.694-2.162m-1.227,6-1.694,2.162-2.162-1.694,1.694-2.162m-1.227,6.018-1.68,2.147-2.162-1.68,1.694-2.162m-1.227,6-1.694,2.162-2.162-1.694,1.694-2.162m-1.227,6.018-1.694,2.147-2.147-1.68,1.68-2.162m-1.227,6L597.6,588.6l-2.162-1.694,1.694-2.162m-1.227,6.018-1.694,2.162-2.162-1.694,1.694-2.162m-1.227,6-1.694,2.162-2.147-1.694,1.68-2.162m-1.212,6.018-1.694,2.162-2.162-1.695,1.694-2.162m-1.227,6-1.694,2.162-2.162-1.694,1.694-2.147m-1.227,6-1.68,2.162-2.162-1.694,1.694-2.162m-1.227,6L577.3,614.5l-2.162-1.694,1.694-2.147m-1.227,6-1.694,2.162-2.162-1.694,1.694-2.162m-1.227,6-1.68,2.162-2.162-1.694,1.694-2.147m-1.227,6-1.694,2.162-2.162-1.694,1.694-2.162m-1.227,6-1.694,2.162-2.147-1.694,1.68-2.147m-1.212,6-1.694,2.162-2.162-1.695,1.694-2.162m-1.227,6.018L557,640.4l-2.162-1.694,1.694-2.147m-1.227,6-1.694,2.162-2.147-1.694,1.694-2.162m-1.227,6.018-1.694,2.147-2.162-1.68,1.694-2.162m-1.227,6-1.694,2.162-2.162-1.694,1.694-2.162m-1.227,6.018-1.68,2.147-2.162-1.68L543,653.821m-1.227,6-1.694,2.162-2.162-1.694,1.694-2.162m-1.227,6.018-1.694,2.147-2.147-1.68,1.68-2.162m-1.227,6-1.68,2.162-2.162-1.695,1.694-2.162m-1.227,6.018-1.694,2.147-2.162-1.68,1.694-2.162m-1.227,6-1.694,2.162-2.147-1.694,1.68-2.162m-1.212,6.018-1.694,2.162-2.162-1.695,1.694-2.162m-1.227,6-1.694,2.162-2.162-1.694,1.694-2.162m-1.227,6.018-1.68,2.162-2.162-1.694,1.694-2.162m-1.227,6-1.694,2.162-2.162-1.694,1.694-2.147m-1.227,6-1.694,2.162-2.162-1.694,1.694-2.162m-1.227,6-1.68,2.162-2.162-1.695,1.694-2.147m-1.227,6-1.694,2.162-2.162-1.694,1.694-2.162m-1.227,6-1.694,2.162-2.147-1.694,1.68-2.147m-1.212,6L496.1,718.1l-2.162-1.695,1.694-2.162m-1.227,6.018-1.694,2.147-2.162-1.694,1.694-2.147m-1.227,6-1.694,2.162-2.147-1.694,1.694-2.162m-1.227,6.018-1.694,2.147-2.162-1.68,1.694-2.162m-1.227,6-1.694,2.162-2.162-1.694,1.694-2.162m-1.227,6.018-1.68,2.147L477.024,738l1.694-2.162m-1.227,6L475.8,744l-2.162-1.694,1.694-2.162m-1.227,6.018-1.694,2.147-2.147-1.68,1.68-2.162m-1.227,6-1.68,2.162-2.162-1.695,1.694-2.162M467.34,754.8l-1.694,2.147-2.162-1.68,1.694-2.162m-1.227,6-1.694,2.162-2.147-1.694,1.68-2.162m-1.212,6.018-1.694,2.162-2.162-1.695,1.694-2.162m-1.227,6-1.694,2.162-2.162-1.694,1.694-2.162m-1.227,6.018-1.68,2.162-2.162-1.694,1.694-2.162m-1.227,6-1.694,2.162-2.162-1.694,1.694-2.147m-1.227,6-1.694,2.162-2.147-1.694,1.68-2.162m-1.227,6-1.68,2.162-2.162-1.695,1.694-2.147m-1.227,6-1.694,2.162-2.162-1.694,1.694-2.162m-1.227,6-1.694,2.162-2.147-1.694,1.68-2.147m-1.212,6-1.694,2.162-2.162-1.695,1.694-2.162m-1.227,6.018-1.694,2.147-2.162-1.694,1.694-2.147m-1.227,6-1.431,1.84-2.162-1.694,1.446-1.84" transform="translate(-161.982 -303.823)"/>
    <path id="Path_132" data-name="Path 132" d="M425.306,563.172l1.68,2.162-2.147,1.68-1.694-2.147m5.536,2.615,1.694,2.162-2.162,1.694-1.694-2.162m5.551,2.629,1.694,2.162-2.162,1.68-1.694-2.147m5.536,2.615,1.694,2.162-2.147,1.694-1.694-2.162m5.536,2.629,1.694,2.162-2.162,1.68-1.694-2.147m5.551,2.615,1.694,2.162-2.162,1.694-1.694-2.162m5.536,2.629,1.694,2.162-2.162,1.694-1.68-2.162m5.536,2.615,1.694,2.162-2.162,1.694-1.694-2.162m5.551,2.629,1.68,2.162-2.147,1.695-1.694-2.162m5.536,2.615,1.694,2.162-2.162,1.694-1.694-2.162m5.551,2.629,1.694,2.162-2.162,1.694-1.694-2.162m5.55,2.629,1.68,2.147-2.147,1.694-1.694-2.162m5.536,2.629,1.694,2.162-2.162,1.694-1.694-2.162m5.551,2.629,1.694,2.147-2.162,1.694-1.694-2.162m5.536,2.629,1.694,2.162-2.162,1.694-1.68-2.162m5.536,2.629,1.694,2.147-2.162,1.694-1.694-2.162m5.551,2.629,1.68,2.162-2.147,1.695-1.694-2.162m5.536,2.629,1.694,2.147-2.162,1.694-1.68-2.147m5.536,2.615,1.694,2.162-2.162,1.694-1.694-2.162m5.55,2.629,1.68,2.162-2.147,1.68-1.694-2.147m5.536,2.615,1.694,2.162-2.162,1.694-1.694-2.162m5.551,2.629,1.694,2.162-2.162,1.68-1.694-2.147m5.536,2.615,1.694,2.162-2.147,1.694-1.694-2.162m5.536,2.629,1.694,2.162-2.162,1.68-1.694-2.147m5.551,2.615,1.694,2.162-2.162,1.695-1.694-2.162m5.536,2.629,1.694,2.162-2.162,1.68-1.68-2.147m5.536,2.615,1.694,2.162-2.162,1.694-1.694-2.162m5.55,2.629,1.68,2.162-2.147,1.695-1.694-2.162m5.536,2.615,1.694,2.162-2.162,1.694-1.694-2.162m5.551,2.629,1.694,2.162-2.162,1.694-1.694-2.162m5.551,2.629,1.68,2.147-2.147,1.694-1.694-2.162m5.536,2.629,1.694,2.162-2.162,1.694-1.694-2.162m5.551,2.629,1.694,2.147-2.162,1.695-1.694-2.162m5.536,2.629,1.694,2.162-2.162,1.694-1.68-2.162m5.536,2.629,1.694,2.147-2.162,1.694-1.694-2.162m5.55,2.629,1.68,2.162-2.147,1.695-1.694-2.162m5.536,2.629,1.694,2.147-2.162,1.694-1.68-2.147m5.536,2.615,1.694,2.162-2.162,1.694-1.694-2.162m5.551,2.629,1.68,2.162-2.147,1.68-1.694-2.147m5.536,2.615,1.694,2.162-2.162,1.694-1.694-2.162m5.551,2.629L562.331,738l-2.162,1.68-1.694-2.147m5.536,2.615,1.694,2.162L563.558,744l-1.694-2.162m5.536,2.629,1.694,2.162-2.162,1.68-1.694-2.147m5.55,2.615,1.694,2.162-2.162,1.695-1.694-2.162m5.536,2.629,1.694,2.162-2.162,1.68-1.68-2.147m5.536,2.615,1.694,2.162-2.162,1.694-1.694-2.162m5.551,2.629,1.68,2.162-2.147,1.695-1.694-2.162m5.536,2.615,1.694,2.162-2.162,1.694-1.694-2.162m5.551,2.629,1.694,2.162-2.162,1.694-1.694-2.162m5.536,2.629,1.694,2.147-2.147,1.694-1.694-2.162M594.465,779l1.694,2.162L594,782.855l-1.694-2.162m5.55,2.629,1.694,2.147-2.162,1.695L595.692,785m5.536,2.629,1.694,2.162-2.162,1.694-1.68-2.162m5.536,2.629,1.694,2.147L604.15,795.8l-1.694-2.162m5.551,2.629,1.68,2.162-2.147,1.695-1.694-2.162m5.536,2.629,1.694,2.147-2.162,1.694-1.68-2.162m5.536,2.629,1.432,1.84-2.147,1.694-1.446-1.84" transform="translate(-161.971 -303.823)"/>
    <g id="Group_241" data-name="Group 241" transform="translate(339.816 365.363)" clip-path="url(#clip-path-2)">
      <g id="Group_240" data-name="Group 240" transform="translate(0)" clip-path="url(#clip-path-3)">
        <path id="Path_133" data-name="Path 133" d="M444.176,591.523h33.493v33.493H444.176Zm0,0" transform="translate(-444.176 -591.523)" fill="#dec09d"/>
      </g>
    </g>
    <g id="Group_244" data-name="Group 244" transform="translate(530.911 377.013)">
      <g id="Group_243" data-name="Group 243" transform="translate(0 0)">
        <g id="Group_242" data-name="Group 242" transform="translate(0 0)">
          <path id="Path_136" data-name="Path 136" d="M4.3,7.436a6.931,6.931,0,0,1-2.22-.351A6.311,6.311,0,0,1,.156,5.858L1.208,4.631a5.4,5.4,0,0,0,1.461.993A4.286,4.286,0,0,0,4.3,5.917,2.129,2.129,0,0,0,5.59,5.566a1.07,1.07,0,0,0,.467-.876V4.631a.956.956,0,0,0-.175-.584,2.078,2.078,0,0,0-.643-.467,6.369,6.369,0,0,0-1.4-.409,15.671,15.671,0,0,1-1.811-.584A3.087,3.087,0,0,1,.916,1.71,2.887,2.887,0,0,1,.565.191,2.751,2.751,0,0,1,.974-1.328,3.058,3.058,0,0,1,2.2-2.321a4.08,4.08,0,0,1,1.753-.351,5.146,5.146,0,0,1,1.928.351,6.11,6.11,0,0,1,1.636.876L6.583-.1a4.449,4.449,0,0,0-1.344-.76A3.323,3.323,0,0,0,3.9-1.153,1.719,1.719,0,0,0,2.727-.8a1.043,1.043,0,0,0-.409.818V.074a1.214,1.214,0,0,0,.175.643,1.651,1.651,0,0,0,.7.467c.351.117.833.263,1.461.409A6.137,6.137,0,0,1,6.992,2.645a2.261,2.261,0,0,1,.818,1.87,2.622,2.622,0,0,1-.467,1.578,2.619,2.619,0,0,1-1.227.993A4.308,4.308,0,0,1,4.3,7.436Zm0,0" transform="translate(-0.156 2.672)"/>
        </g>
      </g>
    </g>
    <g id="Group_247" data-name="Group 247" transform="translate(540.154 376.955)">
      <g id="Group_246" data-name="Group 246" transform="translate(0 0)">
        <g id="Group_245" data-name="Group 245" transform="translate(0 0)">
          <path id="Path_137" data-name="Path 137" d="M5.36,7.537a5.161,5.161,0,0,1-2.045-.409,5.07,5.07,0,0,1-1.636-1.11A5.333,5.333,0,0,1,.569,4.441,5.572,5.572,0,0,1,.219,2.454,5.63,5.63,0,0,1,.569.468a5.233,5.233,0,0,1,1.11-1.636,5.313,5.313,0,0,1,1.636-1.11,5.3,5.3,0,0,1,2.1-.409,5.268,5.268,0,0,1,2.045.409A5.493,5.493,0,0,1,9.1-1.168,4.627,4.627,0,0,1,10.151.468,4.651,4.651,0,0,1,10.56,2.4v.058a4.859,4.859,0,0,1-.409,1.928A4.5,4.5,0,0,1,9.1,6.018a5.233,5.233,0,0,1-1.636,1.11A5.4,5.4,0,0,1,5.36,7.537ZM5.419,5.9a3.273,3.273,0,0,0,1.694-.409A3.249,3.249,0,0,0,8.282,4.265a3.6,3.6,0,0,0,.467-1.811A3.345,3.345,0,0,0,8.282.7,3.308,3.308,0,0,0,7.113-.584,3.345,3.345,0,0,0,5.36-1.052a3.175,3.175,0,0,0-1.694.467A3.574,3.574,0,0,0,2.439.7,3.5,3.5,0,0,0,2.03,2.4v.058a3.775,3.775,0,0,0,.409,1.753A3.525,3.525,0,0,0,3.666,5.434,3.147,3.147,0,0,0,5.419,5.9Zm0,0" transform="translate(-0.219 2.688)"/>
        </g>
      </g>
    </g>
    <g id="Group_250" data-name="Group 250" transform="translate(552.413 377.13)">
      <g id="Group_249" data-name="Group 249" transform="translate(0 0)">
        <g id="Group_248" data-name="Group 248" transform="translate(0 0)">
          <path id="Path_138" data-name="Path 138" d="M4.5,7.409a4.282,4.282,0,0,1-3.1-1.11A4.394,4.394,0,0,1,.3,3.027V-2.641H2.05V2.968a2.974,2.974,0,0,0,.643,2.1,2.443,2.443,0,0,0,1.811.7A2.433,2.433,0,0,0,6.315,5.13a2.857,2.857,0,0,0,.7-2.1V-2.641H8.71V2.968A4.375,4.375,0,0,1,7.542,6.3,4.094,4.094,0,0,1,4.5,7.409Zm0,0" transform="translate(-0.297 2.641)"/>
        </g>
      </g>
    </g>
    <g id="Group_253" data-name="Group 253" transform="translate(563.245 377.13)">
      <g id="Group_252" data-name="Group 252" transform="translate(0 0)">
        <g id="Group_251" data-name="Group 251" transform="translate(0 0)">
          <path id="Path_139" data-name="Path 139" d="M.344,7.233V-2.641H4.726a4.359,4.359,0,0,1,1.636.292,3.636,3.636,0,0,1,1.227.7,4.043,4.043,0,0,1,.584.935A3.167,3.167,0,0,1,8.407.514a2.8,2.8,0,0,1-.7,1.986,3.544,3.544,0,0,1-1.636.993L8.7,7.233H6.654L4.2,3.786H2.038V7.233ZM2.038,2.267H4.609A2.315,2.315,0,0,0,6.07,1.858,1.549,1.549,0,0,0,6.6.631V.573A1.412,1.412,0,0,0,6.07-.6,2.249,2.249,0,0,0,4.55-1.063H2.038Zm0,0" transform="translate(-0.344 2.641)"/>
        </g>
      </g>
    </g>
    <g id="Group_256" data-name="Group 256" transform="translate(125.395 377.13)">
      <g id="Group_255" data-name="Group 255" transform="translate(0 0)">
        <g id="Group_254" data-name="Group 254" transform="translate(0 0)">
          <path id="Path_140" data-name="Path 140" d="M.344,7.233V-2.641h7.3v1.578H2.038V1.625H7V3.2H2.038V7.233Zm0,0" transform="translate(-0.344 2.641)"/>
        </g>
      </g>
    </g>
    <g id="Group_259" data-name="Group 259" transform="translate(134.63 377.13)">
      <g id="Group_258" data-name="Group 258" transform="translate(0 0)">
        <g id="Group_257" data-name="Group 257" transform="translate(0 0)">
          <path id="Path_141" data-name="Path 141" d="M.344,7.233V-2.641H4.726a4.359,4.359,0,0,1,1.636.292,3.636,3.636,0,0,1,1.227.7,4.043,4.043,0,0,1,.584.935A3.167,3.167,0,0,1,8.407.514a2.8,2.8,0,0,1-.7,1.986,3.544,3.544,0,0,1-1.636.993L8.7,7.233H6.654L4.2,3.786H2.038V7.233ZM2.038,2.267H4.609A2.315,2.315,0,0,0,6.07,1.858,1.549,1.549,0,0,0,6.6.631V.573A1.412,1.412,0,0,0,6.07-.6,2.249,2.249,0,0,0,4.55-1.063H2.038Zm0,0" transform="translate(-0.344 2.641)"/>
        </g>
      </g>
    </g>
    <g id="Group_262" data-name="Group 262" transform="translate(144.633 377.13)">
      <g id="Group_261" data-name="Group 261" transform="translate(0 0)">
        <g id="Group_260" data-name="Group 260" transform="translate(0 0)">
          <path id="Path_142" data-name="Path 142" d="M4.5,7.409a4.282,4.282,0,0,1-3.1-1.11A4.394,4.394,0,0,1,.3,3.027V-2.641H2.05V2.968a2.974,2.974,0,0,0,.643,2.1,2.443,2.443,0,0,0,1.811.7A2.433,2.433,0,0,0,6.315,5.13a2.857,2.857,0,0,0,.7-2.1V-2.641H8.71V2.968A4.375,4.375,0,0,1,7.542,6.3,4.094,4.094,0,0,1,4.5,7.409Zm0,0" transform="translate(-0.297 2.641)"/>
        </g>
      </g>
    </g>
    <g id="Group_265" data-name="Group 265" transform="translate(155.524 377.13)">
      <g id="Group_264" data-name="Group 264" transform="translate(0 0)">
        <g id="Group_263" data-name="Group 263" transform="translate(0 0)">
          <path id="Path_143" data-name="Path 143" d="M.359,7.233V-2.641H2.112V7.233Zm0,0" transform="translate(-0.359 2.641)"/>
        </g>
      </g>
    </g>
    <g id="Group_268" data-name="Group 268" transform="translate(159.227 377.13)">
      <g id="Group_267" data-name="Group 267" transform="translate(0 0)">
        <g id="Group_266" data-name="Group 266" transform="translate(0 0)">
          <path id="Path_144" data-name="Path 144" d="M3.253,7.233V-1H.156V-2.641h8V-1H5.006V7.233Zm0,0" transform="translate(-0.156 2.641)"/>
        </g>
      </g>
    </g>
    <g id="Group_271" data-name="Group 271" transform="translate(167.999 377.13)">
      <g id="Group_270" data-name="Group 270" transform="translate(0 0)">
        <g id="Group_269" data-name="Group 269" transform="translate(0 0)">
          <path id="Path_145" data-name="Path 145" d="M3.977,7.233V3.319L.063-2.641h2.1L4.912,1.741,7.658-2.641H9.644L5.73,3.319V7.233Zm0,0" transform="translate(-0.063 2.641)"/>
        </g>
      </g>
    </g>
    <g id="Group_274" data-name="Group 274" transform="translate(464.277 518.469)">
      <g id="Group_273" data-name="Group 273" transform="translate(0)">
        <g id="Group_272" data-name="Group 272" transform="translate(0 0)">
          <path id="Path_146" data-name="Path 146" d="M4.3,7.436a6.931,6.931,0,0,1-2.22-.351A6.311,6.311,0,0,1,.156,5.858L1.208,4.631a5.4,5.4,0,0,0,1.461.993A4.286,4.286,0,0,0,4.3,5.917,2.129,2.129,0,0,0,5.59,5.566a1.07,1.07,0,0,0,.467-.876V4.631a.956.956,0,0,0-.175-.584,2.078,2.078,0,0,0-.643-.467,6.369,6.369,0,0,0-1.4-.409,15.671,15.671,0,0,1-1.811-.584A3.087,3.087,0,0,1,.916,1.71,2.887,2.887,0,0,1,.565.191,2.751,2.751,0,0,1,.974-1.328,3.058,3.058,0,0,1,2.2-2.321a4.08,4.08,0,0,1,1.753-.351,5.146,5.146,0,0,1,1.928.351,6.11,6.11,0,0,1,1.636.876L6.583-.1a4.449,4.449,0,0,0-1.344-.76A3.323,3.323,0,0,0,3.9-1.153,1.719,1.719,0,0,0,2.727-.8a1.043,1.043,0,0,0-.409.818V.074a1.214,1.214,0,0,0,.175.643,1.651,1.651,0,0,0,.7.467c.351.117.833.263,1.461.409A6.137,6.137,0,0,1,6.992,2.645a2.261,2.261,0,0,1,.818,1.87,2.622,2.622,0,0,1-.467,1.578,2.619,2.619,0,0,1-1.227.993A4.308,4.308,0,0,1,4.3,7.436Zm0,0" transform="translate(-0.156 2.672)"/>
        </g>
      </g>
    </g>
    <g id="Group_277" data-name="Group 277" transform="translate(473.988 518.586)">
      <g id="Group_276" data-name="Group 276" transform="translate(0 0)">
        <g id="Group_275" data-name="Group 275" transform="translate(0 0)">
          <path id="Path_147" data-name="Path 147" d="M.344,7.233V-2.641H4.2a4.586,4.586,0,0,1,1.986.409A2.8,2.8,0,0,1,7.472-1.063,3.345,3.345,0,0,1,7.939.69a3.174,3.174,0,0,1-.526,1.87A3.322,3.322,0,0,1,5.953,3.728a5.146,5.146,0,0,1-1.928.351H2.038V7.233ZM2.038,2.5H4.083A2.176,2.176,0,0,0,5.6,2.033,1.689,1.689,0,0,0,6.186.748V.69A1.489,1.489,0,0,0,5.6-.6a2.415,2.415,0,0,0-1.519-.467H2.038Zm0,0" transform="translate(-0.344 2.641)"/>
        </g>
      </g>
    </g>
    <g id="Group_280" data-name="Group 280" transform="translate(483.451 518.586)">
      <g id="Group_279" data-name="Group 279" transform="translate(0 0)">
        <g id="Group_278" data-name="Group 278" transform="translate(0 0)">
          <path id="Path_148" data-name="Path 148" d="M.359,7.233V-2.641H2.112V7.233Zm0,0" transform="translate(-0.359 2.641)"/>
        </g>
      </g>
    </g>
    <g id="Group_283" data-name="Group 283" transform="translate(487.388 518.411)">
      <g id="Group_282" data-name="Group 282" transform="translate(0 0)">
        <g id="Group_281" data-name="Group 281" transform="translate(0 0)">
          <path id="Path_149" data-name="Path 149" d="M5.243,7.537a5.572,5.572,0,0,1-1.986-.351,5.07,5.07,0,0,1-1.636-1.11A5.423,5.423,0,0,1,.569,4.441,5.572,5.572,0,0,1,.219,2.454,5.63,5.63,0,0,1,.569.468,5.61,5.61,0,0,1,1.621-1.168a5.313,5.313,0,0,1,1.636-1.11A5.161,5.161,0,0,1,5.3-2.687,4.893,4.893,0,0,1,7.58-2.22,5.615,5.615,0,0,1,9.158-1.11L8.048.175A4.372,4.372,0,0,0,6.763-.7,3.041,3.041,0,0,0,5.3-1.052a3.175,3.175,0,0,0-1.694.467A3.826,3.826,0,0,0,2.439.7,3.5,3.5,0,0,0,2.03,2.4v.058a3.775,3.775,0,0,0,.409,1.753A3.765,3.765,0,0,0,3.607,5.434,3.051,3.051,0,0,0,5.3,5.9a3.712,3.712,0,0,0,1.578-.292,5.471,5.471,0,0,0,1.227-.935l1.11,1.11A5.853,5.853,0,0,1,7.522,7.07,4.893,4.893,0,0,1,5.243,7.537Zm0,0" transform="translate(-0.219 2.688)"/>
        </g>
      </g>
    </g>
    <g id="Group_286" data-name="Group 286" transform="translate(498.245 518.586)">
      <g id="Group_285" data-name="Group 285" transform="translate(0 0)">
        <g id="Group_284" data-name="Group 284" transform="translate(0 0)">
          <path id="Path_150" data-name="Path 150" d="M.344,7.233V-2.641h7.3v1.578H2.038V1.508H7V3.027H2.038V5.656H7.705V7.233Zm0,0" transform="translate(-0.344 2.641)"/>
        </g>
      </g>
    </g>
    <g id="Group_289" data-name="Group 289" transform="translate(507.677 518.586)">
      <g id="Group_288" data-name="Group 288" transform="translate(0 0)">
        <g id="Group_287" data-name="Group 287" transform="translate(0 0)">
          <path id="Path_151" data-name="Path 151" d="M.344,7.233V-2.641H4.025a5.4,5.4,0,0,1,2.1.409A4.627,4.627,0,0,1,7.764-1.18,4.185,4.185,0,0,1,8.816.339a4.651,4.651,0,0,1,.409,1.928v.058a4.859,4.859,0,0,1-.409,1.928A4.669,4.669,0,0,1,7.764,5.831,5.61,5.61,0,0,1,6.128,6.883a5.994,5.994,0,0,1-2.1.351Zm3.681-8.3H2.038V5.656H4.025a3.612,3.612,0,0,0,1.753-.409A3.267,3.267,0,0,0,7,4.078a3.7,3.7,0,0,0,.409-1.753A3.783,3.783,0,0,0,7,.573,2.878,2.878,0,0,0,5.777-.6,3.345,3.345,0,0,0,4.025-1.063Zm0,0" transform="translate(-0.344 2.641)"/>
        </g>
      </g>
    </g>
    <g id="Group_292" data-name="Group 292" transform="translate(164.239 227.334)">
      <g id="Group_291" data-name="Group 291" transform="translate(0 0)">
        <g id="Group_290" data-name="Group 290" transform="translate(0 0)">
          <path id="Path_152" data-name="Path 152" d="M.344,7.233V-2.641H4.726A3.38,3.38,0,0,1,7.3-1.764,2.258,2.258,0,0,1,8-.128V-.07a2.057,2.057,0,0,1-.467,1.4,3.293,3.293,0,0,1-.935.76A3.388,3.388,0,0,1,8,2.968a2.064,2.064,0,0,1,.526,1.519v.058A2.294,2.294,0,0,1,7.53,6.532a4.511,4.511,0,0,1-2.629.7ZM6.245.222V.164a1,1,0,0,0-.467-.876A1.862,1.862,0,0,0,4.55-1.063H2.038V1.508H4.375a2.481,2.481,0,0,0,1.344-.292A1.114,1.114,0,0,0,6.245.222Zm.584,4.09A1.087,1.087,0,0,0,6.3,3.377a2.508,2.508,0,0,0-1.519-.409H2.038V5.714H4.9a2.492,2.492,0,0,0,1.4-.351,1.114,1.114,0,0,0,.526-.993Zm0,0" transform="translate(-0.344 2.641)"/>
        </g>
      </g>
    </g>
    <g id="Group_295" data-name="Group 295" transform="translate(173.936 227.158)">
      <g id="Group_294" data-name="Group 294" transform="translate(0 0)">
        <g id="Group_293" data-name="Group 293" transform="translate(0 0)">
          <path id="Path_153" data-name="Path 153" d="M5.36,7.537a5.161,5.161,0,0,1-2.045-.409,5.07,5.07,0,0,1-1.636-1.11A5.333,5.333,0,0,1,.569,4.441,5.572,5.572,0,0,1,.219,2.454,5.63,5.63,0,0,1,.569.468a5.233,5.233,0,0,1,1.11-1.636,5.313,5.313,0,0,1,1.636-1.11,5.3,5.3,0,0,1,2.1-.409,5.268,5.268,0,0,1,2.045.409A5.493,5.493,0,0,1,9.1-1.168,4.627,4.627,0,0,1,10.151.468,4.651,4.651,0,0,1,10.56,2.4v.058a4.859,4.859,0,0,1-.409,1.928A4.5,4.5,0,0,1,9.1,6.018a5.233,5.233,0,0,1-1.636,1.11A5.4,5.4,0,0,1,5.36,7.537ZM5.419,5.9a3.273,3.273,0,0,0,1.694-.409A3.249,3.249,0,0,0,8.282,4.265a3.6,3.6,0,0,0,.467-1.811A3.345,3.345,0,0,0,8.282.7,3.308,3.308,0,0,0,7.113-.584,3.345,3.345,0,0,0,5.36-1.052a3.175,3.175,0,0,0-1.694.467A3.574,3.574,0,0,0,2.439.7,3.5,3.5,0,0,0,2.03,2.4v.058a3.775,3.775,0,0,0,.409,1.753A3.525,3.525,0,0,0,3.666,5.434,3.147,3.147,0,0,0,5.419,5.9Zm0,0" transform="translate(-0.219 2.688)"/>
        </g>
      </g>
    </g>
    <g id="Group_298" data-name="Group 298" transform="translate(185.668 227.334)">
      <g id="Group_297" data-name="Group 297" transform="translate(0 0)">
        <g id="Group_296" data-name="Group 296" transform="translate(0 0)">
          <path id="Path_154" data-name="Path 154" d="M3.253,7.233V-1H.156V-2.641h8V-1H5.006V7.233Zm0,0" transform="translate(-0.156 2.641)"/>
        </g>
      </g>
    </g>
    <g id="Group_301" data-name="Group 301" transform="translate(194.615 227.275)">
      <g id="Group_300" data-name="Group 300" transform="translate(0 0)">
        <g id="Group_299" data-name="Group 299" transform="translate(0 0)">
          <path id="Path_155" data-name="Path 155" d="M.109,7.276,4.433-2.656H6.069l4.324,9.932H8.581l-.993-2.4H2.914l-.993,2.4ZM3.557,3.362H6.945L5.251-.553Zm0,0" transform="translate(-0.109 2.656)"/>
        </g>
      </g>
    </g>
    <g id="Group_304" data-name="Group 304" transform="translate(206.613 227.334)">
      <g id="Group_303" data-name="Group 303" transform="translate(0 0)">
        <g id="Group_302" data-name="Group 302" transform="translate(0 0)">
          <path id="Path_156" data-name="Path 156" d="M.344,7.233V-2.641H1.921L7.238,4.2V-2.641H8.932V7.233H7.472L2.038.222V7.233Zm0,0" transform="translate(-0.344 2.641)"/>
        </g>
      </g>
    </g>
    <g id="Group_307" data-name="Group 307" transform="translate(217.793 227.334)">
      <g id="Group_306" data-name="Group 306" transform="translate(0 0)">
        <g id="Group_305" data-name="Group 305" transform="translate(0 0)">
          <path id="Path_157" data-name="Path 157" d="M.359,7.233V-2.641H2.112V7.233Zm0,0" transform="translate(-0.359 2.641)"/>
        </g>
      </g>
    </g>
    <g id="Group_310" data-name="Group 310" transform="translate(221.73 227.158)">
      <g id="Group_309" data-name="Group 309" transform="translate(0 0)">
        <g id="Group_308" data-name="Group 308" transform="translate(0 0)">
          <path id="Path_158" data-name="Path 158" d="M5.243,7.537a5.572,5.572,0,0,1-1.986-.351,5.07,5.07,0,0,1-1.636-1.11A5.423,5.423,0,0,1,.569,4.441,5.572,5.572,0,0,1,.219,2.454,5.63,5.63,0,0,1,.569.468,5.61,5.61,0,0,1,1.621-1.168a5.313,5.313,0,0,1,1.636-1.11A5.161,5.161,0,0,1,5.3-2.687,4.893,4.893,0,0,1,7.58-2.22,5.615,5.615,0,0,1,9.158-1.11L8.048.175A4.372,4.372,0,0,0,6.763-.7,3.041,3.041,0,0,0,5.3-1.052a3.175,3.175,0,0,0-1.694.467A3.826,3.826,0,0,0,2.439.7,3.5,3.5,0,0,0,2.03,2.4v.058a3.775,3.775,0,0,0,.409,1.753A3.765,3.765,0,0,0,3.607,5.434,3.051,3.051,0,0,0,5.3,5.9a3.712,3.712,0,0,0,1.578-.292,5.471,5.471,0,0,0,1.227-.935l1.11,1.11A5.853,5.853,0,0,1,7.522,7.07,4.893,4.893,0,0,1,5.243,7.537Zm0,0" transform="translate(-0.219 2.688)"/>
        </g>
      </g>
    </g>
    <g id="Group_313" data-name="Group 313" transform="translate(231.71 227.275)">
      <g id="Group_312" data-name="Group 312" transform="translate(0 0)">
        <g id="Group_311" data-name="Group 311" transform="translate(0 0)">
          <path id="Path_159" data-name="Path 159" d="M.109,7.276,4.433-2.656H6.069l4.324,9.932H8.581l-.993-2.4H2.914l-.993,2.4ZM3.557,3.362H6.945L5.251-.553Zm0,0" transform="translate(-0.109 2.656)"/>
        </g>
      </g>
    </g>
    <g id="Group_316" data-name="Group 316" transform="translate(243.708 227.334)">
      <g id="Group_315" data-name="Group 315" transform="translate(0 0)">
        <g id="Group_314" data-name="Group 314" transform="translate(0 0)">
          <path id="Path_160" data-name="Path 160" d="M.344,7.233V-2.641H2.038v8.3h5.2V7.233Zm0,0" transform="translate(-0.344 2.641)"/>
        </g>
      </g>
    </g>
    <g id="Group_319" data-name="Group 319" transform="translate(462.724 227.217)">
      <g id="Group_318" data-name="Group 318" transform="translate(0 0)">
        <g id="Group_317" data-name="Group 317" transform="translate(0 0)">
          <path id="Path_161" data-name="Path 161" d="M4.3,7.436a6.931,6.931,0,0,1-2.22-.351A6.311,6.311,0,0,1,.156,5.858L1.208,4.631a5.4,5.4,0,0,0,1.461.993A4.286,4.286,0,0,0,4.3,5.917,2.129,2.129,0,0,0,5.59,5.566a1.07,1.07,0,0,0,.467-.876V4.631a.956.956,0,0,0-.175-.584,2.078,2.078,0,0,0-.643-.467,6.369,6.369,0,0,0-1.4-.409,15.671,15.671,0,0,1-1.811-.584A3.087,3.087,0,0,1,.916,1.71,2.887,2.887,0,0,1,.565.191,2.751,2.751,0,0,1,.974-1.328,3.058,3.058,0,0,1,2.2-2.321a4.08,4.08,0,0,1,1.753-.351,5.146,5.146,0,0,1,1.928.351,6.11,6.11,0,0,1,1.636.876L6.583-.1a4.449,4.449,0,0,0-1.344-.76A3.323,3.323,0,0,0,3.9-1.153,1.719,1.719,0,0,0,2.727-.8a1.043,1.043,0,0,0-.409.818V.074a1.214,1.214,0,0,0,.175.643,1.651,1.651,0,0,0,.7.467c.351.117.833.263,1.461.409A6.137,6.137,0,0,1,6.992,2.645a2.261,2.261,0,0,1,.818,1.87,2.622,2.622,0,0,1-.467,1.578,2.619,2.619,0,0,1-1.227.993A4.308,4.308,0,0,1,4.3,7.436Zm0,0" transform="translate(-0.156 2.672)"/>
        </g>
      </g>
    </g>
    <g id="Group_322" data-name="Group 322" transform="translate(471.676 227.334)">
      <g id="Group_321" data-name="Group 321" transform="translate(0 0)">
        <g id="Group_320" data-name="Group 320" transform="translate(0 0)">
          <path id="Path_162" data-name="Path 162" d="M3.529,7.292.141-2.641H2.01l2.337,7.3,2.4-7.3H8.2l2.454,7.3,2.337-7.3h1.811L11.417,7.292H9.9L7.444.222l-2.4,7.07Zm0,0" transform="translate(-0.141 2.641)"/>
        </g>
      </g>
    </g>
    <g id="Group_325" data-name="Group 325" transform="translate(488.146 227.334)">
      <g id="Group_324" data-name="Group 324" transform="translate(0 0)">
        <g id="Group_323" data-name="Group 323" transform="translate(0 0)">
          <path id="Path_163" data-name="Path 163" d="M.344,7.233V-2.641h7.3v1.578H2.038V1.508H7V3.027H2.038V5.656H7.705V7.233Zm0,0" transform="translate(-0.344 2.641)"/>
        </g>
      </g>
    </g>
    <g id="Group_328" data-name="Group 328" transform="translate(497.579 227.334)">
      <g id="Group_327" data-name="Group 327" transform="translate(0 0)">
        <g id="Group_326" data-name="Group 326" transform="translate(0 0)">
          <path id="Path_164" data-name="Path 164" d="M.344,7.233V-2.641h7.3v1.578H2.038V1.508H7V3.027H2.038V5.656H7.705V7.233Zm0,0" transform="translate(-0.344 2.641)"/>
        </g>
      </g>
    </g>
    <g id="Group_331" data-name="Group 331" transform="translate(506.31 227.334)">
      <g id="Group_330" data-name="Group 330" transform="translate(0 0)">
        <g id="Group_329" data-name="Group 329" transform="translate(0 0)">
          <path id="Path_165" data-name="Path 165" d="M3.253,7.233V-1H.156V-2.641h8V-1H5.006V7.233Zm0,0" transform="translate(-0.156 2.641)"/>
        </g>
      </g>
    </g>
    <g id="Group_334" data-name="Group 334" transform="translate(199.008 518.586)">
      <g id="Group_333" data-name="Group 333" transform="translate(0 0)">
        <g id="Group_332" data-name="Group 332" transform="translate(0 0)">
          <path id="Path_166" data-name="Path 166" d="M.344,7.233V-2.641H4.726A3.38,3.38,0,0,1,7.3-1.764,2.258,2.258,0,0,1,8-.128V-.07a2.057,2.057,0,0,1-.467,1.4,3.293,3.293,0,0,1-.935.76A3.388,3.388,0,0,1,8,2.968a2.064,2.064,0,0,1,.526,1.519v.058A2.294,2.294,0,0,1,7.53,6.532a4.511,4.511,0,0,1-2.629.7ZM6.245.222V.164a1,1,0,0,0-.467-.876A1.862,1.862,0,0,0,4.55-1.063H2.038V1.508H4.375a2.481,2.481,0,0,0,1.344-.292A1.114,1.114,0,0,0,6.245.222Zm.584,4.09A1.087,1.087,0,0,0,6.3,3.377a2.508,2.508,0,0,0-1.519-.409H2.038V5.714H4.9a2.492,2.492,0,0,0,1.4-.351,1.114,1.114,0,0,0,.526-.993Zm0,0" transform="translate(-0.344 2.641)"/>
        </g>
      </g>
    </g>
    <g id="Group_337" data-name="Group 337" transform="translate(209.231 518.586)">
      <g id="Group_336" data-name="Group 336" transform="translate(0 0)">
        <g id="Group_335" data-name="Group 335" transform="translate(0 0)">
          <path id="Path_167" data-name="Path 167" d="M.359,7.233V-2.641H2.112V7.233Zm0,0" transform="translate(-0.359 2.641)"/>
        </g>
      </g>
    </g>
    <g id="Group_340" data-name="Group 340" transform="translate(212.934 518.586)">
      <g id="Group_339" data-name="Group 339" transform="translate(0 0)">
        <g id="Group_338" data-name="Group 338" transform="translate(0 0)">
          <path id="Path_168" data-name="Path 168" d="M3.253,7.233V-1H.156V-2.641h8V-1H5.006V7.233Zm0,0" transform="translate(-0.156 2.641)"/>
        </g>
      </g>
    </g>
    <g id="Group_343" data-name="Group 343" transform="translate(222.056 518.586)">
      <g id="Group_342" data-name="Group 342" transform="translate(0 0)">
        <g id="Group_341" data-name="Group 341" transform="translate(0 0)">
          <path id="Path_169" data-name="Path 169" d="M3.253,7.233V-1H.156V-2.641h8V-1H5.006V7.233Zm0,0" transform="translate(-0.156 2.641)"/>
        </g>
      </g>
    </g>
    <g id="Group_346" data-name="Group 346" transform="translate(231.88 518.586)">
      <g id="Group_345" data-name="Group 345" transform="translate(0 0)">
        <g id="Group_344" data-name="Group 344" transform="translate(0 0)">
          <path id="Path_170" data-name="Path 170" d="M.344,7.233V-2.641h7.3v1.578H2.038V1.508H7V3.027H2.038V5.656H7.705V7.233Zm0,0" transform="translate(-0.344 2.641)"/>
        </g>
      </g>
    </g>
    <g id="Group_349" data-name="Group 349" transform="translate(241.312 518.586)">
      <g id="Group_348" data-name="Group 348" transform="translate(0 0)">
        <g id="Group_347" data-name="Group 347" transform="translate(0 0)">
          <path id="Path_171" data-name="Path 171" d="M.344,7.233V-2.641H4.726a4.359,4.359,0,0,1,1.636.292,3.636,3.636,0,0,1,1.227.7,4.043,4.043,0,0,1,.584.935A3.167,3.167,0,0,1,8.407.514a2.8,2.8,0,0,1-.7,1.986,3.544,3.544,0,0,1-1.636.993L8.7,7.233H6.654L4.2,3.786H2.038V7.233ZM2.038,2.267H4.609A2.315,2.315,0,0,0,6.07,1.858,1.549,1.549,0,0,0,6.6.631V.573A1.412,1.412,0,0,0,6.07-.6,2.249,2.249,0,0,0,4.55-1.063H2.038Zm0,0" transform="translate(-0.344 2.641)"/>
        </g>
      </g>
    </g>
    <path id="Path_172" data-name="Path 172" d="M0,0,115.519,0" transform="matrix(0.327, 0.945, -0.945, 0.327, 234.196, 382.102)" fill="none" stroke="#f6e7c6" stroke-width="2.2"/>
    <path id="Path_173" data-name="Path 173" d="M0,.005,98.706,0" transform="matrix(-0.744, 0.668, -0.668, -0.744, 304.735, 314.741)" fill="none" stroke="#f6e7c6" stroke-width="2.2"/>
    <path id="Path_174" data-name="Path 174" d="M0,0,131.463,0" transform="translate(433.562 288.404) rotate(168.451)" fill="none" stroke="#f6e7c6" stroke-width="2.2"/>
    <path id="Path_175" data-name="Path 175" d="M0,0,98.36.01" transform="matrix(-0.253, 0.967, -0.967, -0.253, 432.115, 286.97)" fill="none" stroke="#f6e7c6" stroke-width="2.2"/>
    <path id="Path_176" data-name="Path 176" d="M0,0H38.091" transform="translate(407.167 382.117) rotate(135)" fill="none" stroke="#f6e7c6" stroke-width="2.2"/>
    <path id="Path_177" data-name="Path 177" d="M0,0,136.023,0" transform="translate(380.233 409.053) rotate(142.795)" fill="none" stroke="#f6e7c6" stroke-width="2.2"/>
  </g>
</svg>
