<svg xmlns="http://www.w3.org/2000/svg" width="108.215" height="65.707" viewBox="0 0 108.215 65.707">
  <g id="Layer_2" data-name="Layer 2" transform="translate(0.045)">
    <g id="Layer_1" data-name="Layer 1" transform="translate(-0.045)">
      <path id="Path_1" data-name="Path 1" d="M63.237,60.037a4.6,4.6,0,0,0,1.817-.665,49.787,49.787,0,0,1,11.664-8.235c-1.542-.615-4.947,1.663-5.687,2.843-1.663.05-3.055,1.92-4.132,2.98s-2.7,2.652-4.394,1.92c-2.124-.915-1.663-4.261-3.325-5.691a1.43,1.43,0,0,1,.948-.474.9.9,0,0,0-.948-.474c.021-.549.312-1.064.316-1.58-2.581.366.245,5.15-2.843,4.9-.133,1.172,1.185.7,1.58.158,0,1.634.773,6.8-.524,7.861-1.871,1.538-4.573,1.135-6.8.416-1.027-.337-2.078.025-2.91-.586-.711-.553-.416-3.937-.561-4.664-.378-1.767.565-6.422-.777-7.541-.495.15-1.293,4.286-1.663,5.159-.707,1.663-1.542,4.207-3.945,3.292a9.755,9.755,0,0,1-4.423-4.04c-1.413-2.078-3.413-2.656-5.275-4.157.457-.54.952.831,1.422.316-.249-1.372-1.929-1.442-3-1.58-.266,1.247,1.929,2.532,2.685,3.159,1.97,1.642,3.741,2.7,5.2,4.888a5.887,5.887,0,0,0,.869.869c.183.137.524.366.594.416a4.238,4.238,0,0,1,1.546,1.247.2.2,0,0,1-.125.062.145.145,0,0,1-.05.029l-.208.05a7.872,7.872,0,0,0-1.168.6c-.624.611-1.663,1.355.885,1.742a16.889,16.889,0,0,0,4.8.042c1.21.927,2.976.96,4.423,1.106-1.472.686-2.818-.707-4.265-.158,2.32.919,3.812.831,6.289.765,2.852-.1,5.724.536,8.58.69l.308-.037-.387-.067c-.781-.05-1.343-.183-1.459-.445.133.3,8.6-.831,7.8-2.4-.391-.765-2.29-.736-2.968-.831-1.825-.3-2.685-1.247-4.1-2.245a22.58,22.58,0,0,0,4.207.353Zm-16.885-5.9c.632.69.283,3.434.308,4.415-.166,0-1.205.1-1.6.121C45.092,57.735,46.194,55.033,46.352,54.135Zm-1.33,5.184q.761-.067,1.663-.1h0c.042,1.2-1.551.495-2.494.923C44.227,59.859,44.6,59.564,45.021,59.318Zm-1.156,3.517c-1.368-.395-3.537.47-4.573-.79,1.692-1.563,4.373-1.326,6.476-1.738-.661.59-2.677,1.276-1.9,2.527Zm3.118.495c-1.023.545-1.717-.9-2.644-.969a4.961,4.961,0,0,1,2.619-2.029c-.175.291.449,2.719.025,3Zm14.1-1.758A19.94,19.94,0,0,1,65.5,62.993a14.746,14.746,0,0,1-7.42,1.247C59.483,63.787,61.129,63.4,61.079,61.571ZM58.71,63.309c-.69-.466.773-1.122.316-2.369,2.361.067,1.052,2.191-.312,2.369Zm1.164-4.1c-1.1-.557-1.006-2.552-.69-3.961,1.247,1,1.413,3.222,2.852,4.049a13.274,13.274,0,0,1-2.157-.087ZM86.02,58.092a69.192,69.192,0,0,0-1.85-6.763A44.566,44.566,0,0,0,79.182,40.8c-2.7-4.086-11.727-13.331-17.043-8-1.089-1.131-1.314-3.08-3.159-3.325v1.58c.773.249.229-.831.948-.632.969.869-.636,1.708.806,1.958.727.125.939.777.748,1.442-.362,1.268.416.237.5,1.343.162,1.027-1.156.794-1.106,1.738-.632-.727-1.717-.719-2.527-1.106.067-.678,1.426.524,1.738-.316-.416-.574-1.247.116-1.422-.79.071-.387.869.05.79-.474,0,.042-1.484-.931-1.58-.952a.7.7,0,0,1,.79-.474c-.333-.8-1.538-.382-2.053-.948a1.58,1.58,0,0,1,.474-.632c-.337-.175-3.184-2.078-3.18-1.6,0,1.563-1.75-1.48-2.191-1.559.1-.91,1.322-.74,1.9-.636-1.459,1.738.47.216,1.11.133,1.031-.129,3.691,2.311,3.571,2.494,1.072-1.692-3.837-3.409-4.888-3.367a13.214,13.214,0,0,1-2.652-.532c-1.355-.237-1.883.831-3.109,1.023a3.2,3.2,0,0,0-2.108,1.684c-.69,1.093-1.7.6-2.353,1.792-.441.8-.582,1.929-1.417,2.461-1.467-.719-1.95-1.143-3.8-.678-4.864,1.247-7.561,6.493-9.976,10.392a40.517,40.517,0,0,0-3.783,7.453c-.283.765-2.228,7.827-1.318,8.688l.158.075a.191.191,0,0,1,.083,0h.054a1.089,1.089,0,0,0,.158.037.773.773,0,0,0,.324-.042,1.409,1.409,0,0,0,.224-.179,1.193,1.193,0,0,1,1.039-.765c.416-1.247,1.127-2.39,1.58-3.637.615.416,1.9-2.611,2.257-3.255.416-.752.549-3.284,1.85-2.436.274,1.979,2.719,1.538,4.107,1.9-.141-.923-1.21-1.081-1.247-2.058a3.3,3.3,0,0,1,1.85,2.078c.391,1.746.723,2.029,2.374,3,.258.154,4,2.494,4.331,2,1.1-1.729,1.812-4.431,3.251-6.439A9.5,9.5,0,0,1,49.311,46a11.694,11.694,0,0,0,2.806-2.128,3.2,3.2,0,0,0,3,0c.266.678-.831,1.729.474,1.9a.756.756,0,0,0,.046-.125,1.285,1.285,0,0,1-.145-.515.486.486,0,0,1,.145.515c.669,1.347,3.517,1.476,4.718,2.6,2.124,2,2.245,5.288,4.082,7.482,1-.3.2-1.089.47-1.742.8-.1,1.247-.557,2.17-.732,2.548-.491,3.488-2.91,4.157-5.117.291.669-.59,1.721.316,2.216,1.2-.166,1.451-1.339,2.369-1.9.191,1-1.609,1.467-.948,2.689,1.06-.694,2.3-1.3,2.843-2.532-.208-.2-.416-.208-.569-.025a.245.245,0,0,1-.1.129,1.16,1.16,0,0,1,.1-.129,4,4,0,0,0,.1-1.247c-1.5,0-2.078,1.164-3.325,1.738a3.866,3.866,0,0,0,.316-2.053c-1.925,0-2.149,1.891-2.685,3.3-.919,2.407-3.741,1.663-5.371,3.184.162-2.249-2.407-4.573-2.681-6.8,1.031-.15.7,2.02,1.733,2.211.3-.9-.678-1.829-.786-2.685.682.744,1.862,2.823.59,3.654,2.008.208.108-2.174.79-2.532.939.1,1.609,2.195,1.247-.474.436.075,2.286-1.58,2.207-2.078.416,1.33,2.453,1.413,2.211-.312.507.441.216,1.484.948,1.738,1.613,0-.137-1.355,1.8-.773.37.112,3.234,2.7,3.1.457,1.023.2,0,1.538.948,1.9a8.06,8.06,0,0,0,.474-.948c.486.948-.208,2.569.948,3.159,1-1.052.507-3.022.316-4.265A1.131,1.131,0,0,0,77.8,47c-.894-1.6-.586-3.828-1.9-5.217,3.558,1.147,2.885,6.73,2.527,9.328.686.22.378-.54.948-.474,0,.071.881,4.157,1.106,2.527.291.719-.108,1.8-.158,2.532,1.205-.266.416-2.211.632-3.005.935.831-.308,2.627.316,3.637.927.116.175-1.4.632-1.742.3,1.351,1.309,5.633.474,6.327,1.247.653,1.305-1.584,1.247-2.216.707.1.8,1.883,2.053,1.9C86.34,59.946,84.773,58.412,86.02,58.092ZM50.974,28.682c.719,0,.087.894,0,1.106C50.5,29.568,51.182,29.181,50.974,28.682Zm.316-.79c-.831-.033-1.16-.058-1.106.474-.744-.7,1.189-1.733,1.106-.466Zm-5.371,1.746a1.663,1.663,0,0,1,.79.474,2.494,2.494,0,0,1,0-1.106c.569.5.981,1.3,1.9.79.067-.956-.461-.416-1.106-.316-.129-2.257,3.837-.262,1.575.648C48.629,30.308,44.743,30.869,45.919,29.638Zm.158,4.107c.382.744.628,2.041-.632,1.742a1.056,1.056,0,0,1,.416-.74c.333-1.014-1.7.387-1.821.582-.624-1.363,1.06-1.841,2.037-1.584Zm-.794-1.106c-.416.05-.52-.216-.474-.632C45.229,31.962,45.333,32.228,45.283,32.64Zm-1.738-2.211a2.494,2.494,0,0,1,1.58-.474c-.357.727-.619,1.621-1.58,1.738a3.583,3.583,0,0,0,0-1.264Zm.158,2.685a2.037,2.037,0,0,1-1.247.158c-.312-1.127,1.081-.2,1.251-.158Zm-.158,1.247c-.416,0-.565-.216-.474-.636.308.254.416.129.47,0,0-.191.037-.1,0,0a2.866,2.866,0,0,0,.008.657Zm.316,9.976c-.416.333-.981-.486-.948-1.11.357.337.441.939.952,1.114Zm-4.893-9.324c-1.33.378-.112-.885-2.078.241a11.689,11.689,0,0,0-2.723,2.2C32.6,39.12,31.379,41.078,29.662,42.6,30.181,41.685,36.882,31.118,38.969,35.013Zm-8.688,7.27c2.727-1.779,4.119-6.314,7.582-6.651a51.013,51.013,0,0,1-4.082,4.356c-.694.694-2.415,3.562-3.5,3.558a1.023,1.023,0,0,0,0-1.264ZM25.068,56.354a8.349,8.349,0,0,1,1.422-3.637C26.34,54.072,25.459,55.087,25.068,56.354ZM27.438,52.4c-.27-1.014.723-2.12,1.247-2.847C28.884,50.477,27.666,51.362,27.438,52.4Zm.158-2.847c-.046-1.359.786-1.846,1.106-2.843A3.755,3.755,0,0,1,27.6,49.554Zm-3,4.9c0-.989.831-1.829.47-2.843,1.085-.262.47-3.658,2.211-4.111-.208-1-.2-.948.474-2.211.856.474.69-1.048,1.422-1.11C27.666,47.613,26.162,51.046,24.6,54.455Zm4.888-7.586c1.95-4.73,6.181-7.694,9.324-11.535,1.883,3.276-3.608,3.367-3.974,5.691a11.643,11.643,0,0,1-2.615,2.939C31.495,43.568,30.173,46.44,29.487,46.869Zm3-1.106c.362-1.052,1.172-3.1,2.527-3.163.7-.831-.445-.416.927-1.6a8.1,8.1,0,0,1,2.706-2.033c-.7,3.5-4.706,3.9-6.156,6.8Zm5.845-1.742a5.545,5.545,0,0,1-2.685,1.11c.673-1.023,1.858-1.509,2.527-2.532a2.382,2.382,0,0,1,.162,1.422Zm-5.055,2.058c-.125.611-.723.752-1.106,1.106-.083-.212.515-1.043,1.11-1.106Zm-1.713,1.58a11.224,11.224,0,0,1,1.58,2.216C31.308,49.812,31.416,48.66,31.566,47.658Zm5.82,4.934c-1.355-.86-.906-2.132-1.854-3.38A3.118,3.118,0,0,0,34.06,48.1q-1.164.245-1.247-.919a1.438,1.438,0,0,1,1.422-1.106c-.948,1.368,1.077,1.289,1.247.474.6.5-.337,3.741,2.211.632.5.511-.578.873-.474,1.422.262.981,1.38-.029,2.078-.619a1.351,1.351,0,0,1,.441-.328,3.326,3.326,0,0,0-.441.328,2.205,2.205,0,0,0-.636,1.7c.32,1.247.831-.033,1.393.025-.258.5-1.272,1.413-.316,1.9,1.093-1.114,1.933.449,3.159.158-.723,3.608-2.922,2.482-5.541.823Zm8.729-6.04c-.083.773-1.854,2.91-2.689,2.556-.062-.025,1.447-2.149.349-1.846-.723.2-2.494,2.469-3.03,3.084-.237-1.2,1.958-1.663,1.422-3.005-1.06.341-1.692,1.289-2.685,1.738.757-1.085,2.024-1.721,2.527-3,.083-.831-3.039-.312-3.475-.316.341-.96,1.276-1.147,2.053-1.584-.287-.711-1.172-.416-1.738-.632-.137-1.476.894-2.182,1.247-3.475a.748.748,0,0,0-.79-.158c.96-1.546,1.384-5.662-.79-6.481,2.328-.553,3.483,2.124,4.265,3.791-.22,2.228-2.4,3.8-1.339,6.194.8,1.8,3.105,2.257,4.814,2.66a3.08,3.08,0,0,1-1.9.316,2.444,2.444,0,0,0,1.717.162Zm.915-1.193c-3.625-.636-4.855-4.743-2.968-7.661,2.224.865,7.94,8.542,2.931,7.661Zm.665-7.661v-.948a.956.956,0,0,1,.79.316.786.786,0,0,1-.827.632Zm6.4,5.458c-1.758.769-3.213-.653-4.606-1.817-2.369-1.975-.091-2.494-.37-4.573.79-.029,1.6.707,2.369.158.075.628.145,1.247.208,1.883.366,1.156,2.1.594,2.32-.3a.611.611,0,0,0-.939-.2c-.914.179-.628-2.22-.673-2.689-.22-2.124-3.01-2.448-4.864-1.7.154-2.594,3.571-1.92,4.423-3.953a3.907,3.907,0,0,0,3.475.632c.191,1.247,1.571,1.663,1.9,2.847-1.28-.378-3.608-.391-3.949,1.247,1.21.578,3.242-1.172,3.791.79-1.247-1.4-3.325,1-1.58.79l-.79.632c1.11.765,3.779-.7,2.423,2.494a7.731,7.731,0,0,1-3.172,3.754Zm-5.329-7.669c.416-.615,2.286-.831,2.685-.158C50.346,35.113,49.5,35.849,48.763,35.487ZM59.57,45.646a2.087,2.087,0,0,1-2.752-.2c-.727-2.349.906-4.365,1.58-6.481C60.664,39.748,61.054,44.063,59.57,45.646ZM68.5,32.64a1.511,1.511,0,0,1-2.523-.158c.985-.395,1.534.033,2.523.158Zm-5.682,7.432c-.27.308-1.114-1.945-.162-1.9A2.049,2.049,0,0,0,62.821,40.072Zm.158,3.949a7.048,7.048,0,0,1-1.247-3.949c1.122.752,1.16,2.378,1.733,3.475C63.012,43.306,62.854,43.464,62.979,44.021Zm1.422-1.58a11.93,11.93,0,0,1,.944,2.847c-.69-.574-.607-1.92-.939-2.847Zm2.328-5.308a1.409,1.409,0,0,1-.436,1.039c-.669.245-.029-.831-.474-.79-1.247,2.365.569,5.2.79,7.59-1.247-.873-1.6-3.995-1.891-5.375-.158-.74.3-2.1-.794-2.374-.569.258.037.748-.312,1.106-1.176-1.688,2.058-2.394,2.91-1.575-.029-.158-.054-.32-.083-.478a2.744,2.744,0,0,1,1.58-.158C67.606,36.468,67.169,36.8,66.728,37.133Zm2.249,2.623a2.494,2.494,0,0,1-.474-1.9c-1.4.121.461,6.3.316,7.275-1.937-1.509-1.8-9.976.474-8.222a8.339,8.339,0,0,0-.316,2.847Zm1.9,4.743c-1.783.062-1.048-6.065-1.106-6.959C71.392,38.019,71.579,41.789,70.873,44.5Zm.79-5.059c1.068.632.993,3.2,1.106,4.265C71.887,42.816,72.07,40.824,71.663,39.44Zm2.369,4.107c-.5-.025-.416-.624-.474-1.106.191.341.757.79.474,1.106Zm.79-.632c-1.754-1.289-1.663-4.074-3.475-5.375,2.078.387,3.247,2.839,3.949,4.573C74.722,42.159,74.564,42.425,74.822,42.915Zm5.213,9.012c-.457-1.384-.17-3.517-.474-5.059.844.964,1.6,4.049.474,5.059Zm2.843,5.853c-.682-1.92-.137-4.045-.632-6.007-.86.661-.2,1.663-.316,2.527a21.557,21.557,0,0,1-.935-4.988c-.058-.374-1.139-3.554-1.118-2.777-.831-2.943-5.192-9.266-8.53-9.644-.216-.786-2.7-1.114-3.629-1.9-1.638.877-4.086.549-5.371,2.053.341-1.9.1-3,2.278-3.147,1.359-.091,2.91.175,4.194-.328,4.893,1.883,7.669,4.805,10.342,9.365C81.543,47.022,84.333,52.971,82.878,57.78ZM84.3,58.1c-.457-.678-.362-2.656-.316-3.325a8.886,8.886,0,0,1,.316,3.321ZM53.181,54.3c0-.707-.91-.707-1.422-.474C51.805,54.5,52.766,54.455,53.181,54.3Zm1.426-14.391c-.636-.162-.7.245-.948.474-.532-1.2-1.38.22-2.053.316.22,1.609,3.267.977,3.325-.474C54.744,40.2,54.678,40.055,54.607,39.906Zm15.476-5.375a1.289,1.289,0,0,0,1.106,1.106c-.062-.719-.395-1.176-1.106-1.1ZM31.873,41.153ZM50.342,56.192c-.324-.366-1.363-.112-1.738,0,0,1.018,1.551.59,1.738,0Zm-.948-1.426a2.54,2.54,0,0,0-.316-1.422c-1.65-.062-.628,1.455.316,1.426Zm23.694-3a4.387,4.387,0,0,0,2.685-1.742,3.521,3.521,0,0,0-2.689,1.746ZM55.875,53.012C54.628,55.976,58.718,52.6,55.875,53.012ZM52.084,52.7c-.22.831,1.048.732,1.247.632.2-.8-.64-.59-1.251-.611Zm1.247-.79c0-.661-.615-.711-1.106-.474a.7.7,0,0,0,1.118.495Zm-1.4,3.022c.087.416,1.447.985,1.58.32C53.106,55.033,52.233,54.733,51.934,54.929ZM16.759,23.278l-.046-.033A10.239,10.239,0,0,0,2.164,25.619,10.279,10.279,0,0,0,4.13,40.276l.046.037A10.246,10.246,0,0,0,18.725,37.94,10.282,10.282,0,0,0,16.759,23.278Zm-1.247,12.2a6.063,6.063,0,0,1-8.646,1.1H6.82A5.974,5.974,0,0,1,5.4,28.071a6.078,6.078,0,0,1,8.63-1.114l.046.033A5.952,5.952,0,0,1,15.5,35.483ZM35.07,24.01l-2.2-5.558,3.1-1.247c4.157-1.663,6.614-5.188,4.913-9.473l-.025-.054C39.335,3.916,35.623,2.357,31.2,4.107l-7.57,3,7.345,18.515ZM32.335,7.923c2.037-.811,3.7-.333,4.419,1.492v.054c.632,1.584-.075,3.276-2.116,4.082l-3.23,1.28L29.163,9.17ZM56.727,0H52.35l-.042,19.92H56.7Zm15.31,23.985c4.888,2.182,9.191.86,11.639-4.647L88.248,9.074,84.241,7.287,79.586,17.7c-1.289,2.885-3.434,3.7-5.878,2.615s-3.242-3.284-1.916-6.235l4.627-10.3L72.411,2,67.768,12.392C65.373,17.741,67.148,21.8,72.037,23.985Zm33.774,1.58c-2.419-3.271-6.069-4.19-8.979-2.045l-.046.033C93.6,25.9,94.243,28.645,95.8,32.482c1.293,3.184,1.247,4.074.345,4.73l-.046.033c-.939.694-2.157.245-3.222-1.2A9.144,9.144,0,0,1,91.3,29.813l-4.028-.229a12.662,12.662,0,0,0,2.453,8.692c2.552,3.459,6.131,4.573,9.32,2.22l.046-.033c2.8-2.078,2.615-4.755,1.06-8.63-1.334-3.3-1.5-4.236-.445-5.013l.046-.033c.781-.574,1.925-.32,2.91,1.031a9.435,9.435,0,0,1,1.492,5.333l4.011-.129a11.535,11.535,0,0,0-2.349-7.457Z" transform="translate(0.045)" fill="#e4e6ea"/>
    </g>
  </g>
</svg>
