<svg xmlns="http://www.w3.org/2000/svg" width="260.328" height="158.07" viewBox="0 0 260.328 158.07">
  <g id="Layer_2" data-name="Layer 2" transform="translate(0.045)">
    <g id="Layer_1" data-name="Layer 1">
      <path id="Path_1" data-name="Path 1" d="M152.19,144.43a11.07,11.07,0,0,0,4.37-1.6c8.6-7.62,17.59-14.91,28.06-19.81-3.71-1.48-11.9,4-13.68,6.84-4,.12-7.35,4.62-9.94,7.17s-6.5,6.38-10.57,4.62c-5.11-2.2-4-10.25-8-13.69a3.44,3.44,0,0,1,2.28-1.14,2.17,2.17,0,0,0-2.28-1.14c.05-1.32.75-2.56.76-3.8-6.21.88.59,12.39-6.84,11.79-.32,2.82,2.85,1.68,3.8.38,0,3.93,1.86,16.36-1.26,18.91-4.5,3.7-11,2.73-16.35,1-2.47-.81-5,.06-7-1.41-1.71-1.33-1-9.47-1.35-11.22-.91-4.25,1.36-15.45-1.87-18.14-1.19.36-3.11,10.31-4,12.41-1.7,4-3.71,10.12-9.49,7.92-4.81-1.83-7.86-5.65-10.64-9.72-3.4-5-8.21-6.39-12.69-10,1.1-1.3,2.29,2,3.42.76-.6-3.3-4.64-3.47-7.22-3.8-.64,3,4.64,6.09,6.46,7.6,4.74,3.95,9,6.49,12.52,11.76a14.161,14.161,0,0,0,2.09,2.09c.44.33,1.26.88,1.43,1,1.42.88,2.7,1.47,3.72,3a.48.48,0,0,1-.3.15.35.35,0,0,1-.12.07l-.5.12A18.939,18.939,0,0,0,94.19,148c-1.5,1.47-4,3.26,2.13,4.19a40.63,40.63,0,0,0,11.55.1c2.91,2.23,7.16,2.31,10.64,2.66-3.54,1.65-6.78-1.7-10.26-.38,5.58,2.21,9.17,2,15.13,1.84,6.86-.23,13.77,1.29,20.64,1.66l.74-.09-.93-.16c-1.88-.12-3.23-.44-3.51-1.07.32.73,20.68-2,18.76-5.77-.94-1.84-5.51-1.77-7.14-2-4.39-.72-6.46-3-9.87-5.4a54.32,54.32,0,0,0,10.12.85Zm-40.62-14.2c1.52,1.66.68,8.26.74,10.62-.4,0-2.9.23-3.86.29.09-2.25,2.74-8.75,3.12-10.91Zm-3.2,12.47q1.83-.16,4-.24h0c.1,2.88-3.73,1.19-6,2.22.09-.68.98-1.39,2-1.98Zm-2.78,8.46c-3.29-.95-8.51,1.13-11-1.9,4.07-3.76,10.52-3.19,15.58-4.18-1.59,1.42-6.44,3.07-4.58,6.08Zm7.5,1.19c-2.46,1.31-4.13-2.17-6.36-2.33.33-1.49,4.86-4.84,6.3-4.88-.42.7,1.08,6.54.06,7.21ZM147,148.12c3.55,1.09,7.37,1.51,10.63,3.42-5.29,2.68-12,3.4-17.85,3C143.16,153.45,147.12,152.53,147,148.12Zm-5.7,4.18c-1.66-1.12,1.86-2.7.76-5.7,5.68.16,2.53,5.27-.75,5.7Zm2.8-9.86c-2.64-1.34-2.42-6.14-1.66-9.53,3,2.4,3.4,7.75,6.86,9.74-.58.25-4.14-.16-5.19-.21Zm62.9-2.69a166.463,166.463,0,0,0-4.45-16.27,107.211,107.211,0,0,0-12-25.34c-6.49-9.83-28.21-32.07-41-19.24-2.62-2.72-3.16-7.41-7.6-8v3.8c1.86.6.55-2,2.28-1.52,2.33,2.09-1.53,4.11,1.94,4.71,1.75.3,2.26,1.87,1.8,3.47-.87,3.05,1,.57,1.2,3.23.39,2.47-2.78,1.91-2.66,4.18-1.52-1.75-4.13-1.73-6.08-2.66.16-1.63,3.43,1.26,4.18-.76-1-1.38-3,.28-3.42-1.9.17-.93,2.09.12,1.9-1.14,0,.1-3.57-2.24-3.8-2.29a1.69,1.69,0,0,1,1.9-1.14c-.8-1.92-3.7-.92-4.94-2.28a3.8,3.8,0,0,1,1.14-1.52c-.81-.42-7.66-5-7.65-3.85,0,3.76-4.21-3.56-5.27-3.75.25-2.19,3.18-1.78,4.56-1.53-3.51,4.18,1.13.52,2.67.32,2.48-.31,8.88,5.56,8.59,6,2.58-4.07-9.23-8.2-11.76-8.1-2.2.08-4.25-.92-6.38-1.28-3.26-.57-4.53,2-7.48,2.46-2.32.33-3.91,2.2-5.07,4.05-1.66,2.63-4.1,1.45-5.66,4.31-1.06,1.93-1.4,4.64-3.41,5.92C97,77.9,95.84,76.88,91.4,78c-11.7,3-18.19,15.62-24,25a97.47,97.47,0,0,0-9.1,17.93c-.68,1.84-5.36,18.83-3.17,20.9l.38.18a.46.46,0,0,1,.2,0h.13a2.618,2.618,0,0,0,.38.09A1.86,1.86,0,0,0,57,142a3.389,3.389,0,0,0,.54-.43,2.87,2.87,0,0,1,2.5-1.84c1-3,2.71-5.75,3.8-8.75,1.48,1,4.57-6.28,5.43-7.83,1-1.81,1.32-7.9,4.45-5.86.66,4.76,6.54,3.7,9.88,4.57-.34-2.22-2.91-2.6-3-4.95,2,1.12,3.9,2.54,4.45,5,.94,4.2,1.74,4.88,5.71,7.22.62.37,9.63,6,10.42,4.8,2.64-4.16,4.36-10.66,7.82-15.49a22.85,22.85,0,0,1,9.69-7.79c2.92-1.24,4.23-3.11,6.75-5.12,2,1.48,5.15.92,7.22,0,.64,1.63-2,4.16,1.14,4.57a1.82,1.82,0,0,0,.11-.3,3.09,3.09,0,0,1-.35-1.24,1.17,1.17,0,0,1,.35,1.24c1.61,3.24,8.46,3.55,11.35,6.25,5.11,4.8,5.4,12.72,9.82,18,2.41-.72.49-2.62,1.13-4.19,1.93-.23,3-1.34,5.22-1.76,6.13-1.18,8.39-7,10-12.31.7,1.61-1.42,4.14.76,5.33,2.89-.4,3.49-3.22,5.7-4.57.46,2.41-3.87,3.53-2.28,6.47,2.55-1.67,5.54-3.12,6.84-6.09-.5-.48-1-.5-1.37-.06a.59.59,0,0,1-.24.31,2.793,2.793,0,0,1,.24-.31,9.61,9.61,0,0,0,.23-3c-3.6,0-5,2.8-8,4.18a9.3,9.3,0,0,0,.76-4.94c-4.63,0-5.17,4.55-6.46,7.93-2.21,5.79-9,4-12.92,7.66.39-5.41-5.79-11-6.45-16.35,2.48-.36,1.69,4.86,4.17,5.32.72-2.17-1.63-4.4-1.89-6.46C152.16,113,155,118,151.94,120c4.83.5.26-5.23,1.9-6.09,2.26.25,3.87,5.28,3-1.14,1.05.18,5.5-3.8,5.31-5,1,3.2,5.9,3.4,5.32-.75,1.22,1.06.52,3.57,2.28,4.18,3.88,0-.33-3.26,4.32-1.86.89.27,7.78,6.49,7.46,1.1,2.46.47,0,3.7,2.28,4.56a19.39,19.39,0,0,0,1.14-2.28c1.17,2.28-.5,6.18,2.28,7.6,2.41-2.53,1.22-7.27.76-10.26a2.72,2.72,0,0,0-.76,3c-2.15-3.86-1.41-9.21-4.56-12.55,8.56,2.76,6.94,16.19,6.08,22.44,1.65.53.91-1.3,2.28-1.14,0,.17,2.12,10,2.66,6.08.7,1.73-.26,4.32-.38,6.09,2.9-.64,1-5.32,1.52-7.23,2.25,2-.74,6.32.76,8.75,2.23.28.42-3.36,1.52-4.19.71,3.25,3.15,13.55,1.14,15.22,3,1.57,3.14-3.81,3-5.33,1.7.24,1.92,4.53,4.94,4.56C207.77,144.21,204,140.52,207,139.75ZM122.69,69c1.73,0,.21,2.15,0,2.66C121.56,71.13,123.19,70.2,122.69,69Zm.76-1.9c-2-.08-2.79-.14-2.66,1.14-1.79-1.69,2.86-4.17,2.66-1.12Zm-12.92,4.2a4,4,0,0,1,1.9,1.14,6,6,0,0,1,0-2.66c1.37,1.2,2.36,3.12,4.56,1.9.16-2.3-1.11-1-2.66-.76-.31-5.43,9.23-.63,3.79,1.56C117.05,72.91,107.7,74.26,110.53,71.3Zm.38,9.88c.92,1.79,1.51,4.91-1.52,4.19a2.54,2.54,0,0,1,1-1.78c.8-2.44-4.08.93-4.38,1.4-1.5-3.28,2.55-4.43,4.9-3.81ZM109,78.52c-1,.12-1.25-.52-1.14-1.52C108.87,76.89,109.12,77.53,109,78.52Zm-4.18-5.32a6,6,0,0,1,3.8-1.14c-.86,1.75-1.49,3.9-3.8,4.18a8.62,8.62,0,0,0,.01-3.04Zm.38,6.46a4.9,4.9,0,0,1-3,.38c-.75-2.71,2.6-.47,3.01-.38Zm-.38,3c-1,0-1.36-.52-1.14-1.53.74.61,1,.31,1.13,0,0-.46.09-.25,0,0a6.894,6.894,0,0,0,.02,1.58Zm.76,24c-1,.8-2.36-1.17-2.28-2.67.86.81,1.06,2.26,2.29,2.68ZM93.81,84.23c-3.2.91-.27-2.13-5,.58a28.12,28.12,0,0,0-6.55,5.3c-3.76,4-6.71,8.71-10.84,12.37C72.67,100.28,88.79,74.86,93.81,84.23Zm-20.9,17.49c6.56-4.28,9.91-15.19,18.24-16A122.721,122.721,0,0,1,81.33,96.2c-1.67,1.67-5.81,8.57-8.42,8.56a2.46,2.46,0,0,0,0-3.04ZM60.37,135.57c-.35-2,3.25-9.37,3.42-8.75C63.43,130.08,61.31,132.52,60.37,135.57Zm5.7-9.51c-.65-2.44,1.74-5.1,3-6.85.48,2.22-2.45,4.35-3,6.85Zm.38-6.85c-.11-3.27,1.89-4.44,2.66-6.84.41,2.06-1.11,5.47-2.66,6.84ZM59.24,131c0-2.38,2-4.4,1.13-6.84,2.61-.63,1.13-8.8,5.32-9.89-.5-2.4-.48-2.28,1.14-5.32,2.06,1.14,1.66-2.52,3.42-2.67C66.62,114.54,63,122.8,59.24,131ZM71,112.75C75.69,101.37,85.87,94.24,93.43,85c4.53,7.88-8.68,8.1-9.56,13.69-.15,1-5.82,7.32-6.29,7.07C75.83,104.81,72.65,111.72,71,112.75Zm7.22-2.66c.87-2.53,2.82-7.46,6.08-7.61,1.69-2-1.07-1,2.23-3.85,2.07-1.82,3.77-4,6.51-4.89-1.69,8.41-11.32,9.39-14.81,16.35Zm14.06-4.19a13.34,13.34,0,0,1-6.46,2.67c1.62-2.46,4.47-3.63,6.08-6.09a5.73,5.73,0,0,1,.39,3.42Zm-12.16,4.95c-.3,1.47-1.74,1.81-2.66,2.66-.2-.51,1.24-2.51,2.67-2.66ZM76,114.65a27,27,0,0,1,3.8,5.33C75.38,119.83,75.64,117.06,76,114.65Zm14,11.87c-3.26-2.07-2.18-5.13-4.46-8.13A7.5,7.5,0,0,0,82,115.72q-2.8.59-3-2.21a3.46,3.46,0,0,1,3.42-2.66c-2.28,3.29,2.59,3.1,3,1.14,1.44,1.21-.81,9,5.32,1.52,1.21,1.23-1.39,2.1-1.14,3.42.63,2.36,3.32-.07,5-1.49a3.25,3.25,0,0,1,1.06-.79,8,8,0,0,0-1.06.79c-1,1.1-1.84,2.93-1.53,4.09.77,3,2-.08,3.35.06-.62,1.2-3.06,3.4-.76,4.57,2.63-2.68,4.65,1.08,7.6.38-1.74,8.68-7.03,5.97-13.33,1.98Zm21-14.53c-.2,1.86-4.46,7-6.47,6.15-.15-.06,3.48-5.17.84-4.44-1.74.48-6,5.94-7.29,7.42-.57-2.88,4.71-4,3.42-7.23-2.55.82-4.07,3.1-6.46,4.18,1.82-2.61,4.87-4.14,6.08-7.22.2-2-7.31-.75-8.36-.76.82-2.31,3.07-2.76,4.94-3.81-.69-1.71-2.82-1-4.18-1.52-.33-3.55,2.15-5.25,3-8.36a1.8,1.8,0,0,0-1.9-.38c2.31-3.72,3.33-13.62-1.9-15.59,5.6-1.33,8.38,5.11,10.26,9.12-.53,5.36-5.78,9.13-3.22,14.9,1.93,4.34,7.47,5.43,11.58,6.4a7.41,7.41,0,0,1-4.56.76,5.88,5.88,0,0,0,4.13.39Zm2.2-2.87c-8.72-1.53-11.68-11.41-7.14-18.43,5.35,2.08,19.1,20.55,7.05,18.43Zm1.6-18.43V88.41a2.3,2.3,0,0,1,1.9.76,1.89,1.89,0,0,1-1.99,1.52Zm15.39,13.13c-4.23,1.85-7.73-1.57-11.08-4.37-5.7-4.75-.22-6-.89-11,1.9-.07,3.84,1.7,5.7.38.18,1.51.35,3,.5,4.53.88,2.78,5.06,1.43,5.58-.73a1.47,1.47,0,0,0-2.26-.47c-2.2.43-1.51-5.34-1.62-6.47-.53-5.11-7.24-5.89-11.7-4.08.37-6.24,8.59-4.62,10.64-9.51a9.4,9.4,0,0,0,8.36,1.52c.46,3,3.78,4,4.56,6.85-3.08-.91-8.68-.94-9.5,3,2.91,1.39,7.8-2.82,9.12,1.9-3-3.36-8,2.41-3.8,1.9l-1.9,1.52c2.67,1.84,9.09-1.69,5.83,6-1.64,3.67-4.62,7.71-7.63,9.03ZM117.37,85.37c1-1.48,5.5-2,6.46-.38C121.18,84.47,119.14,86.24,117.37,85.37Zm26,24.44c-1.42,1.52-5.34,1.34-6.62-.48-1.75-5.65,2.18-10.5,3.8-15.59,5.45,1.88,6.39,12.26,2.82,16.07Zm21.49-31.29c-1.14,2.2-5.29,1.79-6.07-.38,2.37-.95,3.69.08,6.07.38ZM151.19,96.4c-.65.74-2.68-4.68-.39-4.57C150,93,150.5,95.51,151.19,96.4Zm.38,9.5c-1.59-1.84-3.36-7.21-3-9.5,2.7,1.81,2.79,5.72,4.17,8.36C151.65,104.18,151.27,104.56,151.57,105.9Zm3.42-3.8a28.7,28.7,0,0,1,2.27,6.85c-1.66-1.38-1.46-4.62-2.26-6.85Zm5.6-12.77a3.39,3.39,0,0,1-1.05,2.5c-1.61.59-.07-2-1.14-1.9-3,5.69,1.37,12.5,1.9,18.26-3-2.1-3.85-9.61-4.55-12.93-.38-1.78.73-5.05-1.91-5.71-1.37.62.09,1.8-.75,2.66-2.83-4.06,4.95-5.76,7-3.79-.07-.38-.13-.77-.2-1.15a6.6,6.6,0,0,1,3.8-.38c-.99.84-2.04,1.65-3.1,2.44ZM166,95.64a6,6,0,0,1-1.14-4.57c-3.36.29,1.11,15.15.76,17.5-4.66-3.63-4.32-24,1.14-19.78a20.06,20.06,0,0,0-.76,6.85Zm4.56,11.41c-4.29.15-2.52-14.59-2.66-16.74C171.81,91.46,172.26,100.53,170.56,107.05Zm1.9-12.17c2.57,1.52,2.39,7.7,2.66,10.26-2.12-2.14-1.68-6.93-2.66-10.26Zm5.7,9.88c-1.2-.06-1-1.5-1.14-2.66.46.82,1.82,1.9,1.14,2.66Zm1.9-1.52c-4.22-3.1-4-9.8-8.36-12.93,5,.93,7.81,6.83,9.5,11-1.38.11-1.76.75-1.14,1.93Zm12.54,21.68c-1.1-3.33-.41-8.46-1.14-12.17,2.03,2.32,3.86,9.74,1.14,12.17ZM199.44,139c-1.64-4.62-.33-9.73-1.52-14.45-2.07,1.59-.48,4-.76,6.08-1.56-3.69-1.61-8-2.25-12-.14-.9-2.74-8.55-2.69-6.68-2-7.08-12.49-22.29-20.52-23.2-.52-1.89-6.49-2.68-8.73-4.56-3.94,2.11-9.83,1.32-12.92,4.94.82-4.58.25-7.22,5.48-7.57,3.27-.22,7,.42,10.09-.79,11.77,4.53,18.45,11.56,24.88,22.53C196.23,113.12,202.94,127.43,199.44,139Zm3.42.76c-1.1-1.63-.87-6.39-.76-8,.9,2.07.79,5.05.76,7.99ZM128,130.62c0-1.7-2.19-1.7-3.42-1.14C124.69,131.12,127,131,128,130.62ZM131.43,96c-1.53-.39-1.69.59-2.28,1.14-1.28-2.89-3.32.53-4.94.76.53,3.87,7.86,2.35,8-1.14C131.76,96.7,131.6,96.36,131.43,96Zm37.23-12.93a3.1,3.1,0,0,0,2.66,2.66c-.15-1.73-.95-2.83-2.66-2.64ZM76.74,99Zm44.43,36.18c-.78-.88-3.28-.27-4.18,0,.01,2.45,3.73,1.42,4.18.01Zm-2.28-3.43a6.11,6.11,0,0,0-.76-3.42c-3.97-.15-1.51,3.5.76,3.43Zm57-7.22c3.08-.47,4.78-2.32,6.46-4.19a8.47,8.47,0,0,0-6.47,4.2Zm-41.41,3C131.48,134.66,141.32,126.53,134.48,127.53Zm-9.12-.76c-.53,2,2.52,1.76,3,1.52.49-1.93-1.54-1.42-3.01-1.47Zm3-1.9c0-1.59-1.48-1.71-2.66-1.14-.04,1.39,1.84,1.93,2.69,1.19ZM125,132.14c.21,1,3.48,2.37,3.8.77C127.82,132.39,125.72,131.67,125,132.14ZM40.38,56l-.11-.08c-11-8.12-26.14-6.17-35,5.71S-.94,88.78,10,96.89l.11.09c11,8.11,26.14,6.16,35-5.71S51.33,64.12,40.38,56Zm-3,29.36c-5.11,6.82-14.2,7.58-20.8,2.64h-.11C9.86,83.07,8,74.34,13.05,67.53S27.2,60,33.81,64.85l.11.08c6.6,4.89,8.48,13.62,3.42,20.43Zm47.05-27.6-5.3-13.37,7.45-3c10-4,15.91-12.48,11.82-22.79l-.06-.13C94.69,9.42,85.76,5.67,75.12,9.88L56.91,17.1,74.58,61.64Zm-6.58-38.7c4.9-1.95,8.89-.8,10.63,3.59v.13c1.52,3.81-.18,7.88-5.09,9.82l-7.77,3.08-5.4-13.62ZM136.53,0H126l-.1,47.92h10.56Zm36.83,57.7c11.76,5.25,22.11,2.07,28-11.18l11-24.69-9.64-4.3-11.2,25.06c-3.1,6.94-8.26,8.91-14.14,6.29s-7.8-7.9-4.61-15L183.9,9.1l-9.64-4.29-11.17,25C157.33,42.68,161.6,52.45,173.36,57.7Zm81.25,3.8c-5.82-7.87-14.6-10.08-21.6-4.92l-.11.08c-7.67,5.65-6.12,12.25-2.37,21.48,3.11,7.66,3,9.8.83,11.38l-.11.08c-2.26,1.67-5.19.59-7.75-2.88-3.25-4.41-4.12-9.38-3.81-15L210,71.17a30.46,30.46,0,0,0,5.9,20.91c6.14,8.32,14.75,11,22.42,5.34l.11-.08c6.73-5,6.29-11.44,2.55-20.76-3.21-7.93-3.61-10.19-1.07-12.06l.11-.08c1.88-1.38,4.63-.77,7,2.48s3.44,7.67,3.59,12.83l9.65-.31a27.75,27.75,0,0,0-5.65-17.94Z" fill="#bfbbad"/>
    </g>
  </g>
</svg>
