<svg xmlns="http://www.w3.org/2000/svg" width="68.421" height="99.992" viewBox="0 0 68.421 99.992">
  <g id="noun-premium-7420695" transform="translate(-15.789 -0.004)">
    <path id="Path_1" data-name="Path 1" d="M50,70.117a1.158,1.158,0,0,1-.539-.133l-6.582-3.4-7.555.176a1.22,1.22,0,0,1-.965-.465L29.9,60.375,23.02,57.254a1.173,1.173,0,0,1-.664-.84L20.91,49.148l-4.848-5.8a1.16,1.16,0,0,1-.234-1.043l1.852-7.176-1.852-7.324a1.161,1.161,0,0,1,.242-1.043l4.781-5.66,1.508-7.4a1.172,1.172,0,0,1,.668-.836L29.793,9.84l4.574-6.016a1.127,1.127,0,0,1,.965-.461l7.406.207L49.469.133a1.164,1.164,0,0,1,1.07,0l6.582,3.4,7.555-.176a1.148,1.148,0,0,1,.965.469L70.1,9.75l6.883,3.117a1.173,1.173,0,0,1,.664.84l1.445,7.266,4.848,5.8a1.16,1.16,0,0,1,.234,1.043L82.32,34.988l1.852,7.324a1.161,1.161,0,0,1-.242,1.043l-4.781,5.66-1.512,7.4a1.172,1.172,0,0,1-.668.836l-6.762,3.027L65.633,66.3a1.222,1.222,0,0,1-.965.461l-7.406-.207-6.73,3.438a1.147,1.147,0,0,1-.531.129Zm-6.848-5.883a1.183,1.183,0,0,1,.539.133l6.316,3.262,6.461-3.3a1.229,1.229,0,0,1,.566-.129l7.105.2,4.391-5.773a1.133,1.133,0,0,1,.453-.359l6.488-2.9,1.449-7.105a1.171,1.171,0,0,1,.254-.523l4.586-5.43-1.777-7.031a1.222,1.222,0,0,1,0-.582l1.777-6.883L77.109,22.25a1.206,1.206,0,0,1-.25-.523l-1.387-6.969-6.605-3a1.177,1.177,0,0,1-.453-.363l-4.273-5.68-7.25.168a1.168,1.168,0,0,1-.566-.129L50.008,2.5l-6.461,3.3a1.172,1.172,0,0,1-.566.129l-7.105-.2L31.484,11.5a1.133,1.133,0,0,1-.453.359l-6.488,2.9-1.449,7.106a1.171,1.171,0,0,1-.254.523l-4.586,5.43,1.777,7.031a1.206,1.206,0,0,1,0,.578l-1.773,6.883,4.652,5.563a1.206,1.206,0,0,1,.25.523l1.387,6.969,6.605,3a1.177,1.177,0,0,1,.453.363l4.273,5.68,7.25-.168h.027Z" fill-rule="evenodd"/>
    <path id="Path_2" data-name="Path 2" d="M42.027,100a1.17,1.17,0,0,1-1.043-.641L35.629,88.816l-9.484,6.539a1.172,1.172,0,0,1-1.8-1.27l8.269-30.859a1.174,1.174,0,0,1,2.07-.4l1.191,1.582,7.254-.168a1.287,1.287,0,0,1,.566.129l6.7,3.457a1.158,1.158,0,0,1,.363.191,1.17,1.17,0,0,1,.422,1.211l-8.012,29.9a1.173,1.173,0,0,1-1.008.863c-.043,0-.082.008-.125.008ZM36.066,85.918a1.219,1.219,0,0,1,.289.035,1.17,1.17,0,0,1,.758.605l4.578,9.008,6.965-26-5.773-2.98-7.555.176a1.22,1.22,0,0,1-.965-.465l-.105-.141L27.433,91.621,35.4,86.129a1.161,1.161,0,0,1,.664-.207Z" fill-rule="evenodd"/>
    <path id="Path_3" data-name="Path 3" d="M33.629,84.012A1.168,1.168,0,0,1,32.5,82.539L35.82,70.133a1.171,1.171,0,0,1,2.262.605L34.758,83.145a1.17,1.17,0,0,1-1.129.867Z" fill-rule="evenodd"/>
    <path id="Path_4" data-name="Path 4" d="M57.973,100a1.183,1.183,0,0,1-.121-.008,1.168,1.168,0,0,1-1.008-.863L48.871,69.371a1.163,1.163,0,0,1-.023-.492A1.143,1.143,0,0,1,49.313,68c.047-.031.094-.062.145-.09l.039-.02c.016-.008.035-.016.055-.027l6.922-3.531a1.264,1.264,0,0,1,.566-.129l7.106.2,1.191-1.566a1.172,1.172,0,0,1,2.066.406L75.622,93.9a1.185,1.185,0,0,1,.105.484,1.17,1.17,0,0,1-1.172,1.172h-.016a1.18,1.18,0,0,1-.664-.207l-9.484-6.539L59.036,99.351a1.18,1.18,0,0,1-1.047.641ZM51.348,69.574l6.965,25.992,4.578-9.008a1.172,1.172,0,0,1,1.711-.434l7.965,5.492L65.742,66.156l-.109.145a1.222,1.222,0,0,1-.965.461l-7.406-.207Z" fill-rule="evenodd"/>
    <path id="Path_5" data-name="Path 5" d="M66.375,84.012a1.171,1.171,0,0,1-1.133-.867L61.914,70.731a1.171,1.171,0,0,1,2.262-.605L67.5,82.539a1.168,1.168,0,0,1-1.133,1.473Z" fill-rule="evenodd"/>
    <path id="Path_6" data-name="Path 6" d="M50,61.59A26.527,26.527,0,1,1,76.527,35.063,26.557,26.557,0,0,1,50,61.59Zm0-50.715A24.184,24.184,0,1,0,74.184,35.059,24.21,24.21,0,0,0,50,10.875Z" fill-rule="evenodd"/>
    <path id="Path_7" data-name="Path 7" d="M50,55.008A19.949,19.949,0,1,1,69.949,35.059,19.972,19.972,0,0,1,50,55.008Zm0-37.555a17.6,17.6,0,1,0,17.6,17.6A17.626,17.626,0,0,0,50,17.453Z" fill-rule="evenodd"/>
    <path id="Path_8" data-name="Path 8" d="M59.719,42.469H40.16a1.169,1.169,0,0,1-1.152-.961l-1.156-6.3a1.169,1.169,0,0,1,1.063-1.379,1.1,1.1,0,0,0,.832-.488,1.173,1.173,0,0,1,.828-.508,1.148,1.148,0,0,1,.926.289l3.063,2.734,2.773-3.938a1.172,1.172,0,0,1,1.844-.094,1.142,1.142,0,0,0,1.676,0,1.172,1.172,0,0,1,1.844.094l2.773,3.938,3.051-2.723a1.177,1.177,0,0,1,.918-.289,1.156,1.156,0,0,1,.824.5,1.1,1.1,0,0,0,.82.477,1.167,1.167,0,0,1,1.051,1.4l-1.273,6.309a1.167,1.167,0,0,1-1.148.941ZM41.137,40.125H58.762l.871-4.324a3.914,3.914,0,0,1-.352-.2l-3.23,2.883a1.154,1.154,0,0,1-.914.289,1.171,1.171,0,0,1-.824-.488l-2.852-4.047a3.519,3.519,0,0,1-2.891,0l-2.852,4.047a1.174,1.174,0,0,1-1.738.2l-3.234-2.887a3.152,3.152,0,0,1-.4.23Z" fill-rule="evenodd"/>
    <path id="Path_9" data-name="Path 9" d="M38.824,36.176a3.449,3.449,0,1,1,3.449-3.449A3.453,3.453,0,0,1,38.824,36.176Zm0-4.559a1.109,1.109,0,1,0,1.109,1.109A1.111,1.111,0,0,0,38.824,31.617Z" fill-rule="evenodd"/>
    <path id="Path_10" data-name="Path 10" d="M50.016,34.555a3.449,3.449,0,1,1,3.449-3.449A3.453,3.453,0,0,1,50.016,34.555Zm0-4.559a1.109,1.109,0,1,0,1.105,1.109A1.108,1.108,0,0,0,50.016,30Z" fill-rule="evenodd"/>
    <path id="Path_11" data-name="Path 11" d="M61.18,36.168a3.449,3.449,0,1,1,3.449-3.449,3.453,3.453,0,0,1-3.449,3.449Zm0-4.559a1.109,1.109,0,1,0,1.105,1.109A1.108,1.108,0,0,0,61.18,31.609Z" fill-rule="evenodd"/>
  </g>
</svg>
