<svg xmlns="http://www.w3.org/2000/svg" width="47" height="62" viewBox="0 0 47 62">
  <g id="noun-lock-4606005" transform="translate(-26.5 -19)">
    <path id="Path_24" data-name="Path 24" d="M72.5,81h-45a1,1,0,0,1-1-1V45a1,1,0,0,1,1-1h45a1,1,0,0,1,1,1V80A1,1,0,0,1,72.5,81Zm-44-2h43V46h-43Z"/>
    <path id="Path_25" data-name="Path 25" d="M62.5,46a1,1,0,0,1-1-1V32.5a11.5,11.5,0,0,0-23,0V45a1,1,0,0,1-2,0V32.5a13.5,13.5,0,0,1,27,0V45A1,1,0,0,1,62.5,46Z"/>
    <circle id="Ellipse_1" data-name="Ellipse 1" cx="2.5" cy="2.5" r="2.5" transform="translate(47.5 58.01)"/>
    <path id="Path_26" data-name="Path 26" d="M50,67.89a1,1,0,0,1-1-1v-5a1,1,0,0,1,2,0v5A1,1,0,0,1,50,67.89Z"/>
  </g>
</svg>
