<svg xmlns="http://www.w3.org/2000/svg" width="80.003" height="80" viewBox="0 0 80.003 80">
  <g id="noun-drinks-7361302" transform="translate(-10.016 -10)">
    <path id="Path_27" data-name="Path 27" d="M89,10H40.543a1,1,0,0,0-1,.945c0,.023-.035.652-.012,1.762C39.887,29.1,52.156,36.816,63.769,37.238V88h-10.6a1,1,0,0,0,0,2h23.2a1,1,0,0,0,0-2h-10.6V37.234C77.385,36.816,89.651,29.1,90.01,12.7,90.034,11.57,90,10.945,90,10.945A1.008,1.008,0,0,0,89,10Zm-.984,2c0,.2,0,.414-.008.664a27.723,27.723,0,0,1-.5,4.7,9.73,9.73,0,0,0-6.242,2.18,8.092,8.092,0,0,1-10.227,0,10.09,10.09,0,0,0-12.527,0,8.1,8.1,0,0,1-10.234,0,9.7,9.7,0,0,0-6.242-2.18,27.334,27.334,0,0,1-.5-4.7c-.008-.25-.008-.469-.012-.664ZM64.774,35.258c-9.227,0-19.152-5.016-22.258-15.871a7.782,7.782,0,0,1,4.613,1.8,10.1,10.1,0,0,0,12.531,0,8.1,8.1,0,0,1,10.23,0,10.09,10.09,0,0,0,12.527,0,7.782,7.782,0,0,1,4.613-1.8C83.922,30.239,74,35.258,64.773,35.258Z"/>
    <path id="Path_28" data-name="Path 28" d="M27.078,52.844V88H19.914a1,1,0,1,0,0,2H36.238a1,1,0,0,0,0-2H29.074l0-35.156c8.223-.414,16.805-5.926,17.055-17.523.016-.809-.008-1.258-.008-1.258a1,1,0,0,0-1-.945L11.031,33.11a1,1,0,0,0-1,.945s-.027.453-.008,1.262c.254,11.6,8.832,17.113,17.055,17.527Zm1-1.961c-6.418,0-13.312-3.527-15.406-11.137a4.6,4.6,0,0,1,2.688,1.664A6.2,6.2,0,0,0,20.07,43.7a6.212,6.212,0,0,0,4.711-2.293c.953-.953,1.711-1.707,3.3-1.707s2.344.754,3.3,1.707a5.986,5.986,0,0,0,9.422,0,4.624,4.624,0,0,1,2.688-1.664C41.391,47.352,34.5,50.883,28.078,50.883ZM44.14,35.11c0,.055,0,.109,0,.164a19.974,19.974,0,0,1-.219,2.438,6.267,6.267,0,0,0-4.531,2.281c-.953.953-1.711,1.707-3.3,1.707s-2.34-.754-3.3-1.707a5.982,5.982,0,0,0-9.418,0c-.953.953-1.711,1.707-3.3,1.707s-2.344-.754-3.3-1.707a6.267,6.267,0,0,0-4.531-2.281,19.214,19.214,0,0,1-.223-2.437c0-.055,0-.109,0-.164Z"/>
  </g>
</svg>
