<svg xmlns="http://www.w3.org/2000/svg" width="46.735" height="80.001" viewBox="0 0 46.735 80.001">
  <g id="noun-gin-7267373" transform="translate(-26.633 -9.999)">
    <path id="Path_29" data-name="Path 29" d="M26.633,83.328A6.678,6.678,0,0,0,33.3,90H66.7a6.678,6.678,0,0,0,6.672-6.672V52.683A23.253,23.253,0,0,0,58.7,31.011a4.21,4.21,0,0,1-2.539-2.895,2.348,2.348,0,0,0,2.121-2.328V19.367a2.354,2.354,0,0,0-1.828-2.289V11a1,1,0,0,0-1-1H44.548a1,1,0,0,0-1,1v6.078a2.357,2.357,0,0,0-1.828,2.289v6.422a2.345,2.345,0,0,0,2.121,2.328A4.2,4.2,0,0,1,41.3,31.007,23.258,23.258,0,0,0,26.634,52.683ZM71.367,54.164V76.027l-42.734,0V54.164ZM66.7,88H33.3a4.677,4.677,0,0,1-4.672-4.672v-5.3H71.366v5.3A4.675,4.675,0,0,1,66.694,88ZM54.453,12v5.016H45.547V12ZM43.719,25.789V19.367a.353.353,0,0,1,.355-.352H55.927a.353.353,0,0,1,.355.352v6.422a.353.353,0,0,1-.355.352H44.075A.353.353,0,0,1,43.719,25.789Zm-1.672,7.078a6.186,6.186,0,0,0,3.84-4.723h8.23a6.192,6.192,0,0,0,3.84,4.727,21.247,21.247,0,0,1,13.391,19.3l-42.695,0a21.245,21.245,0,0,1,13.4-19.3Z"/>
  </g>
</svg>
