<svg xmlns="http://www.w3.org/2000/svg" width="58.626" height="58.635" viewBox="0 0 58.626 58.635">
  <g id="noun-chemistry-7333172" transform="translate(-20.99 -21.342)">
    <path id="Path_22" data-name="Path 22" d="M69.629,50.676a66.437,66.437,0,0,0,7.215-11.664c3.391-7.242,3.676-12.812.8-15.688-5.785-5.781-22.332,1.7-37.668,17.035a102.03,102.03,0,0,0-7.875,8.82C24.055,38.378,20.512,28.3,24.211,24.6c3.191-3.2,11.6-.98,21.426,5.629a.9.9,0,0,0,1.008-1.5c-10.9-7.332-19.758-9.352-23.7-5.406-4.492,4.492-.977,15.48,8,27.352-8.98,11.871-12.5,22.859-8,27.352a7.5,7.5,0,0,0,5.512,1.949c7.773,0,20.324-7.156,32.156-18.988a102.037,102.037,0,0,0,7.883-8.84A64.092,64.092,0,0,1,75.215,63.1c3,6.41,3.422,11.387,1.16,13.652-3.328,3.332-12.125.855-22.406-6.3a.9.9,0,0,0-1.027,1.48c7.57,5.27,14.352,8.043,19.2,8.043a7.5,7.5,0,0,0,5.512-1.949c2.875-2.875,2.59-8.445-.8-15.688a66.436,66.436,0,0,0-7.215-11.664ZM59.336,59.719C45.2,73.856,29.117,81.657,24.211,76.758c-3.7-3.7-.156-13.781,7.891-24.582A102.612,102.612,0,0,0,39.977,61c2.184,2.184,4.453,4.266,6.746,6.18a.9.9,0,1,0,1.156-1.383c-2.25-1.883-4.48-3.926-6.629-6.074a97.508,97.508,0,0,1-8-9.043,98.111,98.111,0,0,1,8-9.043c11.262-11.262,23.762-18.5,30.855-18.5A5.822,5.822,0,0,1,76.371,24.6c2.266,2.262,1.844,7.238-1.16,13.652A64.077,64.077,0,0,1,68.488,49.2a101.38,101.38,0,0,0-7.883-8.84c-2.273-2.27-4.629-4.426-7.008-6.395a.9.9,0,0,0-1.148,1.387c2.332,1.938,4.648,4.051,6.883,6.285a99.121,99.121,0,0,1,8.023,9.043,99.712,99.712,0,0,1-8.023,9.043Z"/>
    <path id="Path_23" data-name="Path 23" d="M50.293,44.562A6.109,6.109,0,1,0,56.4,50.671a6.118,6.118,0,0,0-6.109-6.109Zm0,10.418A4.309,4.309,0,1,1,54.6,50.671,4.314,4.314,0,0,1,50.293,54.98Z"/>
  </g>
</svg>
