<svg xmlns="http://www.w3.org/2000/svg" xmlns:xlink="http://www.w3.org/1999/xlink" width="93" height="111.988" viewBox="0 0 93 111.988">
  <defs>
    <clipPath id="clip-path">
      <path id="Path_117" data-name="Path 117" d="M0,274.012H93V386H0Zm0,0"/>
    </clipPath>
  </defs>
  <g id="Group_252" data-name="Group 252" transform="translate(0 -274.012)" clip-path="url(#clip-path)">
    <path id="Path_116" data-name="Path 116" d="M70.988,385.4c-14.91-8.715-19.441-11.449-19.133-11.551a19.4,19.4,0,0,1,3.555,1.867c12.07,7.258,16.988,9.93,18.148,9.863,7.871-.441,15.906-3.172,16.129-5.477.047-.527-.016-.906-.145-.844-5.457,2.711-9.926,4.109-14.148,4.438l-2.2.168-2.246-1.234c-1.234-.68-2.789-1.523-3.449-1.871s-2.207-1.223-3.434-1.945-4.418-2.586-7.086-4.137c-6.422-3.727-6.52-6.574-.281-7.926.551-.117.2.176-1.02.848-5.172,2.859-4.961,3.191,5.715,9.055,1.027.566,3.727,2.094,6,3.4,6.336,3.641,6.3,3.633,11.473,2.625,4.637-.9,8.637-2.422,10.078-3.828.789-.77,1-.617,1.172.855.2,1.637.125,1.711-3.187,3.266C81.375,385.574,73.371,386.8,70.988,385.4Zm.145-4.586c-.867-.527-3.828-2.227-6.586-3.773s-5.652-3.227-6.437-3.723-2.27-1.328-3.293-1.848-1.707-.992-1.516-1.059a17.612,17.612,0,0,1,3.719,1.8c1.859,1.059,5.313,3.016,7.672,4.352l6.3,3.57c3.828,2.176,12.527.809,16.965-2.66l.652-.508-2.012-.926a11.357,11.357,0,0,1-2.336-1.32c-.18-.219.43-.031,1.359.414,3.313,1.59,3.523,1.738,3.4,2.391-.129.668-.426,1.1-.426.617,0-.16-1,.2-2.215.8a27.148,27.148,0,0,1-10.664,2.707l-3,.121Zm1.426-1.59c-1.52-.281-4-1.391-4-1.793,0-.152.418-.02.93.3,4.008,2.465,14.629,1.2,14.055-1.672-.086-.437-.016-.875.156-.984.7-.43.363,2.371-.332,2.828C81.484,379.133,75.809,379.828,72.559,379.227Zm-.059-1.508c-3.18-.4-4.727-1.953-3.18-3.191a3.472,3.472,0,0,1,2.453-1.023c.883-.023,1.141-.879.266-.879-4.766,0-6.355-6.828-1.766-7.6.551-.094,1.363-.238,1.809-.32l.8-.152-.2-2.52c-.18-2.285-.148-2.547.336-2.8a9.1,9.1,0,0,1,4.641-.465l1.621.234-2.73.172c-2.75.176-3.566.391-3.273.867.262.422,5.414.191,5.969-.27.262-.219.563-.312.664-.211.734.734-2.484,1.5-5.082,1.2l-1.7-.191v6.012l1.07.3a7.716,7.716,0,0,0,4.16,0c1.215-.34,1.215-.82,0-.664-.7.09-.684.066.133-.187l.93-.293-.027-2.445c-.035-3.559.262-3.293.367.328.113,3.777-.035,3.953-3.273,3.863-2.871-.082-3.074-.105-3.074-.359,0-.125-.172-.227-.379-.227-.258,0-.344-.27-.262-.824.16-1.094-.078-1.184-1.926-.707-2.418.629-3.4,2.8-2.414,5.371.246.645,4.23,1.824,6.656,1.969a7.409,7.409,0,0,1,2.266.348c.113.121-.789.141-2.012.043l-2.219-.18v1.109c0,1.371.2,1.461,3.258,1.461,2.641,0,3.043-.219,3.043-1.633,0-.867-.078-.949-.934-.977-.57-.02-.16-.164,1.074-.379,3.5-.613,4.871-1.645,4.672-3.535l-.09-.9-1.289.586c-3.3,1.5-15.754,1.027-14.191-.535a3.093,3.093,0,0,1,1.371.359c4,1.645,14.574.336,14.176-1.754-.07-.367-.02-.6.117-.512a7.584,7.584,0,0,1,.242,2.527v2.379l-1.734.754a9.716,9.716,0,0,1-2.289.754c-1.105,0-.516.488,1,.828a4.8,4.8,0,0,1,1.9.762c.43.52.055.516-.871-.016-.824-.473-2.578-.57-2.578-.145,0,.156.2.285.438.285.641,0,2.543.84,2.348,1.035a2.023,2.023,0,0,1-1.152-.191c-.867-.316-1.137-.285-2.258.258-2.566,1.242-6.816.7-6.816-.863,0-1-1.152-.953-2.648.105-3.527,2.492,8.781,4,12.543,1.531.383-.25.7-.328.7-.168,0,1.2-6.414,2.2-10.656,1.672ZM31.988,376.8c.836-.633.766-26.633-.07-27.078-.316-.168-.574-.43-.574-.582,0-.406.789-.34.957.082a7.762,7.762,0,0,0,.168-2.434c.012-1.656.137-2.793.309-2.793s.285,1.648.289,4.367v4.363l.93.625c1.844,1.234,8.328,1.66,12.355.8,3.836-.812,4.852-3.23,1.574-3.754-.617-.1-1.125-.3-1.125-.437,0-.32,1.313-.016,2.434.57a3.452,3.452,0,0,0,1.016.41c.613-.152-.2,2.039-.977,2.621-2.75,2.07-14.2,2.047-15.8-.031-.348-.453-.4.133-.391,4.488,0,2.754,0,8.2,0,12.094l-.012,7.082-.785-.008C31.559,377.188,31.535,377.152,31.988,376.8Zm17.961-.129a.434.434,0,0,1,.27-.379c.238-.086.387-4.367.328-9.332l-.023-1.8-.906.469a27.357,27.357,0,0,1-7.609,1.547l-1.5,0,0,1.789a6.433,6.433,0,0,1-.281,2.215c-.191.3-.277-.246-.281-1.773l0-2.207-1.074-.172a18.238,18.238,0,0,1-5.156-1.492c-.574-.469-.535-.465,2.223.348,5.133,1.508,14.6.27,14.6-1.914V363.2l-.934.547c-2.98,1.762-10.715,1.953-15.023.375-.672-.246-1.219-.574-1.219-.727s.223-.184.5-.062c4.5,1.926,12.707,1.9,15.684-.043.59-.391,1.309-1.488.742-1.137a2.452,2.452,0,0,1-1.3-.387c-1.437-.734-3.891-1.062-4.2-.562-.34.547-.117.742,1.086.957,1.48.266,2.938.8,2.938,1.074,0,.344-.41.281-1.324-.2a3.8,3.8,0,0,0-1.395-.434,2.258,2.258,0,0,1-1-.281c-.336-.215-.461-.105-.574.5-.344,1.848-6.984,1.9-7.031.059-.008-.391-.137-.691-.285-.668-2.543.387-2.812.4-2.422.133a4.973,4.973,0,0,1,1.5-.473c.777-.129,1.078-.324,1.078-.691,0-.555-1.91-.387-3.152.277-.312.164-.566.191-.566.051,0-.352,1.242-.875,2.582-1.09,1.086-.176,1.137-.23,1.137-1.234v-1.051l-1.687-.348a5.05,5.05,0,0,1-2.043-.781c-.543-.652-.148-.8.813-.3,3.016,1.559,10.738,1.477,14.582-.152.684-.289,1.219-.387,1.219-.223,0,.4-2.086,1.273-4.082,1.707-1.574.348-1.645.4-1.645,1.258v.9l2.023.348a13.232,13.232,0,0,1,2.887.793c1.172.605,1.078,1.3,1.164-8.82.082-9.965.141-9.551-1.254-8.969-2.355.984-9.57,1.684-12.18,1.18-6.078-1.168-8.8-3.75-5.5-5.207l1.1-.488-.883-1a13.934,13.934,0,0,1-1.68-2.691,12.654,12.654,0,0,0-1.262-2.2c-.531-.586-.535-.8-.18-6.172a31.055,31.055,0,0,1,2.453-10.73c.371-.867,1.406-3.25,2.3-5.3,2.82-6.469,3.418-8.465,2.742-9.172a1.955,1.955,0,0,1-.359-.832c-.078-.437-.437-.125-1.664,1.43-.863,1.1-1.641,2.055-1.727,2.133-.445.4-6.2,7.434-8.43,10.3-1.406,1.813-3.539,4.453-4.734,5.867s-3.422,4.125-4.937,6.012c-4.852,6.043-5.934,7.387-8.191,10.16-1.219,1.5-2.508,3.141-2.863,3.652-1.086,1.555-3.184,1.4-3.184-.238,0-.492,9.438-14.816,11.914-18.086a18.435,18.435,0,0,0,1.25-1.762c0-.062.984-1.512,2.184-3.219a32.439,32.439,0,0,0,2.324-3.6c.078-.277.227-.5.332-.5s.43-.406.723-.906,1.676-2.551,3.066-4.562a41.032,41.032,0,0,0,2.535-3.918,1.794,1.794,0,0,1,.57-.777,1.679,1.679,0,0,0,.574-.9.351.351,0,0,1,.3-.383c.164,0,.23-.117.141-.262a.233.233,0,0,1,.086-.359c.73-.281,4.648-6.758,5.336-8.824,1.066-3.2,3.785-6.3,5.527-6.3.18,0,.555-.352.836-.785,1.48-2.3,3.941-2.664,4.973-.734a6.506,6.506,0,0,0,1.852,1.664c2.914,1.863,4.813,5.313,4.59,8.324-.109,1.422-.371,1.789-1.871,2.613-1.039.57-2.246,1.961-1.953,2.25a37.359,37.359,0,0,0,5.273-.57c2.809-.406,5.2-.742,5.32-.742s.211-.254.211-.57c0-.418.191-.57.719-.57h.715v-7.984c0-6.7-.066-8.008-.414-8.145-.746-.285-1.379-1.91-1.215-3.125.379-2.828,3.66-3.508,4.941-1.027.66,1.281.043,3.965-.91,3.965-.543,0-.68,1.844-.684,9.23,0,6.172.055,7.086.438,7.086a.7.7,0,0,1,.6.43.68.68,0,0,0,.563.43c.535,0,.512.832-.027,1.039a.938.938,0,0,0-.43.852c0,.59-.23.785-.859.742a13.308,13.308,0,0,0-.137,2.75c.012,4.367-.039,4.578-1.109,4.531l-.9-.039-.086,1.645c-.082,1.582-.059,1.645.621,1.645q1.611,0,1.613-.871c0-.965,5.582-.562,9.16.656,2.512.859,9.043.941,10.516.137s1.1-1-1-.566c-1.844.379-7.91.387-8.543.008a25.556,25.556,0,0,0-6.242-1.273c-3.523-.277-4.027-.266-4.031.1a.911.911,0,0,1-.219.551c-.117.117-.215-.066-.215-.406s.129-.621.289-.621.285-.32.285-.715c0-.824.223-.91.7-.266.215.3,1.105.539,2.605.707l3.516.406c1.43.172,1.43.1.121-2.707-.754-1.613-1.008-3.5-.5-3.68a7.7,7.7,0,0,0,.855-.41c1.988-1.078,13.652-.8,15.078.352l.641.516-1.191,3.1c-.8,2.09-1.094,3.168-.879,3.3.586.363,0,1.617-.906,1.93-.477.168-.863.469-.863.672a37.387,37.387,0,0,1-1.41,3.949l-1.41,3.582-.465,7.441c-.258,4.094-.477,8.109-.488,8.922-.02,1.332-.094,1.5-.734,1.66-.957.242-.836.832-1.484-7.156-.316-3.93-.633-7.8-.7-8.605-.18-2.133-3.473-10.266-4.309-10.648-.562-.254-1.914-.484-6.242-1.066-1.039-.137-1.07-.117-1.07.75,0,.676-.105.852-.43.727-.375-.141-.43.793-.43,7.4v7.563l.676.73a2.224,2.224,0,0,0,1.145.73c.781,0,.523.523-.316.652-.711.105-.691.121.176.16s.949-.02.828-.66c-.074-.391.008-.758.18-.82a.209.209,0,0,0,.082-.367c-.133-.141-.359-.031-.516.25-.3.543-.824.672-.824.2,0-.16.324-.437.715-.617.973-.441,1.863.344,1.863,1.652,0,1.531-1.187,2.324-2.105,1.406-.594-.594-.914-.539-.969.172a1.457,1.457,0,0,1-.48.93c-.777.582-.8,11.723-.023,11.5,4.883-1.41,7.555-1.715,14.883-1.7,6.527.016,10.988.551,14.191,1.7.7.25,1.508.508,1.8.57,2.4.5,2.543,2.137.266,2.988-9.148,3.422-32.7,2.211-32.715-1.684,0-.25.258-.137.711.316,3.832,3.832,36.363,3.457,32.887-.383-3.2-3.531-27.379-4.219-32.3-.914a2.642,2.642,0,0,1-.715.379c-.082,0-.117-2.77-.074-6.156.066-5.6-.094-7.07-.617-5.7-.309.8-.2,17.008.113,17.008a.287.287,0,0,1,.285.285c0,.156-.258.285-.574.285-.559,0-.57-.191-.57-9.148,0-8.016-.055-9.133-.43-8.988-.3.117-.43-.023-.43-.469,0-.594-.09-.625-1.359-.445-2.16.3-2.363.414-2.363,1.254a2.746,2.746,0,0,1-.715,1.543,2.624,2.624,0,0,0-.715,1.219c0,6.359-11.32,10.473-17.25,6.266-1.883-1.336-4.1-.621-3.266,1.051,1.344,2.691,10.516,3.672,17.105,1.82,2.984-.836,3.77-2.445,1.77-3.625-.852-.5-.961-.652-.535-.734,1.266-.242,2.73,2.145,2.016,3.285-.309.5-.379,3.879-.363,17.6l.023,16.992-.609.094C50.223,376.918,49.949,376.832,49.949,376.676Zm-6.937-13.23c1.082-.375,1.367-1.777.969-4.719-.074-.543-6-.488-6.105.055C37.082,362.738,39.293,364.742,43.012,363.445Zm-41.148-22.3a56.405,56.405,0,0,1,3.793-4.9c2.086-2.539,4.953-6.117,6.371-7.953,2.3-2.98,3.473-4.43,6.852-8.469.527-.633,1.957-2.434,3.184-4.008s2.3-2.93,2.391-3.008.547-.656,1.012-1.285,1.066-1.4,1.344-1.719c.949-1.078,5.254-6.523,6.066-7.676,2.523-3.57,3.988-4.488,4.645-2.914.363.871.559,1.008,1.488,1.059,3.156.168,4.527-.16,4.879-1.168s1.984-2.9,2.5-2.9c3.344,0,1.078-7.418-2.828-9.27a4,4,0,0,1-1.844-1.445c-.488-1.074-1.629-.992-2.336.172a3.159,3.159,0,0,1-1.785,1.32c-2.648.887-4.2,2.684-4.887,5.691-.3,1.309-.891,2.41-2.5,4.7-4.84,6.867-9.781,14-13.27,19.16-1.543,2.281-4.527,6.66-6.629,9.73C.656,340.324,1.191,339.48,1.57,340.09c.293.469.281.531-.078.395-.586-.227-.836.086-.449.555C1.418,341.492,1.863,341.547,1.863,341.141ZM38.07,298.8c-.426-.2-.125-.27,1.18-.285.961-.012,2.379-.1,3.148-.2,1-.129,1.316-.09,1.109.133C43.129,298.852,38.8,299.133,38.07,298.8Zm-3.953-1.457c-1.1-.328-1.625-.812-1.625-1.492,0-.492.109-.449.828.324a2.772,2.772,0,0,0,1.289.887c.25,0,.457.129.457.285s-.031.277-.07.262S34.563,297.473,34.117,297.34Zm3.1.008c-.375-.16.531-.254,2.578-.27a23.828,23.828,0,0,0,4.137-.3c.922-.266.953-.254.5.2C43.887,297.52,38.277,297.809,37.215,297.348Zm-1-2.16a2.529,2.529,0,0,0-2.2-2.145c-.7-.008-.738-.047-.281-.312a1.906,1.906,0,0,1,2.492.973c.6.984.754,2.211.277,2.211C36.34,295.914,36.211,295.586,36.211,295.188Zm7.746,45.2c3.164-.941,8.293-6.516,5.238-5.7-2.152.578-3.453.723-7.832.875-4.012.137-5.113.078-7.3-.395-3.125-.668-3.035-.738-1.672,1.293,1.117,1.672,1.3,1.762,2.742,1.379.512-.133.789-.094.789.109,0,.176-.25.316-.555.316-.746,0-.969.43-.453.855C36.8,340.688,40.984,341.273,43.957,340.391Zm-7.461-2.4c0-.156.2-.285.43-.285s.43.129.43.285-.191.285-.43.285S36.5,338.145,36.5,337.988Zm9.02,0a.949.949,0,0,1,.73-.285c.3,0,.555.129.555.285s-.328.285-.73.285C45.652,338.273,45.414,338.152,45.516,337.988ZM38.07,337.7a.721.721,0,0,1,1.148,0c.1.164-.148.285-.574.285S37.973,337.867,38.07,337.7Zm3.867,0c0-.156.262-.285.586-.285s.512.129.414.285a.762.762,0,0,1-.59.285C42.121,337.988,41.938,337.859,41.938,337.7Zm2,0c0-.156.191-.285.426-.285s.43.129.43.285-.191.285-.43.285S43.941,337.859,43.941,337.7Zm-3.645-.2a1.667,1.667,0,0,1,.859.012c.191.078-.035.137-.508.133S40.016,337.578,40.3,337.5Zm34.547-6.812c.191-3.148.41-7.016.484-8.59a12.036,12.036,0,0,1,1.1-5.152c.527-1.258,1.219-2.953,1.539-3.766l.578-1.473-3.824-.016a38.923,38.923,0,0,1-4.566-.2c-.992-.25-.98-.2.844,4.449l1.578,4.027L73,325.617c.234,3.105.5,6.613.586,7.793Q74.18,341.4,74.844,330.691ZM47.09,334.52c3.434-.719,5.742-2.184,5.715-3.625-.008-.34-.281-.16-.9.6-3.133,3.832-19.793,4.148-22.4.422l-.449-.637v.641C29.055,334.328,40.277,335.949,47.09,334.52Zm.855-1.5c3.18-1.016,3.16-.992,3.363-4.8.223-4.184-.492-7.477-2.609-12.062-3.367-7.3-4.754-10.914-4.762-12.43-.008-1.4-.227-1.5-3.234-1.457-2.746.043-2.793.055-2.945.773a45.464,45.464,0,0,1-2.895,7.434c-1,2.27-2.09,4.848-2.406,5.727a48.343,48.343,0,0,0-1.844,5.711c-.07.414-.27,1.527-.441,2.473-.4,2.2-.148,6.555.426,7.43,1.086,1.656,13.289,2.5,17.352,1.2Zm-17.1-3.691a1.017,1.017,0,0,1,.813-.437c.668-.078.676-.066.137.355C31.121,329.781,30.684,329.816,30.844,329.332Zm18.258.082c-.234-.148-.34-.352-.238-.453.25-.25,1.375.125,1.375.461S49.645,329.758,49.1,329.414Zm-2.445-.586c-.215-.352.57-.7.992-.437a.635.635,0,0,1,.3.457C47.945,329.207,46.883,329.191,46.656,328.828Zm-13.734-.285a.949.949,0,0,1,.73-.285c.3,0,.555.129.555.285s-.328.285-.73.285C33.059,328.828,32.82,328.707,32.922,328.543Zm2.289-.285c.781-.336,1-.336,1,0,0,.156-.352.277-.785.266C34.727,328.5,34.7,328.477,35.211,328.258Zm2,0a1.193,1.193,0,0,1,.875-.285c.383,0,.7.129.7.285s-.395.285-.875.285C37.4,328.543,37.109,328.426,37.215,328.258Zm2.43,0c0-.156.332-.285.734-.285s.656.121.555.285a.955.955,0,0,1-.73.285C39.9,328.543,39.645,328.414,39.645,328.258Zm2.578,0c0-.156.258-.285.574-.285s.57.129.57.285-.258.285-.57.285S42.223,328.414,42.223,328.258Zm2.367.086a1.667,1.667,0,0,1,.859.012c.191.078-.035.137-.508.133S44.313,328.418,44.59,328.344Zm-8.52-2.559c-2.09-.285-5.016-1.027-5.191-1.312-.133-.211.027-.25.492-.113,3.242.938,4.789,1.07,10.207.871a28.338,28.338,0,0,1,5.512.051,9.512,9.512,0,0,1-3.078.258c-1.691,0-3.977.082-5.082.18A17.326,17.326,0,0,1,36.07,325.785Zm12.3-.684c.633-.125,1.469-.309,1.863-.414l.715-.187-.715.438a4.042,4.042,0,0,1-1.863.41l-1.145-.023Zm-14.453-2.043a23.066,23.066,0,0,1,4.723-.555c3.707.027,10.691.465,10.91.684.379.375-.062.48-.945.23-1.926-.555-11.566-.7-13.5-.2a13.18,13.18,0,0,1-2.715.438C31.824,323.637,32.387,323.418,33.922,323.059Zm25.684,7.309c.582-.156.621-.3.477-1.641-.141-1.312-.687-2.617-.687-1.648,0,.277-.3.32-1.184.172-1.156-.2-1.18-.184-1.043.539.164.844.023.918-2.508,1.328-1.664.273-2.074.441-1.777.734a2.468,2.468,0,0,0,1.262-.141,9.831,9.831,0,0,1,2.117-.309,2.389,2.389,0,0,0,1.344-.328c.246-.246.289-.176.168.285-.09.34-.273.613-.414.613a.273.273,0,0,0-.254.289C57.105,330.574,58.594,330.637,59.605,330.367Zm3.512-2.27c0-.543-.1-.984-.223-.984s-.219.5-.219,1.121.1,1.059.219.984A1.917,1.917,0,0,0,63.117,328.1Zm-8.871.473c.551-.141,1.363-.34,1.8-.437.648-.145.766-.293.617-.766-.141-.437-.035-.621.414-.738.793-.207.957-15.059.168-15.363a.826.826,0,0,1-.43-.746c0-.687-.437-.773-.684-.133-.293.762-1.691.4-2.012-.516-.551-1.574,1.434-3.895,2.02-2.367.09.238.293.43.449.43s.219-.184.129-.41a.358.358,0,0,1,.289-.5c.848-.172.7-5.926-.172-6.8l-.687-.691-3.6.48c-1.98.262-4.344.563-5.246.66-3.293.363-3.129,2.957.7,10.98,3.613,7.57,4.449,10.145,4.727,14.527a10.626,10.626,0,0,0,.344,2.645A11.165,11.165,0,0,0,54.246,328.57Zm4.816-9.617c-.031-6.055-.117-7.586-.426-7.7-.387-.148-.555,14.227-.18,15.2C58.93,327.688,59.094,325.641,59.063,318.953Zm-3.238-9.023c.1-.16.012-.258-.191-.215s-.418-.211-.473-.562c-.113-.762.172-.836.656-.172.215.3.484.387.723.238.285-.176.215-.293-.273-.473-.441-.164-.594-.391-.473-.7.129-.336.051-.41-.281-.285a2.6,2.6,0,0,1-.738.176c-.355,0-.2,1.793.188,2.07C55.355,310.3,55.609,310.273,55.824,309.93Zm22.586-.375c1.68-.5,4.391-6.785,3.1-7.168-3.508-1.031-13.1-.895-14.891.211-.516.32-.457.621.758,3.762l1.109,2.863,1.254.336A28.93,28.93,0,0,0,78.41,309.555Zm-8.3-5.113c-2.25-.223-3.676-.664-3.434-1.059.094-.148.68-.105,1.379.105,2.527.754,10.117.758,13.094,0,.676-.168.688-.156.184.254C80.4,304.5,74.441,304.875,70.109,304.441Zm-11.23-.512a11.376,11.376,0,0,0-.359-3.437c-.43,0-.344,6.508.09,6.68a2.344,2.344,0,0,1,.359.168C58.969,307.352,58.926,305.816,58.879,303.93Zm-16.832-2.4a3.477,3.477,0,0,0,1.926-.512c.137-.211.246-.27.25-.133s.172.109.383-.066c.285-.234,11.094-2.035,12.285-2.043.121,0,.215.242.215.539a.793.793,0,0,0,.43.707c.332.129.43-.066.43-.844,0-.6.117-.937.285-.832a1.216,1.216,0,0,1,.289.895c0,.582.121.7.645.625.98-.137,1.129-2.238.16-2.238H58.68l.066-8.289c.039-5.129-.043-8.352-.215-8.461s-.281,2.785-.281,8v8.168l-.723.184c-.512.125-.68.32-.57.66.129.41-.219.531-2.355.813-7.562.992-9.387,1.277-9.652,1.5-.8.668-4.711.926-7.7.512-.3-.043-.6.074-.66.258-.117.332,2.457.922,3.348.766C40.168,301.691,41.121,301.6,42.047,301.531Zm18.215-22.148a2.233,2.233,0,0,0-1.34-3.672c-1.687-.336-2.781,1.539-1.992,3.418A1.886,1.886,0,0,0,60.262,279.383Zm-2.215.2a1.836,1.836,0,0,1-.7-2.434,1.489,1.489,0,0,1,2.641.082A1.664,1.664,0,0,1,58.047,279.578Zm1.336-.965c.258-.309.258-.559.016-1.02-.367-.68-1.078-.664-1.52.035C57.215,278.68,58.582,279.578,59.383,278.613ZM69.988,375.25c0-.164.258-.371.57-.461s.832-.234,1.145-.324.574-.039.574.109-.289.336-.645.41a7.777,7.777,0,0,0-1.145.352C70.2,375.457,69.988,375.422,69.988,375.25Zm-12.117-7.109c-.105-.105-.191-3.906-.191-8.445,0-5.312-.1-8.254-.285-8.254-.16,0-.289-.187-.289-.414a.987.987,0,0,0-.5-.707c-.477-.277-.477-.293,0-.3.344,0,.516-.258.547-.8.023-.43.121-.141.215.645.156,1.313.234,1.441.984,1.523.773.09.8.051.621-.785-.125-.559-.082-.879.113-.879.172,0,.309.246.309.551a1.659,1.659,0,0,0,.461,1.008c.348.348.379.555.133.848-.223.27-.316,2.5-.3,7.137l.031,6.742.691-.266c1.5-.57,4.273-.656,5.227-.164.5.262.91.395.91.3s.2.023.43.258c.773.773.457.781-1.031.027-1.949-.988-6.047-.461-6.148.789-.02.2-.051.6-.074.871C59.684,368.332,58.293,368.563,57.871,368.141Zm1.238-8.223c0-6.707-.062-7.867-.43-8.008s-.43.844-.43,7.84c0,6.926.059,8.008.43,8.008S59.109,366.7,59.109,359.918ZM74.781,366.4c-.59-.059-1.074-.234-1.074-.387s.289-.2.645-.117,1.223.27,1.934.4C77.641,366.563,76.828,366.617,74.781,366.4Zm5.512-.387c0-.145.254-.262.57-.262.445,0,.574-.191.574-.859s-.129-.859-.574-.859c-.316,0-.57-.129-.57-.285a.3.3,0,0,1,.3-.285c.184,0,.289-.555.262-1.359-.062-1.871-.027-2.2.207-1.969a4.822,4.822,0,0,1,.234,1.734c.031,1.594.648,2.645,1.387,2.363a1,1,0,0,1,.777.109c.285.184.141.258-.508.262-.715,0-.93.137-1,.629C81.867,365.848,80.293,366.586,80.293,366.016Zm3.855-1.832c-.008-1.469.566-1.949,1.055-.879.41.9.09,2.164-.551,2.16C84.258,365.465,84.152,365.207,84.148,364.184Zm-14.734-7.875c-4.473-.77-7.27-2.277-5.418-2.918.793-.277-.961-1.887-2.242-2.059-2.035-.277-2.625-.84-.641-.609,1.2.137,1.5.1,1.246-.148A2.4,2.4,0,0,0,61,350.238a1.97,1.97,0,0,1-1.191-.254c-.09-.145.293-.258.848-.258h1.008l-.91-1.465-.91-1.461-.254.766c-.2.605-.145.848.277,1.164.512.387.508.4-.066.414-.543.008-.605-.172-.66-1.879-.078-2.363-.117-2.395,3.227,2.441l2.777,4.008,1.918.613c2.43.773,9.035,1.055,13.8.586,5.211-.516,4.828-.281,8.539-5.211a34.54,34.54,0,0,1,3.395-4.168c.152.156-.617,1.344-1.977,3.043-.441.555-1.441,1.906-2.23,3.008s-1.562,2.164-1.727,2.359c-.223.266-.18.359.148.359.855,0-.055,1.035-1.344,1.523C82.637,356.98,74.676,357.215,69.414,356.309Zm12.832-.277c2.5-.289,4.344-.809,4.344-1.23,0-.137-.227-.18-.5-.094-4.535,1.4-16.941,1.262-20.523-.234-.559-.234-1.016-.312-1.016-.176,0,.324,2.281,1.074,4.762,1.566A64.716,64.716,0,0,0,82.246,356.031Zm-43.723-3.816a2.1,2.1,0,0,1-1.094-.7c-.082-.25.2-.223.977.105,2.293.957,5.781.2,5.41-1.184a14.03,14.03,0,0,1-.16-2.355l0-1.781-.734.277c-1.164.445-3.941.344-4.574-.164-.535-.426-.527-.434.156-.215,1.23.395,4.395.148,4.777-.371.789-1.07,1.461,3.66.773,5.453C43.6,352.465,40.66,352.957,38.523,352.215Zm16.93-1.09A1.49,1.49,0,0,1,56,348.293c.453,0,.824.117.824.262s-.234.2-.52.121c-.672-.176-1.27.547-1.148,1.391.066.473.332.7.953.809.563.1.711.211.43.324A1.858,1.858,0,0,1,55.453,351.125ZM35.68,349.852c.078-1.473.16-1.578.961-1.258.488.2.5.234.074.254-.773.031-.7,1.734.07,1.734.531,0,.57-.187.57-2.574a7.5,7.5,0,0,1,.23-2.578c.355,0,.035,5.266-.336,5.508C36.223,351.605,35.613,351.184,35.68,349.852Zm-5.6.57c-.9-.9-.32-2.988.832-2.988.793,0,.973.418.293.676-.609.234-.559,1.789.063,2.031.422.16.434.227.074.453C30.758,350.961,30.6,350.938,30.078,350.422Zm3.988-.125c-.848-.215-.848-.219.23-.254.66-.02,1.02.082.914.254-.1.156-.2.27-.23.254S34.539,350.418,34.066,350.3Zm21.324-.41a.735.735,0,0,1,.258-.574c.145-.09.191.1.109.41C55.586,350.395,55.391,350.477,55.391,349.887Zm-10.59-.16c0-.16.2-.289.445-.289s.367.129.27.289a.621.621,0,0,1-.445.285A.279.279,0,0,1,44.8,349.727Zm-11.309-.289a.927.927,0,0,1,.711-.285.739.739,0,0,0,.668-.359c.074-.2.125-.066.105.289-.023.508-.2.645-.848.645C33.66,349.727,33.391,349.605,33.492,349.438Zm11.488-1.93c.227-2.113.391-2.289.391-.406,0,.848.129,1.477.3,1.477s.223.129.125.289C45.23,349.789,44.813,349.1,44.98,347.508Zm15.848-48.059c0-.1.2-.328.441-.5a1.756,1.756,0,0,0,.289-2.031l-.2-.574.469.574a1.75,1.75,0,0,1,.324,1.43c-.133.8-.121.816.176.2.672-1.375-.227-2.473-1.566-1.922-.309.129-.5.078-.5-.125,0-.707,1.809-1.16,2.227-.562.613.879.574,2.824-.07,3.3C61.852,299.641,60.828,299.781,60.828,299.449Zm0,0" fill="#fff"/>
  </g>
</svg>
