<svg xmlns="http://www.w3.org/2000/svg" width="81.981" height="101.23" viewBox="0 0 81.981 101.23">
  <g id="Group_259" data-name="Group 259" transform="translate(-14.032 -136.12)">
    <path id="Path_445" data-name="Path 445" d="M15.25,237.332l-.645-.027-.2-.207-.2-.2-.066-.7c-.035-.383-.078-.785-.094-.9a.75.75,0,0,1,.063-.414,6.141,6.141,0,0,0,.328-1.16c.117-.5.309-1.078,1.289-3.941.273-.789.633-1.859.8-2.383s.5-1.516.742-2.211.477-1.441.52-1.656a2.962,2.962,0,0,1,.2-.605,5.7,5.7,0,0,0,.242-.707c.445-1.664,0-1.488,3.75-1.5,1.578,0,2.895-.027,2.926-.047a35.012,35.012,0,0,0,.063-3.945,35.508,35.508,0,0,0-.062-3.957c-.039-.031-1.77-.059-4.949-.074-4.969-.023-5.059-.027-5.059-.184,0-.176.117-.184,2.992-.215,1.391-.016,3.285-.039,4.207-.055,1.07-.02,1.875-.008,2.215.023.469.047.543.043.59-.023s.055-14.93-.008-19.262l-.027-2.043-.176-.145c-.492-.406-.539-.473-.57-.887-.148-1.863-.18-1.98-.516-1.934a1.15,1.15,0,0,1-.422-.027c-.18-.055-.2-.051-.316.066a1.094,1.094,0,0,1-.395.2c-.324.094-.324.094-.52.59-.738,1.883-3.039,1.117-3.242-1.078-.242-2.617.418-4.027,1.879-4.023a1.5,1.5,0,0,1,1.41,1.5c0,.133.059.176.453.336a1.119,1.119,0,0,1,.434.266c.082.113.121.129.215.094.121-.047.262-.016.262.055,0,.086.109.043.2-.078a.314.314,0,0,1,.188-.121c.137,0,.145-.035.2-.812.1-1.43.258-1.863.664-1.863a.635.635,0,0,0,.254-.047c.113-.07.082-35.461-.031-37.047-.031-.465.035-.762.2-.867.707-.465,2.426-.426,2.613.055.059.152.1,10.7.082,21.465,0,3.652-.008,8.8,0,11.453l0,4.816.16.043c.344.09.43.145.559.359a2.837,2.837,0,0,1,.309,1.289,1.931,1.931,0,0,0,.2.863c.2.4,0,.379,3.363.418l2.656.031L35,185.7a3.142,3.142,0,0,1,.727-1.137,9.448,9.448,0,0,1,3.008-1.5.675.675,0,0,0,.3-.1c.078-.094.152-19.73.082-22.641-.062-2.738-.105-2.918-.9-3.832s-.523-1.746.738-2.262c.051-.023.281-.148.508-.277a4.977,4.977,0,0,1,.758-.344c.188-.055.441-.133.559-.172s.363-.1.535-.141.473-.1.656-.148.473-.113.633-.152.684-.1,1.156-.141.957-.094,1.07-.117.578-.07,1.035-.1,1.211-.078,1.676-.109,1.25-.055,1.738-.051c1.1.012.961.906.965-6.312,0-6.867,0-6.844.316-7.7a2.558,2.558,0,0,1,.52-.945,4.252,4.252,0,0,1,1.645-1.164,3.964,3.964,0,0,0,.387-.152c.266-.121,17.02-.113,17.5.008a4.443,4.443,0,0,1,2.836,2.672c.23.816.219.031.258,19.055.035,17.1.039,20.922.02,30.516-.008,3.32,0,4.336.047,4.363a6.545,6.545,0,0,0,.867.063c1.23.047,2.727.133,3.457.2a6.206,6.206,0,0,0,.738.039,1.409,1.409,0,0,1,.391.051,7.31,7.31,0,0,0,.941.129,11.358,11.358,0,0,1,1.7.27c.16.035.465.1.68.145s.5.121.629.168.438.148.664.223.539.184.691.25a1.518,1.518,0,0,0,.4.113.508.508,0,0,1,.254.117,3.839,3.839,0,0,0,.48.293,7.4,7.4,0,0,1,1.082.7,1.872,1.872,0,0,1,.617.8,2.523,2.523,0,0,1-.461,1.816,2.2,2.2,0,0,0-.457.844l-.117.344-.016,6.375c-.008,3.5,0,6.383.016,6.4s1.734.027,3.816.027c3.719,0,4.172.012,4.258.145.176.281-.152.41-.641.254a.721.721,0,0,0-.527-.016,34.868,34.868,0,0,1-3.555.082c-3.516.023-3.41.016-3.41.281s-.117.266,3.4.27c1.8,0,3.277.027,3.293.047.051.082-.07.1-.836.121-3.086.1-4.043.121-4.836.125-.984,0-1.02.008-1.02.273,0,.234-.008.234,1.8.246.918,0,1.684.02,1.7.035.168.168-.355.223-2.18.223-1.281,0-1.312,0-1.312.25,0,.23.059.234,2.18.238a10.16,10.16,0,0,1,2.082.066c.16.117-.23.18-1.059.164-2.2-.035-3.2.043-3.2.258s-.121.2,2.781.207c2.313.008,2.645.016,2.645.082,0,.086.09.082-3.012.16-2.594.063-2.48.047-2.395.391l.031.121,1.871,0c1.91.008,2.02.016,2.02.129s-.055.117-1.973.145c-2.234.035-1.969-.066-1.969.75v.668l.148.188a.651.651,0,0,1,.145.3v.117l.547-.016c.6-.016.82.094.328.16-.215.031-.867.168-1.031.219-.281.086-.07.41.23.352.2-.039,1.461-.246,2.043-.336.188-.031.445-.074.574-.1.367-.07.668-.059.668.027,0,.105-.121.148-.707.242-.293.047-.742.125-1,.172s-.758.137-1.117.2c-.766.133-.93.23-.77.449.059.078.086.082.379.012a16.549,16.549,0,0,1,3.988-.3c0,.125-.164.168-.859.223-2.762.215-3.52.363-3.52.68,0,.164.117.191.438.1s1.594-.3,3.016-.484c.414-.059.953-.133,1.191-.172s.6-.082.8-.1.527-.066.73-.1c.418-.078.66-.09.7-.027.055.086-.109.152-.465.2-.2.023-.465.07-.59.1s-.582.105-1.02.168l-1.91.289c-2.516.379-2.895.48-2.895.766v.2l.184-.027c.1-.016.719-.137,1.371-.27s1.75-.332,2.434-.445,1.426-.23,1.656-.27.828-.121,1.336-.191,1.063-.145,1.23-.176c.2-.039.324-.039.355-.012.09.09-.086.16-.57.227-.266.039-.711.113-.992.168l-.875.156c-.2.031-.465.078-.582.1s-.418.078-.66.117c-.742.117-1.543.258-1.773.309-.121.031-.535.109-.926.176s-.867.168-1.07.223-.512.125-.7.164c-.387.078-.418.1-.453.324-.051.328.031.359.617.246.281-.055.879-.168,1.336-.25s1.242-.238,1.75-.344c1.9-.4,2.539-.535,2.832-.605a2.744,2.744,0,0,1,.41-.074,2.14,2.14,0,0,0,.43-.1,9.044,9.044,0,0,1,1.277-.242c.148,0-.02.105-.289.188-.531.16-1.426.367-5.316,1.223-.359.082-.965.2-1.336.27-.586.105-.895.164-1.523.3a.291.291,0,0,0-.16.395c.047.105.055.105.281.035.293-.09,1.582-.43,2.031-.535,1.188-.273,1.566-.359,2.047-.457.293-.059.664-.137.824-.172.8-.184,1.148-.234,1.2-.18.07.07-.059.121-.668.25-.266.059-.594.137-.73.172s-.328.082-.437.1c-.3.051-3.133.773-3.785.965-.629.184-.762.266-.762.477,0,.234.023.23,1.773-.277.137-.035.641-.156,1.121-.266s1-.23,1.145-.27c.277-.074,1.109-.246,1.992-.418.281-.051.707-.137.949-.187a6.643,6.643,0,0,1,1.074-.2c.219,0,.121.09-.16.148-.156.031-.379.09-.5.125s-.34.086-.488.113-.574.121-.949.215-1.031.246-1.457.348c-1.469.344-2.578.617-2.871.707-.16.047-.566.168-.9.27-.715.211-.73.219-.73.461,0,.258.043.266.477.125.734-.242,5.168-1.293,5.445-1.293.258,0,.074.156-.254.215a3.745,3.745,0,0,0-.414.1c-.332.1-1.289.352-1.727.457-.215.055-.641.164-.949.246s-.937.25-1.4.367c-1.066.273-1.1.289-1.117.527-.023.273.02.289.48.156.434-.125,1.191-.324,3.184-.832.668-.168,1.477-.383,1.8-.477s.7-.191.828-.219.438-.1.676-.168c.8-.223,1.18-.2.453.027a4.88,4.88,0,0,1-.852.23.248.248,0,0,0-.145.051,7.882,7.882,0,0,1-1.02.313c-1.25.336-2.137.59-2.2.629-.027.016-.332.105-.672.2-2.531.656-2.6.68-2.691.938-.117.34-.055.355.668.137.34-.1.973-.277,1.4-.391s1.109-.3,1.508-.414c1.07-.3,4.555-1.164,4.684-1.164.2,0,.125.137-.1.188-.113.027-.445.129-.742.223a4.131,4.131,0,0,1-.633.172,4.122,4.122,0,0,0-.535.121c-.238.07-.7.2-1.02.289-3.445.969-3.6,1.012-4.719,1.348-.27.082-.527.156-.574.172-.141.039-.375.262-.375.359,0,.125.1.121.672-.027,2.152-.555,6.156-1.527,6.191-1.5.148.09-.027.16-1.051.426-.668.176-1.629.445-2.3.645-.223.066-1.172.316-2.109.559a15.823,15.823,0,0,0-1.914.555c-.918.539-.3.449,3.207-.469.293-.074.8-.207,1.121-.285s.684-.184.809-.223a1.073,1.073,0,0,1,.367-.059c.113.016.09.031-.156.109a2,2,0,0,0-.34.125,11.684,11.684,0,0,1-1.289.4c-.652.172-.84.227-1.531.426-.375.109-1.25.34-1.949.516-1.707.43-2.855.832-2.523.887.109.016,1.41-.312,2.965-.742.266-.078.746-.207,1.066-.293.5-.133,2.125-.582,4.4-1.219.617-.172.879-.207.879-.121s-.2.188-.488.262c-.367.094-1.7.477-2.75.785-.48.141-.992.285-1.141.316s-.434.109-.633.172-.66.2-1.023.293-.785.219-.945.27c-.559.176-3.363.863-3.82.941a10.345,10.345,0,0,1-1.535.156.492.492,0,0,0-.227.02,35.809,35.809,0,0,1-12.566.215c-.293-.066-.687-.141-.875-.168a15.043,15.043,0,0,1-4.863-1.828,3.514,3.514,0,0,1-1.3-1.715c-.234-.84-.234-.832-.246-7.523l-.012-6.277-9.7.023c-5.34.012-10.035.02-10.434.016-2.867-.023-12-.012-12.047.016-.082.047-.023,7.781.059,7.879.059.07,16.859.066,21.57-.008,2.207-.031,2.008-.113,2.285.93.035.133.156.5.27.824s.238.7.277.828a1.948,1.948,0,0,0,.141.34.423.423,0,0,1,.066.219,1.5,1.5,0,0,0,.148.43,1.689,1.689,0,0,1,.145.418.4.4,0,0,0,.07.2.335.335,0,0,1,.074.18,1.736,1.736,0,0,0,.125.375,1.579,1.579,0,0,1,.121.434,1.037,1.037,0,0,0,.2.539,1.059,1.059,0,0,1,.117.352.8.8,0,0,0,.121.34.885.885,0,0,1,.113.348.834.834,0,0,0,.129.375.644.644,0,0,1,.105.277.622.622,0,0,0,.07.258.785.785,0,0,1,.07.328.569.569,0,0,0,.125.371.517.517,0,0,1,.113.3,1.164,1.164,0,0,0,.121.434c.074.16.2.488.285.727a5,5,0,0,0,.238.605.826.826,0,0,1,.094.3.631.631,0,0,0,.094.277,1.809,1.809,0,0,1,.148.363,3.36,3.36,0,0,0,.2.512,1.318,1.318,0,0,1,.133.414.84.84,0,0,0,.176.527.339.339,0,0,1,.07.227.625.625,0,0,0,.086.293c.09.137.09.168.137,1.328a10.726,10.726,0,0,1-.008,1.945c-.031.031-7.1.055-18.727.07-10.273.012-19.281.031-20.016.043S15.6,237.352,15.25,237.332Zm25.086-2.266c8.551,0,15.035-.02,15.074-.043.082-.055.051-.492-.039-.582-.043-.043-4.687-.055-20.3-.043l-20.246.012-.109.2a.891.891,0,0,0-.109.34v.133l.52.016c.289.012,2.7.008,5.363-.008S32.082,235.07,40.336,235.066Zm2.531-1.262a.525.525,0,0,1,.414,0c.387.133,11.586.043,11.539-.094-.023-.066-39.723-.086-39.766-.02a.152.152,0,0,0,0,.109C15.1,233.906,42.527,233.91,42.867,233.8Zm2.293-.711a.283.283,0,0,1,.273,0c.129.059,7.883.066,8.754.012.348-.023.469-.1.27-.176-.215-.086-39.148.027-39.148.109s.289.082,3.7.094c2.035.008,3.715.02,3.738.023.16.055,22.289-.012,22.414-.062Zm4.395-.707c1.793-.012,3.617-.023,4.051-.023.77,0,1-.051.715-.164-.094-.035-8.586-.035-14.52,0-2.312.012-8.707.023-14.211.023-10.246,0-10.5,0-10.055.164C15.688,232.445,41.582,232.445,49.555,232.387Zm-.9-.73c3.16-.02,5.395-.051,5.422-.078.148-.137-.32-.141-10.02-.113-5.457.02-14.051.035-19.094.039-8.512.008-9.172.016-9.184.09C15.754,231.73,32.492,231.762,48.656,231.656Zm-.535-.723c5.406-.023,5.738-.027,5.738-.094,0-.121-.187-.129-3.168-.1-1.613.012-10.078.031-18.809.043s-15.887.027-15.9.043a.119.119,0,0,0,0,.109C16.012,231,28.59,231,48.121,230.934Zm2.473-.734c2.922-.023,3.1-.031,3.047-.121-.035-.059-37.344-.008-37.406.051-.047.047.008.074.215.113C16.6,230.27,46.5,230.234,50.594,230.2Zm24.887-.074c.449-.047.949-.1,1.879-.2.277-.027.7-.094.922-.145s.578-.117.777-.148a21.465,21.465,0,0,0,3.215-.824,1.654,1.654,0,0,1,.363-.121,1.328,1.328,0,0,0,.344-.125,2.364,2.364,0,0,1,.359-.164,4.37,4.37,0,0,0,2.4-2.441c.066-.367.078-1.957.113-15.363.027-10.664.031-11.1.121-11.383.137-.437.02-.461-.473-.094-.141.105-.293.211-.344.242-.074.047-.078.07-.023.172s.047.18-.02.48a37.183,37.183,0,0,0-.1,4.449c-.008,2.25-.027,4.117-.043,4.152s-.023,2.063-.023,4.5v4.43l.176.313c.2.348.188.465-.016.441l-.137-.016-.012.637c-.012.527,0,.648.063.7.09.078.09.23,0,.391a20.742,20.742,0,0,0,.023,3.965c.113.328.121.473.039.609-.051.078-.043.117.047.238a.321.321,0,0,1-.043.508l-.152.133.031.367c.039.434,0,.793-.1.832-.168.063-.184-.062-.184-1.363,0-1.453,0-1.43-.457-1.727-.578-.371-.637-.367-.637.02,0,.238.012.27.121.313.066.023.121.074.121.113s-.055.105-.121.148a1.635,1.635,0,0,0-.027,1.258c.125.074.125.109,0,.27-.1.121-.1.18-.09,1.055.012.969,0,1.047-.156,1.047s-.16-.094-.164-1v-.828l-.184,0c-.355.012-.379.07-.379,1.02,0,.988-.02,1.074-.277,1.121a.643.643,0,0,0-.242.078,17.122,17.122,0,0,1-5.473,1.473c-.84,0-.781-.281.07-.328a13.7,13.7,0,0,0,2.68-.531c0-.008,0-.422-.016-.914l-.023-.9-.234-.012c-.277-.02-.285-.105-.02-.18s.281-.109.266-.613l-.012-.457-.266.016a2.023,2.023,0,0,0-.523.113c-.273.1-.6.1-.637,0s.215-.168.707-.211a2.649,2.649,0,0,0,.586-.105l.133-.062.012-.789c.012-.68,0-.8-.062-.82a2.127,2.127,0,0,0-.844.207c-.145.1-.215.031-.191-.184.016-.18-.027-.168.793-.273l.293-.035V222.27l-.363.02a2.108,2.108,0,0,0-.484.063,7.238,7.238,0,0,1-1,.074,5.926,5.926,0,0,0-1.094.094,43.792,43.792,0,0,1-7.8.02,6.205,6.205,0,0,0-.828-.1,9.015,9.015,0,0,1-.906-.09c-.121-.031-.359-.086-.535-.125a5.757,5.757,0,0,0-.656-.1,4.582,4.582,0,0,1-.66-.125c-.516-.148-.48-.191-.48.582s.027.836.289.742a.434.434,0,0,1,.223-.023c.129.051.043.137-.16.164-.262.035-.352.121-.352.32,0,.23.09.25.527.117a2.921,2.921,0,0,1,1.137-.2c.063.059-.152.156-.6.27-.785.2-.9.246-.914.383a.348.348,0,0,1-.082.184,6.9,6.9,0,0,0-.07,1.887c0,2.008,0,2,.293,2a8.661,8.661,0,0,1,.93.188c.438.1,1.059.223,1.379.266s.746.113.949.148.508.082.68.1c1.16.121,1.363.152,1.363.227a5.855,5.855,0,0,1-2.023-.148,3.888,3.888,0,0,0-.512-.051,4.041,4.041,0,0,1-.629-.1c-.227-.051-.621-.129-.871-.168a8.2,8.2,0,0,1-1.336-.32.2.2,0,0,0-.238.027c-.273.176-.277.137-.273-2.031,0-1.078,0-1.98,0-2.012-.012-.148-.406-.1-.6.07-.086.074-.09.191-.078,1.918.016,1.578.008,1.848-.055,1.887-.215.137-.25-.027-.238-1.109.023-2.219.008-2.5-.113-2.484-.156.023-.176.215-.18,1.855,0,1.477,0,1.492-.152,1.492-.125,0-.117.09-.117-1.578,0-1.266-.012-1.461-.074-1.461s-.074.164-.078,1.168c0,1.313-.02,1.449-.18,1.426-.105-.016-.105-.023-.113-1.012,0-.551-.008-1.094-.012-1.211l-.008-.211-.164.031c-.2.035-.266-.035-.133-.145.3-.258.348-.32.348-.434,0-.164-.109-.2-.312-.105-.324.152-.312,0,.016-.238.5-.355.371-.762-.148-.477-.3.164-.293.125-.3,1.461-.008,1.148-.027,1.277-.176,1.277s-.145-.09-.141-1.168c0-.547,0-1.023,0-1.055-.008-.113-.113-.062-.3.141-.125.133-.211.191-.262.172-.148-.059-.078-.2.238-.492l.316-.3,0-1.8,0-1.8-.277-.254c-.355-.332-.3-.645.055-.359.207.16.215.141.215-.676,0-.914.008-.9-.379-.469-.172.188-.289.223-.336.1s.125-.4.43-.7l.273-.273.016-7.609c.016-9.113.023-8.875-.324-9.773a2.2,2.2,0,0,1-.152-.5c.012-.1-.449-.414-.609-.418-.113,0-.109.047.035.5l.121.379V213.1c0,14.3-.031,13.008.324,13.656a3.947,3.947,0,0,0,1.816,1.574,1.1,1.1,0,0,1,.32.125c.133.066.383.176.555.238s.5.191.73.289a2.972,2.972,0,0,0,.488.172c.082,0,.891.191,1.676.395.3.078.7.164.9.2s.539.082.754.117a16.692,16.692,0,0,0,2.285.238C71.609,230.176,74.883,230.2,75.48,230.125Zm-3.859-1.16c-.777-.09-.312-.168.8-.133,1.508.047,1.672.129.309.152C72.27,228.992,71.766,228.984,71.621,228.965Zm-1.27-.062c-2.219-.148-5.449-.828-5.277-1.113.047-.074.23-.051.613.078a24.19,24.19,0,0,0,4.969.875,1.285,1.285,0,0,1,.4.074C71.117,228.91,70.883,228.938,70.352,228.9Zm2.457-.605c-.133-.008-.7-.039-1.266-.066-2.363-.121-3.574-.293-3.453-.488a5.7,5.7,0,0,1,1.543.074,2.551,2.551,0,0,0,.6.074,2.914,2.914,0,0,1,.547.043c.086.027.68.07,1.313.1,1.254.059,1.473.078,1.473.145,0,.051-.324.152-.437.141C73.086,228.313,72.941,228.3,72.809,228.3Zm1.1-.012c-.168-.047-.176-.141-.016-.172a6.043,6.043,0,0,1,2.043.086A7.863,7.863,0,0,1,73.906,228.285Zm2.453-.059c-.062-.1.043-.129.5-.156.492-.031.727.039.516.152A2.383,2.383,0,0,1,76.359,228.227Zm-3.09-.73a6.224,6.224,0,0,1-.664-.094,3.58,3.58,0,0,0-.586-.051,3.443,3.443,0,0,1-.6-.051c-.121-.027-.645-.094-1.168-.145-1.066-.109-1.293-.137-2.621-.309-.875-.117-1.074-.168-1.074-.277,0-.086.234-.09.73-.02.539.082.91.137,1.508.219.2.027.594.086.875.125s.73.1,1,.121.672.066.9.094c.355.043,3.035.242,3.27.246a.08.08,0,0,1,.086.07c0,.059-.074.074-.352.074-.2,0-.465.012-.6.02A5.292,5.292,0,0,1,73.27,227.5Zm2.367-.129a.081.081,0,0,1,.031-.1,4.253,4.253,0,0,1,1.2-.051c0,.02-.062.039-.145.039a.887.887,0,0,0-.27.047A1.855,1.855,0,0,1,75.637,227.367Zm-9.469-.16c-.48-.1-.988-.383-.937-.516.039-.105.152-.078.7.191C66.5,227.168,66.6,227.3,66.168,227.207Zm1.8-.957c-.148-.012-.766-.117-1.543-.266-.316-.059-.5-.187-.391-.273.063-.051.191-.035.676.082.332.078.777.176.992.223C68.594,226.2,68.723,226.309,67.969,226.25Zm4.832-1.5c-.148-.023-.3-.141-.25-.191.016-.012.527-.031,1.141-.043s1.277-.043,1.477-.074c1.18-.184,1.633-.262,2.063-.344.516-.1.809-.121.809-.055,0,.1-.148.152-.66.246-.293.059-.641.125-.773.152A18.014,18.014,0,0,1,72.8,224.746Zm-5.625-.215c-.547-.09-.984-.262-.984-.387,0-.109.281-.082.684.063.188.07.473.164.633.207C68.191,224.613,68.016,224.676,67.176,224.531Zm-.066-1.07c-1.309-.09-2.012-.285-2.012-.559,0-.148.082-.152.332-.023a5.937,5.937,0,0,0,1.426.34,1.769,1.769,0,0,1,.41.07.829.829,0,0,0,.348.047c.156-.039.355.02.355.1S67.93,223.52,67.109,223.461ZM44.934,229.52c9.063-.043,8.4-.035,8.426-.105.012-.027-.016-.066-.055-.082-.16-.059-17.434,0-17.672.063a.829.829,0,0,1-.34,0c-.406-.094-18.848-.055-18.832.039C16.488,229.574,27.473,229.605,44.934,229.52Zm-.484-.734c4.281-.023,7.953-.039,8.16-.031.43.016.617-.047.516-.168-.059-.07-.559-.074-4.953-.047-2.691.02-10.848.035-18.125.035s-13.266.023-13.3.043c-.211.129,0,.164,1.059.172.594.008,1.09.02,1.1.031C18.941,228.855,36.539,228.832,44.449,228.785Zm35.629-.133.168-.059-.012-.852c-.016-.957-.027-1-.3-.906l-.172.055-.012.914C79.738,228.82,79.723,228.777,80.078,228.652Zm.887-.309a.61.61,0,0,0,.027-.594c-.2-.168-.469.066-.473.41S80.711,228.578,80.965,228.344Zm.617-.219c.133-.137.047-.637-.109-.613-.082.012-.109.063-.145.27C81.273,228.113,81.406,228.3,81.582,228.125Zm-33.875-.113c2.836-.02,5.176-.055,5.2-.074.152-.145-.219-.152-6.113-.125-3.27.016-11.164.031-17.547.035-11.344,0-12.344.016-12.32.113S35.281,228.1,47.707,228.012Zm34.516-.1c.133-.07.145-.1.148-.328,0-.141.016-.781.027-1.422a6.6,6.6,0,0,0-.039-1.352c-.043-.141-.043-.2,0-.242a6.215,6.215,0,0,0-.016-1.867.434.434,0,0,0-.379.1c-.07.07-.129,5.027-.059,5.137C81.949,228.008,82.059,228,82.223,227.914Zm-1.375-.418a3.611,3.611,0,0,0,.137-2.18c-.082-.09-.082-.1.016-.23s.1-.191.078-1.16c-.012-.562-.02-1.078-.016-1.145.043-.91,0-1.008-.328-.848l-.191.094-.012.352c-.02.383.027.453.293.453.031,0-.016.035-.109.082l-.172.086-.008,2.215C80.527,227.688,80.516,227.613,80.848,227.5Zm-56.891-.184a8.644,8.644,0,0,0,1.281-.055c.035-.059.3-.051-3.309-.082-4.609-.039-4.586-.039-4.629,0-.078.078.109.129.371.105a6.372,6.372,0,0,1,.754.012C18.871,227.332,20.738,227.336,23.957,227.313ZM47,227.289l5.688-.027c.008,0-.012-.035-.047-.078-.066-.078-25.137-.074-25.586.008a1.17,1.17,0,0,0-.242.063C26.629,227.336,33.824,227.348,47,227.289Zm34.535,0a5.521,5.521,0,0,0-.062-2.191c-.141.055-.164.246-.141,1.188C81.359,227.414,81.375,227.488,81.539,227.293Zm-55.2-.5-.105-.086L26.2,216.074c-.012-5.848-.031-13.754-.039-17.574-.008-4.172-.031-6.961-.055-6.988a.716.716,0,0,0-.457-.055c-.1.059-.055,11.484.043,11.6a.121.121,0,0,1,.012.176c-.074.121-.082,18.105-.008,18.809a1.513,1.513,0,0,1,0,.574c-.027.078-.047.871-.047,1.965a7.6,7.6,0,0,1-.07,1.93c-.156.207.078.355.574.359C26.43,226.875,26.438,226.871,26.336,226.789Zm-1.527-.184c.434-.156.1-.172-3.656-.172-3.59,0-3.875.012-3.75.141C17.477,226.648,24.6,226.68,24.809,226.605Zm55.328.023a1.906,1.906,0,0,0,.035-1.109c-.047-.047-.047-.082,0-.164a24.923,24.923,0,0,0,.035-3.2c-.164-.266-.539.023-.492.379a3.74,3.74,0,0,1,.027.406c0,.18,0,.535,0,.73,0,.086,0,.5,0,.93a4.4,4.4,0,0,0,.039.832c.031.035.023.125-.02.246C79.578,226.238,79.8,226.809,80.137,226.629Zm-31.625-.051c3.832,0,4.059,0,3.84-.145-.043-.031-1.789-.039-4.645-.02-2.512.016-7.594.023-11.285.023-3.742,0-6.742.02-6.781.043-.246.156-.062.156,8.746.129C43.191,226.59,47.75,226.578,48.512,226.578Zm-2.141-.7c5.6-.02,5.836-.023,5.836-.156,0-.09.516-.082-5.008-.074-2.691.008-7.187.012-10,.012-5.16,0-5.508.012-5.559.172-.031.09.043.09,4.68.078C38.734,225.906,43.254,225.891,46.371,225.883ZM24.9,225.824c.051-.133.008-.137-3.609-.141-3.656-.008-3.754,0-3.648.164.055.094,7.219.07,7.254-.023Zm58.211-.1.184-.125-.016-.566-.012-.57-.16-.016c-.2-.02-.2-.074-.008-.187.363-.215.258-1.547-.133-1.645-.238-.059-.258.012-.258.918a3.079,3.079,0,0,0,.055.895c.043.039.035.094-.023.219a3.107,3.107,0,0,0-.051,1.117C82.727,225.887,82.9,225.871,83.113,225.727Zm-58.281-.6a.091.091,0,0,0,.086-.1A60.7,60.7,0,0,0,17.961,225c-.066.078-.027.105.2.133C18.25,225.141,24.465,225.137,24.832,225.125Zm25.953-.02c1-.008,1.234-.043,1.113-.164-.031-.031-12.82-.027-16.762.008-1.09.008-1.531.07-1.242.172C33.977,225.152,47.254,225.137,50.785,225.105Zm30.8-.285a4.01,4.01,0,0,0-.117-1.961,7.2,7.2,0,0,0-.141,2.031C81.371,225.031,81.531,224.992,81.59,224.82Zm-58.246-.445c1.332.031,1.574.016,1.574-.094,0-.082-6.641-.113-6.687-.031a10.1,10.1,0,0,0,3.063.133C21.7,224.363,22.617,224.359,23.344,224.375Zm22.227,0c3.371-.012,6.133-.023,6.141-.027.047-.008,0-.141-.055-.164-.121-.043-15.406.02-15.531.066-.371.145.125.18,2.219.16Zm-14.945-.031c.07-.035.117-.078.1-.1a18.978,18.978,0,0,0-2.984.027A11.138,11.138,0,0,0,30.625,224.34Zm33.7-.281a.236.236,0,0,0-.2-.367c-.234,0-.457.121-.457.238C63.664,224.129,64.223,224.242,64.32,224.059Zm-2.461-.355a.379.379,0,0,0,.168-.164.236.236,0,0,1,.164-.129l.113-.016v-2.328l-.27-.187c-.4-.281-.383-.348-.41,1.281C61.594,223.844,61.59,223.828,61.859,223.7Zm-36.93-.082c.145-.145-.113-.156-3.324-.145-2.832.012-3.23.023-3.23.086A58.912,58.912,0,0,0,24.93,223.621Zm7.906-.016c.086-.027.156-.066.156-.09a42.8,42.8,0,0,0-5.207-.023c-.125.152.023.16,2.152.168,1.184,0,2.16.012,2.168.023A2.652,2.652,0,0,0,32.836,223.605Zm18.438-.031c.555-.117-.117-.133-6.191-.145-6.586-.012-6.762-.008-6.824.176C38.234,223.676,50.941,223.645,51.273,223.574Zm12.8-.078c.309-.113.383-.508.082-.449-.238.051-.492.191-.512.289C63.605,223.563,63.746,223.613,64.078,223.5Zm20.6-.238c.012-.059.016-.719.012-1.469-.008-1.566.008-1.523-.437-1.227a3.529,3.529,0,0,1-.445.258l-.2.094-.012.859-.016.859.137.129a1.725,1.725,0,0,0,.3.219,2.567,2.567,0,0,1,.34.238C84.566,223.395,84.648,223.406,84.676,223.258Zm-21.887-.984c0-1.266-.129-1.473-.172-.277-.031.98-.012,1.285.09,1.266C62.781,223.246,62.789,223.141,62.789,222.273Zm.547.082c.016-.75-.008-.883-.16-.883-.094,0-.1.066-.078.891C63.125,223.539,63.316,223.531,63.336,222.355Zm.766.559c.418-.031.391-1.121-.031-1.2-.457-.09-.43-.129-.43.582,0,.66.016.7.219.656C63.914,222.938,64.023,222.922,64.1,222.914Zm-39.2-.066c.059-.152-.152-.16-3.152-.164-3.133,0-3.273.008-3.1.184C18.746,222.961,24.867,222.941,24.9,222.848Zm9.988-.012.117-.07-.109-.039c-.215-.082-7.133-.027-7.133.055A57.391,57.391,0,0,0,34.891,222.836Zm12.16.035c3.9-.008,4.273-.02,4.141-.156-.1-.1-10.484-.047-10.7.059a8.548,8.548,0,0,0,2.285.121c.145-.008,2.07-.016,4.281-.023Zm34.559-.559c.055-.391.016-.562-.125-.543s-.2.23-.156.59C81.375,222.781,81.547,222.75,81.609,222.313Zm.684.16c.078-.055.082-.078.023-.168s-.051-.117.043-.2a.768.768,0,0,0,.043-.727c-.234-.191-.488.055-.457.445a1.532,1.532,0,0,1-.016.41C81.832,222.488,82.063,222.645,82.293,222.473Zm1-.738v-.656h-.117c-.379,0-.465.113-.465.625,0,.477.047.594.238.594a.3.3,0,0,1,.2.07C83.266,222.508,83.293,222.379,83.293,221.734Zm-6.59.465a13.93,13.93,0,0,0,1.543-.176c.074-.023.082-.1.082-.6,0-.66-.027-.715-.324-.664-.1.016-.488.051-.863.074s-.906.078-1.18.121c-.551.086-.984.1-.984.035s.109-.1.57-.152c.234-.027.73-.105,1.105-.172a7.852,7.852,0,0,1,1.012-.121c.422,0,.656-.09.676-.266.02-.148.105-.18.133-.047.027.164.082.176.359.07a1.182,1.182,0,0,0,.441-.293l.172-.187,0-1.117c0-1.309.023-1.254-.453-1.152-.437.09-.469.121-.469.473,0,.211-.02.293-.074.313-.105.043-.121.016-.152-.266-.031-.258-.1-.312-.211-.18a.357.357,0,0,1-.242.074,3.977,3.977,0,0,0-1.359.512c-.559.285-.781.332-.781.176,0-.129.051-.16.73-.457.332-.148.781-.344,1-.441s.488-.2.605-.234l.219-.066.016-.367c.016-.453.016-.453-.551-.523-1.383-.172-1.508-.152-1.977.262-.312.281-.477.336-.477.164a.4.4,0,0,1,.242-.363c.289-.148.188-.211-.352-.227-.863-.023-.7-.152.23-.184.668-.023.742-.035.891-.141.25-.18.172-.191-1.273-.23s-1.609-.066-1.418-.258a21.359,21.359,0,0,1,4.109.074c.629.086.6.125.594-.719-.012-10.145-.02-11.934-.066-12.273-.078-.633.1-1.312.328-1.223.063.023.074.066.047.211-.07.367-.07,14.688,0,14.785a1.612,1.612,0,0,0,.793.176,10.925,10.925,0,0,0,.059-2.148c0-7.621.039-12.879.105-13.066.145-.418.371-.25.289.211-.078.441-.1,1.984-.1,8.707,0,6.773-.016,6.445.25,6.5.313.066.289.652.285-7.566,0-7.863,0-7.957.2-8.207.176-.211.266.02.164.445-.062.281-.078,1.27-.105,7.344l-.031,7.02.109.1a.549.549,0,0,0,.234.125c.281.055.262.609.25-7.4-.012-6.945-.008-7.387.074-7.582.207-.5.2-.582.184,7.383-.023,8-.027,7.734.191,7.734.086,0,.09-.07.094-1.641.02-12.2.035-13.492.191-13.777.1-.191.059-.191-.73,0a4.986,4.986,0,0,1-.711.121,1.913,1.913,0,0,0-.414.066c-.187.059-.781.148-2.133.328a23.157,23.157,0,0,1-2.359.215c-.484.027-1.129.066-1.437.082-.961.059-4.316.02-5.047-.059-1.078-.109-2.527-.3-3.062-.41-.273-.051-.637-.109-.8-.125a4.457,4.457,0,0,1-.559-.1c-.137-.039-.434-.1-.656-.141A16.737,16.737,0,0,1,61.461,200c-.34-.176-.367-.1-.133.379.293.605.293.59.293,9.293,0,5.672.016,7.785.055,7.8a1.012,1.012,0,0,0,.352-.16l.3-.176V212.84c0-2.359,0-5.687.008-7.4.012-3.672-.051-4.66-.3-4.816a.167.167,0,0,1,.031-.25c.375-.145.621,1.207.578,3.2-.066,2.934-.055,13.379.016,13.438.23.191.316-15.293.09-15.984-.094-.277-.094-.289-.008-.352.137-.1.246-.008.32.258a1.6,1.6,0,0,0,.137.344.2.2,0,0,1,.016.23,21.863,21.863,0,0,0-.055,2.395c0,1.25-.016,4.656-.031,7.566L63.1,216.75h.1c.2,0,.309-.191.277-.512-.023-.289.023-.473.1-.395a1.235,1.235,0,0,1,.039.387v.348l.266-.016a1,1,0,0,0,.367-.078l.1-.066-.012-6.949c-.012-7.3-.016-7.562-.113-8s.035-.59.227-.246c.207.375.219.578.211,3.395-.008,1.469-.02,2.75-.027,2.844-.031.309-.023,8.863.008,8.914s.121.043.941-.172c.363-.094.832-.2,1.047-.227s.555-.078.754-.105.465-.07.582-.094.375-.055.563-.07.492-.051.68-.074.711-.082,1.168-.125c1.035-.1.934.023.969-1.176.016-.555.043-1.152.055-1.332l.027-.32-.184-.113a1.187,1.187,0,0,1-.223-.164c-.043-.062-.051-10.25-.008-10.359a.145.145,0,0,1,.242-.02c.02.031.035,2.3.035,5.043l0,4.988.133.133a2.039,2.039,0,0,0,1.594.164c.414-.125.379.352.379-5.227,0-4.871.008-5.113.145-5.113.16,0,.18.129.168,1.3-.008.637,0,2.895,0,5.012.016,4.152.02,4.059-.242,4.215-.187.113-.215.238-.152.773.145,1.223.117,2.016-.062,1.832a2.4,2.4,0,0,1-.121-.824c-.1-1.484-.242-1.637-.25-.277-.012,1.684-.055,2.25-.164,2.25-.094,0-.1-.031-.086-.609a7.8,7.8,0,0,0-.035-.973c-.027-.2-.062-.637-.074-.965-.031-.8-.066-.852-.609-.855l-.219,0-.012.219c-.016.328-.156,2.32-.207,3.008a3.893,3.893,0,0,1-.1.7c-.105.191-.156-.031-.121-.5.043-.562-.164-.727-.672-.535a3.154,3.154,0,0,1-.5.1c-.207.027-.871.113-1.473.2s-1.336.156-1.629.164a5.4,5.4,0,0,0-1.059.148c-.289.07-.641.148-.789.172-.449.074-.512.145-.512.566s.023.426.508.285a13.109,13.109,0,0,1,2.145-.473,1.412,1.412,0,0,0,.266-.043,4.415,4.415,0,0,1,1.734-.113c.051.129-.039.164-.617.227s-.684.125-.434.246c.168.086.16.25-.012.27a.378.378,0,0,1-.41-.27c-.086-.2-.129-.2-1.137-.02-1.789.324-2.09.438-2.09.773,0,.2.07.2.563,0a3.914,3.914,0,0,1,1.938-.367c.125.094.059.18-.148.18a6.024,6.024,0,0,0-2.293.7.677.677,0,0,0-.039.582,2.147,2.147,0,0,1,.043.742c-.074,1.258.012,1.824.277,1.824a.156.156,0,0,1,.117.043,2.885,2.885,0,0,0,1.25.176,2.814,2.814,0,0,1,.9.1,3.6,3.6,0,0,0,.773.121c1.363.1,2.289.145,3.039.145a6.542,6.542,0,0,1,.824.027C71.855,222.32,75.984,222.258,76.7,222.2Zm-2.848-.363a23.034,23.034,0,0,0-3.016-.16,13.84,13.84,0,0,1-2.926-.289c-.121-.148.023-.18.527-.121.266.031.762.078,1.109.105s.738.059.863.07c.207.02.242.008.313-.1.1-.16.02-.266-.211-.266s-.379-.082-.3-.176c.043-.055.117-.062.316-.039.258.031.258.031.363-.145.121-.207.207-.207.23.008s.035.211,1.328.242L73.6,221l.086-.129c.105-.16.191-.164.293-.012.074.113.1.117.434.09.656-.047.691.1.039.16-.348.031-.449.094-.449.258,0,.219.766.258,2.891.152a3.919,3.919,0,0,1,1.02,0c.172.172-.418.234-2.387.25a5.174,5.174,0,0,0-1.434.078C74.023,221.926,73.945,221.922,73.855,221.836Zm-.066-.387c.09-.234,0-.254-1.156-.266-.6,0-1.176-.02-1.285-.035-.266-.039-.461.129-.3.262A10.622,10.622,0,0,0,73.789,221.449Zm-7.734-.395a1.124,1.124,0,0,0-.3-.121,3.305,3.305,0,0,1-.91-.477c-.266-.25-.09-.422.191-.191a4.527,4.527,0,0,0,1.16.641c.168.039.328.164.289.227S66.289,221.18,66.055,221.055Zm2.953-.184a.51.51,0,0,1-.078-.145c-.02-.055-.082-.086-.168-.086a1.158,1.158,0,0,1-.348-.1,1.138,1.138,0,0,0-.258-.1c-.512,0-1.293-.914-.992-1.16.113-.094.223-.031.223.125,0,.266.207.48.7.711.781.375.91.422,1.094.426.352,0,.457.2.176.313C69.137,220.949,69.066,220.953,69.008,220.871Zm6.016-.488c0-.086.242-.156.832-.25a4.169,4.169,0,0,0,1.105-.312c.316-.172.449-.754.2-.906a.177.177,0,0,1-.047-.125c0-.246.4-.023.66.367.152.23-.152.652-.668.922C76.656,220.32,75.023,220.555,75.023,220.383Zm-1.7-.156c-.094-.113,0-.168.371-.223a2.121,2.121,0,0,0,1.445-.582c.2-.227.34-.242.363-.039.039.332-.441.617-1.352.8C73.48,220.32,73.4,220.324,73.32,220.227Zm-3.574-.309c-1.008-.367-1.437-.82-1.164-1.215.141-.2.289-.125.289.145,0,.34.309.605,1.012.863.215.082.352.16.352.2C70.234,220.02,70.023,220.02,69.746,219.918Zm1.027-.457c-.434-.234-.633-.594-.406-.734.117-.074.242.012.289.2.039.145.2.3.3.3.031,0,.055-.094.051-.207s.02-.363.043-.551l.039-.348-.164-.1c-.09-.059-.258-.18-.379-.27a1.38,1.38,0,0,0-.391-.219c-.207-.062-.48-.422-.391-.512.039-.039.086-.035.16.012a11.046,11.046,0,0,1,1.137.852l.262.234,0,.3a1.264,1.264,0,0,1-.16.781c-.066.043-.059.066.047.18C71.469,219.652,71.207,219.7,70.773,219.461Zm2.723-.418c-.172-.281-.059-1.359.129-1.187a.7.7,0,0,0,.4.082c.34,0,.5.094.445.25-.027.066-.07.074-.215.051-.1-.016-.266-.043-.371-.062l-.191-.031.031.383C73.758,218.973,73.633,219.262,73.5,219.043Zm-.68-.18a7.489,7.489,0,0,1,.023-1.605c.129-.082.164.09.164.867S72.938,219.176,72.816,218.863Zm-5.895-.281c-.062-.164.316-.324.762-.324s.359.262-.113.309c-.168.016-.375.043-.461.063C66.992,218.648,66.941,218.637,66.922,218.582Zm7.676-.066c-.125-.047-.051-.207.172-.379.73-.555.984-.684.984-.5A3.054,3.054,0,0,1,74.6,218.516Zm-5.547-.223c-.168-.2.4-.371.629-.187.1.078.1.1.047.172A.832.832,0,0,1,69.051,218.293Zm1.086-.238c-.789-.437-.793-.437-2.164-.152-.2.043-.453.086-.562.1l-.191.02.105-.094a.862.862,0,0,1,.438-.129,5.837,5.837,0,0,0,1.34-.414.542.542,0,0,1,.555.063,6.95,6.95,0,0,0,.637.391c.543.3.586.344.5.449S70.734,218.391,70.137,218.055Zm4.023-.734c-.391-.039-.449-.059-.449-.137,0-.137.207-.168.668-.1.5.074.547.094.547.207S74.887,217.395,74.16,217.32Zm-3.578-.246a3.352,3.352,0,0,0-.363-.453c-.367-.359-.359-.59.016-.359a2.589,2.589,0,0,1,.668.934C70.926,217.414,70.758,217.352,70.582,217.074Zm6.461.191c-.133-.1-.023-.215.234-.258a.6.6,0,0,0,.285-.121c.172-.172.445-.055.336.145-.051.1-.187.164-.516.25C77.141,217.344,77.152,217.348,77.043,217.266Zm-2.957-.551c-.168-.043-.047-.137.2-.152.273-.016.641.066.641.141A2.513,2.513,0,0,1,74.086,216.715Zm3.059-3.6c-.027-.086-.074-3.1-.082-5.121-.016-5.812-.016-6.051.066-6.215.148-.316.352-.16.285.219-.02.129-.043,2.684-.051,5.68s-.02,5.461-.035,5.484C77.285,213.23,77.172,213.2,77.145,213.113ZM63.477,213c-.043-.207-.1-4.613-.074-6.145a53.148,53.148,0,0,0-.074-5.426c-.086-.379-.066-.551.063-.527.285.055.348.793.32,3.813-.012,1.176-.023,3.484-.027,5.129s-.02,3.043-.039,3.109C63.6,213.109,63.5,213.137,63.477,213Zm-38.562,9.133c.324-.125-.117-.148-3.023-.16-3.059-.012-3.445.008-3.008.172C19,222.184,24.8,222.168,24.914,222.129Zm11.938-.031c.137-.055.18-.137.074-.145-.055,0-6.215,0-8.32,0-.766,0-.973.039-.8.156C27.922,222.191,36.648,222.18,36.852,222.1Zm14.164-.043c.16-.16-.012-.168-4.145-.152-3.859.016-4.242.027-4.242.152C42.629,222.145,50.922,222.148,51.016,222.055Zm28.328-.2a2.694,2.694,0,0,0,.051-1.418c-.449-.148-.9.289-.922.887C78.457,221.969,78.676,222.1,79.344,221.855Zm.762-.148c.176-.137.172-.543,0-.566-.207-.031-.234-.141-.055-.23.09-.047.172-.094.184-.1.043-.039.051-3.4.008-3.465-.055-.086-.359-.039-.469.07a3.869,3.869,0,0,0-.02,1.445,8.165,8.165,0,0,1,0,1.535C79.688,221.91,79.715,222.016,80.105,221.707Zm.836-.207c.313-.312.207-.625-.172-.516a.365.365,0,0,0-.164.594C80.715,221.7,80.75,221.691,80.941,221.5Zm-56.012-.109c.188-.191-.008-.219-1.414-.191-.738.012-2.047.023-2.906.027-1.625,0-1.711.016-1.594.2C19.063,221.5,24.852,221.465,24.93,221.391Zm14.258-.062c.32-.117.2-.148-.582-.148-10.391-.012-10.91,0-10.844.172C27.8,221.461,38.883,221.438,39.188,221.328Zm25.094.047c.086-.047.094-.113.09-1.23,0-.648.012-1.211.027-1.25.082-.219-.094-.266-.383-.1-.418.238-.434.285-.4.988.016.328.027.785.031,1.02v.422l.184.059a.791.791,0,0,1,.227.1C64.117,221.438,64.168,221.434,64.281,221.375Zm-13.531-.047a.1.1,0,0,0,.035-.117,29.03,29.03,0,0,0-6.062.117C44.723,221.387,50.652,221.391,50.75,221.328Zm30.844-.1c.133-.242,0-.535-.168-.391a.547.547,0,0,0-.043.453C81.445,221.355,81.543,221.328,81.594,221.23Zm.781-.2c.094-.1.1-.152.09-1.594l-.012-1.5-.133-.133c-.125-.125-.375-.187-.391-.1-.02.129-.031,3.262-.012,3.332C81.953,221.168,82.246,221.16,82.375,221.035Zm-19.031-.828c.012-.859-.008-.969-.152-.863a4.3,4.3,0,0,0-.039,1.66C63.3,221.184,63.328,221.063,63.344,220.207Zm19.8.586.156-.1v-1.207a5.524,5.524,0,0,0-.055-1.266c-.043-.043-.047-.086,0-.168a1.566,1.566,0,0,0,0-1.055c-.277-.258-.586-.172-.469.129a.35.35,0,0,1,.012.328,32.831,32.831,0,0,0-.043,3.387C82.785,220.918,82.973,220.895,83.141,220.793Zm-20.324-1.2c0-1.172-.027-1.371-.164-1.148a22.368,22.368,0,0,0-.008,2.289C62.789,220.973,62.816,220.789,62.816,219.6Zm18.152,1.066c.145-.07.148-.086.113-.277a2.153,2.153,0,0,1-.02-.422c.008-.121.016-.754.016-1.41l0-1.187-.168-.113c-.359-.246-.363-.23-.379,1.027l-.012,1.117.145.133c.164.148.156.238-.027.359C80.246,220.148,80.555,220.879,80.969,220.664Zm-18.645-1.551c0-1.68.02-1.594-.375-1.34-.359.234-.3.031-.328,1.242-.02,1.164-.02,1.172.336,1.418C62.355,220.707,62.332,220.785,62.324,219.113ZM84.18,220.27a2.5,2.5,0,0,0,.441-2.488c-.2-.246-1.027-.668-1.035-.527-.016.359.016,3.223.031,3.254C83.664,220.586,83.758,220.547,84.18,220.27Zm-2.586.133c.191-.359,0-3.223-.2-2.918-.047.07-.062,2.9-.016,2.977S81.543,220.5,81.594,220.4Zm-18.273-1.5c.125-.414.09-.707-.078-.684s-.2.77-.043.77A.128.128,0,0,0,63.32,218.906Zm.824-.457c.25-.176.348-.578.141-.578-.434,0-.691.207-.691.551C63.594,218.734,63.723,218.742,64.145,218.449ZM62.824,218c.078-.172.012-.57-.1-.551s-.148.672-.031.672C62.734,218.117,62.793,218.063,62.824,218Zm.5-.1c.117-.121.109-.75-.012-.75-.156,0-.2.105-.2.438C63.109,217.98,63.16,218.059,63.324,217.895Zm.684-.207c.359-.125.367-.133.367-.445,0-.391-.059-.43-.434-.293-.316.117-.344.16-.348.539C63.594,217.813,63.617,217.824,64.008,217.688Zm18.4-.07a2.667,2.667,0,0,0-.008-.9.786.786,0,0,0-.41-.066,1.113,1.113,0,0,0-.086.625C81.957,217.5,82.313,217.738,82.41,217.617Zm-3.5-.3c.152-.035.336-.078.41-.1.34-.074.133-.371-.324-.461-.41-.082-.465-.043-.465.309S78.52,217.414,78.91,217.316Zm5.77-.02c.016-.023.035-3.914.047-8.648.016-5.832.039-8.66.074-8.773a1.186,1.186,0,0,0,.055-.215c0-.078-.379.016-.715.18-.473.223-.461.219-.4.32.043.07.043.184,0,.473-.035.211-.066.473-.07.578-.012.227-.055.316-.156.316-.082,0-.184-.227-.133-.3a2.087,2.087,0,0,0,.047-.434,2.538,2.538,0,0,1,.066-.508c.078-.207,0-.191-1.187.215l-.234.082-.02.367c-.066,1.324-.09,3.949-.09,9.285v6.1l.133.047a.57.57,0,0,0,.254.016l.117-.031-.012-7.648c-.012-7.895-.016-7.781.168-8.121a.181.181,0,0,1,.141-.09c.113,0,.117.023.031.73-.09.793-.105,15.145-.012,15.238s.461.207.512.156c.027-.027.055-3.2.063-7.441.02-7.277.027-7.516.16-7.516.148,0,.16,1.1.094,10.738l-.031,4.34.262.164C84.461,217.3,84.625,217.379,84.68,217.3Zm-3.047-.359c.016-.355-.078-.535-.215-.422a.814.814,0,0,0,.012.668C81.555,217.359,81.617,217.285,81.633,216.938Zm-.582.1a.565.565,0,0,0-.211-.77c-.273-.09-.316-.047-.316.309,0,.336.035.4.277.469C80.988,217.1,80.984,217.1,81.051,217.035Zm-2.84-.6c.156-.062.1-.348-.082-.4a2.1,2.1,0,0,0-1.34-.008c-.3.172-.266.23.172.27.328.031,1.141.145,1.164.164A.484.484,0,0,0,78.211,216.434ZM54.5,212.2c1.113-.012,2.777-.031,3.7-.035l1.676-.012.012-5.57c.012-7.48.051-7.105-.812-7.945a1.746,1.746,0,0,1,.379-2.961c.145-.09.418-.262.609-.387a11.085,11.085,0,0,1,1.055-.551c.387-.176.746-.344.793-.371a11.419,11.419,0,0,1,1.422-.477c.352-.09.828-.176,1.664-.3.547-.078,1-.152,1.52-.242a31.925,31.925,0,0,1,3.645-.387c.41,0,.734-.07.734-.16.043-4.453.063-32.332.027-33.8-.012-.441-.035-4.891-.051-9.887-.031-9.8-.016-9.277-.289-9.742-.309-.523.273-.488-8.832-.488-8.711,0-7.969-.027-8.332.348a2.174,2.174,0,0,0-.5,1.371c.016.035.027,2.734.035,6,.008,6.98-.184,6.059,1.281,6.121.641.027,1.418.082,1.727.121,1.082.145,1.684.238,2.09.328.23.051.637.125.9.164a7.458,7.458,0,0,1,.926.2c.238.07.59.168.777.219,2.48.645,3.164,1.434,2.453,2.844a2.564,2.564,0,0,0-.3.762,6.425,6.425,0,0,1-.156,1.16c-.066.23-.117,23.922-.051,24.129.02.063.117.121.309.172a4.352,4.352,0,0,1,1.1.484,3.345,3.345,0,0,0,.438.238,1.413,1.413,0,0,1,.316.191,2.825,2.825,0,0,0,.406.277,2.076,2.076,0,0,1,.836.863l.223.375-.031.363a3.371,3.371,0,0,1-.7,1.668,4.447,4.447,0,0,0-.293.359,7.03,7.03,0,0,1-1.711,1.227,12.838,12.838,0,0,1-1.824.727l-.922.27c-.324.1-.793.219-1.047.27s-.594.129-.754.168-.512.109-.777.152-.574.1-.684.121c-.68.156-5.1.523-6.516.543-.723.012-3.648-.043-3.992-.074a29.222,29.222,0,0,1-7.66-1.441c-.254-.078-.66-.2-.9-.27a15.04,15.04,0,0,1-2.41-1.094c-.3-.207-.387-.215-2.262-.277a30.369,30.369,0,0,0-3.98.078,1.029,1.029,0,0,1-.328.055c-.48,0-.773.535-.773,1.4,0,.586-.121.777-.621.98l-.328.133-.035.48c-.02.266-.035,1.5-.031,2.746s.008,4.715.008,7.711,0,6.617,0,8.051l0,2.6,9.82.012c5.4,0,9.828.016,9.836.023S52.145,212.234,54.5,212.2Zm18.352-10.969h.535l-.035-.191c-.027-.172-.035-5.91-.027-26.664,0-3.7-.008-9.66-.023-13.23s-.039-9.734-.051-13.7c-.031-8.891-.012-8.082-.2-8.543a3.753,3.753,0,0,0-2.469-2.246c-.387-.09-15.836-.16-16.66-.074-2.094.215-3.082,1.238-3.187,3.3-.023.387-.039,4.648-.043,9.465,0,9.523.012,8.945-.27,8.914l-.125-.016-.047-5.4-.707.012c-.387.008-1,.035-1.363.063s-1.082.07-1.605.094c-4.547.219-7.824,1.168-8.352,2.426-.152.367.52,1.16,1.266,1.488a23.975,23.975,0,0,0,4.656,1.191c.254.023.7.09,1,.141a9.553,9.553,0,0,0,1.77.188,5.24,5.24,0,0,1,.816.043,47.947,47.947,0,0,0,4.832.066c1.016-.051,1.453-.09,2.848-.238a10.074,10.074,0,0,0,1.875-.32c.148-.039.445-.105.656-.145a12.68,12.68,0,0,0,4.1-1.352,1.511,1.511,0,0,1,.309-.18c.238,0,.684-.672.637-.957-.141-.859-3.984-1.941-7.992-2.254-2.324-.18-2.023-.562-2,2.527a23.273,23.273,0,0,1-.039,2.672.172.172,0,0,1-.289.039c-.07-.082-.094-5.844-.023-6.016a5.409,5.409,0,0,0-.012-1.109c-.047-.715-.062-2.395-.055-6.152l.012-5.168.188-.352c.59-1.125-.129-1.043,8.906-1.012,9.191.031,8.645.008,9.066.387.621.563.605.035.586,20.387-.008,3.8-.008,7,0,7.125s.02,7.926.035,17.348c.031,18.707.051,17.289-.223,17.289-.238,0-.234.043-.219-3.949.016-4.473.289-3.961-1.969-3.684-.441.055-1.121.129-1.508.164a6.738,6.738,0,0,0-.875.121c-.094.027-.629.141-1.191.25s-1.109.219-1.219.238a13.865,13.865,0,0,0-3.34,1.109,1.594,1.594,0,0,1-.258.156,3.778,3.778,0,0,0-1.039.73c-.852.855-.816,1.629.105,2.3a5.5,5.5,0,0,0,1.23.734.938.938,0,0,1,.289.121,3.067,3.067,0,0,0,1.051.457,17.174,17.174,0,0,0,3.348.859c.254.031.836.105,1.289.168a12.612,12.612,0,0,0,2.652.219.222.222,0,0,1,.266.02,1.02,1.02,0,0,0,.477.082,3.724,3.724,0,0,1,.57.047,6.019,6.019,0,0,0,.871.02c.359-.012.895-.023,1.184-.023Zm-.164-.336c-.055-.074-.062-1.324-.055-6.75.023-13.656.016-34.422-.012-39.738-.016-3.023-.035-7.336-.047-9.582-.02-4.168-.027-4.379-.215-4.793a1.092,1.092,0,0,1-.1-.352.371.371,0,0,0-.1-.23c-.211-.211-.039-.383.293-.293a.623.623,0,0,1,.391.645,2.266,2.266,0,0,0,.043.4c.043.184.09,14.539.105,30.527.008,11.051-.059,30.078-.109,30.172C72.824,201.016,72.766,201.012,72.688,200.9Zm-7.9-.746c-.184-.5.035-5.883.23-5.687a25.82,25.82,0,0,1,.02,3.863c-.062.215-.062.266,0,.383a3.814,3.814,0,0,1,.012,1.441C64.973,200.23,64.816,200.23,64.789,200.152Zm1.262,0a34.242,34.242,0,0,1,.125-5.953,33.433,33.433,0,0,1,.141,5.9C66.273,200.219,66.109,200.254,66.051,200.156Zm-2.18-.133c-.066-.105-.039-5.078.027-5.121.082-.051.1-.051.188.008a47.862,47.862,0,0,1,.023,5.031C64.055,200.051,63.918,200.1,63.871,200.023Zm-.777-.133c-.062-.156-.035-4.957.027-5.02a.15.15,0,0,1,.254.027c.055.141.031,4.875-.023,4.977S63.133,200,63.094,199.891Zm-.641-.273a36.79,36.79,0,0,1,.086-4.191c.2-.121.207-.027.223,2.066a17.1,17.1,0,0,1-.039,2.086C62.664,199.688,62.488,199.711,62.453,199.617Zm-.625-.164c-.055-.137-.035-3.766.02-3.863.063-.121.176-.121.238-.008a36.59,36.59,0,0,1,0,3.816C62.023,199.543,61.875,199.578,61.828,199.453Zm-.7-.469a17.5,17.5,0,0,1-.039-2.789c.246-.34.324.027.3,1.473C61.379,198.98,61.328,199.234,61.129,198.984Zm6.285-.145c-.047-.145-.047-4.457,0-4.6.039-.125.133-.145.219-.039.063.07.086,4.605.023,4.7S67.449,198.949,67.414,198.84Zm-7.055-.383a4.4,4.4,0,0,1,.063-1.867c.188-.07.219.07.219.91C60.641,198.391,60.539,198.742,60.359,198.457ZM52.086,158.32c-.02-.031-.043-1.844-.047-4.027-.012-3.859-.055-9.7-.086-12.508-.008-.766,0-1.488.02-1.605a2.7,2.7,0,0,1,.707-1.539c.07-.047.215-.156.324-.246a2.549,2.549,0,0,1,.852-.445c.344-.09,16.238-.059,16.5.035.629.219,1.184.844,1.016,1.145-.066.117-.164.055-.332-.207a1.359,1.359,0,0,0-1.234-.566c-.926-.035-14.941-.055-15.406-.023-1.2.086-1.785.676-2.016,2.031-.066.391-.07,8.855-.008,14.414.012,1.031.008,2.105-.012,2.387a2.528,2.528,0,0,0,.02.746C52.461,158.211,52.223,158.539,52.086,158.32Zm-4.152-.133a6.45,6.45,0,0,1,.1-2.387,6.289,6.289,0,0,1,.086,2.422C48.035,158.3,47.992,158.3,47.934,158.188Zm-2.859-.113a38.385,38.385,0,0,1-.023-4.445c.281-.281.316-.02.281,2.289C45.3,158.109,45.277,158.328,45.074,158.074Zm1.285-.008c-.059-.16-.047-4.5.016-4.574.191-.23.367-.023.324.375-.016.168-.031,1.156-.035,2.2,0,1.129-.02,1.93-.047,1.98C46.559,158.152,46.4,158.164,46.359,158.066Zm-2.309-.281a27.373,27.373,0,0,1,.02-4.082c.25-.2.277.012.258,2.063C44.309,157.883,44.289,158.023,44.051,157.785Zm11.16-.246c-.027-.336-.1-3.215-.082-3.5.016-.367.168-.535.332-.371.059.055.043,3.027-.016,3.824C55.406,157.98,55.254,158.012,55.211,157.539Zm1.262.2a32.014,32.014,0,0,1,.078-3.895.116.116,0,0,1,.16.012,27.579,27.579,0,0,1,.027,3.867C56.68,157.879,56.508,157.887,56.473,157.734Zm-13.191-.074a35.477,35.477,0,0,1-.059-3.773.162.162,0,0,1,.281.008,28.772,28.772,0,0,1-.039,3.723C43.391,157.707,43.363,157.715,43.281,157.66Zm-.645-.145c-.047-.086-.07-3.469-.027-3.621a.138.138,0,0,1,.238-.062,26.164,26.164,0,0,1,.023,3.676C42.809,157.625,42.7,157.629,42.637,157.516Zm14.9.031a33.58,33.58,0,0,1-.023-3.492.152.152,0,0,1,.289.008,30.971,30.971,0,0,1-.055,3.477A.128.128,0,0,1,57.539,157.547Zm-16.02-.2a7.348,7.348,0,0,1-.051-1.289c0-.676-.016-1.309-.031-1.41-.055-.34.145-.582.313-.383a16.471,16.471,0,0,1-.023,3.039C41.641,157.422,41.594,157.434,41.52,157.344Zm.609.027a27.674,27.674,0,0,1,.02-3.324c.23-.145.242-.043.227,1.711C42.363,157.426,42.324,157.688,42.129,157.371Zm16.242-.125c-.043-.211-.059-2.934-.016-3.086s.223-.238.234-.121c0,.02.02.078.035.133a18.873,18.873,0,0,1-.02,3.094C58.5,157.391,58.4,157.383,58.371,157.246Zm.7-.082a20.315,20.315,0,0,1,0-2.7.141.141,0,0,1,.246-.008,15.019,15.019,0,0,1,0,2.684C59.25,157.223,59.078,157.234,59.066,157.164Zm-18.352-.125a7.816,7.816,0,0,1,.016-2.453c.277-.148.313,0,.3,1.23S40.961,157.285,40.715,157.039Zm19.1.012a15.035,15.035,0,0,1-.039-2.262.185.185,0,0,1,.266,0,7.866,7.866,0,0,1-.031,2.246C59.9,157.129,59.879,157.133,59.813,157.051Zm.7-.258a7.116,7.116,0,0,1,.039-1.77c.09-.074.27-.02.277.086a8.072,8.072,0,0,1-.086,1.652C60.664,156.891,60.555,156.9,60.516,156.793Zm-21-.094a1.066,1.066,0,0,1-.047-.164,1.758,1.758,0,0,0-.219-.293c-.227-.266-.242-.441-.035-.441.348,0,.785.965.461,1.012C39.594,156.824,39.555,156.8,39.516,156.7Zm.453-.129a1.459,1.459,0,0,1-.086-.453,3.766,3.766,0,0,0-.109-.652c-.133-.437.078-.6.309-.238C40.352,155.652,40.246,156.906,39.969,156.57Zm21.2-.086c-.152-.281-.039-1.266.145-1.266.145,0,.176.129.168.688C61.473,156.523,61.328,156.785,61.168,156.484Zm.516-.328a1.309,1.309,0,0,1,.012-.613c.117-.309.367-.145.332.219C62,156.063,61.809,156.281,61.684,156.156Zm13.832,45.027c.281-.027.777-.082,1.105-.121s.68-.07.781-.07a1.683,1.683,0,0,0,.43-.074,5.577,5.577,0,0,1,.7-.125c.254-.027.9-.129,1.434-.223s1.109-.187,1.273-.211a3.069,3.069,0,0,0,.426-.094c.07-.027.3-.09.508-.145a12.382,12.382,0,0,0,3.121-1.371c.148-.1.367-.227.488-.289.785-.391,1.395-1.516,1.109-2.055-.516-.984-3.762-2.348-6.34-2.66-.215-.023-.676-.082-1.027-.129a4.821,4.821,0,0,0-.777-.055,3.092,3.092,0,0,1-.6-.02c-.848-.082-3.719-.285-4.016-.285-.484,0-.437-.4-.441,3.879,0,2.73-.02,3.82-.062,3.922a.933.933,0,0,0-.055.156A14.187,14.187,0,0,0,75.516,201.184Zm3.629-1.367c-.074-.219-.074-5.387,0-5.461.094-.1.137-.1.219,0s.074,4.973,0,5.32c-.039.172-.184.262-.227.137Zm1.316-.012a27.749,27.749,0,0,1,.164-5.355h.121l.012,2.645a23.692,23.692,0,0,1-.043,2.715C80.645,199.895,80.5,199.891,80.461,199.8Zm1.359.027c-.055-.086-.086-4.895-.035-5.031s.211-.184.277-.078c.039.063.027,4.977-.012,5.078A.149.149,0,0,1,81.82,199.832Zm.711-.113a36.711,36.711,0,0,1,.031-5c.258-.141.258-.137.238,2.484C82.781,199.8,82.766,199.953,82.531,199.719Zm.547-.246a41.08,41.08,0,0,1,.086-4.48c.2-.125.207-.035.215,2.148.008,2.156-.008,2.395-.184,2.395A.135.135,0,0,1,83.078,199.473Zm.617-.363a29.312,29.312,0,0,1,.059-3.941c.234-.234.367,3.668.133,3.945C83.8,199.215,83.75,199.215,83.7,199.109Zm.543-.1a20.809,20.809,0,0,1,.043-3.625c.215-.137.227-.039.23,1.734C84.516,198.941,84.48,199.164,84.238,199.008Zm.676-.5a11.97,11.97,0,0,1,.035-2.82c.219-.27.246-.109.246,1.352,0,1.48-.043,1.707-.281,1.465Zm.633-.52a4.144,4.144,0,0,1,.086-2.074c.164,0,.191.188.164,1.117S85.738,198.1,85.547,197.984Zm-40.824-8.176c0-.129-.379-.238-1.219-.344a5.028,5.028,0,0,1-.605-.117c-.16-.039-.512-.121-.781-.176a11.966,11.966,0,0,1-1.27-.293,11.029,11.029,0,0,0-1.176-.207c-.488-.059.961.418,2.047.668.406.1.828.2.938.227A8.488,8.488,0,0,0,44.723,189.809Zm4.184-1.238a17.057,17.057,0,0,0,2.383.023c.469-.031,1.223-.078,1.68-.105a11.446,11.446,0,0,0,1.168-.121c.184-.035.59-.09.9-.121a5.6,5.6,0,0,0,.777-.117,2.9,2.9,0,0,1,.48-.1,4.412,4.412,0,0,0,.633-.152,5.988,5.988,0,0,1,.613-.172c.137-.027.4-.1.586-.164a9.782,9.782,0,0,0,2.141-1.023c1.285-.7,1.785-1.293,1.918-2.266.035-.234.059-4.824.066-13.277.02-14,0-13.266.27-13.879.191-.437.156-.453-.34-.164-.2.113-.445.25-.551.3-.5.254-.562.59-.562,3.277V162.7l.34.227c.383.254.535.422.535.59,0,.2-.168.141-.488-.152-.371-.34-.387-.328-.387.344,0,.641.008.652.316.457.266-.172.43-.172.453,0,.02.141-.059.23-.426.473a1.055,1.055,0,0,0-.316.266c-.016.039-.035,4.121-.051,9.066l-.027,9,.3.277c.207.191.289.3.27.355-.043.113-.094.1-.277-.094-.289-.3-.289-.3-.289.988,0,1.215-.027,1.379-.211,1.309-.07-.027-.082-.187-.094-1.406L60.7,183.02l-.184-.1c-.277-.148-.277-.137-.277,1.637,0,1.668-.008,1.742-.148,1.742s-.141-.035-.117-1.82c.02-1.7,0-1.875-.152-1.875-.09,0-.1.387-.012.473.043.047.043.086,0,.168a12.064,12.064,0,0,0-.07,1.68c-.012,1.3-.027,1.582-.086,1.637a11.372,11.372,0,0,1-3.234,1.023c-.508.1-.992.2-1.074.227-.2.063-.293.059-.355-.02-.113-.137.047-.223.555-.3.266-.039.617-.1.777-.133l.293-.059.012-.469c.012-.434.008-.473-.082-.5s-.094-.031,0-.125.094-.18.1-1.375c.012-1.551.016-1.484-.086-1.6-.078-.086-.078-.1,0-.184.063-.066.078-.16.066-.352l-.012-.258-.355-.07c-.375-.07-.453-.055-.348.07.063.074,0,.164-.113.168-.168,0,.008.254.227.324s.227.172.023.16c-.09,0-.191-.008-.219,0s-.062.273-.074.879c-.02.922-.062,1.109-.215.906-.055-.074-.07-.289-.07-.965v-.867L55.359,183a16.309,16.309,0,0,0-4.7-.176c-1.031.137-1.1.141-1.141.078-.078-.121.105-.2.68-.27a22.955,22.955,0,0,1,2.465-.148c.035.016.414.047.844.074s.953.082,1.168.121c.613.113.8.1.8-.047a.121.121,0,0,0-.109-.141l-.523-.1a16.871,16.871,0,0,0-4.02-.172c-1.492.086-1.453.086-1.453-.023,0-.2,3.246-.27,4.762-.105a6.124,6.124,0,0,0,.746.063,14.016,14.016,0,0,0-2.652-.348c-.3.055-.477-.1-.254-.215a9.38,9.38,0,0,1,2.871.258c.7.148.633.254.633-1V179.77l-.23.039c-.73.117-.762-.047-.047-.246l.285-.074,0-.91a15.882,15.882,0,0,0-.059-2.508,5.66,5.66,0,0,0-1.152-.129c-.3-.008-.293-.293.012-.293.227,0,.219.125.219-2.422,0-2.625.012-2.516-.266-2.469-.109.02-.41.059-.664.09a2.917,2.917,0,0,0-.516.094,15.888,15.888,0,0,0-.031,2.25l.023,2.211-.172.16a1.7,1.7,0,0,1-1.387.523c-.609,0-1.129-.3-1.129-.645,0-.18.145-.18.406.012a1.513,1.513,0,0,0,1.715-.02l.152-.152.031-.82c.141-3.629.164-3.559-1.023-3.484-1.082.07-1,.012-.977.637l.012.508.16.016c.086.008.156.043.156.074s-.07.082-.156.105l-.16.047-.023,1.266c-.027,1.355-.062,1.586-.234,1.414-.07-.07-.078-.223-.066-1.34.02-1.488.063-1.387-.582-1.312a7.427,7.427,0,0,1-2.508-.086c-.043-.113-.02-.117,1.5-.133,1.727-.023,1.6.027,1.6-.609,0-.477-.031-.535-.3-.535-.238,0-.332-.043-.332-.148s.094-.145.367-.145c.137,0,.219-.023.223-.062a8.727,8.727,0,0,0-.062-1.312.19.19,0,0,1,0-.172,9.881,9.881,0,0,0,0-2.2,3.672,3.672,0,0,0-.727-.043,9.716,9.716,0,0,1-1.145-.07c-.266-.039-.723-.082-1.02-.1a9.845,9.845,0,0,1-1.117-.145c-.32-.062-.848-.164-1.168-.223s-.707-.145-.859-.191c-.391-.125-.379-.152-.363,1.121l.012,1.094.164.082a2,2,0,0,0,.438.137,7.482,7.482,0,0,1,1.285.34c.207.207-.637.125-1.609-.156-.27-.078-.254-.117-.262.684-.008.82-.062.742.66,1.023.789.3.852.336.852.418,0,.148-.445.043-1.234-.289-.344-.148-.328-.223-.3,1.664.016.93.027,1.7.027,1.7a12.531,12.531,0,0,0,2,.27c.383.016.559.141.266.2a10.445,10.445,0,0,1-1.789-.137,1.974,1.974,0,0,0-.473-.047,51.139,51.139,0,0,0,.051,5.73c.121.156.121.215,0,.277a5.207,5.207,0,0,0-.051,1.824,2.391,2.391,0,0,0,.563-.074c.348-.07.535-.086.566-.055.074.074.008.141-.168.168-.789.121-1.008.219-1.008.453s.008.23.781.066c1.332-.281,1.961-.363,1.969-.266,0,.027-.09.074-.207.1-.336.086-.3.117.125.117.684,0,.574.07-.48.293-.387.082-.836.184-1,.227s-.441.117-.625.164c-.437.113-.566.2-.566.387s.176.2.684.023a10.9,10.9,0,0,1,1.383-.363c.133-.023.461-.086.73-.145a3.331,3.331,0,0,1,1.313-.105,1.683,1.683,0,0,1-.473.125c-.227.043-.555.109-.727.148a2.866,2.866,0,0,1-.488.074,1.119,1.119,0,0,0-.344.066c-.086.035-.488.172-.887.3a9.666,9.666,0,0,0-.965.352l-.234.117.012,1.418c.012,1.453-.008,1.641-.176,1.641-.137,0-.156-.187-.16-1.5a5.849,5.849,0,0,0-.062-1.4c-.051-.059-.047-.121.023-.316.156-.434.008-.6-.348-.387l-.16.1v1.563c0,1.6-.016,1.746-.187,1.746-.145,0-.152-.07-.152-1.6,0-1.707,0-1.719-.414-1.18l-.176.23.012,1c.016,1.023,0,1.16-.176,1.16-.129,0-.16-.43-.168-2.324,0-.547-.008-.594-.09-.594-.223,0-.242.1-.242,1.273,0,1.129-.02,1.3-.125,1.3-.16,0-.176-.117-.176-1.129v-1.012h-.125c-.187,0-.2-.125-.027-.32s.219-.508.066-.508a2.823,2.823,0,0,0-.754.668c-.148.176-.25.2-.32.074-.094-.168.289-.578.926-.988a.672.672,0,0,0,.207-.184c.059-.145.031-16.52-.023-16.68a.293.293,0,0,1,0-.25,1.841,1.841,0,0,0,.055-.539v-.441l-.2-.145c-.359-.262-.332-.465-.332,2.734,0,8.535-.02,9.539-.176,9.563s-.164-.012-.164-3.355c0-4.937-.031-9.289-.07-9.508-.023-.133-.02-.215.016-.234a2.571,2.571,0,0,0,0-1.051.272.272,0,0,0-.125.074c-.125.125-.258.094-.258-.062,0-.1.063-.2.219-.352l.219-.215-.008-2.035c-.012-2.2,0-2.3.238-2.145.078.047.086.215.1,2.027l.012,1.98h.109a.768.768,0,0,0,.273-.1l.164-.1-.035-1.715c-.039-1.773-.031-1.883.16-1.879.172,0,.18.059.191,1.785.016,1.652.02,1.7.121,1.8l.1.113-.105.109c-.219.238-.086.488.164.3.09-.066.094-.133.082-1.926-.016-1.93-.012-1.992.188-1.992.133,0,.141.063.16,1.574.023,1.539.023,1.531.313,1.414.27-.105.27-.094.227-1.633-.035-1.426-.027-1.5.176-1.5.172,0,.191.148.184,1.5-.008,1.438-.008,1.441.262,1.348s.258-.055.238-1.125c-.016-1.039.008-1.191.191-1.191.156,0,.176.156.168,1.18-.008,1.066,0,1.117.262,1.008.2-.082.211-.129.172-.961-.035-.785-.016-.887.18-.887.148,0,.188.2.172.9-.02.844-.016.852.426.746a1.3,1.3,0,0,1,.41-.055,3.674,3.674,0,0,0,.57-.031,29.437,29.437,0,0,1,3.168-.2c1.133,0,1.039.047,1.027-.547-.008-.371.043-.523.18-.523.156,0,.168.133.172,1.961l.008,1.836.125.082a4.33,4.33,0,0,0,1.773.035c.5-.09.809.02.527.191a.567.567,0,0,0-.016.574c.094.094.133.094.7.055l.6-.043.039-.535c.066-.98.066-.98-.625-1.039-.469-.039-.555-.066-.555-.18s.23-.137.691-.074c.5.066.523.059.523-.191,0-.223-.086-.289-.4-.293-.8-.02-.949-.266-.16-.266h.535l.012-.32c.023-.477-.016-.492-1.082-.543l-.293-.012-.023,1.188c-.027,1.223-.062,1.422-.242,1.242-.059-.059-.1-3.7-.043-3.855.152-.41.348.02.3.68-.039.559-.1.512.711.535l.656.016.023-.473c.027-.52.109-.7.281-.59.074.047.086.18.109,1.168l.023,1.113.262.063c.379.094.395.078.395-.375,0-.422-.043-.492-.309-.492a.281.281,0,0,1-.184-.078c-.09-.109.074-.23.258-.2.281.055.3-.039.211-1.309a1.48,1.48,0,0,1,.078-.578c.129-.379.1-.437-.18-.406s-.4.141-.492.488c-.152.543-.4.34-.285-.227l.039-.191-.383.031c-.211.016-.617.051-.9.078-.676.063-4.906.066-5.637.008-.3-.023-.9-.07-1.312-.1s-1-.1-1.312-.148-.777-.133-1.047-.172a28.34,28.34,0,0,1-4.031-.977c-.637-.25-.687-.258-.641-.113.109.363.133,2.02.152,11.7.012,5.727.027,11.648.035,13.16l.016,2.746.168.426c.172.445.7,1.109.887,1.109a.47.47,0,0,1,.211.109,8.068,8.068,0,0,0,2.223.957,1.677,1.677,0,0,1,.406.113,9.507,9.507,0,0,0,1.938.465c.215.031.762.109,1.215.18a11.534,11.534,0,0,0,1.922.211A1.224,1.224,0,0,1,48.906,188.57Zm-.293-.371a12.579,12.579,0,0,1-1.777-.2c-.133-.027-.453-.082-.715-.125-.672-.105-.895-.211-.828-.4.023-.074.18-.078.309-.008a20.781,20.781,0,0,0,5.613.559c1.039.016,1.9.031,1.914.043A25.546,25.546,0,0,1,48.613,188.2Zm-.566-1.238c-.621-.066-.7-.09-.7-.2s.105-.117.516-.07c.211.023.551.055.754.07.406.031.539.082.453.172S48.684,187.027,48.047,186.961Zm-.34-1.562c-.082-.215,1.5-.934,1.8-.816.184.07-.012.219-.4.309a4.635,4.635,0,0,0-.777.32C47.75,185.5,47.746,185.5,47.707,185.4Zm2.188-.141c-.484-.066-.551-.094-.551-.207,0-.07.059-.074.5-.035.277.023,1.172.043,1.992.043,1.434,0,1.625.02,1.52.125A16.3,16.3,0,0,1,49.895,185.258Zm-3.5-.2c-.062-.164.6-.465,1.457-.656.941-.215.8.012-.184.3a6.162,6.162,0,0,0-.883.316C46.543,185.152,46.434,185.164,46.391,185.055Zm-1.7-.262c-.137-.227,1.766-.926,2.516-.926.3,0,.125.164-.254.242a11.409,11.409,0,0,0-1.766.586C44.887,184.848,44.75,184.875,44.7,184.793Zm6.211-1.328c-.176-.215,2.5-.3,3.023-.105.32.125-.086.168-1.059.121-.242-.016-.77-.008-1.172.016C51.066,183.531,50.961,183.527,50.906,183.465Zm-2.242-1.836a8.024,8.024,0,0,1-.977-.168c-.3-.07-.707-.16-.891-.2a19.807,19.807,0,0,1-2.039-.566c-.129-.051-.184-.2-.086-.258a5.606,5.606,0,0,1,.863.215c.762.223,2.039.539,2.883.715.656.137,1.141.332.746.3Zm.145-.965a.175.175,0,0,1,.074-.1c.16-.137.074-.18-.453-.242-.828-.09-.848-.094-.828-.187s.2-.1,1.133-.039l.586.039.2-.164a13.591,13.591,0,0,0,1.27-1.355l.254-.309-.121-.129c-.176-.184-.141-.191.8-.191a29.642,29.642,0,0,0,3.02-.156,2.167,2.167,0,0,1,.465-.031l.145.02-.187.082a1.068,1.068,0,0,1-.359.086,2.562,2.562,0,0,0-.445.066,16.968,16.968,0,0,1-2.437.188c-.633,0-.7.023-.8.246a11.042,11.042,0,0,1-1.238,1.41c-.27.234.059.344.988.332,2.113-.023,2.051,0,1.922-.734-.105-.57-.1-.684.02-.684.094,0,.125.109.125.4a2.215,2.215,0,0,0,.207.855c.035.043.2.051.625.027.5-.027.582-.02.582.047,0,.105-.105.133-.527.137-.5.008-.613.043-.633.191-.027.2-.09.207-.2.02l-.105-.176-.473.031c-.258.02-1.047.039-1.75.047l-1.277.012-.215.152C48.969,180.7,48.809,180.75,48.809,180.664Zm-2.141-2.535c-.121-.02-.395-.082-.609-.137l-1-.254c-.676-.168-1.039-.32-1.062-.449s.176-.105.934.129c.379.117.742.227.809.242a3.784,3.784,0,0,1,1.418.445C47.184,178.164,46.953,178.176,46.668,178.129Zm2.254-.07c-.039-.109,0-.137.422-.32a3.579,3.579,0,0,0,1.418-1.023c.211-.293.48-.324.328-.039a3.368,3.368,0,0,1-1.66,1.277c-.168.063-.344.129-.391.148A.075.075,0,0,1,48.922,178.059Zm-1.84-1.711c-1.676-.383-1.824-.43-1.824-.559s.117-.121,1,.105c.426.109.863.215.969.234.246.047.523.188.484.25S47.438,176.43,47.082,176.348Zm1.871-2.145c-1.887-.2-4.184-.848-4.184-1.187,0-.168.133-.152.605.074a5.029,5.029,0,0,0,.5.223,3.237,3.237,0,0,1,.352.1,16.732,16.732,0,0,0,2.309.5c.645.074,1.238.363.633.309C49.145,174.223,49.047,174.215,48.953,174.2Zm.246-4.777c0-.164.133-.246.387-.246.492,0,.516.1.055.238C49.23,169.543,49.2,169.543,49.2,169.426Zm-1.3-.086c-.1-.043-.066-.16.063-.191.215-.055.875.043.875.125A2,2,0,0,1,47.895,169.34Zm-8.719,19.211a1.173,1.173,0,0,0-.484-.3,5.512,5.512,0,0,1-.707-.246c-.73-.285-.883-.332-.828-.238A5.842,5.842,0,0,0,39.176,188.551Zm-17.52-.242a3.661,3.661,0,0,0,.105-.57c.09-.7.238-.961.621-1.055.262-.066.242-.145-.062-.223a1.556,1.556,0,0,1-.41-.18c-.285-.2-.312-.176-.281.227a6.049,6.049,0,0,1-.016.789C21.512,188.418,21.52,188.574,21.656,188.309Zm41.316-.133c.117-.066.391-.207.613-.312a4.137,4.137,0,0,0,1.648-1.324c.141-.238.277-1.016.176-1.012-.062,0-.207.293-.207.422a5.055,5.055,0,0,1-1.691,1.563,3.241,3.241,0,0,0-.473.328,3.209,3.209,0,0,1-.352.258c-.133.07-.145.2-.02.2A1,1,0,0,0,62.973,188.176Zm-37.633-.887a20.37,20.37,0,0,1,.027-2.73c.133-.437.148-.5.133-.512a4.653,4.653,0,0,0-.734-.223c-.129,0-.1.109.066.254.109.1.145.164.125.242-.016.063-.043.762-.062,1.559l-.035,1.445.156.031a.374.374,0,0,1,.18.074C25.273,187.559,25.371,187.465,25.34,187.289Zm-6.141-.535a4.183,4.183,0,0,1,.6-2.184c.164-.219.051-.266-.156-.066a3.905,3.905,0,0,0-.633,2.551c.016.043.035.109.051.152C19.117,187.379,19.172,187.2,19.2,186.754Zm38.16.352.109-.078v-4.316l-.109-.078a.52.52,0,0,0-.246-.074H56.98l0,2.309,0,2.313h.133A.517.517,0,0,0,57.359,187.105Zm.73-.2.105-.078v-2.008c0-2.168,0-2.148-.25-2.113-.133.02-.168.563-.18,2.848C57.758,187.074,57.77,187.133,58.09,186.91Zm-22.8-.1c.25-.3.063-.32-3.457-.332l-2.648-.008-.016.109c-.027.2.07.2,2.621.207,1.348,0,2.594.023,2.77.043C35.063,186.9,35.219,186.895,35.285,186.813Zm23.4-.9c.086-2.324.043-3.227-.148-2.922-.039.07-.062,3.539-.023,3.668C58.6,186.922,58.66,186.672,58.688,185.91Zm.707.531c.242-.391.023-3.426-.242-3.387a18.427,18.427,0,0,0-.113,3.477C59.082,186.594,59.34,186.527,59.395,186.441Zm-17-2.535c.27-.207.3-.4.059-.395-.258.012-.406.148-.406.367C42.047,184.113,42.113,184.121,42.395,183.906Zm-.738-.375c.148-.148.117-.391-.051-.391a.274.274,0,0,0-.242.289C41.363,183.652,41.488,183.7,41.656,183.531Zm-15.523-.238c.1-.1.1.785.047-29.1-.012-6.477,0-8.27.047-8.324a.5.5,0,0,1,.242-.105c.449-.074.383-.223-.1-.223a3.435,3.435,0,0,1-.652-.074c-.453-.105-.6-.012-.281.176l.168.1,0,2.977c.039,33.414.047,34.543.129,34.605A.309.309,0,0,0,26.133,183.293Zm16.406-.086c.094-.082.125-.379.047-.426-.16-.1-.539.176-.539.387C42.047,183.4,42.3,183.418,42.539,183.207Zm2.352-.242c.281-.07.492-.16.391-.16a6.483,6.483,0,0,0-1.367.3c-.1.1.063.117.359.031C44.453,183.086,44.73,183.008,44.891,182.965Zm-1.473.023c.238-.125.16-.5-.1-.457-.293.059-.352.105-.352.313C42.969,183.105,43.109,183.152,43.418,182.988Zm16.02-.145a.869.869,0,0,0-.078-.512c-.027-.031-.02-.1.023-.184a12.59,12.59,0,0,0,.07-2.254c0-1.172.02-2.359.035-2.641.039-.816-.027-1.43-.156-1.449-.18-.023-.27.121-.25.4.012.133,0,.781-.016,1.438a21.864,21.864,0,0,0,.039,4.434l.109.109-.121.109a.375.375,0,0,0,.207.648A.142.142,0,0,0,59.438,182.844Zm-17.812-.008c.145-.105.2-9.125.051-9.281-.066-.074-.254-.133-.266-.082,0,.008-.016,2.086-.031,4.617C41.352,183.105,41.348,183.039,41.625,182.836Zm19.109-3.273c.02-1.738.027-3.379.016-3.645s-.023-.531-.023-.582.008-.992.02-2.082c.027-2.184.035-2.125-.262-1.953-.18.109-.187.133-.2.652-.012.5-.012,3.039,0,3.3,0,.035.07.059.172.059s.172.02.172.043-.078.09-.172.145-.168.141-.172.188c-.023,1.348-.043,6.68-.023,6.754.027.113.3.324.391.3C60.684,182.727,60.715,181.594,60.734,179.563Zm-18.219,2.969.113-.074.008-1.3c0-.719,0-1.32,0-1.344-.008-.047,0-3.172.016-4.727a9.671,9.671,0,0,0-.027-1.1c-.043-.094-.426-.215-.484-.152s-.117,8.688-.066,8.77C42.113,182.676,42.359,182.633,42.516,182.531Zm15.672-.164c.02-.3-.02-.414-.172-.484-.172-.078-.258.023-.258.309C57.758,182.633,58.156,182.8,58.188,182.367Zm-14.812-.059a.423.423,0,0,0,.137-.105c.063-.094.047-7.957-.016-7.992-.512-.316-.52-.277-.5,2.484.012,1.34.02,2.488.02,2.555s-.016.793-.027,1.617l-.023,1.5h.152A.659.659,0,0,0,43.375,182.309Zm14.1-.875c.02-1.359,0-1.57-.164-1.59-.332-.039-.332-.035-.332,1.273s-.016,1.246.273,1.246h.207Zm2.477.895c.02-.109.051-4.156.047-5.793,0-.664-.016-.8-.078-.82-.148-.055-.141-.273-.164,4.617-.008,1.063,0,1.957.02,1.984C59.813,182.371,59.945,182.379,59.953,182.328Zm-3.344-.148c.012-.023.023-.531.023-1.133s0-1.207,0-1.348c.008-.3-.012-.309-.473-.152-.371.125-.461.215-.324.328.094.078.094.086.012.164s-.086.191-.086,1.035v.945l.2.051c.117.027.273.07.355.094C56.52,182.223,56.582,182.227,56.609,182.18Zm2.121-1.816c0-1.477-.02-1.645-.184-1.48a22.931,22.931,0,0,0,0,2.977C58.707,182.059,58.73,181.863,58.73,180.363Zm-.559,1.367a22.035,22.035,0,0,0-.023-2.691c-.031-.035-.094-.035-.184,0l-.133.047-.027.754c-.047,1.457-.035,1.8.074,1.875S58.129,181.8,58.172,181.73Zm-.707-2.16c.1-.27-.055-.391-.359-.273a.257.257,0,0,0-.094.359A.374.374,0,0,0,57.465,179.57Zm-1.164-.262.313-.086.031-.629c.113-2.273.082-2.484-.371-2.527s-.488,0-.441.422c.016.168.008.871-.02,1.559C55.75,179.57,55.711,179.465,56.3,179.309Zm1.109-.32a12.876,12.876,0,0,0,.051-2.883.356.356,0,0,0-.383-.02,14,14,0,0,0-.043,2.973A.615.615,0,0,0,57.41,178.988Zm.7-.219.113-.094v-1.3c0-1.43,0-1.445-.277-1.34l-.133.051v1.355c0,.746.012,1.371.031,1.387C57.895,178.883,57.988,178.863,58.105,178.77Zm.625-.27a6.423,6.423,0,0,0-.086-2.547,14.013,14.013,0,0,0-.113,2.578C58.555,178.656,58.68,178.637,58.73,178.5Zm-1.293-2.719c.152-.113.09-.539-.082-.559-.293-.035-.566.488-.316.59A.5.5,0,0,0,57.438,175.781Zm-.773-.156c0-.141-.008-.145-.219-.145-.285,0-.332-.133-.078-.219.27-.09.27-.094.3-1.359.031-1.3.02-1.367-.219-1.246a1.468,1.468,0,0,1-.312.1c-.309.059-.3.02-.316,1.547-.016,1.633-.055,1.5.445,1.48l.4-.012Zm1.484.125c.129-.086.1-.754-.035-.773-.254-.035-.469.59-.273.789A.348.348,0,0,0,58.148,175.75Zm-2.687-1.4.012-1.375-.145-.031c-.187-.035-.187-.09,0-.187l.148-.074v-1.016a3.172,3.172,0,0,0-.062-1.066,1.053,1.053,0,0,0-.613.113c-.059.035-.074,4.828-.016,4.922.039.066.246.105.5.1l.172-.008Zm3.293.891c0-.684-.187-.672-.207.016-.016.445-.012.453.1.438S58.754,175.656,58.754,175.238Zm.648.3a1.256,1.256,0,0,0,.059-.535v-.477h-.137c-.215,0-.254.078-.254.516C59.07,175.586,59.188,175.758,59.4,175.543ZM60,174.82c0-.543-.047-.684-.176-.508a2.359,2.359,0,0,0-.012,1.082C59.941,175.527,60,175.363,60,174.82Zm-2.621.105c.109-.086.109-.109.129-1.18.02-1.4.008-1.434-.379-1.23l-.145.074v2.43h.141A.47.47,0,0,0,57.375,174.926Zm.809-.281A6.386,6.386,0,0,0,58.1,172.2c-.293,0-.3.055-.3,1.48l.008,1.109.156-.031A.427.427,0,0,0,58.184,174.645Zm.586-1.391c.012-1.156.008-1.2-.082-1.2-.141,0-.152.074-.152,1.3v1.141l.219-.031Zm.582.957a8.111,8.111,0,0,0,.063-2.379c-.051-.031-.25.059-.3.133-.02.031-.016,2.2,0,2.313C59.125,174.313,59.262,174.277,59.352,174.211Zm-15.793-.426a19.217,19.217,0,0,0-.117-3.391c-.121-.113-.375-.172-.422-.1-.016.027-.027.824-.02,1.766l.012,1.715.16.086C43.391,173.98,43.516,173.953,43.559,173.785Zm16.379.105a10.907,10.907,0,0,0,0-2.258c-.137-.086-.164.094-.172,1.137C59.758,174,59.766,174.063,59.938,173.891Zm-17.281-.285a7.062,7.062,0,0,0,.02-.84c0-.434-.016-1.2-.02-1.711s-.016-.953-.02-.984c-.008-.07-.352-.258-.469-.258a28.193,28.193,0,0,0-.027,3.645C42.23,173.594,42.6,173.7,42.656,173.605Zm-.891-3.551c-.008-1.75-.012-3.223-.012-3.27,0-.105-.223-.223-.293-.152-.027.027-.047,1.254-.051,3.223,0,3.453,0,3.441.258,3.4l.105-.016Zm14.57,2.449c.336-.039.352-.09.344-1.168,0-1.109-.133-1.258-.758-.859-.23.145-.156,2.145.078,2.086A2.553,2.553,0,0,1,56.336,172.5Zm1.117-.387a10.607,10.607,0,0,0,.031-2.031c-.035-.1-.176-.1-.359,0l-.145.074v2.1l.2-.027A.482.482,0,0,0,57.453,172.117Zm.711-.176c.074-.055.082-.223.07-2.008l-.016-1.945-.137-.016c-.281-.031-.273-.078-.273,2.066V172h.137A.464.464,0,0,0,58.164,171.941Zm.594-.184a15.788,15.788,0,0,0-.156-3.887,36.11,36.11,0,0,0-.031,3.9A.131.131,0,0,0,58.758,171.758Zm.629-.223c.066-.066.074-.3.063-1.957l-.012-1.883-.133-.016c-.223-.023-.23.047-.227,1.969C59.082,171.75,59.094,171.828,59.387,171.535Zm.551-.273a29.419,29.419,0,0,0,.008-3.711c-.176-.109-.191.035-.187,1.863C59.762,171.387,59.766,171.434,59.938,171.262ZM60.5,171c.242-.1.371-2.312.227-3.883,0-.02-.1.031-.223.113l-.219.152v1.844c0,1.016.008,1.848.016,1.848A2.031,2.031,0,0,0,60.5,171Zm-7.867-.375a7.979,7.979,0,0,0,.051-1.855l-.012-1.8-.973.016c-.535.008-.992.027-1.012.039s-.035.84-.035,1.836.016,1.828.035,1.852A10.875,10.875,0,0,0,52.637,170.629Zm1.254-.039c.242-.031.473-.059.512-.066.063,0,.074-.16.078-1.027l0-1.02-.141-.121c-.168-.148-.168-.168-.008-.238l.125-.059-.02-.59c-.027-.73-.023-.727-.582-.641-.223.031-.488.063-.586.063-.254,0-.246-.059-.242,1.91.008,2,0,1.895.242,1.867Zm1.5-.25c.078-.043.086-.129.074-1.027l-.012-.984-.27-.012c-.391-.02-.375-.059-.395,1.035C54.766,170.508,54.844,170.633,55.387,170.34Zm.922-.187c.383-.1.387-.1.348-1.094l-.031-.863-.367.027c-.461.035-.445-.008-.445,1.031,0,.9.023,1.023.191.977.043-.016.18-.051.3-.082Zm-12.754-.73a3.377,3.377,0,0,0-.051-.73c-.047-.086-.41-.234-.461-.187a12.5,12.5,0,0,0-.016,1.379C43.434,170.234,43.555,170.129,43.555,169.422Zm13.781.434c.348-.184.258-1.836-.094-1.777-.211.035-.328.156-.289.3a7.3,7.3,0,0,1,.027.813v.719h.125A.587.587,0,0,0,57.336,169.855Zm-14.66-.832c0-.746-.012-.8-.254-.918-.3-.152-.328-.117-.328.406,0,.77.035.938.215,1.023C42.66,169.711,42.68,169.691,42.676,169.023Zm.867-1.191c.016-.523-.023-.629-.258-.676-.281-.051-.324.023-.289.512C43.055,168.473,43.52,168.609,43.543,167.832Zm11.918-.469.016-.676-.27.023c-.406.031-.418.051-.418.75v.605l.332-.016.328-.012Zm1.1.574a3.791,3.791,0,0,0,.074-1.461,1.454,1.454,0,0,0-.77.148,5.446,5.446,0,0,0-.016,1.359A2.108,2.108,0,0,0,56.559,167.938Zm-13.891-.449c.02-.465-.2-.742-.5-.625-.219.086-.074.875.172.945C42.633,167.895,42.652,167.879,42.668,167.488Zm14.789.32a2.547,2.547,0,0,0,.059-.832V166.2l-.2.035c-.332.051-.332.051-.332.883v.75h.207A.507.507,0,0,0,57.457,167.809Zm.688-.125c.1-.082.1-.117.09-.863l-.016-.777-.125-.016c-.2-.023-.223.066-.25.867C57.813,167.828,57.852,167.926,58.145,167.684Zm.637-.961c.008-.965.012-.9-.074-.9a3.138,3.138,0,0,0-.109,1.766C58.746,167.645,58.773,167.5,58.781,166.723Zm.629.684a6.342,6.342,0,0,0,.02-1.781c-.062-.055-.25.02-.32.121a10.735,10.735,0,0,0,0,1.7A.263.263,0,0,0,59.41,167.406Zm.559-.215a13.613,13.613,0,0,0,.012-1.738c-.1-.105-.18.043-.18.355,0,.184-.012.516-.023.746C59.75,167.125,59.832,167.41,59.969,167.191ZM43.5,167c.2-.367.027-1.02-.266-1.039l-.2-.012-.027.363C42.973,166.895,43.309,167.359,43.5,167Zm17.25-.07a10.858,10.858,0,0,0-.055-1.867.452.452,0,0,0-.219.1l-.168.113-.012.883-.016.883.223,0C60.688,167.027,60.73,167.008,60.754,166.926ZM42.668,166.3c.016-.441-.027-.543-.258-.621-.293-.094-.32-.055-.3.426l.012.426.172.086C42.6,166.773,42.652,166.73,42.668,166.3Zm7.77.34c.52.031,1.914.016,2.359-.027.309-.031.766-.062,1.016-.078.555-.027.523,0,.555-.527.031-.512.094-.473-.668-.434l-.629.035-.051.266c-.07.359-.316.414-.32.07a1.023,1.023,0,0,0-.1-.309l-.1-.207.1-.094c.219-.207.1-.48-.2-.48-.27,0-.234-.152.051-.207.242-.051.34-.184.262-.355-.066-.145-.3-.191-.59-.125a.683.683,0,0,1-.258.023,5.653,5.653,0,0,0-1.145-.07c-.051.027-.07.266-.078,1.066-.008.9-.02,1.039-.094,1.113-.215.219-.227.117-.258-2.543-.035-2.926.152-2.555-1.258-2.5a16.937,16.937,0,0,0-2.395.211,2.685,2.685,0,0,1-.539.047,1.974,1.974,0,0,0-.508.051,4.591,4.591,0,0,1-.555.078c-.2,0-.238.055-.109.152l.109.082-.191.09c-.516.242-.27.762.273.582.484-.16.727-.18.727-.062,0,.086-.176.16-.543.227-.391.074-.621.184-.648.313a24.066,24.066,0,0,0,0,2.965,3.035,3.035,0,0,0,1.059.176,2.844,2.844,0,0,1,.594.094,7.725,7.725,0,0,0,.969.152c.969.09,1.355.133,1.461.164A5.237,5.237,0,0,0,50,166.66C50.188,166.645,50.383,166.637,50.438,166.637Zm-1.047-.621c-1.227-.16-1.91-.312-1.934-.441s.113-.137.848.008a8.808,8.808,0,0,0,1.438.242c.3,0,.477.086.359.172S49.875,166.074,49.391,166.016Zm-.344-.93c-1.043-.1-1.941-.6-1.746-.965.074-.141.234-.125.27.023.07.281.48.461,1.652.73.547.129.77.211.605.227A4.48,4.48,0,0,1,49.047,165.086Zm.168-.766c-.34-.16-.5-.348-.406-.469.086-.1.172-.09.3.047a1.59,1.59,0,0,0,.441.25c.242.094.328.152.328.223C49.879,164.508,49.574,164.484,49.215,164.32Zm-4.3.023c-.336-.4,1.32-1.41,2.5-1.52.457-.043.52.18.066.242a3.632,3.632,0,0,0-2.309,1.148C45.066,164.41,45,164.441,44.918,164.344Zm3.57-1.687c-.105-.168,1.355-.512,1.559-.367.156.117.02.211-.352.25a4.382,4.382,0,0,0-.6.1C48.766,162.723,48.535,162.73,48.488,162.656Zm6.934,3.629a1.635,1.635,0,0,0,.059-.82c-.023-.1-.437-.09-.566.016a2.027,2.027,0,0,0-.09.859C54.863,166.441,55.3,166.4,55.422,166.285Zm-13.656-.328c.027-.426,0-.535-.164-.625-.184-.1-.234.023-.2.484C41.449,166.508,41.727,166.617,41.766,165.957Zm14.777.188a1.535,1.535,0,0,0,.105-1.039c-.043-.066-.586.043-.719.145a2.547,2.547,0,0,0-.086.934C55.875,166.273,56.32,166.246,56.543,166.145Zm.738-.184c.3-.09.387-1.25.086-1.219s-.363.148-.375.668C56.973,166.063,56.969,166.055,57.281,165.961Zm-12.941-.1c.008-.031,0-.672-.008-1.422-.027-1.512-.047-1.578-.344-1.262l-.117.125v2.5l.121.063C44.148,165.938,44.316,165.938,44.34,165.859Zm13.91-.273c.027-.715-.023-3.691-.066-3.742a.271.271,0,0,0-.2-.047l-.148.012.016,1.922c.012,1.125.039,1.945.066,1.98C57.977,165.789,58.242,165.691,58.25,165.586Zm-14.711-.941c.008-1.047-.012-1.141-.187-.98a2.6,2.6,0,0,0-.34,1.8c.008.086.254.211.395.2l.121-.012Zm15.23-.871c.012-1.734,0-1.879-.184-1.77a13.983,13.983,0,0,0,.09,3.469C58.746,165.461,58.758,165.281,58.77,163.773ZM42.645,165.3c.016-.047.027-.648.031-1.34,0-1.383.008-1.375-.293-1.25s-.289.1-.289,1.309.008,1.238.27,1.313C42.578,165.4,42.621,165.395,42.645,165.3Zm11.719-.031a.574.574,0,0,0-.023-.457,1.218,1.218,0,0,0-.547-.008c-.266.023-.543.043-.617.043-.227,0-.25.457-.023.508A4.511,4.511,0,0,0,54.363,165.27Zm5.078-.039c.02-.031.035-1.887.02-2.891,0-.109-.207-.219-.328-.176a15.406,15.406,0,0,0,.02,3.117A.256.256,0,0,0,59.441,165.23Zm-4.086-.109c.133-.09.176-.59.055-.637a.562.562,0,0,0-.582.367C54.766,165.234,55,165.352,55.355,165.121Zm-13.6-.137c.066-1.293-.016-2.051-.215-1.918-.3.2-.219,1.98.094,1.98C41.7,165.047,41.754,165.02,41.758,164.984Zm18.215-1.254c0-1.207,0-1.238-.1-1.238a10.584,10.584,0,0,0-.1,2.445C59.914,165.3,59.973,164.957,59.973,163.73Zm-3.7,1.137c.414-.133.387-.02.375-1.754a8.28,8.28,0,0,0-.07-1.574c-.418-.262-.777-.086-.758.375l.012.383.211.1c.266.121.258.242-.016.242h-.2l-.008,1.047C55.813,165.082,55.793,165.031,56.277,164.867Zm4.254-.2c.234-.152.242-.187.242-.969v-.742l-.148-.125c-.324-.273-.336-.246-.336.863C60.289,164.824,60.289,164.836,60.531,164.672ZM41.074,164.1c0-.629-.023-.7-.176-.586a.473.473,0,0,1-.227.074c-.148,0-.152.008-.137.512.008.27.02.3.184.449C41.039,164.836,41.074,164.793,41.074,164.1Zm16.25.352.168-.113.012-1.3.016-1.3-.121-.078a.437.437,0,0,0-.258-.062l-.137.016-.012,1.469C56.977,164.738,56.965,164.691,57.324,164.449Zm-2.094-.2.219-.109v-.387c0-.437-.074-.523-.461-.531l-.172,0-.016.461C54.777,164.414,54.813,164.457,55.23,164.254Zm-11.926-.9.211-.184.008-.391c0-.371,0-.387-.109-.4-.379-.055-.516.273-.414,1C43.027,163.578,43.047,163.578,43.3,163.355Zm-2.469-.121c.422-.355.262-.785-.187-.5-.1.063-.109.113-.109.387C40.539,163.5,40.527,163.5,40.836,163.234Zm14.648-.367c.043-.355-.125-.52-.5-.488-.32.027-.277.473.059.59S55.457,163.078,55.484,162.867ZM44.23,162.84c.281-.3.051-.848-.285-.664a1,1,0,0,0-.066.746C43.949,162.992,44.125,162.949,44.23,162.84Zm-1.727-.422c.234-.086.164-.246-.1-.23-.242.016-.348.109-.289.254C42.145,162.527,42.23,162.523,42.5,162.418Zm18.25-2.117a13.714,13.714,0,0,1,.082-2.406c.109-.375-.109-.473-.246-.113a18.455,18.455,0,0,0-.266,4.469.6.6,0,0,0,.352.207C60.742,162.441,60.75,162.164,60.754,160.3ZM60,160.227a16.3,16.3,0,0,1,.082-2.039c.105-.3-.043-.434-.2-.184a31.612,31.612,0,0,0-.074,4C59.941,162.375,59.973,162.105,60,160.227Zm-.531-.254c.012-1.051,0-1.926-.012-1.949-.078-.1-.238.023-.242.18a1.969,1.969,0,0,1-.047.363c-.027.113-.055.875-.062,1.7-.016,1.6-.016,1.621.234,1.621h.113Zm-.687.293a6.6,6.6,0,0,1,.094-1.727c.09-.359.063-.484-.078-.344-.273.273-.379,3.445-.113,3.445C58.777,161.641,58.781,161.6,58.781,160.266Zm-.539-.055a6.762,6.762,0,0,1,.07-1.555c.1-.371.1-.371-.066-.371-.328,0-.379.242-.414,1.895-.023,1.2-.02,1.234.172,1.3C58.246,161.574,58.25,161.574,58.242,160.211Zm-.773,1.063c.047-.059.055-.285.027-1.008a5.592,5.592,0,0,1,.051-1.363c.094-.484.086-.508-.164-.445-.289.07-.395.555-.4,1.832l0,.961.133.027c.074.016.156.039.184.047C57.387,161.355,57.406,161.348,57.469,161.273Zm-.824-.156c0-.047,0-.508,0-1.02a3.8,3.8,0,0,1,.074-1.187c.113-.344-.461-.477-.7-.156-.309.418-.289,2.367.023,2.414C56.41,161.223,56.641,161.2,56.645,161.117Zm36.02,65.566a4.464,4.464,0,0,1,1.582-.539c.324,0,.137.141-.371.285-.187.051-.5.141-.687.2C92.793,226.742,92.707,226.75,92.664,226.684Zm-1.2-.2c0-.062.164-.125.707-.27.242-.062.535-.148.652-.191.152-.055.227-.062.266-.023.07.066-.031.133-.262.172a2.505,2.505,0,0,0-.391.117C91.926,226.5,91.469,226.59,91.469,226.484Zm1.1-3.207c-.043-.07.176-.2.34-.2a2.6,2.6,0,0,0,.523-.121c.5-.16.883-.211.852-.117a1.755,1.755,0,0,1-.828.285,1.425,1.425,0,0,0-.426.1C92.758,223.332,92.609,223.348,92.566,223.277Zm1.871-.5a1.474,1.474,0,0,1,.461-.152c.215-.047.441-.1.5-.109.094-.023.113-.012.1.063-.016.09-.344.18-.891.246C94.391,222.844,94.371,222.84,94.438,222.773ZM47.6,220.359c-.406-.164-.043-.2,1.879-.191,1.629.012,1.98.039,1.871.148C51.289,220.375,47.734,220.418,47.6,220.359Zm-2.871-.719c-.133-.02-.145-.133-.016-.2.078-.039,4.863-.082,7.52-.062.375,0,1.2.008,1.824.012,3.07.023,3.039.02,3.039.1a14.591,14.591,0,0,1-3.281.09c-.738,0-1.395,0-1.461,0s-1.414.02-2.992.031-3.242.031-3.7.039S44.789,219.652,44.727,219.641Zm-.57-.836c-.078-.125.109-.141,1.934-.148,1.051,0,2-.016,2.1-.023a1.471,1.471,0,0,1,.426.035l.23.059-.156.051C48.48,218.852,44.2,218.875,44.156,218.8Zm6.41.02c-.105-.047-.07-.164.063-.2.293-.074,1,.039.836.133A3.179,3.179,0,0,1,50.566,218.824Zm-1.445-.062c-.016-.023,0-.062.035-.086a3.126,3.126,0,0,1,1.078.055A3.3,3.3,0,0,1,49.121,218.762Zm3.207-.008c-.062-.1.207-.156.578-.121.355.031.453.082.293.141A2.359,2.359,0,0,1,52.328,218.754Zm1.289,0c-.039-.023-.051-.062-.031-.086a3.856,3.856,0,0,1,1.039,0c.078.078-.125.125-.523.125A1.823,1.823,0,0,1,53.617,218.758Zm-11.887-.672c-.234-.016-.277-.031-.266-.1.023-.113,1.75-.148,7.895-.168,5.734-.016,6.141-.008,5.984.148-.039.039.422.035-6.129.078-3,.016-5.844.039-6.324.043S41.887,218.094,41.73,218.086Zm51.3-.2c-.1-.031-.066-.156.051-.2a13.9,13.9,0,0,1,2.93.09A18.269,18.269,0,0,1,93.031,217.891ZM45.938,217.3c-.234-.1-.031-.137.742-.141.438,0,.816,0,.836-.012.121-.02.215.016.215.078s-.109.074-.7.074c-.387,0-.762.008-.84.023A.6.6,0,0,1,45.938,217.3Zm45.137-.148c-.59-.031-.844-.1-.656-.176.125-.055,4.77-.055,4.824,0,.094.094-.172.125-1.391.152-.711.016-1.5.035-1.754.043S91.383,217.16,91.074,217.148ZM39.4,216.555c-.469-.176,0-.187,7.406-.2.465,0,2.164-.008,3.77-.012,3.691-.012,4.449.02,4.207.176-.055.035-6.887.039-7.223,0-.047,0-3.1.023-6.727.059C40.105,216.586,39.461,216.574,39.4,216.555Zm2.262-.754c-.16-.027-.137-.094.047-.129.3-.055,3.543-.043,3.6.012A17.534,17.534,0,0,1,41.664,215.8Zm4.133-.012c-.41-.035-.406-.113.012-.16,1.047-.121,8.551-.055,8.324.07C54,215.773,46.605,215.852,45.8,215.789Zm46.281-.2c-.176-.1.027-.133.949-.133.8,0,1.137.039.91.113A11.029,11.029,0,0,1,92.078,215.586Zm-53.285-.461c-.129-.027-.148-.141-.035-.184.129-.047,6.922-.039,7.012.012.141.078-.1.16-.437.148-.168-.008-1.68,0-3.367.02S38.852,215.137,38.793,215.125Zm7.875-.055c-.465-.027-.367-.129.137-.148.488-.016.605.012.465.117a.354.354,0,0,1-.191.059Zm45.7-.152c-.207-.086.1-.152.688-.152.563,0,.8.051.66.137A5.728,5.728,0,0,1,92.363,214.918Zm-55.281-.656c-.1-.121.207-.141,2.184-.133.094,0,.555-.012,1.023-.023,1.926-.047,13.84-.062,13.91-.02.168.109-.125.133-1.672.141-.887,0-3.68.016-6.207.035s-5.125.031-5.766.027-1.223,0-1.289,0-.57.012-1.121.023C37.3,214.332,37.133,214.324,37.082,214.262Zm-3.227-.746c-.434-.02-.543-.133-.172-.18.461-.055,4.18-.078,10.957-.07,3.934,0,7.793,0,8.574,0a6.039,6.039,0,0,1,1.5.047c.148.125-.066.145-1.742.141-.93,0-1.711.008-1.73.023C51.2,213.5,34.383,213.543,33.855,213.516Zm0,0" fill="#fff"/>
  </g>
</svg>
