<svg xmlns="http://www.w3.org/2000/svg" xmlns:xlink="http://www.w3.org/1999/xlink" width="61.34" height="128.664" viewBox="0 0 61.34 128.664">
  <defs>
    <clipPath id="clip-path">
      <path id="Path_433" data-name="Path 433" d="M24.41,423.656H85.75V552.32H24.41Zm0,0"/>
    </clipPath>
  </defs>
  <g id="Group_253" data-name="Group 253" transform="translate(-24.41 -423.656)" clip-path="url(#clip-path)">
    <path id="Path_432" data-name="Path 432" d="M51.391,506.254c-.344.434,1.148.91,1.773,1.109a4.041,4.041,0,0,1-2.66-.664c-.473.2.438,1.551-.223,2-.75-.32-.879-1.473-1.109-2.441-.277-1.16-.266-2.633-.664-3.988-1.207-4.1-3.73-8.875,1.551-9.977-.348.832-1.223,1.141-1.773,1.773.242.3,1.086-.676,1.551-.887.078.934-1.234.941-1.551,1.773-.531,1.414,1.031,3.066,3.328,3.105-1.094-.992.168-.9-.223-2.219-.461.055-.062.973-.445,1.109-.52-.07-.832-.352-1.551-.223.156-.887,1.039-.012,1.328-.445.266-3.387-1.039-5.539-.219-7.98,1.422-4.238,8.359-3.016,12.637-3.988a45.77,45.77,0,0,1-5.766-3.77c-.059-1.93-2.129-2.258-3.105-3.324s-1.031-2.617-2.215-3.547c-2.7-.152-4.1-2.883-6.43-3.77-2.086-.793-4.613-.156-7.316-.887,1.063,3.605.668,9.633.668,15.3,0,5.559.625,10.988-.223,15.516-.445,2.383-2.492,4.449-2.883,6.652-.77,4.379-.055,8.93-.223,13.078-.285,7.121-.246,14.012-.441,21.063-.1,3.621.324,7.371-.223,11.082a4.169,4.169,0,0,1-2.66.223c-.926-13.2-.289-26.512-.887-41.012-.105-2.555.355-4.574-.223-6.652-.3-1.082-1.516-1.926-1.992-3.324-.855-2.5-.453-6.871-.445-10.418.012-4.32-.207-8.855-.207-14.09,0-2.516-.215-5.492.207-7.191.313-1.262,1.523-1.621,2-3.105-.539-1.2-1.773-3.168-.664-4.656-.242-.645-1.059-.715-2-.664-.3-.516-.367-1.258-.664-1.773-2.348-.461-2.922-1.922-2.937-4.715.523-.07.441-.734,1.164-.605-.879,1.117-.551,1.746-.332,3.031,1.039,1.477,2.949.969,4.543-.59.094.461-.152.586-.223.887a2.731,2.731,0,0,1,1.551-.887c.055-3.125-.3-3.969,0-6.652-.156.719-1.133.277-.441-.223-.187-.383-1.016.445-1.109.887.574-.145.406,1.422.887,2-.727.375-.977-.117-1.551-.441-1.047.723-1.535,2.008-2.883,2.438.574-2.09,2.938-2.383,3.105-4.879.691-.559,1.352-1.16,1.992-1.773-.484-6.109-.453-11.375-.441-17.957-.758-1.234-1.891-2.1-1.551-4.434a1.987,1.987,0,0,0,.887-.887c3.391.164,6.172-.57,9.086-.219.523.063.844.492,1.332.664,1.422.5,2.734.547,3.988,1.109a16.074,16.074,0,0,1,2.883,2,55.684,55.684,0,0,1,7.094,5.539c3.355,3.383,5.3,8.855,8.426,12.859.641.824,1.605,1.371,2.215,2.215,2.379,3.289,3.531,7.5,5.988,10.645,5.148,4.754,5.672,14.129,8.645,21.059a8.957,8.957,0,0,1,4.211,2.66c.582,3.063,1.6,5.777,1.555,8.426-1.6-.691-4.008-.578-5.988-.887.422.793,1.8.5,2.66.664,1.227.238,2.512.43,3.105,1.109-1.973-.309-4.418-1.121-6.43-.668,2.113.7,5.055.563,6.43,2-2.777-.312-4.645-1.547-7.316-.887a59.615,59.615,0,0,1,6.871,1.773c-.82.664-2.184-.18-3.547-.445a25.591,25.591,0,0,0-4.211-.441c1.367,1.516,5.234.531,6.43,2.219-2.141-.156-4.488-1.273-6.652-.668a28.557,28.557,0,0,1,4.656,1.332c.742.25,1.668.141,2,.887A46.529,46.529,0,0,0,76,495.836c.715,1.039,2.488.781,3.77,1.109,1.2.309,2.617.7,3.1,1.551a44.245,44.245,0,0,0-7.094-1.328c1.254,1.332,4.508.664,5.32,2.438-2.453-.426-4.336-1.426-7.094-1.551,1.719,1.012,4.121,1.348,5.766,2.438-2.156.309-4.148-1.465-6.871-1.328,1.559.727,3.457,1.117,4.875,1.992-3.387-.2-5.8-1.988-10.2-1.992.527.625,1.7.621,2.66.887.91.25,2.184.188,2.441,1.105-1.848-.246-4.043-1.246-5.766-.887,1.063.863,3.449.395,3.992,1.773-1.895.16-5.051-1.418-7.316-.887,1.246.527,2.918.629,4.211,1.109-2.687.691-5.316-.594-8.2-.445,1.051.875,3.277.57,4.434,1.332-2.1.691-4.047-.68-6.426-.445.8,1.043,3.242.453,3.766,1.773a31.116,31.116,0,0,0-5.762-.887c.855.918,2.809.738,3.988,1.332-1.125,1.023-2.6-.766-4.434-.445a6.916,6.916,0,0,0,2.438,1.109c-1.012.637-2.164-.488-3.547-.223.645.617,1.781.734,2.664,1.109-1.281.535-2.4-1-4.215-.664a4.058,4.058,0,0,0,2.66,1.109C54.852,507.707,52.715,506.2,51.391,506.254ZM31,425.34c1.676.594,3.867,1.34,5.539,1.109-.047-.418.25-.488.223-.887-.332-.039-.816.078-.887-.223.551.035,1.078.043,1.109-.441C34.738,425.25,32.254,424,31,425.34Zm22.391,19.73c-.426.105-.957-.684-.887.223,1.1.523.969,2.281,1.992,2.883a1.446,1.446,0,0,0-.223,1.105c.879-.281.539.648,1.109.668.094-.238,1.215-.516,1.109-.223-.129.668-.445,1.879-1.109,1.328.676.7.227,1.3.223,2.441.793.633,1.258.484,1.551,1.328-.41.211-.738-.664-.887,0,.512.406,1.109.434,1.773,1.109-.422.414-.555.023-1.105,0a3.022,3.022,0,0,1-.445,1.773c-.25-.047-.344-.246-.441-.445a2.852,2.852,0,0,0,.664-1.773c-.836.125-.535,1.387-1.109,1.773-.27-.469-.832-.641-.887-1.328-.566-.238-.777.953-1.109.223.23-.512.766-.715.668-1.555-1.25.008-.531,1.984-2,1.773.238,1.371.125,2.234.664,2.883-.488-.586.84-.043.887.223.746-.414-.1-1.137.445-1.551.926.051-.254.824.441,1.105.094-.555.633.215.445.668-.441,0-.281-.605-.887-.445-.125.625-.773,1.875-.223,2.438.063-1.34,1.023-1.969,1.551-1.773.039.484-.18.707-.664.668.156.652.063,1.563.664,1.773.074-.969.934-2.312.445-3.105,0,.293-.617.281-.668,0,.328-.484.434-1.191.887-1.551.484.465-.109.633,0,1.328.883.121-.238-.785.887-.664-.27,1.227-1.059,2.387.223,2.438a.788.788,0,0,0,.445,1.332c-.344.633-.617,1.469,0,2-.359-1.285.645-1.215.664-1.332-.02.117-.93-.6-.223-.664.309-.027.551.5,1.109.664-.477,1.152-.047,1.254.441,1.109.184.578-.668,1.215,0,1.551.2-.387.078-1.105.445-1.328.926.051-.254.824.441,1.105-.16-.676.383-.652.223-1.328-.734.07-.836-.492-1.328-.664.047-.25.246-.348.441-.445.2.391.777.406,1.109.664-.121-1.137-1.895-.617-2-1.773,1.32.023,1.664,1.137,2.438,1.109a4.943,4.943,0,0,1-.441,1.332c1.086.051,0,1.289,1.328,1.328-.32.27-.3.887-.887.887-.543-.293.4-.668-.219-.887-.168,1.063-.8.859-1.777,1.109a6.461,6.461,0,0,1-2.879-.223c-.789-1.348-1.91-.785-3.105-1.109-.879-.234-1.863-.91-2.883-1.105-.332-.066-.789.117-1.105,0-.949-.352-1.383-1.152-2.219-1.555-1.762-.844-4.449-.371-6.871-.664-.395-.426-1.918-.875-2.437-.441.531.4.387,3.52-.223,4.211-.816-.711-.285-2.078.223-3.324-1.672-2.2-7.773-1.84-6.652,1.328.406,1.148,1.613.238.664,0,.324.121,1.148-.258,1.109.223,0,.293-.387.2-.441.441a2.774,2.774,0,0,0,2.879.668c-.043.93,1.285.488,1.332,1.328-.824-.219-.582-.473-1.551-.223a.8.8,0,0,0,.664,1.109c.023-.27.066-.523.441-.441.117.328.328.559.445.887.539-.145,1.141-.449,1.109.441.957-.312.816-.352,1.773-.664-.2.711.34.691.664.887.1-.562.957-.371,1.109-.887,0,.223.18.262.219.441-.02.352-.562.176-.441.668a4.515,4.515,0,0,0,2.438-1.109c0,.223.18.262.223.441.066.586-.859.176-.664.887a2.671,2.671,0,0,1,2.66.668c.035-.332-.082-.82.219-.887a2.484,2.484,0,0,0,1.109,1.551c-.027-.555-.422-.7.223-.887.375.7,1.348,2.7,1.773,1.328a1.44,1.44,0,0,1-.223,1.109c.859-.191.789.543,1.332.664.133-.395-.652-.918,0-1.105h.441c-.187,1.129-.117,1.121.664,1.551.039-.332-.078-.82.223-.887.25,1.387.6.6,1.332.887.164.684-.609.426-.445,1.109,1.23-.965.785,2.125,1.773,1.328-.289,0-.281-.613,0-.664a11.108,11.108,0,0,1,.887,2.215c1.277-.02,1.2,1.32,1.555,2.219,1.078-.652.891.934,1.551,1.328.2-.809-.965-1.379-.223-1.992.719.094.441,1.184.887,1.551-.133-.574.09-.8.664-.664v1.105h-.664c-.105.7.277.906.664,1.109-.066-.516-.473-.953.223-1.109.508.676.262,2.105,1.109,2.441-.016-.883-.8-2.141-.445-2.66.781.551.371,2.289,1.332,2.66.422-.852.523.441.887-.668.484.469.047.988-.223,1.332.648-.2.766-.285,1.109.223-.062-.508.051-.836.441-.887a2.61,2.61,0,0,0,.668,1.773c-.062-.508.051-.836.441-.887.039,1.512.914,2.188,1.328,3.324,1.367-.234,1.395-.6,2.219,0,.039-.332-.078-.82.223-.887.652.461.953.129,1.551.223-.551-.09-.168-1.016.445-.668-.07.52-.473.957.219,1.109.762-.383,1.273-.922,2-.223-.18-.844.473-.855.887-1.105.254.7-.348.539-.441.887,1.906-.016,2.738-1.105,4.652-1.109.031-.855.867-.91,1.773-.887a1.112,1.112,0,0,1,.668-.664c.145-1.395-.668-1.7-1.109-2.441-.8-1.332-1.383-2.953-2-4.211a7.542,7.542,0,0,1-.441-1.109c-.508-1.883-.875-3.812-1.332-5.1-.633-1.781-.91-3.887-1.551-5.1-3.02-5.719-7.7-10.9-10.2-16.848-1.75-1.8-3.863-3.23-4.434-6.207-1.7-1.184-2.219-3.543-3.766-4.879a12.091,12.091,0,0,0-6.207-6.426c.047-.422-.25-.492-.223-.891-1.895-.617-2.965-2.059-4.211-3.324-2.918-.273-4.918-2.605-7.984-2,.121.621.328,1.152.445,1.773-1.91,1.008-5.047-.184-6.871-.219,0-.629-.824-1.387-1.109-.445.355.406.945.641.664,1.332.3.453,1.055-.512.887.664a6.464,6.464,0,0,1,2.883.664.611.611,0,0,1,.441-.664c.371.441-.02.281,0,.887.605.16.445-.441.887-.445v.887c1.066-.855,1.121.758,1.332.668.359-.152-.574-1.086.441-.887.531-.09-.121,1.008.668.664.211-.414-.664-.742,0-.887.328.043.2.535.219.887.6-.2,1.047-.352,1.332.223.137-1.09.754-.328,1.551-.668.051.422-.25.492-.223.887,1.023-.332.918.008,1.332.668-.035-.551-.043-1.078.441-1.109.441.73.949-.551,1.109,0,.02.832-1.109.516-1.328,1.109.406.7.75-.746,1.105,0,.223.664-.492.391-.887.441.2.883,1.23.078.668,1.332.762-.172,1.059.121.887.887a1.056,1.056,0,0,0,.664-.223.6.6,0,0,1,0,.887c.41.086,1.566.141.887,1.109,1.348-.977.348,1.715,1.551.887v1.105c1.125-.383.516.965,1.332.891-.031-.555-.426-.7.219-.891.418.426.027.559,0,1.109.852-.406.984.129.668.887.293.543.668-.4.887.223-.387.738.109.984,0,2,.762.809,2.223.164,2.66.887-.637.508-1.543-.266-1.773.223C51.8,444.148,52.957,444.277,53.387,445.07ZM31.66,430.219c.313,11.129.109,20.535.664,29.7.371.566.6-.863,1.332-.664-.926,1.2,1.316.809,1.773,1.332-.07-10.457.148-19.992.219-29.93a6.711,6.711,0,0,0-3.988-1.109C31.629,429.816,31.266,430.055,31.66,430.219Zm8.422.223c.352-.023.77.027.668-.445H40.3C40.3,430.219,40.125,430.262,40.082,430.441Zm6.652,7.758c-.5-1.9-2.2-2.437-3.324-3.77-.758-.895-1.164-2.02-1.773-2.66-.914-.957-3.4-.664-5.1-.664.215,3.09-.355,8.3,0,11.527,2.547-2.883,9.344-2.18,13.523-.445C49.656,440.152,48,439.375,46.734,438.2Zm7.758,11.527c-.418-.051-.488.25-.887.223a1.247,1.247,0,0,1,.223-.887c-.414-.215-.742.664-.887,0a1.444,1.444,0,0,0,.223-1.109c-1.176-.156-.672-1.988-1.773-2.219,1.094-.723-.6-1.9-.887-2.66-2.574-.187-4.258-1.062-6.652-1.328a12.933,12.933,0,0,0-4.875.223c-.945.359-1.145,1.77-2.441,1.773a10.071,10.071,0,0,1-.219,2.879c1,1.137-.617,2.309,0,4.215.563-1.137.633.313.664.441.332-.555.551-1.223,1.109-1.551.238.566-.676,1.055,0,1.328.574-.531.328-1.887,1.328-1.992-.082.684-.754.859,0,1.328.352-.758.336-1.883,1.332-2-.1.422-.48.559-.445,1.109,1.125-.3.715-1.672,1.332-2,.715-.273.168.719.887.445.023-.566.039-1.141.664-1.109.938.066-.145.934.441,1.109a.615.615,0,0,1,.668-.445c-.273,1.668.855-.348,1.109,1.109.8-.844.438-1.766,1.328-2.215.18,1-1.133,1.66-.445,2.438.332-.262.262-.922.887-.887.652.375-.691,1,0,1.328.227-.441.387-.945.891-1.105.18.625-.312.574-.223,1.105.934.188.984-1.66,1.551-1.105,0,.68-1.379,1.113-.664,1.773.566-.469.7-1.375,1.551-1.555-.039.715-1.277,1.371-.664,2,.508-.387,1.078-1.867,1.551-1.551-.09.66-1.328,1.316-.664,2,.547-.277.758-2.035,1.551-1.332-.129.547-1.316,1.18-.664,1.773a.833.833,0,0,1,.887-.887c.672.395-.82.867,0,1.332-.039-.484.18-.707.664-.668.289.551-.648.922,0,1.109.406-1.062.605.324,1.551,0-.426-.793.086-.812.223-1.551-.625-.3-.555,1.176-.887.441C53.941,450.5,54.418,450.316,54.492,449.727Zm-3.547,3.988c.438.156-.055,1.238.445,1.332-.3-.969.855-.473.664-1.332-.906.07-.117-.461-.223-.887-.332-.035-.816.082-.887-.219.02-.352.566-.176.445-.668-.453-.445-.437.1-.887.223-.125-.984-1.039-1.18-2.219-1.109-.246-1.789-2.406-.379-3.324-1.773a1.313,1.313,0,0,1-1.773,0c0-.293.387-.2.441-.441-1.719-1.207-2.738,2.684-4.652,2-.605,1.168-2.316,1.23-2.883,2.438a18.783,18.783,0,0,0,.223,3.1c.332-.328.066-1.262.887-1.105.289.551-.652.918,0,1.105.422-.8,1.316-1.812.441-2.66.879-.578,1.063.676,1.109,1.109.32-.418.324-1.152.887-1.328.039.332-.078.816.223.887.621-.93.75-2.355,1.328-3.328.039.332-.078.82.223.887.238-.207.07-.816.664-.664.039.332-.078.816.223.887a1.559,1.559,0,0,1,.887-1.328c-.07.27.035,1.367.223.664-.121-2.2.625-.961,1.773-1.551.672.7.012,1.355.664,1.992.406-.523,1.328,1.621,1.773.445-.027,1.957.094.23.445.219.254-.008.215.637.664.668.23.016.273.48,1.109.887.09-.426.078-.953.664-.887C50.391,454.555,50.293,454.453,50.945,453.715Zm-.887,5.988c1.516-.258-.121,1.629.887,1.551.891-.668,1.949-1.551.668-2.219.133-.039.48-.012.441-.219-.23-1.219-2.4-3.3-3.988-3.547.047-.422-.25-.492-.223-.887-1.5-.023-2.367-1.457-3.77-.887v-.445c-.68-.16-.652.383-1.332.223v1.109c-1.441.031-1.723,1.23-3.1,1.328,0,1.527-1.43.762-1.773,2.219-.309-.578-1.148.16-1.551.219.1.844-.574,1.578,0,2.219H37.2c-.035-1.129,1.164-.484,1.551-.223.336-.4.234-1.242.664-1.551.395.41.648-.1,1.109-.223a.608.608,0,0,0,.445.664c.148-.937.348-.93.664-.219.051-.906.621-1.3.887-2,.363,0,.121.613.441.664.715-.762.148-1.816,1.109-2,.242.57-.672,1.059,0,1.332.73-.691.367.516.664.664.355-.457.207-1.422.887-1.551.16.68-.383.652-.219,1.328.871.355.074-.957.664-.887a1.234,1.234,0,0,0,.887-.219,1.816,1.816,0,0,0,.441,1.328c.047-.246.246-.344.445-.441-.031.289-.035,1.6.223.887.02-.348-.031-.77.441-.668.039.332-.078.82.223.887a1.554,1.554,0,0,1,.441-.664c-.031.93.117.535.445.223A8.327,8.327,0,0,1,50.059,459.7ZM31,460.145a3.513,3.513,0,0,0,.219-2.66c-1.273.129-1.48,1.328-3.1,1.109-.105,2.371,1.445.289,1.109,1.773.582-.734,1.313-.266,1.773-1.332C31.281,459.586,30.344,459.957,31,460.145Zm13.078-1.551c-1.254.246-2.66,1.535-3.77,2.438a11.762,11.762,0,0,0,3.547,0c2.992-.043,4.285,1.957,7.094,2.438-.3-1.551-1.852-1.84-1.773-3.766C47.2,459.035,45.992,458.215,44.074,458.594Zm-12.859,3.547c.063-.3-.137-.867-.219-.445C30.934,462,31.133,462.563,31.215,462.141Zm24.832-.223C55.371,462.664,56.863,462.59,56.047,461.918Zm-25.5,2c.707.313.559-1.328.223-1.332A1.91,1.91,0,0,0,30.551,463.914Zm1.551,1.773c.348-.68.773.387.887.664a2.687,2.687,0,0,1,2.219.668c.105-.7-.68-.5-.445-1.332-1.137.531-1.941-.551-2.66-1.109C31.773,464.984,31.508,465.328,32.1,465.688Zm2.66,36.578c-.574.688,1.207-.5,1.332.223-.266.844-2.316-.1-2.437.887.637.031,1.727-.617,2.215,0-.547.434-2.437-.18-3.1.664.906.23,2.137-.359,2.438,0-.4.484-1.73.043-2,.664.262.035.629-.039.664.223-.285.3-.961.219-1.551.223-.141-.484.629-.707-.223-.668-.3.605.391,2.117.223,3.328.461.133,1.457-.273,1.551.223-.8.078-1.066.336-1.773,0,.449,5.66.082,12.125.445,15.961.262.035.629-.039.664.223h-.664c-.234,7.324.133,14.711.441,23.941.324.121,1.148-.262,1.109.219a5.056,5.056,0,0,0-1.328.445c-.051.926.359,1.047,0,1.773.941-.055.516.371,1.105.664,1.215-.77.594-2.531.668-3.547.469-6.523-.2-15.449,0-21.945.133-4.516-.4-9.527.219-13.969.313-2.227.2-5.52.887-7.535.582-1.715,2.1-2.637,2.441-4.434a42.289,42.289,0,0,0,.219-5.1,84.6,84.6,0,0,0-.219-10.863c-.336-3.352.691-9.746,0-13.3-.687-3.523-3.844-2.66-6.652-3.992a6.014,6.014,0,0,0-2.215,4.879c.1,6.77-.09,18,.219,24.828.094,2.043.082,4.012,1.109,4.875a4.382,4.382,0,0,1,.887-1.105c-.633.043-1.211.027-1.109-.668.691-.031-.016-.742.887-.887-.988-.1-.328-.465-.664-1.105a4.908,4.908,0,0,1,2.883.219c-.156.438-1.238-.051-1.332.445.418.324,1.469.008,1.773.441-.422.184-2.2.145-1.773.445.6.137,1.762-.281,2,.223.039.629-1.449-.27-1.109.664.637.031,1.73-.617,2.219,0-.047.414-2.016.027-1.332.441.746.141,2.063-.285,2.441.223-.332.039-.82-.078-.887.223.715.184,1.914-.277,1.992,0-.582.523-2,.219-2.437.887.82.137,1.766-.875,2,0A11.164,11.164,0,0,1,34.762,502.266Zm46.777-19.953c-.32.121-.543-.863-.664-.219C81.1,482.066,81.32,483.047,81.539,482.313Zm.887.887a18.823,18.823,0,0,1-9.09,4.215c-5.375,1.023-15.84.789-19.508,3.547-1.773,1.328-2.375,3.789-1.773,6.648,6.6-.453,13.07-3.043,18.18-5.1,1.914-.77,4.148-1.367,5.762-2.219.5-.266.91-.941,1.551-1.328,2.281-1.375,5.734-2.547,5.543-5.766Zm-25.051,5.543c1.523-.3,3.117-.691,4.656-.887,1.238-.156,2.73.148,3.77-.664a12.478,12.478,0,0,1-2.219-2.66c-3.254,1.023-9.5.8-11.75,3.547,1.113.254-.984.66-.441,1.773.6.137,1.758-.281,1.992.223-.527.016-2.18,1.09-1.551.219-1.238-.172-1.07,2.426,0,2.441.395-3,3.566-2.57,4.879-4.215-.484-.02-1.434.609-1.555.223C55.813,488.512,56.957,487.969,57.375,488.742Zm25.273-1.551c.781-.2,1.141.57,1.328-.223C83.227,486.98,83.031,486.57,82.648,487.191Zm1.328.664C83.133,487.242,83,488.668,83.977,487.855Zm.664,1.109c-.945.063-1.094-.68-2.215-.445C82.539,489.156,84.3,489.293,84.641,488.965Zm.223,1.109a6.205,6.205,0,0,0-2.437-.668C82.543,490.188,84.273,490.508,84.863,490.074Zm-52.316,9.309c-.332.039-.82-.078-.887.223C31.992,499.566,32.477,499.684,32.547,499.383ZM34.32,501.6c-.324.121-1.145-.262-1.109.219C33.535,501.7,34.355,502.082,34.32,501.6Zm0,0" fill="#fff" fill-rule="evenodd"/>
  </g>
</svg>
